<svg width="393" height="393" viewBox="0 0 393 393" fill="none" xmlns="http://www.w3.org/2000/svg">
<path d="M228.73 124.9C228.581 125.018 229.131 126.118 226.325 125.23C219.408 123.037 207.516 118.211 205.236 110.367C201.982 99.1739 216.594 105.391 216.916 99.9913C217.239 94.5915 199.782 92.7601 199.184 84.6565C198.587 76.5528 209.732 82.1413 210.495 78.3685C211.257 74.5957 197.353 74.8 196.001 65.9497C194.649 57.0993 203.861 64.9279 203.279 61.2337C202.698 57.5395 193.769 39.8781 200.253 39.0292C206.738 38.1803 214.676 56.109 218.331 59.0486C221.986 61.9882 227.716 49.3022 231.693 55.6688C235.67 62.0354 224.863 80.4278 230.412 85.2067C234.546 88.7673 234.491 80.7579 240.308 83.1788C248.207 86.4564 240.834 115.043 228.73 124.9Z" fill="#92E3A9"/>
<g opacity="0.2">
<path d="M228.73 124.9C228.581 125.018 229.131 126.118 226.325 125.23C219.408 123.037 207.516 118.211 205.236 110.367C201.982 99.1739 216.594 105.391 216.916 99.9913C217.239 94.5915 199.782 92.7601 199.184 84.6565C198.587 76.5528 209.732 82.1413 210.495 78.3685C211.257 74.5957 197.353 74.8 196.001 65.9497C194.649 57.0993 203.861 64.9279 203.279 61.2337C202.698 57.5395 193.769 39.8781 200.253 39.0292C206.738 38.1803 214.676 56.109 218.331 59.0486C221.986 61.9882 227.716 49.3022 231.693 55.6688C235.67 62.0354 224.863 80.4278 230.412 85.2067C234.546 88.7673 234.491 80.7579 240.308 83.1788C248.207 86.4564 240.834 115.043 228.73 124.9Z" fill="white"/>
</g>
<path d="M216.5 74.5328C216.5 74.5328 236.331 102.302 225.209 150.429" stroke="#5C5C5C" stroke-linecap="round" stroke-linejoin="round"/>
<path d="M210.393 78.7222C217.278 79.689 220.721 82.3771 220.721 82.3771" stroke="#5C5C5C" stroke-linecap="round" stroke-linejoin="round"/>
<path d="M224.594 62.3184C224.594 62.3184 228.736 75.869 223.572 89.6712" stroke="#5C5C5C" stroke-linecap="round" stroke-linejoin="round"/>
<path d="M227.18 104.244C227.18 104.244 223.431 96.7845 214.832 96.753" stroke="#5C5C5C" stroke-linecap="round" stroke-linejoin="round"/>
<path d="M228.352 113.911C228.352 113.911 233.901 107.977 235.889 97.4919" stroke="#5C5C5C" stroke-linecap="round" stroke-linejoin="round"/>
<path d="M302.315 40.5855C296.609 37.3157 282.484 50.8978 277.949 52.2183C273.414 53.5387 273.029 43.5251 266.945 47.9188C260.861 52.3126 263.864 73.4088 256.908 75.7275C251.736 77.4489 254.487 68.0562 248.521 70.0919C238.083 73.6525 242.548 114.061 245.479 114.304C252.711 114.902 265.514 108.967 270.789 102.734C276.063 96.5015 262.017 99.6455 263.77 94.5208C265.522 89.3961 282.366 94.3479 285.998 87.0774C289.629 79.8069 277.194 80.7422 277.925 76.9615C278.656 73.1809 291.382 74.7686 296.003 67.0894C300.625 59.4102 289.094 63.1594 291.067 59.9682C293.04 56.7771 308.013 43.8474 302.299 40.5855" fill="#92E3A9"/>
<path opacity="0.1" d="M302.315 40.5855C296.609 37.3157 282.484 50.8978 277.949 52.2183C273.414 53.5387 273.029 43.5251 266.945 47.9188C260.861 52.3126 263.864 73.4088 256.908 75.7275C251.736 77.4489 254.487 68.0562 248.521 70.0919C238.083 73.6525 242.548 114.061 245.479 114.304C252.711 114.902 265.514 108.967 270.789 102.734C276.063 96.5015 262.017 99.6455 263.77 94.5208C265.522 89.3961 282.366 94.3479 285.998 87.0774C289.629 79.8069 277.194 80.7422 277.925 76.9615C278.656 73.1809 291.382 74.7686 296.003 67.0894C300.625 59.4102 289.094 63.1594 291.067 59.9682C293.04 56.7771 308.013 43.8474 302.299 40.5855" fill="black"/>
<path d="M282.642 60.4241C282.642 60.4241 249.237 83.2181 235.953 142.168" stroke="#5C5C5C" stroke-linecap="round" stroke-linejoin="round"/>
<path d="M293.952 69.5653C282.389 65.3052 274.647 67.5374 274.176 67.6789" stroke="#5C5C5C" stroke-linecap="round" stroke-linejoin="round"/>
<path d="M267.455 74.973C267.691 64.9829 271.165 56.2662 274.23 50.4576" stroke="#5C5C5C" stroke-linecap="round" stroke-linejoin="round"/>
<path d="M256.545 90.3C256.545 90.3 264.334 83.226 274.277 86.7944" stroke="#5C5C5C" stroke-linecap="round" stroke-linejoin="round"/>
<path d="M250.752 100.997C250.752 100.997 247.098 91.8248 249.644 78.8794" stroke="#5C5C5C" stroke-linecap="round" stroke-linejoin="round"/>
<path d="M120.929 279.883C120.772 280.001 121.259 281.125 118.508 280.088C111.717 277.517 100.116 272.039 98.2688 264.085C95.6357 252.727 109.886 259.738 110.507 254.362C111.128 248.985 93.7886 246.203 93.6392 238.084C93.4899 229.964 104.313 236.15 105.28 232.417C106.247 228.683 92.3738 228.133 91.4935 219.22C90.6131 210.306 99.4321 218.63 99.0155 214.912C98.5989 211.195 90.6524 193.069 97.2155 192.582C103.779 192.095 110.68 210.424 114.193 213.568C117.707 216.712 124.105 204.349 127.689 210.927C131.273 217.506 119.507 235.293 124.781 240.347C128.711 244.128 129.096 236.127 134.778 238.862C142.489 242.572 133.552 270.703 120.929 279.883Z" fill="#92E3A9"/>
<g opacity="0.1">
<path d="M120.929 279.883C120.772 280.001 121.259 281.125 118.508 280.088C111.717 277.517 100.116 272.039 98.2688 264.085C95.6357 252.727 109.886 259.738 110.507 254.362C111.128 248.985 93.7886 246.203 93.6392 238.084C93.4899 229.964 104.313 236.15 105.28 232.417C106.247 228.683 92.3738 228.133 91.4935 219.22C90.6131 210.306 99.4321 218.63 99.0155 214.912C98.5989 211.195 90.6524 193.069 97.2155 192.582C103.779 192.095 110.68 210.424 114.193 213.568C117.707 216.712 124.105 204.349 127.689 210.927C131.273 217.506 119.507 235.293 124.781 240.347C128.711 244.128 129.096 236.127 134.778 238.862C142.489 242.572 133.552 270.703 120.929 279.883Z" fill="black"/>
</g>
<path d="M111.482 228.919C111.482 228.919 129.757 257.702 116.033 305.161" stroke="#5C5C5C" stroke-linecap="round" stroke-linejoin="round"/>
<path d="M105.154 232.778C111.977 234.122 115.27 236.991 115.27 236.991" stroke="#5C5C5C" stroke-linecap="round" stroke-linejoin="round"/>
<path d="M120.238 217.168C120.238 217.168 123.633 230.931 117.723 244.435" stroke="#5C5C5C" stroke-linecap="round" stroke-linejoin="round"/>
<path d="M120.521 259.18C120.521 259.18 117.181 251.524 108.605 251.021" stroke="#5C5C5C" stroke-linecap="round" stroke-linejoin="round"/>
<path d="M121.125 268.934C121.125 268.934 126.989 263.306 129.551 252.947" stroke="#5C5C5C" stroke-linecap="round" stroke-linejoin="round"/>
<path d="M123.815 322.382C120.231 325.699 110.987 327.884 105.611 326.76C100.235 325.636 108.975 321.486 105.91 319.498C102.844 317.509 96.0062 327.098 91.0623 324.74C86.1183 322.382 93.098 317.729 91.133 316.023C89.168 314.318 83.1001 320.472 77.4409 318.319C71.7817 316.165 79.4609 313.359 77.095 312.494C74.7292 311.63 61.4222 310.985 63.0964 306.89C64.7706 302.795 77.881 304.116 80.8285 302.96C83.776 301.805 79.8225 296.311 84.8607 296.122C89.899 295.933 97.0909 308.321 101.76 306.662C105.218 305.428 99.8497 301.592 103.858 300.193C110.869 297.741 125.285 320.999 123.815 322.382Z" fill="#92E3A9"/>
<path d="M78.627 307.11C78.627 307.11 112.708 308.682 137.53 334.408" stroke="#5C5C5C" stroke-linecap="round" stroke-linejoin="round"/>
<path d="M85.5508 315.756C88.1493 313.399 91.2045 311.601 94.5269 310.474" stroke="#5C5C5C" stroke-linecap="round" stroke-linejoin="round"/>
<path d="M83.9395 300.233C83.9395 300.233 93.7645 302.999 100.107 311.59" stroke="#5C5C5C" stroke-linecap="round" stroke-linejoin="round"/>
<path d="M106.727 313.736C104.918 313.708 103.13 314.136 101.529 314.979C99.9272 315.822 98.5634 317.054 97.5625 318.562" stroke="#5C5C5C" stroke-linecap="round" stroke-linejoin="round"/>
<path d="M116.63 318.185C115.298 313.952 112.887 310.138 109.635 307.118" stroke="#5C5C5C" stroke-linecap="round" stroke-linejoin="round"/>
<path d="M57.4048 233.438C63.7321 229.823 79.4128 244.867 84.396 246.337C89.3793 247.806 89.8509 236.692 96.5633 241.566C103.276 246.439 99.9824 269.814 107.685 272.377C113.423 274.287 110.365 263.88 116.976 266.128C128.546 270.058 123.602 314.86 120.348 315.127C112.338 315.788 98.151 309.217 92.3111 302.308C86.4711 295.399 102.034 298.889 100.085 293.206C98.1353 287.523 79.4757 293.009 75.4514 284.961C71.427 276.912 85.2135 277.942 84.396 273.744C83.5786 269.547 69.462 271.316 64.3766 262.811C59.2912 254.307 72.0401 258.433 69.8786 254.951C67.7171 251.469 51.1011 237.085 57.4284 233.47" fill="#92E3A9"/>
<path opacity="0.3" d="M57.4048 233.438C63.7321 229.823 79.4128 244.867 84.396 246.337C89.3793 247.806 89.8509 236.692 96.5633 241.566C103.276 246.439 99.9824 269.814 107.685 272.377C113.423 274.287 110.365 263.88 116.976 266.128C128.546 270.058 123.602 314.86 120.348 315.127C112.338 315.788 98.151 309.217 92.3111 302.308C86.4711 295.399 102.034 298.889 100.085 293.206C98.1353 287.523 79.4757 293.009 75.4514 284.961C71.427 276.912 85.2135 277.942 84.396 273.744C83.5786 269.547 69.462 271.316 64.3766 262.811C59.2912 254.307 72.0401 258.433 69.8786 254.951C67.7171 251.469 51.1011 237.085 57.4284 233.47" fill="white"/>
<path d="M79.2012 255.431C79.2012 255.431 116.222 280.724 130.936 345.962" stroke="#5C5C5C" stroke-linecap="round" stroke-linejoin="round"/>
<path d="M66.6797 265.547C79.4915 260.831 88.0667 263.306 88.5855 263.464" stroke="#5C5C5C" stroke-linecap="round" stroke-linejoin="round"/>
<path d="M96.0376 271.544C95.7703 260.477 91.9268 250.809 88.5312 244.38" stroke="#5C5C5C" stroke-linecap="round" stroke-linejoin="round"/>
<path d="M108.093 288.537C108.093 288.537 99.4945 280.724 88.4434 284.654" stroke="#5C5C5C" stroke-linecap="round" stroke-linejoin="round"/>
<path d="M114.539 300.374C114.539 300.374 118.595 290.211 115.765 275.867" stroke="#5C5C5C" stroke-linecap="round" stroke-linejoin="round"/>
<path d="M295.35 98.6316H122.619V352.572H295.35V98.6316Z" fill="#263238"/>
<path d="M288.356 349.381H112.811L121.315 248.616C122.789 231.158 123.355 213.636 123.013 196.119L121.048 95.4404H292.844L293.63 218.937C293.703 228.893 293.504 238.849 293.032 248.805L288.356 349.381Z" fill="#BFBFBF" stroke="#263238" stroke-linecap="round" stroke-linejoin="round"/>
<path d="M281.014 345.962H103.59L109.029 317.713C120.607 248.616 123.491 218.017 121.888 128.476L120.064 92.0213H288.386L290.367 126.448C294.627 276.283 281.014 345.962 281.014 345.962Z" fill="white" stroke="#263238" stroke-linecap="round" stroke-linejoin="round"/>
<path d="M130.032 104.833C128.816 104.833 127.651 104.35 126.791 103.491C125.932 102.632 125.449 101.466 125.449 100.251C125.449 99.0354 125.932 97.8699 126.791 97.0105C127.651 96.1511 128.816 95.6684 130.032 95.6684C130.213 95.6684 130.387 95.7404 130.515 95.8686C130.643 95.9969 130.715 96.1708 130.715 96.3522C130.715 96.5335 130.643 96.7075 130.515 96.8357C130.387 96.9639 130.213 97.036 130.032 97.036C129.396 97.036 128.774 97.2245 128.246 97.5778C127.717 97.931 127.305 98.4331 127.062 99.0205C126.818 99.6079 126.755 100.254 126.879 100.878C127.003 101.501 127.309 102.074 127.758 102.524C128.208 102.973 128.781 103.28 129.404 103.404C130.028 103.528 130.674 103.464 131.262 103.221C131.849 102.977 132.351 102.565 132.705 102.037C133.058 101.508 133.246 100.887 133.246 100.251C133.246 100.069 133.318 99.8954 133.447 99.7672C133.575 99.639 133.749 99.5669 133.93 99.5669C134.112 99.5669 134.285 99.639 134.414 99.7672C134.542 99.8954 134.614 100.069 134.614 100.251C134.612 101.465 134.128 102.63 133.27 103.489C132.411 104.348 131.246 104.831 130.032 104.833Z" fill="#263238"/>
<path d="M129.921 102.939C125.74 102.939 125.512 93.892 125.504 92.0842V92.0213C125.504 90.1978 125.716 81.1116 129.921 81.1116C134.126 81.1116 134.417 90.9209 134.441 92.0449L130.802 92.1156C130.795 90.0058 130.49 87.9075 129.898 85.8827C129.348 87.8816 129.083 89.9483 129.112 92.0213V92.0842C129.073 94.1681 129.337 96.2467 129.898 98.2543C129.898 98.1207 129.984 97.9792 130.031 97.8141L130.314 96.8238L132.853 97.5626C133.108 97.6375 133.323 97.81 133.451 98.0427C133.579 98.2753 133.61 98.5491 133.537 98.8045C132.814 101.516 131.588 102.939 129.921 102.939Z" fill="#BFBFBF" stroke="#263238" stroke-linecap="round" stroke-linejoin="round"/>
<path d="M133.93 100.935C133.749 100.935 133.575 100.863 133.447 100.734C133.318 100.606 133.246 100.432 133.246 100.251C133.246 99.8286 133.163 99.4105 133.002 99.0205C132.84 98.6305 132.603 98.2761 132.305 97.9776C132.006 97.6791 131.652 97.4423 131.262 97.2807C130.872 97.1191 130.454 97.036 130.031 97.036C129.85 97.036 129.676 96.9639 129.548 96.8357C129.42 96.7075 129.348 96.5335 129.348 96.3522C129.348 96.1708 129.42 95.9969 129.548 95.8686C129.676 95.7404 129.85 95.6684 130.031 95.6684C131.246 95.6704 132.411 96.1539 133.269 97.0128C134.128 97.8717 134.612 99.036 134.614 100.251C134.614 100.432 134.542 100.606 134.414 100.734C134.285 100.863 134.111 100.935 133.93 100.935Z" fill="#263238"/>
<path d="M151.621 104.833C150.406 104.833 149.241 104.35 148.381 103.491C147.522 102.632 147.039 101.466 147.039 100.251C147.039 99.0354 147.522 97.8699 148.381 97.0105C149.241 96.1511 150.406 95.6684 151.621 95.6684C151.803 95.6684 151.977 95.7404 152.105 95.8686C152.233 95.9969 152.305 96.1708 152.305 96.3522C152.305 96.5335 152.233 96.7075 152.105 96.8357C151.977 96.9639 151.803 97.036 151.621 97.036C150.986 97.036 150.364 97.2245 149.835 97.5778C149.307 97.931 148.895 98.4331 148.651 99.0205C148.408 99.6079 148.344 100.254 148.468 100.878C148.593 101.501 148.899 102.074 149.348 102.524C149.798 102.973 150.371 103.28 150.994 103.404C151.618 103.528 152.264 103.464 152.852 103.221C153.439 102.977 153.941 102.565 154.294 102.037C154.648 101.508 154.836 100.887 154.836 100.251C154.836 100.069 154.908 99.8954 155.036 99.7672C155.165 99.639 155.339 99.5669 155.52 99.5669C155.701 99.5669 155.875 99.639 156.004 99.7672C156.132 99.8954 156.204 100.069 156.204 100.251C156.202 101.465 155.718 102.63 154.859 103.489C154 104.348 152.836 104.831 151.621 104.833Z" fill="#263238"/>
<path d="M151.513 102.939C147.332 102.939 147.104 93.892 147.096 92.0842V92.0213C147.096 90.1978 147.308 81.1116 151.513 81.1116C155.718 81.1116 156.04 90.9209 156.04 92.0842L152.401 92.1549C152.394 90.0451 152.09 87.9468 151.497 85.922C150.947 87.9209 150.683 89.9876 150.711 92.0606V92.0842C150.68 94.1677 150.945 96.2451 151.497 98.2543C151.544 98.1207 151.584 97.9792 151.631 97.8141L151.914 96.8238L154.468 97.5862C154.722 97.6627 154.935 97.8359 155.061 98.0684C155.188 98.3008 155.218 98.5738 155.144 98.8281C154.406 101.516 153.179 102.939 151.513 102.939Z" fill="#BFBFBF" stroke="#263238" stroke-linecap="round" stroke-linejoin="round"/>
<path d="M155.522 100.935C155.34 100.935 155.167 100.863 155.038 100.734C154.91 100.606 154.838 100.432 154.838 100.251C154.838 99.3981 154.499 98.5805 153.896 97.9776C153.294 97.3747 152.476 97.036 151.623 97.036C151.442 97.036 151.268 96.9639 151.14 96.8357C151.012 96.7075 150.939 96.5335 150.939 96.3522C150.939 96.1708 151.012 95.9969 151.14 95.8686C151.268 95.7404 151.442 95.6684 151.623 95.6684C152.838 95.6704 154.002 96.1539 154.861 97.0128C155.72 97.8717 156.204 99.036 156.206 100.251C156.206 100.432 156.134 100.606 156.005 100.734C155.877 100.863 155.703 100.935 155.522 100.935Z" fill="#263238"/>
<path d="M173.213 104.833C171.998 104.833 170.832 104.35 169.973 103.491C169.114 102.632 168.631 101.466 168.631 100.251C168.631 99.0354 169.114 97.8699 169.973 97.0105C170.832 96.1511 171.998 95.6684 173.213 95.6684C173.395 95.6684 173.569 95.7404 173.697 95.8686C173.825 95.9969 173.897 96.1708 173.897 96.3522C173.897 96.5335 173.825 96.7075 173.697 96.8357C173.569 96.9639 173.395 97.036 173.213 97.036C172.577 97.036 171.956 97.2245 171.427 97.5778C170.899 97.931 170.487 98.4331 170.243 99.0205C170 99.6079 169.936 100.254 170.06 100.878C170.184 101.501 170.49 102.074 170.94 102.524C171.39 102.973 171.962 103.28 172.586 103.404C173.21 103.528 173.856 103.464 174.443 103.221C175.031 102.977 175.533 102.565 175.886 102.037C176.239 101.508 176.428 100.887 176.428 100.251C176.428 100.069 176.5 99.8954 176.628 99.7672C176.757 99.639 176.93 99.5669 177.112 99.5669C177.293 99.5669 177.467 99.639 177.595 99.7672C177.724 99.8954 177.796 100.069 177.796 100.251C177.794 101.465 177.31 102.63 176.451 103.489C175.592 104.348 174.428 104.831 173.213 104.833Z" fill="#263238"/>
<path d="M173.111 102.939C168.921 102.939 168.693 93.892 168.693 92.0842V92.0213C168.693 90.1978 168.906 81.1116 173.111 81.1116C177.316 81.1116 177.607 90.9209 177.622 92.0449L173.983 92.1156C173.976 90.0058 173.672 87.9075 173.079 85.8827C172.529 87.8816 172.265 89.9483 172.293 92.0213V92.0842C172.262 94.1677 172.527 96.2451 173.079 98.2543C173.126 98.1207 173.166 97.9792 173.213 97.8141L173.504 96.8238L176.042 97.5626C176.296 97.6391 176.509 97.8123 176.635 98.0448C176.762 98.2772 176.792 98.5502 176.718 98.8045C175.995 101.516 174.769 102.939 173.111 102.939Z" fill="#BFBFBF" stroke="#263238" stroke-linecap="round" stroke-linejoin="round"/>
<path d="M177.112 100.935C176.93 100.935 176.756 100.863 176.628 100.734C176.5 100.606 176.428 100.432 176.428 100.251C176.428 99.3981 176.089 98.5805 175.486 97.9776C174.883 97.3747 174.066 97.036 173.213 97.036C173.032 97.036 172.858 96.9639 172.73 96.8357C172.601 96.7075 172.529 96.5335 172.529 96.3522C172.529 96.1708 172.601 95.9969 172.73 95.8686C172.858 95.7404 173.032 95.6684 173.213 95.6684C174.428 95.6704 175.592 96.1539 176.451 97.0128C177.31 97.8717 177.793 99.036 177.795 100.251C177.795 100.432 177.723 100.606 177.595 100.734C177.467 100.863 177.293 100.935 177.112 100.935Z" fill="#263238"/>
<path d="M194.813 104.833C193.598 104.833 192.432 104.35 191.573 103.491C190.713 102.632 190.23 101.466 190.23 100.251C190.23 99.0354 190.713 97.8699 191.573 97.0105C192.432 96.1511 193.598 95.6684 194.813 95.6684C194.994 95.6684 195.168 95.7404 195.296 95.8686C195.425 95.9969 195.497 96.1708 195.497 96.3522C195.497 96.5335 195.425 96.7075 195.296 96.8357C195.168 96.9639 194.994 97.036 194.813 97.036C194.177 97.0344 193.554 97.2217 193.025 97.5739C192.495 97.9262 192.082 98.4278 191.837 99.0151C191.593 99.6023 191.528 100.249 191.651 100.873C191.774 101.497 192.08 102.071 192.529 102.521C192.978 102.971 193.551 103.278 194.175 103.403C194.799 103.528 195.446 103.465 196.033 103.222C196.621 102.978 197.124 102.566 197.477 102.038C197.831 101.509 198.02 100.887 198.02 100.251C198.02 100.069 198.092 99.8954 198.22 99.7672C198.348 99.639 198.522 99.5669 198.704 99.5669C198.885 99.5669 199.059 99.639 199.187 99.7672C199.315 99.8954 199.387 100.069 199.387 100.251C199.387 101.465 198.906 102.629 198.048 103.488C197.19 104.347 196.027 104.831 194.813 104.833Z" fill="#263238"/>
<path d="M194.702 102.939C190.513 102.939 190.285 93.892 190.285 92.0842V92.0213C190.285 90.1978 190.497 81.1116 194.702 81.1116C198.908 81.1116 199.198 90.9209 199.222 92.0449L195.575 92.1156C195.572 90.0055 195.267 87.9067 194.671 85.8827C194.121 87.8816 193.857 89.9483 193.885 92.0213V92.0842C193.849 94.168 194.114 96.246 194.671 98.2543C194.71 98.1207 194.757 97.9792 194.797 97.8141L195.088 96.8238L197.697 97.5862C197.95 97.6627 198.164 97.8359 198.29 98.0684C198.417 98.3008 198.446 98.5738 198.373 98.8281C197.587 101.516 196.369 102.939 194.702 102.939Z" fill="#BFBFBF" stroke="#263238" stroke-linecap="round" stroke-linejoin="round"/>
<path d="M198.703 100.935C198.522 100.935 198.348 100.863 198.22 100.734C198.092 100.606 198.02 100.432 198.02 100.251C198.02 99.3995 197.682 98.583 197.081 97.9803C196.48 97.3777 195.664 97.0381 194.813 97.036C194.631 97.036 194.457 96.9639 194.329 96.8357C194.201 96.7075 194.129 96.5335 194.129 96.3522C194.129 96.1708 194.201 95.9969 194.329 95.8686C194.457 95.7404 194.631 95.6684 194.813 95.6684C196.027 95.6704 197.19 96.1541 198.048 97.0133C198.906 97.8724 199.387 99.0368 199.387 100.251C199.387 100.432 199.315 100.606 199.187 100.734C199.059 100.863 198.885 100.935 198.703 100.935Z" fill="#263238"/>
<path d="M216.27 104.833C215.055 104.833 213.889 104.35 213.03 103.491C212.17 102.632 211.688 101.466 211.688 100.251C211.688 99.0354 212.17 97.8699 213.03 97.0105C213.889 96.1511 215.055 95.6684 216.27 95.6684C216.451 95.6684 216.625 95.7404 216.753 95.8686C216.882 95.9969 216.954 96.1708 216.954 96.3522C216.954 96.5335 216.882 96.7075 216.753 96.8357C216.625 96.9639 216.451 97.036 216.27 97.036C215.634 97.036 215.013 97.2245 214.484 97.5778C213.955 97.931 213.543 98.4331 213.3 99.0205C213.057 99.6079 212.993 100.254 213.117 100.878C213.241 101.501 213.547 102.074 213.997 102.524C214.446 102.973 215.019 103.28 215.643 103.404C216.266 103.528 216.913 103.464 217.5 103.221C218.088 102.977 218.59 102.565 218.943 102.037C219.296 101.508 219.485 100.887 219.485 100.251C219.474 100.155 219.484 100.059 219.514 99.9674C219.543 99.8761 219.592 99.792 219.656 99.7206C219.72 99.6492 219.798 99.5921 219.886 99.553C219.974 99.5139 220.069 99.4937 220.165 99.4937C220.26 99.4937 220.355 99.5139 220.443 99.553C220.531 99.5921 220.609 99.6492 220.673 99.7206C220.737 99.792 220.786 99.8761 220.815 99.9674C220.845 100.059 220.855 100.155 220.844 100.251C220.844 101.465 220.363 102.629 219.505 103.488C218.647 104.347 217.484 104.831 216.27 104.833Z" fill="#263238"/>
<path d="M216.161 102.939C211.972 102.939 211.744 93.892 211.744 92.0842V92.0213C211.744 90.1978 211.956 81.1116 216.161 81.1116C220.367 81.1116 220.657 90.9209 220.681 92.0449L217.034 92.1156C217.031 90.0055 216.726 87.9067 216.13 85.8827C215.593 87.8835 215.342 89.9501 215.383 92.0213V92.0842C215.348 94.168 215.612 96.246 216.169 98.2543C216.169 98.1207 216.256 97.9792 216.295 97.8141L216.562 96.8002L219.101 97.539C219.354 97.6155 219.567 97.7888 219.694 98.0212C219.821 98.2537 219.85 98.5266 219.777 98.7809C219.054 101.516 217.828 102.939 216.161 102.939Z" fill="#BFBFBF" stroke="#263238" stroke-linecap="round" stroke-linejoin="round"/>
<path d="M220.162 100.935C220.073 100.935 219.984 100.917 219.902 100.882C219.819 100.848 219.745 100.797 219.682 100.734C219.619 100.67 219.569 100.595 219.536 100.512C219.502 100.429 219.485 100.34 219.486 100.251C219.486 99.3981 219.148 98.5805 218.545 97.9776C217.942 97.3747 217.124 97.036 216.272 97.036C216.09 97.036 215.916 96.9639 215.788 96.8357C215.66 96.7075 215.588 96.5335 215.588 96.3522C215.588 96.1708 215.66 95.9969 215.788 95.8686C215.916 95.7404 216.09 95.6684 216.272 95.6684C217.486 95.6704 218.649 96.1541 219.507 97.0133C220.365 97.8724 220.846 99.0368 220.846 100.251C220.846 100.432 220.774 100.606 220.646 100.734C220.518 100.863 220.344 100.935 220.162 100.935Z" fill="#263238"/>
<path d="M237.862 104.833C236.646 104.833 235.481 104.35 234.621 103.491C233.762 102.632 233.279 101.466 233.279 100.251C233.279 99.0354 233.762 97.8699 234.621 97.0105C235.481 96.1511 236.646 95.6684 237.862 95.6684C238.043 95.6684 238.217 95.7404 238.345 95.8686C238.473 95.9969 238.546 96.1708 238.546 96.3522C238.546 96.5335 238.473 96.7075 238.345 96.8357C238.217 96.9639 238.043 97.036 237.862 97.036C237.226 97.036 236.604 97.2245 236.076 97.5778C235.547 97.931 235.135 98.4331 234.892 99.0205C234.648 99.6079 234.585 100.254 234.709 100.878C234.833 101.501 235.139 102.074 235.589 102.524C236.038 102.973 236.611 103.28 237.235 103.404C237.858 103.528 238.504 103.464 239.092 103.221C239.679 102.977 240.181 102.565 240.535 102.037C240.888 101.508 241.076 100.887 241.076 100.251C241.076 100.069 241.148 99.8954 241.277 99.7672C241.405 99.639 241.579 99.5669 241.76 99.5669C241.942 99.5669 242.116 99.639 242.244 99.7672C242.372 99.8954 242.444 100.069 242.444 100.251C242.442 101.465 241.959 102.63 241.1 103.489C240.241 104.348 239.076 104.831 237.862 104.833Z" fill="#263238"/>
<path d="M237.785 102.939C233.595 102.939 233.367 93.892 233.367 92.0842V92.0213C233.367 90.1978 233.579 81.1116 237.785 81.1116C241.99 81.1116 242.28 90.9209 242.304 92.0449L238.657 92.1156C238.658 90.0052 238.353 87.9058 237.753 85.8827C237.224 87.8848 236.975 89.9508 237.014 92.0213V92.0842C236.975 94.1681 237.24 96.2467 237.8 98.2543C237.84 98.1207 237.887 97.9792 237.926 97.8141L238.217 96.8238L240.756 97.5626C241.009 97.6391 241.222 97.8123 241.349 98.0448C241.475 98.2772 241.505 98.5502 241.432 98.8045C240.646 101.516 239.419 102.939 237.785 102.939Z" fill="#BFBFBF" stroke="#263238" stroke-linecap="round" stroke-linejoin="round"/>
<path d="M241.76 100.935C241.579 100.935 241.405 100.863 241.277 100.734C241.148 100.606 241.076 100.432 241.076 100.251C241.076 99.3981 240.738 98.5805 240.135 97.9776C239.532 97.3747 238.714 97.036 237.862 97.036C237.68 97.036 237.506 96.9639 237.378 96.8357C237.25 96.7075 237.178 96.5335 237.178 96.3522C237.178 96.1708 237.25 95.9969 237.378 95.8686C237.506 95.7404 237.68 95.6684 237.862 95.6684C239.076 95.6704 240.241 96.1539 241.099 97.0128C241.958 97.8717 242.442 99.036 242.444 100.251C242.444 100.432 242.372 100.606 242.244 100.734C242.115 100.863 241.941 100.935 241.76 100.935Z" fill="#263238"/>
<path d="M259.453 104.833C258.238 104.833 257.073 104.35 256.213 103.491C255.354 102.632 254.871 101.466 254.871 100.251C254.871 99.0354 255.354 97.8699 256.213 97.0105C257.073 96.1511 258.238 95.6684 259.453 95.6684C259.635 95.6684 259.809 95.7404 259.937 95.8686C260.065 95.9969 260.137 96.1708 260.137 96.3522C260.137 96.5335 260.065 96.7075 259.937 96.8357C259.809 96.9639 259.635 97.036 259.453 97.036C258.818 97.036 258.196 97.2245 257.667 97.5778C257.139 97.931 256.727 98.4331 256.483 99.0205C256.24 99.6079 256.176 100.254 256.301 100.878C256.425 101.501 256.731 102.074 257.18 102.524C257.63 102.973 258.203 103.28 258.826 103.404C259.45 103.528 260.096 103.464 260.684 103.221C261.271 102.977 261.773 102.565 262.126 102.037C262.48 101.508 262.668 100.887 262.668 100.251C262.668 100.069 262.74 99.8954 262.869 99.7672C262.997 99.639 263.171 99.5669 263.352 99.5669C263.533 99.5669 263.707 99.639 263.836 99.7672C263.964 99.8954 264.036 100.069 264.036 100.251C264.034 101.465 263.55 102.63 262.691 103.489C261.833 104.348 260.668 104.831 259.453 104.833Z" fill="#263238"/>
<path d="M259.343 102.939C255.162 102.939 254.934 93.892 254.926 92.0842V92.0213C254.926 90.1978 255.138 81.1116 259.343 81.1116C263.548 81.1116 263.839 90.9209 263.863 92.0449L260.216 92.1156C260.214 90.006 259.913 87.9072 259.32 85.8827C258.783 87.8835 258.532 89.9501 258.573 92.0213V92.0842C258.534 94.1681 258.799 96.2467 259.359 98.2543C259.398 98.1207 259.445 97.9792 259.485 97.8141L259.791 96.8002L262.33 97.539C262.585 97.6139 262.8 97.7864 262.928 98.0191C263.056 98.2517 263.087 98.5256 263.014 98.7809C262.236 101.516 261.009 102.939 259.343 102.939Z" fill="#BFBFBF" stroke="#263238" stroke-linecap="round" stroke-linejoin="round"/>
<path d="M263.352 100.935C263.171 100.935 262.997 100.863 262.868 100.734C262.74 100.606 262.668 100.432 262.668 100.251C262.668 99.3981 262.329 98.5805 261.727 97.9776C261.124 97.3747 260.306 97.036 259.453 97.036C259.272 97.036 259.098 96.9639 258.97 96.8357C258.842 96.7075 258.77 96.5335 258.77 96.3522C258.77 96.1708 258.842 95.9969 258.97 95.8686C259.098 95.7404 259.272 95.6684 259.453 95.6684C260.668 95.6704 261.832 96.1539 262.691 97.0128C263.55 97.8717 264.034 99.036 264.036 100.251C264.036 100.432 263.964 100.606 263.835 100.734C263.707 100.863 263.533 100.935 263.352 100.935Z" fill="#263238"/>
<path d="M281.014 104.833C279.799 104.833 278.633 104.35 277.774 103.491C276.914 102.632 276.432 101.466 276.432 100.251C276.432 99.0354 276.914 97.8699 277.774 97.0105C278.633 96.1511 279.799 95.6684 281.014 95.6684C281.195 95.6684 281.369 95.7404 281.498 95.8686C281.626 95.9969 281.698 96.1708 281.698 96.3522C281.698 96.5335 281.626 96.7075 281.498 96.8357C281.369 96.9639 281.195 97.036 281.014 97.036C280.378 97.036 279.757 97.2245 279.228 97.5778C278.699 97.931 278.287 98.4331 278.044 99.0205C277.801 99.6079 277.737 100.254 277.861 100.878C277.985 101.501 278.291 102.074 278.741 102.524C279.19 102.973 279.763 103.28 280.387 103.404C281.01 103.528 281.657 103.464 282.244 103.221C282.832 102.977 283.334 102.565 283.687 102.037C284.04 101.508 284.229 100.887 284.229 100.251C284.229 100.069 284.301 99.8954 284.429 99.7672C284.557 99.639 284.731 99.5669 284.913 99.5669C285.094 99.5669 285.268 99.639 285.396 99.7672C285.524 99.8954 285.596 100.069 285.596 100.251C285.594 101.465 285.111 102.63 284.252 103.489C283.393 104.348 282.229 104.831 281.014 104.833Z" fill="#263238"/>
<path d="M280.935 102.939C276.753 102.939 276.525 93.892 276.518 92.0842V92.0213C276.518 90.1978 276.73 81.1116 280.935 81.1116C285.14 81.1116 285.439 90.9209 285.454 92.0449L281.799 92.0842C281.793 89.9744 281.488 87.8761 280.896 85.8512C280.359 87.8521 280.108 89.9187 280.149 91.9899V92.0842C280.118 94.1677 280.383 96.2451 280.935 98.2543C280.982 98.1207 281.021 97.9792 281.069 97.8141L281.351 96.8238L283.89 97.5626C284.145 97.6375 284.36 97.81 284.488 98.0427C284.616 98.2753 284.647 98.5491 284.574 98.8045C283.827 101.516 282.585 102.939 280.935 102.939Z" fill="#BFBFBF" stroke="#263238" stroke-linecap="round" stroke-linejoin="round"/>
<path d="M284.944 100.935C284.763 100.935 284.589 100.863 284.46 100.734C284.332 100.606 284.26 100.432 284.26 100.251C284.26 99.8259 284.176 99.4053 284.012 99.0132C283.849 98.6211 283.609 98.2653 283.307 97.9664C283.006 97.6675 282.647 97.4313 282.254 97.2716C281.86 97.1119 281.439 97.0318 281.014 97.036C280.833 97.036 280.659 96.9639 280.53 96.8357C280.402 96.7075 280.33 96.5335 280.33 96.3522C280.33 96.1708 280.402 95.9969 280.53 95.8686C280.659 95.7404 280.833 95.6684 281.014 95.6684C282.229 95.6704 283.393 96.1539 284.252 97.0128C285.111 97.8717 285.594 99.036 285.596 100.251C285.596 100.427 285.529 100.596 285.407 100.723C285.286 100.851 285.12 100.926 284.944 100.935Z" fill="#263238"/>
<path d="M275.128 329.236H238.186V330.022H275.128V329.236Z" fill="#263238"/>
<path d="M257.027 332.081C256.501 332.081 255.976 332.045 255.455 331.971C243.193 330.234 242.8 318.444 243.201 313.461C243.688 307.322 246.911 299.227 254.378 296.617C261.452 294.133 267.913 302.119 269.634 306.749C271.685 312.368 271.657 318.535 269.556 324.135C267.819 328.67 262.222 332.081 257.027 332.081ZM244.003 313.524C243.531 319.443 244.404 329.606 255.588 331.193C260.831 331.979 267.033 328.505 268.848 323.844C270.879 318.426 270.905 312.459 268.919 307.024C267.292 302.646 261.256 295.053 254.661 297.364C247.548 299.848 244.443 307.621 244.003 313.524Z" fill="#92E3A9"/>
<path d="M246.297 321.911C246.214 321.91 246.134 321.885 246.066 321.837C245.999 321.789 245.947 321.721 245.92 321.643C245.115 319.186 244.725 316.612 244.764 314.027C244.819 310.328 246.065 306.744 248.317 303.809C248.381 303.727 248.474 303.674 248.576 303.659C248.679 303.644 248.783 303.67 248.867 303.73C248.951 303.793 249.006 303.886 249.021 303.989C249.035 304.092 249.009 304.197 248.946 304.281C246.795 307.083 245.605 310.503 245.55 314.035C245.51 316.532 245.888 319.019 246.667 321.392C246.684 321.441 246.691 321.493 246.688 321.545C246.686 321.597 246.672 321.647 246.65 321.694C246.627 321.741 246.595 321.783 246.556 321.817C246.517 321.852 246.472 321.878 246.423 321.895C246.382 321.908 246.34 321.913 246.297 321.911Z" fill="#92E3A9"/>
<path d="M254.039 329.456H253.944C252.422 329.083 250.999 328.381 249.777 327.399C248.555 326.417 247.563 325.18 246.87 323.773C246.845 323.729 246.83 323.679 246.824 323.628C246.819 323.578 246.824 323.526 246.838 323.477C246.853 323.428 246.877 323.382 246.91 323.343C246.942 323.303 246.982 323.271 247.027 323.247C247.073 323.222 247.123 323.206 247.174 323.201C247.226 323.195 247.278 323.2 247.327 323.214C247.377 323.229 247.423 323.253 247.464 323.286C247.504 323.318 247.537 323.358 247.562 323.404C248.207 324.713 249.131 325.865 250.269 326.779C251.407 327.693 252.731 328.347 254.149 328.694C254.25 328.72 254.337 328.785 254.392 328.874C254.446 328.964 254.463 329.071 254.439 329.173C254.415 329.259 254.361 329.334 254.289 329.385C254.216 329.436 254.128 329.462 254.039 329.456Z" fill="#92E3A9"/>
<path d="M257.223 329.857C257.119 329.857 257.019 329.816 256.945 329.742C256.871 329.668 256.83 329.568 256.83 329.464C256.83 329.36 256.871 329.26 256.945 329.186C257.019 329.112 257.119 329.071 257.223 329.071C263.393 329.071 267.292 325.534 268.502 318.853C268.511 318.801 268.531 318.752 268.559 318.708C268.587 318.664 268.624 318.626 268.667 318.596C268.71 318.566 268.759 318.545 268.81 318.534C268.861 318.522 268.914 318.522 268.966 318.531C269.018 318.54 269.067 318.559 269.111 318.588C269.155 318.616 269.193 318.653 269.223 318.696C269.253 318.739 269.274 318.788 269.285 318.839C269.296 318.89 269.297 318.943 269.288 318.995C267.991 326.092 263.825 329.857 257.223 329.857Z" fill="#92E3A9"/>
<path d="M269.178 317.077C269.126 317.073 269.076 317.059 269.03 317.035C268.984 317.012 268.943 316.979 268.909 316.94C268.875 316.9 268.85 316.855 268.834 316.805C268.818 316.756 268.812 316.704 268.817 316.652C268.895 315.819 268.927 314.939 268.927 314.035C268.899 311.363 268.199 308.741 266.891 306.411C266.859 306.366 266.837 306.314 266.826 306.26C266.815 306.206 266.816 306.15 266.828 306.096C266.841 306.042 266.864 305.991 266.897 305.947C266.931 305.903 266.973 305.866 267.022 305.839C267.07 305.812 267.124 305.796 267.179 305.792C267.234 305.787 267.289 305.794 267.342 305.812C267.394 305.831 267.442 305.86 267.482 305.898C267.522 305.936 267.554 305.982 267.575 306.033C268.953 308.477 269.688 311.23 269.713 314.035C269.713 314.954 269.673 315.858 269.603 316.723C269.593 316.826 269.542 316.921 269.463 316.987C269.384 317.053 269.281 317.085 269.178 317.077Z" fill="#92E3A9"/>
<path d="M266.363 305.247C266.307 305.243 266.253 305.227 266.204 305.2C266.155 305.173 266.113 305.135 266.08 305.09C264.842 303.216 263.238 301.612 261.364 300.374C261.32 300.348 261.281 300.314 261.25 300.273C261.219 300.231 261.198 300.184 261.186 300.134C261.174 300.084 261.173 300.032 261.182 299.981C261.191 299.931 261.21 299.883 261.238 299.84C261.265 299.795 261.3 299.756 261.342 299.725C261.384 299.695 261.432 299.673 261.483 299.661C261.533 299.649 261.586 299.648 261.637 299.657C261.688 299.666 261.737 299.685 261.781 299.714C263.75 300.998 265.437 302.67 266.74 304.626C266.797 304.713 266.818 304.819 266.797 304.92C266.776 305.022 266.716 305.111 266.63 305.169C266.555 305.229 266.459 305.257 266.363 305.247Z" fill="#92E3A9"/>
<path d="M250.982 301.875C250.927 301.877 250.872 301.866 250.821 301.843C250.771 301.819 250.726 301.785 250.691 301.742C250.654 301.707 250.624 301.664 250.603 301.617C250.583 301.569 250.572 301.518 250.572 301.467C250.572 301.415 250.583 301.364 250.603 301.317C250.624 301.27 250.654 301.227 250.691 301.192C252.837 299.29 255.203 298.197 257.192 298.197C258.236 298.224 259.264 298.467 260.21 298.912C260.303 298.957 260.376 299.035 260.412 299.132C260.449 299.229 260.447 299.336 260.406 299.431C260.386 299.479 260.356 299.522 260.319 299.558C260.282 299.594 260.238 299.622 260.189 299.641C260.141 299.66 260.09 299.669 260.038 299.668C259.986 299.667 259.935 299.656 259.888 299.635C259.044 299.231 258.126 299.009 257.192 298.983C255.399 298.983 253.214 300.005 251.21 301.781C251.146 301.836 251.066 301.869 250.982 301.875Z" fill="#92E3A9"/>
<path d="M247.514 318.539C247.424 318.539 247.336 318.507 247.266 318.45C247.196 318.393 247.147 318.313 247.129 318.224C246.875 316.877 246.748 315.508 246.752 314.137C246.752 306.623 253.126 300.964 257.261 300.964C258.493 301.01 259.692 301.373 260.743 302.017C260.833 302.068 260.9 302.153 260.928 302.253C260.956 302.354 260.943 302.461 260.892 302.551C260.838 302.641 260.752 302.706 260.651 302.734C260.55 302.762 260.442 302.75 260.35 302.701C259.418 302.127 258.355 301.8 257.261 301.75C253.441 301.75 247.538 307.071 247.538 314.137C247.534 315.456 247.655 316.772 247.9 318.067C247.911 318.117 247.912 318.169 247.903 318.22C247.893 318.27 247.873 318.318 247.845 318.361C247.816 318.404 247.779 318.44 247.736 318.468C247.692 318.496 247.644 318.515 247.593 318.523L247.514 318.539Z" fill="#92E3A9"/>
<path d="M251.304 325.408C251.216 325.407 251.13 325.377 251.061 325.322C249.559 324.082 248.433 322.449 247.807 320.606C247.782 320.557 247.767 320.503 247.764 320.447C247.761 320.392 247.77 320.337 247.79 320.285C247.81 320.234 247.841 320.187 247.88 320.148C247.919 320.109 247.966 320.079 248.018 320.059C248.07 320.04 248.125 320.031 248.181 320.035C248.236 320.038 248.29 320.053 248.339 320.079C248.388 320.104 248.431 320.14 248.465 320.184C248.499 320.227 248.524 320.277 248.538 320.331C249.119 322.028 250.161 323.531 251.548 324.669C251.589 324.702 251.624 324.742 251.649 324.787C251.675 324.833 251.691 324.883 251.697 324.935C251.703 324.987 251.698 325.04 251.683 325.09C251.669 325.14 251.644 325.187 251.611 325.228C251.578 325.28 251.533 325.324 251.48 325.355C251.426 325.387 251.366 325.405 251.304 325.408Z" fill="#92E3A9"/>
<path d="M257.262 327.318C255.901 327.332 254.549 327.09 253.277 326.603C253.181 326.563 253.105 326.487 253.064 326.392C253.023 326.297 253.02 326.189 253.057 326.092C253.076 326.044 253.104 326 253.14 325.963C253.176 325.926 253.219 325.897 253.267 325.876C253.314 325.856 253.365 325.845 253.417 325.844C253.469 325.843 253.52 325.853 253.568 325.872C254.747 326.322 256 326.546 257.262 326.532C263.55 326.532 266.985 322.131 266.985 314.137C266.985 314.033 267.026 313.933 267.1 313.859C267.174 313.785 267.274 313.744 267.378 313.744C267.481 313.746 267.58 313.788 267.654 313.861C267.727 313.935 267.769 314.033 267.771 314.137C267.771 322.634 264.037 327.318 257.262 327.318Z" fill="#92E3A9"/>
<path d="M267.244 312.762C267.15 312.761 267.059 312.726 266.989 312.664C266.918 312.602 266.872 312.517 266.859 312.424C266.353 309.188 264.725 306.233 262.261 304.076C262.224 304.04 262.195 303.996 262.175 303.948C262.155 303.9 262.145 303.849 262.145 303.797C262.145 303.745 262.155 303.694 262.175 303.646C262.195 303.598 262.224 303.555 262.261 303.518C262.334 303.446 262.433 303.406 262.536 303.406C262.639 303.406 262.738 303.446 262.811 303.518C265.402 305.795 267.115 308.906 267.653 312.314C267.666 312.418 267.638 312.523 267.575 312.607C267.512 312.69 267.419 312.746 267.315 312.762H267.244Z" fill="#92E3A9"/>
<path d="M257.302 324.74C252.028 324.74 248.75 320.708 248.75 314.224C248.783 311.597 249.728 309.063 251.422 307.055C251.491 306.976 251.588 306.927 251.692 306.918C251.796 306.909 251.9 306.942 251.98 307.008C252.02 307.041 252.053 307.081 252.077 307.126C252.101 307.172 252.116 307.222 252.12 307.273C252.125 307.324 252.119 307.376 252.103 307.425C252.087 307.474 252.061 307.519 252.028 307.558C250.447 309.422 249.566 311.779 249.536 314.224C249.536 320.229 252.507 323.954 257.302 323.954C258.658 323.988 260 323.666 261.192 323.019C261.281 322.979 261.381 322.973 261.474 323.003C261.567 323.032 261.645 323.095 261.694 323.179C261.743 323.264 261.759 323.363 261.739 323.458C261.719 323.553 261.664 323.638 261.585 323.695C260.275 324.417 258.797 324.777 257.302 324.74Z" fill="#92E3A9"/>
<path d="M263.385 322.044C263.299 322.042 263.216 322.012 263.149 321.958C263.067 321.894 263.013 321.8 263 321.697C262.987 321.594 263.015 321.49 263.078 321.408C264.375 319.741 265.067 317.265 265.067 314.255C265.067 308.698 260.351 304.516 257.301 304.516C256.14 304.575 255.023 304.981 254.094 305.68C254.009 305.724 253.91 305.736 253.817 305.712C253.724 305.689 253.642 305.632 253.588 305.553C253.534 305.473 253.511 305.377 253.523 305.281C253.535 305.186 253.582 305.098 253.654 305.035C254.71 304.242 255.982 303.788 257.301 303.73C260.665 303.73 265.853 308.25 265.853 314.255C265.853 317.399 265.106 320.079 263.699 321.887C263.662 321.935 263.615 321.975 263.56 322.002C263.506 322.029 263.446 322.044 263.385 322.044Z" fill="#92E3A9"/>
<path d="M253.049 320.48C252.996 320.481 252.943 320.471 252.894 320.449C252.845 320.427 252.801 320.395 252.766 320.354C251.358 318.686 250.634 316.546 250.738 314.365C250.738 310.128 254.37 306.505 257.341 306.505C257.899 306.512 258.451 306.624 258.968 306.835C259.057 306.878 259.128 306.953 259.164 307.045C259.201 307.137 259.201 307.239 259.166 307.332C259.13 307.424 259.06 307.5 258.971 307.543C258.882 307.587 258.78 307.595 258.685 307.566C258.257 307.393 257.802 307.3 257.341 307.291C254.723 307.291 251.524 310.561 251.524 314.365C251.424 316.345 252.069 318.291 253.332 319.82C253.369 319.856 253.398 319.9 253.418 319.948C253.438 319.996 253.448 320.047 253.448 320.099C253.448 320.151 253.438 320.202 253.418 320.25C253.398 320.298 253.369 320.341 253.332 320.378C253.295 320.413 253.25 320.441 253.201 320.458C253.153 320.476 253.101 320.483 253.049 320.48Z" fill="#92E3A9"/>
<path d="M257.34 322.233C256.465 322.241 255.597 322.078 254.785 321.753C254.737 321.734 254.693 321.706 254.656 321.67C254.619 321.634 254.59 321.591 254.569 321.544C254.549 321.496 254.538 321.445 254.537 321.393C254.536 321.342 254.546 321.29 254.565 321.242C254.584 321.194 254.612 321.151 254.649 321.114C254.685 321.077 254.728 321.048 254.776 321.028C254.823 321.008 254.874 320.998 254.926 320.999C254.978 320.999 255.029 321.01 255.076 321.03C255.797 321.314 256.565 321.455 257.34 321.447C260.979 321.447 263.148 318.798 263.148 314.373C263.13 313.252 262.866 312.148 262.374 311.14C261.882 310.133 261.175 309.245 260.303 308.541C260.257 308.51 260.218 308.471 260.189 308.424C260.159 308.378 260.139 308.326 260.131 308.272C260.123 308.217 260.126 308.162 260.141 308.109C260.155 308.056 260.181 308.007 260.216 307.964C260.25 307.922 260.294 307.887 260.343 307.862C260.392 307.837 260.446 307.823 260.5 307.82C260.555 307.818 260.61 307.827 260.661 307.846C260.713 307.866 260.759 307.897 260.798 307.936C261.762 308.712 262.543 309.692 263.087 310.804C263.63 311.917 263.922 313.135 263.942 314.373C263.934 319.293 261.466 322.233 257.34 322.233Z" fill="#92E3A9"/>
<path d="M257.372 319.686C256.3 319.713 255.254 319.349 254.43 318.662C253.606 317.975 253.06 317.012 252.892 315.953C252.881 315.901 252.88 315.848 252.889 315.796C252.898 315.744 252.918 315.694 252.946 315.65C252.975 315.605 253.012 315.567 253.055 315.536C253.098 315.506 253.147 315.485 253.199 315.473C253.25 315.462 253.304 315.461 253.356 315.47C253.408 315.479 253.457 315.499 253.502 315.527C253.546 315.556 253.585 315.593 253.615 315.636C253.645 315.679 253.667 315.728 253.678 315.78C253.81 316.666 254.26 317.474 254.944 318.053C255.628 318.632 256.5 318.941 257.396 318.924C259.754 318.924 261.255 317.234 261.255 314.499C261.255 314.394 261.297 314.294 261.37 314.221C261.444 314.147 261.544 314.106 261.648 314.106C261.752 314.106 261.852 314.147 261.926 314.221C262 314.294 262.041 314.394 262.041 314.499C262.018 317.666 260.194 319.686 257.372 319.686Z" fill="#92E3A9"/>
<path d="M253.12 314.868C253.015 314.868 252.915 314.827 252.842 314.753C252.768 314.679 252.727 314.579 252.727 314.475C252.727 311.535 255.226 309.264 257.372 309.264C259.046 309.264 260.822 310.6 261.608 312.455C261.628 312.503 261.639 312.555 261.639 312.607C261.639 312.659 261.629 312.71 261.61 312.758C261.59 312.807 261.561 312.85 261.524 312.887C261.488 312.924 261.444 312.954 261.396 312.974C261.348 312.994 261.297 313.004 261.245 313.005C261.193 313.005 261.141 312.995 261.093 312.975C261.045 312.955 261.001 312.926 260.964 312.89C260.927 312.853 260.898 312.81 260.877 312.762C260.603 312.028 260.13 311.385 259.511 310.906C258.891 310.427 258.151 310.131 257.372 310.05C255.588 310.05 253.513 311.983 253.513 314.475C253.513 314.579 253.471 314.679 253.397 314.753C253.324 314.827 253.224 314.868 253.12 314.868Z" fill="#92E3A9"/>
<path d="M257.435 317.147C256.756 317.147 256.104 316.877 255.624 316.397C255.143 315.916 254.873 315.265 254.873 314.585C254.873 313.905 255.143 313.254 255.624 312.773C256.104 312.293 256.756 312.023 257.435 312.023C257.54 312.023 257.64 312.064 257.713 312.138C257.787 312.212 257.828 312.311 257.828 312.416C257.828 312.52 257.787 312.62 257.713 312.694C257.64 312.767 257.54 312.809 257.435 312.809C257.089 312.833 256.757 312.959 256.48 313.169C256.203 313.38 255.994 313.667 255.879 313.995C255.763 314.323 255.746 314.677 255.829 315.015C255.912 315.352 256.091 315.658 256.346 315.895C256.601 316.132 256.919 316.289 257.262 316.347C257.604 316.406 257.957 316.363 258.275 316.224C258.594 316.084 258.865 315.855 259.055 315.564C259.245 315.273 259.346 314.933 259.345 314.585C259.343 314.339 259.288 314.097 259.184 313.874C259.079 313.652 258.928 313.455 258.74 313.296C258.661 313.227 258.612 313.13 258.605 313.025C258.598 312.921 258.632 312.817 258.701 312.738C258.77 312.659 258.867 312.61 258.972 312.603C259.076 312.595 259.18 312.63 259.259 312.699C259.53 312.933 259.747 313.223 259.898 313.548C260.048 313.873 260.128 314.227 260.131 314.585C260.113 315.282 259.819 315.943 259.313 316.424C258.808 316.904 258.132 317.164 257.435 317.147Z" fill="#92E3A9"/>
<path d="M242.17 323.341C242.126 323.349 242.081 323.349 242.036 323.341C241.971 323.316 241.913 323.275 241.867 323.221C241.822 323.168 241.791 323.103 241.777 323.035C241.27 319.701 241.743 316.291 243.138 313.221C244.534 310.151 246.792 307.553 249.637 305.743C250.935 304.87 252.428 304.33 253.984 304.171C254.101 303.801 254.211 303.432 254.314 303.054C250.071 303.544 246.182 305.659 243.466 308.956C240.75 312.252 239.418 316.473 239.749 320.732C239.753 320.783 239.747 320.835 239.731 320.884C239.715 320.934 239.69 320.979 239.656 321.019C239.588 321.098 239.492 321.148 239.388 321.156C239.283 321.164 239.18 321.131 239.1 321.063C239.021 320.995 238.971 320.899 238.963 320.794C238.598 316.224 240.063 311.696 243.036 308.206C246.009 304.716 250.247 302.549 254.817 302.182C254.878 302.175 254.941 302.184 254.998 302.207C255.056 302.231 255.107 302.268 255.147 302.316C255.188 302.364 255.217 302.421 255.23 302.483C255.244 302.544 255.242 302.608 255.225 302.669C255.1 303.157 254.966 303.644 254.817 304.123C255.615 304.147 256.396 304.358 257.096 304.741C257.797 305.123 258.397 305.666 258.849 306.324C259.205 306.881 259.426 307.514 259.493 308.171L259.871 307.715C259.931 307.64 260.017 307.59 260.112 307.575C260.207 307.559 260.305 307.579 260.386 307.63C260.468 307.681 260.527 307.761 260.554 307.853C260.581 307.946 260.572 308.045 260.531 308.132C259.745 309.885 259.124 311.465 259.47 313.021C259.564 313.402 259.738 313.758 259.981 314.066C261.475 312.525 263.285 311.324 265.286 310.545C265.348 310.521 265.416 310.513 265.482 310.523C265.548 310.532 265.611 310.559 265.663 310.6C265.742 310.66 265.795 310.747 265.813 310.844C268.639 308.78 271.719 307.089 274.978 305.813C275.026 305.79 275.08 305.777 275.134 305.775C275.188 305.774 275.241 305.783 275.292 305.803C275.342 305.823 275.387 305.853 275.425 305.892C275.464 305.93 275.493 305.976 275.513 306.026C275.532 306.077 275.541 306.131 275.539 306.185C275.537 306.239 275.523 306.292 275.5 306.34C275.476 306.389 275.442 306.432 275.401 306.467C275.36 306.502 275.312 306.529 275.261 306.544C271.825 307.891 268.592 309.709 265.656 311.944C265.257 313.668 264.463 315.275 263.336 316.639C262.209 318.003 260.781 319.087 259.163 319.804L256.491 322.524C256.433 322.583 256.358 322.623 256.276 322.637C256.194 322.651 256.11 322.639 256.035 322.602C255.962 322.562 255.903 322.501 255.865 322.427C255.827 322.352 255.812 322.268 255.823 322.186C256.299 319.38 257.552 316.763 259.438 314.632C259.086 314.21 258.836 313.712 258.707 313.178C258.618 312.776 258.578 312.364 258.589 311.952L258.354 312.321C257.085 313.918 255.518 315.253 253.74 316.251C253.661 316.299 253.568 316.318 253.476 316.304C253.385 316.29 253.301 316.245 253.24 316.175C253.179 316.106 253.145 316.017 253.143 315.924C253.141 315.832 253.171 315.742 253.229 315.67L258.731 309.075C258.813 308.252 258.626 307.424 258.196 306.717C257.787 306.142 257.244 305.674 256.615 305.354C255.985 305.033 255.287 304.87 254.581 304.878C252.258 311.977 248.06 318.316 242.429 323.223C242.36 323.292 242.268 323.334 242.17 323.341ZM253.74 304.949C252.426 305.148 251.17 305.63 250.061 306.364C247.446 308.027 245.347 310.388 244.003 313.181C242.658 315.975 242.121 319.088 242.453 322.17C247.634 317.496 251.522 311.564 253.74 304.949ZM257.049 320.456L256.884 321.03L257.513 320.386L257.198 320.456C257.15 320.472 257.097 320.472 257.049 320.456ZM261.207 315.858C260.109 316.971 259.08 318.15 258.126 319.388C258.322 319.317 258.519 319.246 258.715 319.16L261.859 316.016C261.637 315.988 261.418 315.935 261.207 315.858ZM260.004 315.206C259.131 316.199 258.398 317.307 257.827 318.499C258.646 317.458 259.52 316.461 260.444 315.513C260.292 315.419 260.145 315.317 260.004 315.206ZM262.543 316.385L261.678 317.265C261.986 316.992 262.275 316.698 262.543 316.385ZM261.875 315.19C262.23 315.22 262.585 315.129 262.881 314.931C262.962 314.878 263.06 314.856 263.155 314.871C263.251 314.885 263.338 314.935 263.4 315.01C263.436 315.05 263.463 315.098 263.478 315.151C263.965 314.402 264.353 313.594 264.634 312.746C263.675 313.516 262.755 314.331 261.875 315.19ZM260.539 314.624C260.686 314.746 260.847 314.848 261.018 314.931C262.215 313.742 263.486 312.629 264.822 311.598C263.234 312.338 261.795 313.364 260.578 314.624H260.539ZM258.291 310.852L255.697 313.996C256.468 313.408 257.146 312.709 257.709 311.921C257.937 311.584 258.132 311.226 258.291 310.852Z" fill="#263238"/>
<path d="M282.996 136.517H274.279V137.303H282.996V136.517Z" fill="#263238"/>
<path d="M270.458 136.517H265.207V137.303H270.458V136.517Z" fill="#263238"/>
<path d="M261.23 136.517H130.031V137.303H261.23V136.517Z" fill="#263238"/>
<path d="M225.649 313.186H218.709V313.972H225.649V313.186Z" fill="#263238"/>
<path d="M213.639 313.186H188.707V313.972H213.639V313.186Z" fill="#263238"/>
<path d="M223.032 330.022C213.403 329.849 204.789 329.849 195.113 330.022V329.236C204.797 329.063 213.411 329.063 223.056 329.236L223.032 330.022Z" fill="#263238"/>
<path d="M190.043 329.236H186.098V330.022H190.043V329.236Z" fill="#263238"/>
<path d="M230.961 185.288H226.088V186.074H230.961V185.288Z" fill="#263238"/>
<path d="M217.788 185.278L217.783 186.064L220.99 186.084L220.995 185.298L217.788 185.278Z" fill="#263238"/>
<path d="M194.027 186.074V185.288C200.237 185.249 206.454 185.233 212.506 185.249V186.035C206.446 186.019 200.237 186.035 194.027 186.074Z" fill="#263238"/>
<path d="M230.969 201.338H220.232V202.124H230.969V201.338Z" fill="#263238"/>
<path d="M214.959 201.338H194.027V202.124H214.959V201.338Z" fill="#263238"/>
<path d="M216.963 218.221C212.396 218.221 207.838 218.221 203.035 218.166V217.38C212.64 217.451 221.255 217.451 230.954 217.38V218.166C226.112 218.198 221.538 218.221 216.963 218.221Z" fill="#263238"/>
<path d="M197.8 217.38H194.027V218.166H197.8V217.38Z" fill="#263238"/>
<path d="M230.969 233.423H194.027V234.209H230.969V233.423Z" fill="#263238"/>
<path d="M216.563 250.408C214.697 250.408 212.85 250.408 211.021 250.408V249.622C217.506 249.677 224.218 249.622 230.954 249.496V250.282C226.128 250.361 221.279 250.408 216.563 250.408Z" fill="#263238"/>
<path d="M205.716 250.322L202.572 250.259V249.473L205.716 249.536V250.322Z" fill="#263238"/>
<path d="M197.454 249.473H194.027V250.259H197.454V249.473Z" fill="#263238"/>
<path d="M216.17 266.097C211.635 266.097 207.099 266.01 202.305 265.837V265.051C211.87 265.397 220.383 265.397 229.964 265.051V265.837C225.209 266.01 220.705 266.097 216.17 266.097Z" fill="#263238"/>
<path d="M197.195 265.051H193.068V265.837H197.195V265.051Z" fill="#263238"/>
<path d="M229.139 281.102H223.873V281.888H229.139V281.102Z" fill="#263238"/>
<path d="M205.559 281.895H192.197V281.109C200.843 281.109 210.275 281.109 218.921 281.109V281.895H205.559Z" fill="#263238"/>
<path d="M199.719 297.93V297.144C209.567 296.837 218.111 296.837 227.433 297.144V297.93C218.08 297.623 209.544 297.623 199.719 297.93Z" fill="#263238"/>
<path d="M194.578 297.144H190.451V297.93H194.578V297.144Z" fill="#263238"/>
<path d="M141.17 120.121V121.756C141.17 123.76 140.203 124.853 138.23 124.853H137.303V129.569H135.33V116.993H138.23C140.203 117.024 141.17 118.117 141.17 120.121ZM137.303 118.808V123.053H138.23C138.859 123.053 139.197 122.77 139.197 121.874V119.995C139.197 119.099 138.859 118.808 138.23 118.808H137.303Z" fill="#263238"/>
<path d="M144.149 122.314H146.852V124.106H144.149V127.776H147.552V129.569H142.176V116.993H147.552V118.808H144.149V122.314Z" fill="#263238"/>
<path d="M152.896 129.569C152.735 129.061 152.676 128.527 152.723 127.997V126.024C152.723 124.86 152.322 124.452 151.426 124.452H150.75V129.561H148.777V116.985H151.748C153.792 116.985 154.672 117.936 154.672 119.869V120.852C154.672 122.149 154.264 122.99 153.383 123.398C154.366 123.815 154.688 124.758 154.688 126.071V128.004C154.653 128.523 154.728 129.042 154.908 129.529L152.896 129.569ZM150.742 118.808V122.66H151.528C152.259 122.66 152.707 122.337 152.707 121.331V120.097C152.707 119.201 152.401 118.808 151.709 118.808H150.742Z" fill="#263238"/>
<path d="M158.627 116.883C160.545 116.883 161.528 118.03 161.528 120.027V120.42H159.665V119.901C159.665 119.005 159.303 118.667 158.682 118.667C158.061 118.667 157.692 119.005 157.692 119.901C157.692 122.479 161.543 122.966 161.543 126.55C161.543 128.555 160.545 129.694 158.612 129.694C156.678 129.694 155.672 128.547 155.672 126.55V125.764H157.535V126.668C157.535 127.564 157.928 127.887 158.556 127.887C159.185 127.887 159.578 127.564 159.578 126.668C159.578 124.09 155.727 123.603 155.727 120.019C155.727 118.022 156.709 116.883 158.627 116.883Z" fill="#263238"/>
<path d="M162.518 120.034C162.518 118.03 163.571 116.89 165.504 116.89C167.438 116.89 168.499 118.038 168.499 120.034V126.558C168.499 128.562 167.446 129.702 165.504 129.702C163.563 129.702 162.518 128.555 162.518 126.558V120.034ZM164.483 126.684C164.483 127.58 164.883 127.918 165.504 127.918C166.125 127.918 166.526 127.58 166.526 126.684V119.909C166.526 119.013 166.133 118.675 165.504 118.675C164.876 118.675 164.483 119.013 164.483 119.909V126.684Z" fill="#263238"/>
<path d="M171.524 120.482V129.569H169.756V116.993H172.224L174.252 124.499V116.993H176.005V129.569H173.985L171.524 120.482Z" fill="#263238"/>
<path d="M183.801 129.569H181.813L181.475 127.289H179.054L178.716 129.569H176.9L178.913 116.993H181.797L183.801 129.569ZM179.306 125.591H181.192L180.241 119.248L179.306 125.591Z" fill="#263238"/>
<path d="M184.713 117.024H186.694V127.776H189.94V129.569H184.721L184.713 117.024Z" fill="#263238"/>
<path d="M193.572 117.024H196.716C198.689 117.024 199.656 118.117 199.656 120.121V126.464C199.656 128.476 198.689 129.569 196.716 129.569H193.572V117.024ZM195.537 118.816V127.776H196.653C197.282 127.776 197.652 127.454 197.652 126.558V120.034C197.652 119.138 197.282 118.816 196.653 118.816H195.537Z" fill="#263238"/>
<path d="M207.241 129.569H205.252L204.914 127.289H202.493L202.156 129.569H200.34L202.352 116.993H205.237L207.241 129.569ZM202.745 125.591H204.647L203.696 119.248L202.745 125.591Z" fill="#263238"/>
<path d="M207.586 117.024H213.677V118.808H211.61V129.561H209.645V118.808H207.586V117.024Z" fill="#263238"/>
<path d="M220.233 129.569H218.245L217.907 127.289H215.486L215.148 129.569H213.332L215.344 116.993H218.229L220.233 129.569ZM215.776 125.591H217.679L216.728 119.248L215.776 125.591Z" fill="#263238"/>
<path d="M137.294 181.421V182.207H135.604V185.351H134.818V178.025H137.727V178.811H135.604V181.476L137.294 181.421Z" fill="#263238"/>
<path d="M139.165 178.01V185.335H138.379V178.01H139.165Z" fill="#263238"/>
<path d="M141.633 178.01C142.78 178.01 143.268 178.599 143.268 179.684V180.281C143.268 181.067 142.985 181.594 142.356 181.79C143.024 181.987 143.275 182.529 143.275 183.315V184.455C143.25 184.756 143.301 185.059 143.425 185.335H142.592C142.478 185.054 142.433 184.749 142.458 184.447V183.26C142.458 182.474 142.073 182.176 141.389 182.176H140.815V185.32H140.029V177.994L141.633 178.01ZM141.421 181.46C142.073 181.46 142.458 181.256 142.458 180.462V179.763C142.458 179.102 142.222 178.756 141.609 178.756H140.823V181.46H141.421Z" fill="#263238"/>
<path d="M147.291 179.77V179.967H146.505V179.731C146.505 179.071 146.254 178.686 145.672 178.686C145.091 178.686 144.831 179.071 144.831 179.715C144.831 181.358 147.291 181.515 147.291 183.575C147.291 184.683 146.757 185.406 145.641 185.406C144.525 185.406 143.998 184.683 143.998 183.575V183.158H144.784V183.622C144.784 184.274 145.059 184.667 145.641 184.667C146.222 184.667 146.498 184.274 146.498 183.622C146.498 181.987 144.053 181.83 144.053 179.77C144.053 178.639 144.58 177.939 145.672 177.939C146.765 177.939 147.291 178.662 147.291 179.77Z" fill="#263238"/>
<path d="M149.076 185.335V178.756H147.732V177.97H151.246V178.756H149.894V185.335H149.076Z" fill="#263238"/>
<path d="M154.155 185.335H153.424V178.01H154.469L156.167 183.307V178.01H156.89V185.335H156.041L154.171 179.417L154.155 185.335Z" fill="#263238"/>
<path d="M158.532 183.858L158.249 185.335H157.463L158.87 178.01H160.049L161.448 185.335H160.662L160.379 183.858H158.532ZM158.634 183.158H160.269L159.483 178.937L158.634 183.158Z" fill="#263238"/>
<path d="M164.819 185.32H164.033L162.823 179.495V185.335H162.107V178.01H163.247L164.45 183.858L165.613 178.01H166.753V185.335H165.967V179.448L164.819 185.32Z" fill="#263238"/>
<path d="M170.188 181.256V181.987H168.396V184.589H170.596V185.335H167.578V178.01H170.596V178.796H168.396V181.295L170.188 181.256Z" fill="#263238"/>
<path d="M186.694 180.336V181.35H185.908V180.336H186.694ZM186.694 184.321V185.335H185.908V184.321H186.694Z" fill="#263238"/>
<path d="M134.818 201.723V194.406H135.604V200.985H137.695V201.723H134.818Z" fill="#263238"/>
<path d="M139.141 200.254L138.858 201.723H138.111L139.51 194.406H140.689L142.096 201.723H141.31L141.027 200.254H139.141ZM139.251 199.554H140.878L140.053 195.325L139.251 199.554Z" fill="#263238"/>
<path d="M145.901 196.166V196.363H145.115V196.119C145.115 195.459 144.863 195.074 144.282 195.074C143.7 195.074 143.448 195.459 143.448 196.111C143.448 197.754 145.901 197.911 145.901 199.971C145.901 201.079 145.366 201.802 144.25 201.802C143.134 201.802 142.607 201.079 142.607 199.971V199.554H143.393V200.01C143.393 200.67 143.669 201.055 144.25 201.055C144.832 201.055 145.107 200.67 145.107 200.01C145.107 198.383 142.662 198.226 142.662 196.166C142.662 195.034 143.189 194.335 144.282 194.335C145.374 194.335 145.901 195.05 145.901 196.166Z" fill="#263238"/>
<path d="M147.686 201.723V195.152H146.342V194.406H149.855V195.152H148.503V201.723H147.686Z" fill="#263238"/>
<path d="M152.762 201.723H152.031V194.406H153.061L154.759 199.695V194.406H155.482V201.723H154.633L152.762 195.836V201.723Z" fill="#263238"/>
<path d="M157.141 200.254L156.858 201.723H156.111L157.51 194.406H158.689L160.088 201.723H159.302L159.02 200.254H157.141ZM157.251 199.554H158.878L158.053 195.325L157.251 199.554Z" fill="#263238"/>
<path d="M163.428 201.715H162.642L161.432 195.891V201.723H160.756V194.406H161.896L163.098 200.254L164.261 194.406H165.401V201.723H164.615V195.836L163.428 201.715Z" fill="#263238"/>
<path d="M168.805 197.652V198.383H167.044V200.985H169.245V201.723H166.227V194.406H169.245V195.152H167.044V197.652H168.805Z" fill="#263238"/>
<path d="M186.962 196.724V197.746H186.176V196.724H186.962ZM186.962 200.709V201.723H186.176V200.709H186.962Z" fill="#263238"/>
<path d="M135.604 210.393V217.711H134.818V210.393H135.604Z" fill="#263238"/>
<path d="M138.159 210.393C139.298 210.393 139.825 211.077 139.825 212.209V215.903C139.825 217.019 139.298 217.711 138.159 217.711H136.445V210.393H138.159ZM138.159 216.972C138.74 216.972 139.023 216.602 139.023 215.934V212.169C139.023 211.501 138.74 211.132 138.151 211.132H137.271V216.972H138.159Z" fill="#263238"/>
<path d="M142.93 217.711H142.199V210.393H143.237L144.927 215.683V210.393H145.65V217.711H144.801L142.93 211.792V217.711Z" fill="#263238"/>
<path d="M147.261 215.981C147.261 216.642 147.52 217.042 148.117 217.042C148.715 217.042 148.966 216.642 148.966 215.981V210.393H149.752V215.942C149.752 217.05 149.241 217.797 148.109 217.797C146.978 217.797 146.475 217.05 146.475 215.942V210.393H147.261V215.981Z" fill="#263238"/>
<path d="M153.235 217.703H152.449L151.231 211.878V217.711H150.539V210.393H151.679L152.897 216.272L154.06 210.432H155.2V217.75H154.414V211.863L153.235 217.703Z" fill="#263238"/>
<path d="M157.613 210.393C158.753 210.393 159.185 210.935 159.185 212.012V212.342C159.185 213.128 158.965 213.592 158.328 213.796C159.044 213.993 159.311 214.582 159.311 215.368V215.989C159.344 216.219 159.324 216.452 159.252 216.673C159.18 216.893 159.058 217.093 158.896 217.259C158.735 217.425 158.537 217.551 158.318 217.628C158.1 217.705 157.867 217.73 157.637 217.703H156.041V210.385L157.613 210.393ZM157.417 213.537C158.061 213.537 158.399 213.325 158.399 212.562V212.138C158.399 211.485 158.179 211.171 157.613 211.171H156.827V213.529L157.417 213.537ZM157.652 217.011C158.25 217.011 158.525 216.697 158.525 216.013V215.368C158.525 214.582 158.203 214.276 157.495 214.276H156.827V217.011H157.652Z" fill="#263238"/>
<path d="M162.705 213.631V214.362H160.921V216.972H163.114V217.711H160.104V210.393H163.114V211.132H160.921V213.631H162.705Z" fill="#263238"/>
<path d="M165.472 210.393C166.628 210.393 167.107 210.975 167.107 212.067V212.657C167.107 213.443 166.824 213.969 166.196 214.166C166.864 214.362 167.115 214.905 167.115 215.691V216.83C167.093 217.131 167.145 217.433 167.264 217.711H166.439C166.322 217.43 166.273 217.126 166.298 216.822V215.675C166.298 214.842 165.913 214.582 165.237 214.582H164.686V217.726H163.9V210.409L165.472 210.393ZM165.268 213.843C165.913 213.843 166.298 213.631 166.298 212.837V212.138C166.298 211.478 166.062 211.132 165.457 211.132H164.671V213.843H165.268Z" fill="#263238"/>
<path d="M186.6 212.712V213.726H185.814V212.712H186.6ZM186.6 216.697V217.711H185.814V216.697H186.6Z" fill="#263238"/>
<path d="M138.026 227.229V227.85H137.24V227.182C137.24 226.522 136.973 226.129 136.375 226.129C135.778 226.129 135.519 226.522 135.519 227.182V231.057C135.519 231.709 135.794 232.11 136.375 232.11C136.957 232.11 137.24 231.709 137.24 231.057V229.587H136.454V228.848H137.979V231.002C137.979 232.11 137.452 232.841 136.328 232.841C135.204 232.841 134.686 232.11 134.686 231.002V227.221C134.686 226.113 135.204 225.374 136.328 225.374C137.452 225.374 138.026 226.121 138.026 227.229Z" fill="#263238"/>
<path d="M141.404 228.699V229.43H139.612V232.039H141.813V232.778H138.795V225.461H141.813V226.199H139.612V228.699H141.404Z" fill="#263238"/>
<path d="M143.284 232.778H142.553V225.461H143.59L145.28 230.75V225.461H146.003V232.778H145.154L143.284 226.86V232.778Z" fill="#263238"/>
<path d="M148.557 225.461C149.697 225.461 150.216 226.152 150.216 227.276V230.97C150.216 232.087 149.697 232.778 148.557 232.778H146.844V225.461H148.557ZM148.557 232.039C149.139 232.039 149.422 231.67 149.422 231.002V227.276C149.422 226.608 149.139 226.239 148.542 226.239H147.661V232.079L148.557 232.039Z" fill="#263238"/>
<path d="M153.588 228.699V229.43H151.796V232.039H153.997V232.778H150.986V225.461H153.997V226.199H151.796V228.699H153.588Z" fill="#263238"/>
<path d="M156.379 225.461C157.526 225.461 158.014 226.042 158.014 227.135V227.732C158.014 228.518 157.731 229.037 157.102 229.233C157.77 229.43 158.022 229.98 158.022 230.758V231.898C157.995 232.199 158.047 232.502 158.171 232.778H157.338C157.227 232.496 157.181 232.192 157.204 231.89V230.742C157.204 229.917 156.819 229.65 156.135 229.65H155.561V232.794H154.775V225.476L156.379 225.461ZM156.167 228.911C156.819 228.911 157.204 228.699 157.204 227.905V227.205C157.204 226.545 156.968 226.199 156.355 226.199H155.569V228.911H156.167Z" fill="#263238"/>
<path d="M187.214 227.779V228.793H186.428V227.779H187.214ZM187.214 231.764V232.778H186.428V231.764H187.214Z" fill="#263238"/>
<path d="M136.508 241.424C137.648 241.424 138.175 242.116 138.175 243.24V246.926C138.175 248.042 137.648 248.734 136.508 248.734H134.818V241.424H136.508ZM136.508 248.003C137.09 248.003 137.373 247.634 137.373 246.965V243.201C137.373 242.532 137.09 242.163 136.493 242.163H135.604V248.003H136.508Z" fill="#263238"/>
<path d="M139.612 247.712V248.726H138.826V247.712H139.612Z" fill="#263238"/>
<path d="M140.32 243.169C140.32 242.045 140.878 241.33 141.994 241.33C143.111 241.33 143.684 242.045 143.684 243.169V246.926C143.718 247.163 143.7 247.405 143.629 247.634C143.558 247.862 143.438 248.073 143.276 248.249C143.115 248.426 142.916 248.565 142.694 248.655C142.473 248.746 142.234 248.786 141.994 248.773C140.878 248.773 140.32 248.034 140.32 246.926V243.169ZM141.106 246.997C141.106 247.665 141.389 248.05 141.971 248.05C142.553 248.05 142.843 247.665 142.843 246.997V243.122C142.843 242.47 142.568 242.069 141.971 242.069C141.374 242.069 141.106 242.47 141.106 243.122V246.997Z" fill="#263238"/>
<path d="M145.091 247.712V248.726H144.305V247.712H145.091Z" fill="#263238"/>
<path d="M147.574 241.424C148.714 241.424 149.146 241.967 149.146 243.043V243.389C149.146 244.175 148.926 244.647 148.29 244.843C148.997 245.04 149.272 245.629 149.272 246.415V247.028C149.307 247.258 149.288 247.492 149.217 247.713C149.145 247.934 149.024 248.136 148.862 248.302C148.699 248.468 148.501 248.594 148.282 248.67C148.062 248.747 147.828 248.771 147.598 248.742H145.916V241.424H147.574ZM147.378 244.529C148.022 244.529 148.36 244.317 148.36 243.554V243.13C148.36 242.477 148.14 242.163 147.574 242.163H146.788V244.521L147.378 244.529ZM147.614 248.003C148.211 248.003 148.486 247.689 148.486 247.005V246.36C148.486 245.574 148.156 245.276 147.457 245.276H146.749V248.003H147.614Z" fill="#263238"/>
<path d="M186.473 243.719V244.733H185.688V243.719H186.473ZM186.473 247.704V248.718H185.688V247.712L186.473 247.704Z" fill="#263238"/>
<path d="M134.198 261.389V264.682H133.412V257.364H134.198V260.658H135.998V257.364H136.784V264.682H135.998V261.389H134.198Z" fill="#263238"/>
<path d="M140.25 260.603V261.334H138.466V263.943H140.659V264.682H137.648V257.364H140.659V258.103H138.466V260.603H140.25Z" fill="#263238"/>
<path d="M142.222 257.364V264.682H141.436V257.364H142.222Z" fill="#263238"/>
<path d="M146.294 259.133V259.762H145.508V259.086C145.508 258.433 145.24 258.032 144.643 258.032C144.046 258.032 143.786 258.433 143.786 259.086V262.961C143.786 263.621 144.061 264.014 144.643 264.014C145.225 264.014 145.508 263.621 145.508 262.961V261.491H144.722V260.76H146.246V262.913C146.246 264.022 145.728 264.761 144.596 264.761C143.464 264.761 142.953 264.022 142.953 262.913V259.133C142.953 258.025 143.472 257.294 144.596 257.294C145.72 257.294 146.294 258.025 146.294 259.133Z" fill="#263238"/>
<path d="M147.882 261.389V264.682H147.096V257.364H147.882V260.658H149.682V257.364H150.468V264.682H149.682V261.389H147.882Z" fill="#263238"/>
<path d="M152.401 264.682V258.103H151.049V257.364H154.562V258.103H153.218V264.682H152.401Z" fill="#263238"/>
<path d="M185.122 259.683V260.697H184.336V259.683H185.122ZM185.122 263.668V264.682H184.336V263.668H185.122Z" fill="#263238"/>
<path d="M133.585 279.75H132.461L131.463 272.432H132.249L133.106 278.665L133.892 272.44H134.678L135.464 278.673L136.297 272.432H137.004L136.014 279.75H134.937L134.23 274.782L133.585 279.75Z" fill="#263238"/>
<path d="M140.32 275.678V276.409H138.536V279.011H140.729V279.75H137.719V272.432H140.729V273.179H138.536V275.678H140.32Z" fill="#263238"/>
<path d="M142.317 272.432V279.75H141.531V272.432H142.317Z" fill="#263238"/>
<path d="M146.38 274.2V274.829H145.594V274.161C145.594 273.501 145.326 273.1 144.737 273.1C144.147 273.1 143.88 273.501 143.88 274.161V278.028C143.88 278.688 144.147 279.081 144.737 279.081C145.326 279.081 145.594 278.688 145.594 278.028V276.566H144.808V275.835H146.332V277.989C146.332 279.097 145.814 279.828 144.682 279.828C143.55 279.828 143.039 279.097 143.039 277.989V274.2C143.039 273.092 143.566 272.361 144.682 272.361C145.798 272.361 146.38 273.092 146.38 274.2Z" fill="#263238"/>
<path d="M147.968 276.456V279.75H147.182V272.432H147.968V275.725H149.752V272.432H150.538V279.75H149.752V276.456H147.968Z" fill="#263238"/>
<path d="M152.489 279.75V273.179H151.145V272.432H154.658V273.179H153.306V279.75H152.489Z" fill="#263238"/>
<path d="M183.55 274.751V275.772H182.764V274.751H183.55ZM183.55 278.736V279.75H182.764V278.736H183.55Z" fill="#263238"/>
<path d="M131.674 289.244C132.814 289.244 133.246 289.787 133.246 290.864V291.209C133.246 291.995 133.026 292.467 132.389 292.664C133.105 292.86 133.372 293.45 133.372 294.236V294.872C133.407 295.102 133.387 295.336 133.316 295.557C133.245 295.778 133.123 295.98 132.961 296.146C132.799 296.312 132.6 296.438 132.381 296.514C132.162 296.591 131.928 296.615 131.698 296.586H130.016V289.268L131.674 289.244ZM131.478 292.388C132.122 292.388 132.46 292.184 132.46 291.414V290.942C132.46 290.29 132.24 289.983 131.674 289.983H130.888V292.341L131.478 292.388ZM131.713 295.863C132.311 295.863 132.586 295.548 132.586 294.872V294.22C132.586 293.434 132.264 293.135 131.556 293.135H130.888V295.863H131.713Z" fill="#263238"/>
<path d="M134.158 296.562V289.244H134.944V295.823H137.035V296.562H134.158Z" fill="#263238"/>
<path d="M137.617 291.013C137.617 289.897 138.175 289.174 139.291 289.174C140.407 289.174 140.973 289.897 140.973 291.013V294.801C140.973 295.91 140.423 296.641 139.291 296.641C138.16 296.641 137.617 295.91 137.617 294.801V291.013ZM138.403 294.841C138.403 295.509 138.686 295.894 139.268 295.894C139.849 295.894 140.132 295.509 140.132 294.841V290.942C140.132 290.282 139.865 289.881 139.268 289.881C138.67 289.881 138.403 290.282 138.403 290.942V294.841Z" fill="#263238"/>
<path d="M141.688 291.013C141.688 289.897 142.238 289.174 143.362 289.174C144.486 289.174 145.044 289.897 145.044 291.013V294.801C145.086 295.039 145.072 295.282 145.005 295.514C144.938 295.745 144.818 295.958 144.656 296.135C144.493 296.313 144.292 296.451 144.068 296.539C143.843 296.626 143.602 296.661 143.362 296.641C142.238 296.641 141.688 295.91 141.688 294.801V291.013ZM142.473 294.841C142.473 295.509 142.756 295.894 143.346 295.894C143.935 295.894 144.211 295.509 144.211 294.841V290.942C144.211 290.282 143.935 289.881 143.346 289.881C142.756 289.881 142.473 290.282 142.473 290.942V294.841Z" fill="#263238"/>
<path d="M147.528 289.244C148.668 289.244 149.194 289.936 149.194 291.068V294.754C149.194 295.878 148.668 296.562 147.528 296.562H145.822V289.244H147.528ZM147.528 295.823C148.117 295.823 148.4 295.454 148.4 294.786V291.021C148.4 290.353 148.117 289.991 147.52 289.991H146.608V295.823H147.528Z" fill="#263238"/>
<path d="M152.645 296.562V289.991H151.324V289.205H154.845V289.991H153.494V296.562H152.645Z" fill="#263238"/>
<path d="M156.67 293.937L155.098 289.221H155.947L157.086 292.821L158.242 289.221H159.028L157.456 293.937V296.562H156.67V293.937Z" fill="#263238"/>
<path d="M161.22 289.244C162.368 289.244 162.863 289.928 162.863 291.037V291.909C162.863 293.072 162.321 293.677 161.158 293.677H160.434V296.562H159.648V289.244H161.22ZM161.158 292.946C161.763 292.946 162.061 292.664 162.061 291.964V290.989C162.061 290.321 161.818 289.991 161.22 289.991H160.434V292.946H161.158Z" fill="#263238"/>
<path d="M166.133 292.514V293.253H164.349V295.855H166.542V296.594H163.531V289.276H166.542V290.062H164.349V292.514H166.133Z" fill="#263238"/>
<path d="M182.671 291.563V292.577H181.885V291.563H182.671ZM182.671 295.548V296.562H181.885V295.548H182.671Z" fill="#263238"/>
<path d="M128.837 309.484V312.777H128.051V305.46H128.837V308.753H130.637V305.46H131.423V312.777H130.637V309.484H128.837Z" fill="#263238"/>
<path d="M132.232 307.228C132.232 306.104 132.783 305.389 133.907 305.389C135.031 305.389 135.589 306.104 135.589 307.228V311.009C135.589 312.117 135.031 312.856 133.907 312.856C132.783 312.856 132.232 312.117 132.232 311.009V307.228ZM133.018 311.056C133.018 311.724 133.301 312.109 133.891 312.109C134.48 312.109 134.755 311.724 134.755 311.056V307.181C134.755 306.529 134.48 306.128 133.891 306.128C133.301 306.128 133.018 306.529 133.018 307.181V311.056Z" fill="#263238"/>
<path d="M139.055 312.769H138.269L137.051 306.945V312.777H136.391V305.46H137.53L138.733 311.307L139.896 305.46H141.036V312.777H140.25V306.89L139.055 312.769Z" fill="#263238"/>
<path d="M144.432 308.698V309.429H142.679V312.038H144.872V312.777H141.861V305.46H144.872V306.198H142.679V308.698H144.432Z" fill="#263238"/>
<path d="M148.04 311.307L147.757 312.777H146.971L148.37 305.46H149.549L150.956 312.777H150.17L149.887 311.307H148.04ZM148.15 310.6H149.753L148.967 306.379L148.15 310.6Z" fill="#263238"/>
<path d="M153.344 305.46C154.484 305.46 155.003 306.151 155.003 307.275V310.969C155.003 312.086 154.484 312.777 153.344 312.777H151.631V305.46H153.344ZM153.344 312.038C153.926 312.038 154.209 311.669 154.209 311.001V307.236C154.209 306.568 153.926 306.198 153.329 306.198H152.448V312.038H153.344Z" fill="#263238"/>
<path d="M157.4 305.46C158.555 305.46 159.035 306.041 159.035 307.134V307.731C159.035 308.517 158.752 309.036 158.123 309.232C158.791 309.429 159.043 310.018 159.043 310.757V311.897C159.016 312.198 159.068 312.501 159.192 312.777H158.406C158.287 312.497 158.239 312.192 158.265 311.889V310.742C158.265 309.916 157.88 309.649 157.204 309.649H156.622V312.793H155.836V305.475L157.4 305.46ZM157.196 308.91C157.84 308.91 158.225 308.698 158.225 307.904V307.205C158.225 306.544 157.99 306.198 157.384 306.198H156.598V308.91H157.196Z" fill="#263238"/>
<path d="M162.494 308.698V309.429H160.71V312.038H162.903V312.777H159.893V305.46H162.903V306.198H160.71V308.698H162.494Z" fill="#263238"/>
<path d="M166.825 307.212V307.448H166.039V307.205C166.039 306.544 165.795 306.159 165.205 306.159C164.616 306.159 164.372 306.544 164.372 307.197C164.372 308.839 166.825 308.997 166.825 311.056C166.825 312.164 166.29 312.887 165.174 312.887C164.058 312.887 163.531 312.164 163.531 311.056V310.592H164.317V311.056C164.317 311.716 164.592 312.101 165.174 312.101C165.756 312.101 166.039 311.716 166.039 311.056C166.039 309.421 163.586 309.272 163.586 307.205C163.586 306.081 164.113 305.381 165.205 305.381C166.298 305.381 166.825 306.104 166.825 307.212Z" fill="#263238"/>
<path d="M170.715 307.212V307.448H169.929V307.205C169.929 306.544 169.686 306.159 169.096 306.159C168.507 306.159 168.263 306.544 168.263 307.197C168.263 308.839 170.715 308.997 170.715 311.056C170.715 312.164 170.181 312.887 169.065 312.887C167.949 312.887 167.422 312.164 167.422 311.056V310.592H168.208V311.056C168.208 311.716 168.483 312.101 169.065 312.101C169.646 312.101 169.921 311.716 169.921 311.056C169.921 309.421 167.477 309.272 167.477 307.205C167.477 306.081 168.004 305.381 169.096 305.381C170.189 305.381 170.715 306.104 170.715 307.212Z" fill="#263238"/>
<path d="M180.327 307.778V308.792H179.541V307.778H180.327ZM180.327 311.763V312.777H179.541V311.763H180.327Z" fill="#263238"/>
<path d="M127.013 322.272C128.161 322.272 128.656 322.948 128.656 324.056V324.937C128.656 326.1 128.106 326.705 126.951 326.705H126.227V329.59H125.441V322.272H127.013ZM126.951 325.974C127.556 325.974 127.847 325.691 127.847 324.992V324.017C127.847 323.349 127.603 323.011 127.013 323.011H126.227V325.974H126.951Z" fill="#263238"/>
<path d="M130.102 326.312V329.606H129.316V322.288H130.102V325.581H131.902V322.288H132.688V329.606H131.902V326.312H130.102Z" fill="#263238"/>
<path d="M133.498 324.041C133.498 322.917 134.048 322.194 135.164 322.194C136.28 322.194 136.854 322.917 136.854 324.041V327.821C136.896 328.059 136.883 328.304 136.815 328.536C136.748 328.767 136.627 328.981 136.464 329.159C136.3 329.336 136.098 329.474 135.873 329.561C135.647 329.648 135.405 329.682 135.164 329.661C134.048 329.661 133.498 328.93 133.498 327.821V324.041ZM134.284 327.869C134.284 328.537 134.567 328.922 135.149 328.922C135.73 328.922 136.021 328.537 136.021 327.869V323.994C136.021 323.333 135.746 322.94 135.149 322.94C134.551 322.94 134.284 323.333 134.284 323.994V327.869Z" fill="#263238"/>
<path d="M138.348 329.59H137.617V322.272H138.655L140.345 327.562V322.272H141.107V329.59H140.258L138.387 323.671L138.348 329.59Z" fill="#263238"/>
<path d="M144.51 325.526V326.257H142.718V328.867H144.911V329.606H141.893V322.288H144.903V323.027H142.71V325.526H144.51Z" fill="#263238"/>
<path d="M148.008 329.59H147.277V322.272H148.315L150.005 327.562V322.272H150.728V329.59H149.879L148.008 323.671V329.59Z" fill="#263238"/>
<path d="M152.339 327.884C152.339 328.537 152.598 328.937 153.195 328.937C153.793 328.937 154.044 328.537 154.044 327.884V322.288H154.83V327.837C154.83 328.945 154.319 329.692 153.188 329.692C152.056 329.692 151.561 328.945 151.561 327.837V322.288H152.347L152.339 327.884Z" fill="#263238"/>
<path d="M158.311 329.582H157.525L156.315 323.758V329.59H155.6V322.272H156.739L157.942 328.12L159.105 322.272H160.245V329.59H159.459V323.703L158.311 329.582Z" fill="#263238"/>
<path d="M162.721 322.272C163.861 322.272 164.293 322.815 164.293 323.891V324.237C164.293 325.023 164.073 325.495 163.436 325.691C164.144 325.888 164.419 326.477 164.419 327.263V327.884C164.453 328.114 164.434 328.348 164.363 328.569C164.292 328.79 164.17 328.992 164.008 329.158C163.846 329.324 163.647 329.45 163.428 329.526C163.209 329.603 162.975 329.627 162.745 329.598H161.055V322.28L162.721 322.272ZM162.525 325.377C163.177 325.377 163.507 325.165 163.507 324.402V323.954C163.507 323.302 163.287 322.987 162.721 322.987H161.935V325.345L162.525 325.377ZM162.768 328.851C163.366 328.851 163.633 328.537 163.633 327.853V327.208C163.633 326.422 163.311 326.116 162.611 326.116H161.896V328.851H162.768Z" fill="#263238"/>
<path d="M167.783 325.526V326.257H165.999V328.867H168.192V329.606H165.182V322.288H168.192V323.027H165.999V325.526H167.783Z" fill="#263238"/>
<path d="M170.582 322.272C171.73 322.272 172.209 322.854 172.209 323.946V324.544C172.209 325.33 171.926 325.848 171.297 326.045C171.973 326.241 172.217 326.792 172.217 327.57V328.71C172.194 329.011 172.245 329.313 172.366 329.59H171.541C171.426 329.309 171.38 329.004 171.407 328.702V327.554C171.407 326.729 171.014 326.462 170.338 326.462H169.765V329.606H168.979V322.288L170.582 322.272ZM170.37 325.723C171.014 325.723 171.407 325.511 171.407 324.717V324.017C171.407 323.357 171.164 323.011 170.558 323.011H169.772V325.723H170.37Z" fill="#263238"/>
<path d="M178.716 324.591V325.605H177.93V324.591H178.716ZM178.716 328.576V329.59H177.93V328.576H178.716Z" fill="#263238"/>
<path d="M282.515 141.673H239.953V195.986H282.515V141.673Z" fill="#BFBFBF"/>
<path d="M279.694 196.174H242.752L243.538 191.71V190.79C243.543 187.164 244.348 183.584 245.896 180.305C245.894 180.273 245.894 180.242 245.896 180.211L255.163 177.695C255.279 176.918 255.526 176.166 255.894 175.471C256.408 175.124 256.973 174.858 257.568 174.685V172.995C256.876 171.869 256.324 170.663 255.925 169.403C255.811 169.404 255.699 169.379 255.595 169.332C255.395 169.241 255.211 169.116 255.053 168.963C254.64 168.633 254.27 168.253 253.952 167.831C253.631 167.404 253.465 166.88 253.481 166.345C253.485 165.83 253.589 165.32 253.787 164.844C254.003 164.564 254.287 164.345 254.613 164.208C254.67 163.591 254.67 162.97 254.613 162.353C253.465 151.639 268.682 148.723 268.871 162.738C268.871 163.264 268.91 163.932 268.91 163.932C269.08 164.005 269.233 164.113 269.358 164.248C269.484 164.384 269.581 164.544 269.641 164.718C269.751 165.25 269.83 165.788 269.877 166.33C269.889 166.864 269.723 167.386 269.405 167.815C269.083 168.236 268.711 168.616 268.297 168.947C268.138 169.1 267.955 169.225 267.755 169.317C267.622 169.377 267.474 169.396 267.33 169.372C266.877 170.82 266.215 172.194 265.365 173.451V175.023C266.473 175.345 267.519 175.95 267.582 177.012C267.593 177.175 267.614 177.338 267.645 177.499C271.103 178.324 276.487 179.857 276.487 179.857L276.558 180.226C278.115 183.513 278.921 187.106 278.916 190.743L279.702 196.19L279.694 196.174Z" fill="#263238"/>
<path d="M336.097 185.209H264.822V280.119H336.097V185.209Z" fill="#BFBFBF" stroke="#263238" stroke-linecap="round" stroke-linejoin="round"/>
<path d="M276.297 279.852H265.207L266.693 271.284V269.484C266.695 262.528 268.238 255.659 271.212 249.371V249.308L276.297 279.82V279.852Z" fill="#92E3A9" stroke="#263238" stroke-linecap="round" stroke-linejoin="round"/>
<path d="M336.034 279.852H324.912L328.842 256.107L329.982 249.221C332.977 255.526 334.529 262.418 334.525 269.398L336.042 279.852H336.034Z" fill="#92E3A9" stroke="#263238" stroke-linecap="round" stroke-linejoin="round"/>
<path d="M329.856 248.498C329.856 248.498 329.408 251.792 328.85 256.091C328.025 262.379 326.964 270.821 326.689 274.326C326.602 275.458 326.469 277.407 326.311 279.828H275.599C273.964 267.527 271.511 251.281 271.229 249.379V249.198L289.008 244.372L291.429 243.711C292.107 243.287 292.855 242.984 293.637 242.815C294.639 242.578 295.659 242.429 296.687 242.367H297.104H297.174C299.584 242.265 301.998 242.336 304.398 242.58C305.97 242.721 307.408 242.91 308.548 243.075H308.603C309.577 243.224 311.11 243.562 312.926 243.994C319.528 245.551 329.856 248.498 329.856 248.498Z" fill="#92E3A9"/>
<mask id="mask0_2003_5209" style="mask-type:luminance" maskUnits="userSpaceOnUse" x="271" y="242" width="59" height="38">
<path d="M329.856 248.498C329.856 248.498 329.408 251.792 328.85 256.091C328.025 262.379 326.964 270.821 326.689 274.326C326.602 275.458 326.469 277.407 326.311 279.828H275.599C273.964 267.527 271.511 251.281 271.229 249.379V249.198L289.008 244.372L291.429 243.711C292.107 243.287 292.855 242.984 293.637 242.815C294.639 242.578 295.659 242.429 296.687 242.367H297.104H297.174C299.584 242.265 301.998 242.336 304.398 242.58C305.97 242.721 307.408 242.91 308.548 243.075H308.603C309.577 243.224 311.11 243.562 312.926 243.994C319.528 245.551 329.856 248.498 329.856 248.498Z" fill="white"/>
</mask>
<g mask="url(#mask0_2003_5209)">
<path opacity="0.2" d="M288.262 257.364L295.752 253.191C296.483 252.782 297.426 252.405 298.11 252.9C298.794 253.395 298.653 254.401 299.085 255.085C299.394 255.465 299.813 255.74 300.285 255.871C300.757 256.002 301.258 255.983 301.718 255.816C302.669 255.564 303.502 253.458 304.43 253.128C307.479 252.13 310.663 255.572 313.335 257.356C312.911 253.206 312.489 249.056 312.07 244.906C312.07 245.118 294.778 244.812 293.206 245.158C288.089 246.313 288.875 253.128 288.262 257.364Z" fill="black"/>
</g>
<path d="M329.856 248.498C329.856 248.498 329.408 251.792 328.85 256.091C328.025 262.379 326.964 270.821 326.689 274.326C326.602 275.458 326.469 277.407 326.311 279.828H275.599C273.964 267.527 271.511 251.281 271.229 249.379V249.198L289.008 244.372L291.429 243.711C292.107 243.287 292.855 242.984 293.637 242.815C294.639 242.578 295.659 242.429 296.687 242.367H297.104H297.174C299.584 242.265 301.998 242.336 304.398 242.58C305.97 242.721 307.408 242.91 308.548 243.075H308.603C309.577 243.224 311.11 243.562 312.926 243.994C319.528 245.551 329.856 248.498 329.856 248.498Z" stroke="#263238" stroke-linecap="round" stroke-linejoin="round"/>
<path d="M295.399 237.997C295.399 237.997 291.209 239.255 290.376 240.088C289.543 240.921 288.914 245.354 288.065 247.626C287.216 249.897 284.513 253.914 285.354 254.11C286.195 254.307 299.03 250.094 299.03 250.094L301.467 260.013L303.023 250.07C303.023 250.07 315.261 254.936 315.67 254.299C316.078 253.662 312.974 246.14 312.769 242.996C312.565 239.852 307.951 238.807 305.231 238.61C302.512 238.414 295.399 237.997 295.399 237.997Z" fill="#263238"/>
<path d="M293.598 232.928V245.166L301.159 249.009L301.23 259.211L301.159 249.009L308.508 244.993V232.212L293.598 232.928Z" fill="white" stroke="#263238" stroke-linecap="round" stroke-linejoin="round"/>
<path d="M286.61 220.281C286.139 220.96 285.838 221.741 285.729 222.56C285.693 223.586 286.009 224.593 286.625 225.413C287.238 226.225 287.951 226.957 288.748 227.591C289.053 227.885 289.403 228.129 289.785 228.314C289.985 228.42 290.211 228.469 290.437 228.454C290.663 228.44 290.88 228.362 291.065 228.231C291.25 228.099 291.394 227.919 291.481 227.71C291.569 227.501 291.597 227.272 291.562 227.048C291.514 226.587 291.402 226.135 291.231 225.704C290.603 223.834 290.799 221.829 290.265 220.021C289.659 217.946 287.49 218.842 286.61 220.281Z" fill="white" stroke="#263238" stroke-linecap="round" stroke-linejoin="round"/>
<path d="M316.298 220.281C316.768 220.959 317.067 221.741 317.17 222.56C317.207 223.587 316.888 224.595 316.266 225.413C315.654 226.224 314.944 226.955 314.152 227.591C313.845 227.887 313.492 228.131 313.106 228.314C312.912 228.401 312.7 228.443 312.488 228.434C312.275 228.426 312.067 228.369 311.88 228.267C311.694 228.126 311.546 227.94 311.45 227.727C311.354 227.515 311.313 227.281 311.33 227.048C311.377 226.586 311.491 226.133 311.668 225.704C312.289 223.834 312.092 221.829 312.627 220.021C313.24 217.946 315.417 218.842 316.298 220.281Z" fill="white" stroke="#263238" stroke-linecap="round" stroke-linejoin="round"/>
<path d="M293.59 235.341C293.59 235.341 295.893 244.073 300.515 244.262C305.136 244.45 308.524 236.244 308.524 236.244C308.524 236.244 303.745 232.778 293.59 235.341Z" fill="#263238"/>
<path d="M314.026 218.08C314.026 227.74 308.344 241.055 301.34 241.055C294.337 241.055 288.646 227.74 288.646 218.08C288.646 208.42 294.329 200.599 301.34 200.599C308.351 200.599 314.026 208.412 314.026 218.08Z" fill="white" stroke="#263238" stroke-linecap="round" stroke-linejoin="round"/>
<path d="M296.735 219.715C297.128 219.715 297.442 220.501 297.442 221.531C297.442 222.56 297.128 223.354 296.735 223.354C296.342 223.354 296.02 222.568 296.02 221.531C296.02 220.493 296.31 219.715 296.735 219.715Z" fill="#263238"/>
<path d="M305.569 219.715C305.962 219.715 306.276 220.501 306.276 221.531C306.276 222.56 305.962 223.354 305.569 223.354C305.176 223.354 304.854 222.568 304.854 221.531C304.854 220.493 305.176 219.715 305.569 219.715Z" fill="#263238"/>
<path d="M302.637 218.803L302.173 219.738C302.173 219.738 302.488 224.643 302.621 225.704C302.755 226.765 301.977 227.96 300.821 227.331L299.658 226.702" stroke="#263238" stroke-linecap="round" stroke-linejoin="round"/>
<path d="M297.811 231.442C297.811 232.409 304.885 232.409 304.885 231.442" stroke="#263238" stroke-linecap="round" stroke-linejoin="round"/>
<path d="M289.259 224.596L290.745 224.887C290.232 223.319 289.889 221.701 289.723 220.061C289.589 218.67 291.586 216.587 291.586 215.612C291.586 210.322 294.462 210.472 295.052 211.25C295.131 210.283 299.658 205.614 303.038 212.083C303.902 213.733 313.098 215.227 313.067 216.689C313.013 219.31 312.751 221.922 312.281 224.502C313.028 224.643 313.688 223.865 313.782 223.103C313.877 222.34 314.065 219.4 314.702 218.976C314.845 219.258 315.075 219.487 315.358 219.628C315.641 219.77 315.962 219.817 316.274 219.762C315.849 218.844 315.614 217.849 315.582 216.838C315.629 215.824 316.156 216.492 317.154 216.209C317.665 216.06 321.965 213.16 322.499 211.611C320.55 211.855 318.711 210.519 317.594 208.9C316.478 207.28 315.873 205.378 314.93 203.657C312.572 199.365 307.856 196.316 302.975 196.504C298.094 196.693 293.409 200.434 292.67 205.276C292.194 205.082 291.673 205.023 291.165 205.106C290.658 205.19 290.183 205.411 289.794 205.748C289.031 206.436 288.402 207.259 287.939 208.176C286.915 209.726 286.168 211.441 285.73 213.246C285.392 215.062 287.239 217.624 288.646 218.827C288.874 218.402 288.748 224.596 289.259 224.596Z" fill="#263238"/>
<path d="M289.935 207.925C288.937 208.657 288.188 209.677 287.789 210.849" stroke="#5C5C5C" stroke-linecap="round" stroke-linejoin="round"/>
<path d="M290.076 209.678C289.713 210.043 289.408 210.462 289.172 210.92" stroke="#5C5C5C" stroke-linecap="round" stroke-linejoin="round"/>
<path d="M290.95 210.684C290.616 211.017 290.371 211.427 290.234 211.878" stroke="#5C5C5C" stroke-linecap="round" stroke-linejoin="round"/>
<path d="M300.932 206.321C301.44 206.386 301.918 206.6 302.305 206.936C302.693 207.271 302.972 207.714 303.109 208.208" stroke="#5C5C5C" stroke-linecap="round" stroke-linejoin="round"/>
<path d="M301.041 204.262C301.929 204.453 302.747 204.885 303.406 205.51C304.064 206.136 304.538 206.93 304.775 207.807" stroke="#5C5C5C" stroke-linecap="round" stroke-linejoin="round"/>
<path d="M304.877 204.349C305.252 204.693 305.555 205.109 305.769 205.572C305.982 206.035 306.101 206.535 306.119 207.045" stroke="#5C5C5C" stroke-linecap="round" stroke-linejoin="round"/>
<path d="M307.055 204.781C307.457 205.277 307.667 205.903 307.644 206.542" stroke="#5C5C5C" stroke-linecap="round" stroke-linejoin="round"/>
<path d="M308.65 205.205C308.779 205.352 308.876 205.525 308.934 205.712C308.993 205.899 309.011 206.096 308.988 206.29" stroke="#5C5C5C" stroke-linecap="round" stroke-linejoin="round"/>
<path d="M310.332 205.37C310.387 205.567 310.442 205.756 310.505 205.952" stroke="#5C5C5C" stroke-linecap="round" stroke-linejoin="round"/>
<path d="M292.953 218.512C293.448 218.096 293.778 217.514 294.305 217.137C294.663 216.912 295.064 216.765 295.483 216.707C295.902 216.649 296.328 216.68 296.734 216.799C297.546 217.036 298.32 217.391 299.029 217.852" stroke="#263238" stroke-linecap="round" stroke-linejoin="round"/>
<path d="M303.91 217.844C304.62 217.383 305.393 217.028 306.205 216.791C306.611 216.672 307.037 216.641 307.456 216.699C307.875 216.757 308.276 216.904 308.634 217.129C309.153 217.506 309.491 218.088 309.986 218.504" stroke="#263238" stroke-linecap="round" stroke-linejoin="round"/>
<path d="M296.404 240.575C296.564 243.311 297.644 245.912 299.47 247.956L296.404 240.575Z" fill="white"/>
<path d="M296.404 240.575C296.564 243.311 297.644 245.912 299.47 247.956" stroke="#263238" stroke-linecap="round" stroke-linejoin="round"/>
<path d="M296.42 211.132C296.709 210.414 297.104 209.744 297.591 209.143C297.81 208.849 298.092 208.607 298.416 208.436C298.581 208.351 298.765 208.313 298.949 208.326C299.133 208.338 299.31 208.401 299.462 208.507" stroke="#263238" stroke-linecap="round" stroke-linejoin="round"/>
<path d="M297.857 211.446C298.207 210.776 298.72 210.204 299.35 209.785C299.979 209.366 300.704 209.113 301.457 209.049" stroke="#263238" stroke-linecap="round" stroke-linejoin="round"/>
<path d="M299.438 211.556C299.925 210.904 303.737 208.789 304.609 212.051" stroke="#263238" stroke-linecap="round" stroke-linejoin="round"/>
<path d="M293.644 212.24C292.984 212.2 292.325 212.315 291.717 212.576C291.11 212.836 290.572 213.236 290.146 213.741" stroke="#263238" stroke-linecap="round" stroke-linejoin="round"/>
<path d="M292.551 213.647C291.847 213.825 291.199 214.18 290.67 214.677C290.14 215.175 289.746 215.8 289.525 216.492" stroke="#263238" stroke-linecap="round" stroke-linejoin="round"/>
<path d="M266.865 271.182C266.81 272.924 267.314 274.637 268.304 276.071" stroke="#263238" stroke-linecap="round" stroke-linejoin="round"/>
<path d="M274.727 264.289C275.418 269.415 275.717 274.586 275.623 279.757" stroke="#263238" stroke-linecap="round" stroke-linejoin="round"/>
<path d="M329.981 260.626C328.865 265.264 327.746 269.904 326.625 274.546" stroke="#263238" stroke-linecap="round" stroke-linejoin="round"/>
<path d="M332.889 271.819C331.892 274.864 330.33 277.693 328.283 280.158" stroke="#263238" stroke-miterlimit="10"/>
<path d="M270.457 261.412C270.944 265.96 272.388 270.353 274.694 274.303" stroke="#263238" stroke-miterlimit="10"/>
<path d="M301.23 259.211L300.932 272.023H303.911L304.107 250.259" stroke="#263238" stroke-miterlimit="10"/>
<path d="M302.448 270.357C302.847 270.357 303.171 270.033 303.171 269.634C303.171 269.234 302.847 268.911 302.448 268.911C302.048 268.911 301.725 269.234 301.725 269.634C301.725 270.033 302.048 270.357 302.448 270.357Z" stroke="#263238" stroke-miterlimit="10"/>
<path d="M303.321 260.516C303.32 260.659 303.276 260.798 303.196 260.916C303.115 261.034 303.002 261.125 302.869 261.179C302.737 261.232 302.592 261.245 302.452 261.217C302.313 261.188 302.184 261.118 302.084 261.017C301.984 260.915 301.916 260.787 301.888 260.646C301.861 260.506 301.876 260.361 301.931 260.23C301.986 260.098 302.078 259.986 302.197 259.906C302.316 259.827 302.455 259.785 302.598 259.785C302.694 259.785 302.788 259.804 302.877 259.841C302.965 259.878 303.045 259.932 303.112 260C303.179 260.068 303.233 260.148 303.268 260.237C303.304 260.326 303.322 260.421 303.321 260.516Z" stroke="#263238" stroke-miterlimit="10"/>
</svg>
