<svg width="393" height="393" fill="none" xmlns="http://www.w3.org/2000/svg"><path d="M228.73 124.9c-.149.118.401 1.218-2.405.33-6.917-2.193-18.809-7.019-21.089-14.863-3.254-11.193 11.358-4.976 11.68-10.376.323-5.4-17.134-7.23-17.732-15.335-.597-8.103 10.548-2.515 11.311-6.288.762-3.772-13.142-3.568-14.494-12.418-1.352-8.85 7.86-1.022 7.278-4.716-.581-3.695-9.51-21.356-3.026-22.205 6.485-.849 14.423 17.08 18.078 20.02 3.655 2.94 9.385-9.747 13.362-3.38 3.977 6.366-6.83 24.759-1.281 29.538 4.134 3.56 4.079-4.45 9.896-2.028 7.899 3.277.526 31.864-11.578 41.721z" fill="#92E3A9"/><path d="M228.73 124.9c-.149.118.401 1.218-2.405.33-6.917-2.193-18.809-7.019-21.089-14.863-3.254-11.193 11.358-4.976 11.68-10.376.323-5.4-17.134-7.23-17.732-15.335-.597-8.103 10.548-2.515 11.311-6.288.762-3.772-13.142-3.568-14.494-12.418-1.352-8.85 7.86-1.022 7.278-4.716-.581-3.695-9.51-21.356-3.026-22.205 6.485-.849 14.423 17.08 18.078 20.02 3.655 2.94 9.385-9.747 13.362-3.38 3.977 6.366-6.83 24.759-1.281 29.538 4.134 3.56 4.079-4.45 9.896-2.028 7.899 3.277.526 31.864-11.578 41.721z" fill="#fff" opacity=".2"/><path d="M216.5 74.533s19.831 27.769 8.709 75.896" stroke="#5C5C5C" stroke-linecap="round" stroke-linejoin="round"/><path d="M210.393 78.722c6.885.967 10.328 3.655 10.328 3.655M224.594 62.318s4.142 13.551-1.022 27.353M227.18 104.244s-3.749-7.46-12.348-7.491M228.352 113.911s5.549-5.934 7.537-16.42" stroke="#5C5C5C" stroke-linecap="round" stroke-linejoin="round"/><path d="M302.315 40.586c-5.706-3.27-19.831 10.312-24.366 11.632-4.535 1.32-4.92-8.693-11.004-4.3-6.084 4.395-3.081 25.49-10.037 27.81-5.172 1.72-2.421-7.672-8.387-5.636-10.438 3.56-5.973 43.969-3.042 44.212 7.232.598 20.035-5.337 25.31-11.57 5.274-6.233-8.772-3.088-7.019-8.213 1.752-5.125 18.596-.173 22.228-7.444 3.631-7.27-8.804-6.335-8.073-10.115.731-3.781 13.457-2.193 18.078-9.873 4.622-7.679-6.909-3.93-4.936-7.12 1.973-3.192 16.946-16.122 11.232-19.383" fill="#92E3A9"/><path opacity=".1" d="M302.315 40.586c-5.706-3.27-19.831 10.312-24.366 11.632-4.535 1.32-4.92-8.693-11.004-4.3-6.084 4.395-3.081 25.49-10.037 27.81-5.172 1.72-2.421-7.672-8.387-5.636-10.438 3.56-5.973 43.969-3.042 44.212 7.232.598 20.035-5.337 25.31-11.57 5.274-6.233-8.772-3.088-7.019-8.213 1.752-5.125 18.596-.173 22.228-7.444 3.631-7.27-8.804-6.335-8.073-10.115.731-3.781 13.457-2.193 18.078-9.873 4.622-7.679-6.909-3.93-4.936-7.12 1.973-3.192 16.946-16.122 11.232-19.383" fill="#000"/><path d="M282.642 60.424s-33.405 22.794-46.689 81.744" stroke="#5C5C5C" stroke-linecap="round" stroke-linejoin="round"/><path d="M293.952 69.565c-11.563-4.26-19.305-2.028-19.776-1.886M267.455 74.973c.236-9.99 3.71-18.707 6.775-24.515M256.545 90.3s7.789-7.074 17.732-3.506M250.752 100.997s-3.654-9.172-1.108-22.118" stroke="#5C5C5C" stroke-linecap="round" stroke-linejoin="round"/><path d="M120.929 279.883c-.157.118.33 1.242-2.421.205-6.791-2.571-18.392-8.049-20.24-16.003-2.632-11.358 11.618-4.347 12.239-9.723.621-5.377-16.718-8.159-16.868-16.278-.15-8.12 10.674-1.934 11.641-5.667.967-3.734-12.906-4.284-13.787-13.197-.88-8.914 7.94-.59 7.523-4.308-.417-3.717-8.364-21.843-1.8-22.33 6.563-.487 13.464 17.842 16.977 20.986 3.514 3.144 9.912-9.219 13.496-2.641 3.584 6.579-8.182 24.366-2.908 29.42 3.93 3.781 4.315-4.22 9.997-1.485 7.711 3.71-1.226 31.841-13.849 41.021z" fill="#92E3A9"/><path d="M120.929 279.883c-.157.118.33 1.242-2.421.205-6.791-2.571-18.392-8.049-20.24-16.003-2.632-11.358 11.618-4.347 12.239-9.723.621-5.377-16.718-8.159-16.868-16.278-.15-8.12 10.674-1.934 11.641-5.667.967-3.734-12.906-4.284-13.787-13.197-.88-8.914 7.94-.59 7.523-4.308-.417-3.717-8.364-21.843-1.8-22.33 6.563-.487 13.464 17.842 16.977 20.986 3.514 3.144 9.912-9.219 13.496-2.641 3.584 6.579-8.182 24.366-2.908 29.42 3.93 3.781 4.315-4.22 9.997-1.485 7.711 3.71-1.226 31.841-13.849 41.021z" fill="#000" opacity=".1"/><path d="M111.482 228.919s18.275 28.783 4.551 76.242" stroke="#5C5C5C" stroke-linecap="round" stroke-linejoin="round"/><path d="M105.154 232.778c6.823 1.344 10.116 4.213 10.116 4.213M120.238 217.168s3.395 13.763-2.515 27.267M120.521 259.18s-3.34-7.656-11.916-8.159M121.125 268.934s5.864-5.628 8.426-15.987" stroke="#5C5C5C" stroke-linecap="round" stroke-linejoin="round"/><path d="M123.815 322.382c-3.584 3.317-12.828 5.502-18.204 4.378-5.376-1.124 3.364-5.274.299-7.262-3.066-1.989-9.904 7.6-14.848 5.242-4.944-2.358 2.036-7.011.071-8.717-1.965-1.705-8.033 4.449-13.692 2.296-5.66-2.154 2.02-4.96-.346-5.825-2.366-.864-15.673-1.509-13.999-5.604 1.675-4.095 14.785-2.774 17.733-3.93 2.947-1.155-1.006-6.649 4.032-6.838 5.038-.189 12.23 12.199 16.899 10.54 3.458-1.234-1.91-5.07 2.098-6.469 7.011-2.452 21.427 20.806 19.957 22.189z" fill="#92E3A9"/><path d="M78.627 307.11s34.081 1.572 58.903 27.298" stroke="#5C5C5C" stroke-linecap="round" stroke-linejoin="round"/><path d="M85.55 315.756a25.601 25.601 0 0 1 8.977-5.282M83.94 300.233s9.825 2.766 16.167 11.357M106.727 313.736a10.8 10.8 0 0 0-9.165 4.826M116.63 318.185a25.584 25.584 0 0 0-6.995-11.067" stroke="#5C5C5C" stroke-linecap="round" stroke-linejoin="round"/><path d="M57.405 233.438c6.327-3.615 22.008 11.429 26.991 12.899 4.983 1.469 5.455-9.645 12.167-4.771 6.713 4.873 3.42 28.248 11.122 30.811 5.738 1.91 2.68-8.497 9.291-6.249 11.57 3.93 6.626 48.732 3.372 48.999-8.01.661-22.197-5.91-28.037-12.819-5.84-6.909 9.723-3.419 7.774-9.102-1.95-5.683-20.61-.197-24.634-8.245-4.024-8.049 9.763-7.019 8.945-11.217-.817-4.197-14.934-2.428-20.02-10.933-5.085-8.504 7.664-4.378 5.503-7.86-2.162-3.482-18.778-17.866-12.45-21.481" fill="#92E3A9"/><path opacity=".3" d="M57.405 233.438c6.327-3.615 22.008 11.429 26.991 12.899 4.983 1.469 5.455-9.645 12.167-4.771 6.713 4.873 3.42 28.248 11.122 30.811 5.738 1.91 2.68-8.497 9.291-6.249 11.57 3.93 6.626 48.732 3.372 48.999-8.01.661-22.197-5.91-28.037-12.819-5.84-6.909 9.723-3.419 7.774-9.102-1.95-5.683-20.61-.197-24.634-8.245-4.024-8.049 9.763-7.019 8.945-11.217-.817-4.197-14.934-2.428-20.02-10.933-5.085-8.504 7.664-4.378 5.503-7.86-2.162-3.482-18.778-17.866-12.45-21.481" fill="#fff"/><path d="M79.201 255.431s37.021 25.293 51.735 90.531" stroke="#5C5C5C" stroke-linecap="round" stroke-linejoin="round"/><path d="M66.68 265.547c12.811-4.716 21.387-2.241 21.905-2.083M96.038 271.544c-.268-11.067-4.111-20.735-7.507-27.164M108.093 288.537s-8.599-7.813-19.65-3.883M114.539 300.374s4.056-10.163 1.226-24.507" stroke="#5C5C5C" stroke-linecap="round" stroke-linejoin="round"/><path d="M295.35 98.632H122.619v253.94H295.35V98.632z" fill="#263238"/><path d="M288.356 349.381H112.811l8.504-100.765a506.465 506.465 0 0 0 1.698-52.497L121.048 95.44h171.796l.786 123.497a546.056 546.056 0 0 1-.598 29.868l-4.676 100.576z" fill="#BFBFBF" stroke="#263238" stroke-linecap="round" stroke-linejoin="round"/><path d="M281.014 345.962H103.59l5.439-28.249c11.578-69.097 14.462-99.696 12.859-189.237l-1.824-36.455h168.322l1.981 34.427c4.26 149.835-9.353 219.514-9.353 219.514z" fill="#fff" stroke="#263238" stroke-linecap="round" stroke-linejoin="round"/><path d="M130.032 104.833a4.585 4.585 0 0 1-4.583-4.582 4.584 4.584 0 0 1 4.583-4.583.683.683 0 0 1 0 1.368 3.212 3.212 0 0 0-3.153 3.842c.124.623.43 1.196.879 1.646a3.22 3.22 0 0 0 4.947-.487c.353-.529.541-1.15.541-1.786a.683.683 0 1 1 1.368 0 4.59 4.59 0 0 1-4.582 4.582z" fill="#263238"/><path d="M129.921 102.939c-4.181 0-4.409-9.047-4.417-10.855v-.063c0-1.823.212-10.91 4.417-10.91s4.496 9.81 4.52 10.934l-3.639.07a22.478 22.478 0 0 0-.904-6.232 21.98 21.98 0 0 0-.786 6.138v.063a21.435 21.435 0 0 0 .786 6.17c0-.133.086-.275.133-.44l.283-.99 2.539.739a1.006 1.006 0 0 1 .684 1.242c-.723 2.711-1.949 4.134-3.616 4.134z" fill="#BFBFBF" stroke="#263238" stroke-linecap="round" stroke-linejoin="round"/><path d="M133.93 100.935a.68.68 0 0 1-.483-.201.68.68 0 0 1-.201-.483 3.225 3.225 0 0 0-.941-2.273 3.222 3.222 0 0 0-2.274-.942.683.683 0 0 1 0-1.368 4.588 4.588 0 0 1 4.583 4.583.684.684 0 0 1-.684.684zM151.621 104.833a4.585 4.585 0 0 1-4.582-4.582 4.584 4.584 0 0 1 4.582-4.583.683.683 0 1 1 0 1.368 3.217 3.217 0 0 0-3.153 3.842 3.223 3.223 0 0 0 2.526 2.526 3.22 3.22 0 0 0 3.3-1.367 3.21 3.21 0 0 0 .542-1.786.684.684 0 1 1 1.368 0 4.592 4.592 0 0 1-4.583 4.582z" fill="#263238"/><path d="M151.513 102.939c-4.181 0-4.409-9.047-4.417-10.855v-.063c0-1.823.212-10.91 4.417-10.91s4.527 9.81 4.527 10.973l-3.639.07a22.44 22.44 0 0 0-.904-6.232 22.018 22.018 0 0 0-.786 6.139v.023c-.031 2.084.234 4.161.786 6.17.047-.133.087-.275.134-.44l.283-.99 2.554.762a1.003 1.003 0 0 1 .676 1.242c-.738 2.688-1.965 4.111-3.631 4.111z" fill="#BFBFBF" stroke="#263238" stroke-linecap="round" stroke-linejoin="round"/><path d="M155.522 100.935a.683.683 0 0 1-.684-.684 3.215 3.215 0 0 0-3.215-3.215.683.683 0 0 1 0-1.368 4.59 4.59 0 0 1 4.583 4.583.68.68 0 0 1-.201.483.68.68 0 0 1-.483.201zM173.213 104.833a4.583 4.583 0 0 1 0-9.165.683.683 0 1 1 0 1.368 3.215 3.215 0 1 0 3.215 3.215.684.684 0 1 1 1.368 0 4.592 4.592 0 0 1-4.583 4.582z" fill="#263238"/><path d="M173.111 102.939c-4.19 0-4.418-9.047-4.418-10.855v-.063c0-1.823.213-10.91 4.418-10.91s4.496 9.81 4.511 10.934l-3.639.07a22.44 22.44 0 0 0-.904-6.232 22.018 22.018 0 0 0-.786 6.138v.063c-.031 2.084.234 4.161.786 6.17.047-.133.087-.275.134-.44l.291-.99 2.538.739a1.003 1.003 0 0 1 .676 1.242c-.723 2.711-1.949 4.134-3.607 4.134z" fill="#BFBFBF" stroke="#263238" stroke-linecap="round" stroke-linejoin="round"/><path d="M177.112 100.935a.68.68 0 0 1-.684-.684 3.215 3.215 0 0 0-3.215-3.215.683.683 0 0 1 0-1.368 4.59 4.59 0 0 1 4.582 4.583.684.684 0 0 1-.683.684zM194.813 104.833a4.583 4.583 0 0 1 0-9.165.683.683 0 0 1 0 1.368 3.213 3.213 0 0 0-2.284 5.485 3.218 3.218 0 0 0 3.504.701 3.222 3.222 0 0 0 1.987-2.971.684.684 0 1 1 1.367 0 4.58 4.58 0 0 1-4.574 4.582z" fill="#263238"/><path d="M194.702 102.939c-4.189 0-4.417-9.047-4.417-10.855v-.063c0-1.823.212-10.91 4.417-10.91 4.206 0 4.496 9.81 4.52 10.934l-3.647.07a22.178 22.178 0 0 0-.904-6.232 22.018 22.018 0 0 0-.786 6.138v.063a21.685 21.685 0 0 0 .786 6.17c.039-.133.086-.275.126-.44l.291-.99 2.609.762a1.006 1.006 0 0 1 .676 1.242c-.786 2.688-2.004 4.111-3.671 4.111z" fill="#BFBFBF" stroke="#263238" stroke-linecap="round" stroke-linejoin="round"/><path d="M198.703 100.935a.68.68 0 0 1-.683-.684 3.216 3.216 0 0 0-3.207-3.215.684.684 0 1 1 0-1.368 4.582 4.582 0 0 1 4.574 4.583.684.684 0 0 1-.684.684zM216.27 104.833a4.583 4.583 0 0 1 0-9.165.683.683 0 0 1 0 1.368 3.215 3.215 0 1 0 3.215 3.215.679.679 0 0 1 .401-.698.687.687 0 0 1 .787.168.679.679 0 0 1 .171.53 4.58 4.58 0 0 1-4.574 4.582z" fill="#263238"/><path d="M216.161 102.939c-4.189 0-4.417-9.047-4.417-10.855v-.063c0-1.823.212-10.91 4.417-10.91 4.206 0 4.496 9.81 4.52 10.934l-3.647.07a22.178 22.178 0 0 0-.904-6.232 22 22 0 0 0-.747 6.138v.063a21.72 21.72 0 0 0 .786 6.17c0-.133.087-.275.126-.44l.267-1.014 2.539.739a1.009 1.009 0 0 1 .676 1.242c-.723 2.735-1.949 4.158-3.616 4.158z" fill="#BFBFBF" stroke="#263238" stroke-linecap="round" stroke-linejoin="round"/><path d="M220.162 100.935a.672.672 0 0 1-.676-.684 3.214 3.214 0 0 0-3.214-3.215.684.684 0 1 1 0-1.368 4.582 4.582 0 0 1 4.574 4.583.684.684 0 0 1-.684.684zM237.862 104.833a4.585 4.585 0 0 1-4.583-4.582 4.584 4.584 0 0 1 4.583-4.583.683.683 0 0 1 0 1.368 3.212 3.212 0 0 0-3.153 3.842 3.216 3.216 0 0 0 6.367-.627.683.683 0 1 1 1.368 0 4.59 4.59 0 0 1-4.582 4.582z" fill="#263238"/><path d="M237.785 102.939c-4.19 0-4.418-9.047-4.418-10.855v-.063c0-1.823.212-10.91 4.418-10.91 4.205 0 4.495 9.81 4.519 10.934l-3.647.07c.001-2.11-.304-4.21-.904-6.232a22.38 22.38 0 0 0-.739 6.138v.063a21.47 21.47 0 0 0 .786 6.17c.04-.133.087-.275.126-.44l.291-.99 2.539.739a1.009 1.009 0 0 1 .676 1.242c-.786 2.711-2.013 4.134-3.647 4.134z" fill="#BFBFBF" stroke="#263238" stroke-linecap="round" stroke-linejoin="round"/><path d="M241.76 100.935a.68.68 0 0 1-.483-.201.68.68 0 0 1-.201-.483 3.214 3.214 0 0 0-3.214-3.215.684.684 0 1 1 0-1.368 4.587 4.587 0 0 1 4.582 4.583.684.684 0 0 1-.684.684zM259.453 104.833a4.585 4.585 0 0 1-4.582-4.582 4.584 4.584 0 0 1 4.582-4.583.683.683 0 1 1 0 1.368 3.217 3.217 0 0 0-2.97 1.984 3.221 3.221 0 0 0 .697 3.504 3.22 3.22 0 0 0 4.946-.487 3.21 3.21 0 0 0 .542-1.786.683.683 0 1 1 1.368 0 4.592 4.592 0 0 1-4.583 4.582z" fill="#263238"/><path d="M259.343 102.939c-4.181 0-4.409-9.047-4.417-10.855v-.063c0-1.823.212-10.91 4.417-10.91s4.496 9.81 4.52 10.934l-3.647.07a22.248 22.248 0 0 0-.896-6.232 22 22 0 0 0-.747 6.138v.063a21.47 21.47 0 0 0 .786 6.17c.039-.133.086-.275.126-.44l.306-1.014 2.539.739a1.006 1.006 0 0 1 .684 1.242c-.778 2.735-2.005 4.158-3.671 4.158z" fill="#BFBFBF" stroke="#263238" stroke-linecap="round" stroke-linejoin="round"/><path d="M263.352 100.935a.684.684 0 0 1-.684-.684 3.218 3.218 0 0 0-3.215-3.215.683.683 0 0 1 0-1.368 4.59 4.59 0 0 1 4.583 4.583.68.68 0 0 1-.201.483.68.68 0 0 1-.483.201zM281.014 104.833a4.583 4.583 0 0 1 0-9.165.687.687 0 0 1 .684.684.685.685 0 0 1-.684.684 3.215 3.215 0 1 0 3.215 3.215.684.684 0 1 1 1.367 0 4.59 4.59 0 0 1-4.582 4.582z" fill="#263238"/><path d="M280.935 102.939c-4.182 0-4.41-9.047-4.417-10.855v-.063c0-1.823.212-10.91 4.417-10.91s4.504 9.81 4.519 10.934l-3.655.04a22.44 22.44 0 0 0-.903-6.234c-.537 2.001-.788 4.068-.747 6.139v.094c-.031 2.084.234 4.161.786 6.17.047-.133.086-.275.134-.44l.282-.99 2.539.739a1.006 1.006 0 0 1 .684 1.242c-.747 2.711-1.989 4.134-3.639 4.134z" fill="#BFBFBF" stroke="#263238" stroke-linecap="round" stroke-linejoin="round"/><path d="M284.944 100.935a.684.684 0 0 1-.684-.684 3.207 3.207 0 0 0-.953-2.285 3.21 3.21 0 0 0-2.293-.93.687.687 0 0 1-.684-.684.685.685 0 0 1 .684-.684 4.59 4.59 0 0 1 4.582 4.583.684.684 0 0 1-.652.684zM275.128 329.236h-36.942v.786h36.942v-.786z" fill="#263238"/><path d="M257.027 332.081c-.526 0-1.051-.036-1.572-.11-12.262-1.737-12.655-13.527-12.254-18.51.487-6.139 3.71-14.234 11.177-16.844 7.074-2.484 13.535 5.502 15.256 10.132a25.046 25.046 0 0 1-.078 17.386c-1.737 4.535-7.334 7.946-12.529 7.946zm-13.024-18.557c-.472 5.919.401 16.082 11.585 17.669 5.243.786 11.445-2.688 13.26-7.349a24.23 24.23 0 0 0 .071-16.82c-1.627-4.378-7.663-11.971-14.258-9.66-7.113 2.484-10.218 10.257-10.658 16.16z" fill="#92E3A9"/><path d="M246.297 321.911a.402.402 0 0 1-.377-.268 23.331 23.331 0 0 1-1.156-7.616 17.207 17.207 0 0 1 3.553-10.218.402.402 0 0 1 .55-.079.394.394 0 0 1 .079.551 16.437 16.437 0 0 0-3.396 9.754 22.438 22.438 0 0 0 1.117 7.357.397.397 0 0 1-.244.503.358.358 0 0 1-.126.016zM254.039 329.456h-.095a10.73 10.73 0 0 1-7.074-5.683.385.385 0 0 1 .304-.572.393.393 0 0 1 .388.203 9.995 9.995 0 0 0 6.587 5.29.402.402 0 0 1 .29.479.39.39 0 0 1-.4.283zM257.223 329.857a.393.393 0 1 1 0-.786c6.17 0 10.069-3.537 11.279-10.218a.396.396 0 0 1 .308-.319.39.39 0 0 1 .301.054.397.397 0 0 1 .177.407c-1.297 7.097-5.463 10.862-12.065 10.862zM269.178 317.077a.398.398 0 0 1-.344-.272.377.377 0 0 1-.017-.153c.078-.833.11-1.713.11-2.617a15.915 15.915 0 0 0-2.036-7.624.399.399 0 0 1-.063-.315.406.406 0 0 1 .069-.149.405.405 0 0 1 .125-.108.394.394 0 0 1 .46.059c.04.038.072.084.093.135a16.593 16.593 0 0 1 2.138 8.002c0 .919-.04 1.823-.11 2.688a.395.395 0 0 1-.425.354zM266.363 305.247a.386.386 0 0 1-.283-.157 16.653 16.653 0 0 0-4.716-4.716.383.383 0 0 1-.126-.534.394.394 0 0 1 .104-.115.401.401 0 0 1 .295-.068c.051.009.1.028.144.057a17.342 17.342 0 0 1 4.959 4.912.392.392 0 0 1-.11.543.367.367 0 0 1-.267.078zM250.982 301.875a.36.36 0 0 1-.291-.133.393.393 0 0 1-.088-.125.384.384 0 0 1 .088-.425c2.146-1.902 4.512-2.995 6.501-2.995a7.55 7.55 0 0 1 3.018.715.4.4 0 0 1-.021.729.388.388 0 0 1-.301-.006 6.673 6.673 0 0 0-2.696-.652c-1.793 0-3.978 1.022-5.982 2.798a.393.393 0 0 1-.228.094z" fill="#92E3A9"/><path d="M247.514 318.539a.394.394 0 0 1-.385-.315 21.72 21.72 0 0 1-.377-4.087c0-7.514 6.374-13.173 10.509-13.173a7.177 7.177 0 0 1 3.482 1.053.394.394 0 0 1 .149.534.407.407 0 0 1-.542.15 6.452 6.452 0 0 0-3.089-.951c-3.82 0-9.723 5.321-9.723 12.387a20.802 20.802 0 0 0 .362 3.93c.011.05.012.102.003.153a.383.383 0 0 1-.31.303l-.079.016zM251.304 325.408a.398.398 0 0 1-.243-.086 10.49 10.49 0 0 1-3.254-4.716.396.396 0 0 1-.017-.321.403.403 0 0 1 .228-.226.392.392 0 0 1 .447.125.398.398 0 0 1 .073.147 9.658 9.658 0 0 0 3.01 4.338.407.407 0 0 1 .149.266.388.388 0 0 1-.086.293.388.388 0 0 1-.307.18zM257.262 327.318a10.833 10.833 0 0 1-3.985-.715.4.4 0 0 1-.137-.64.4.4 0 0 1 .428-.091c1.179.45 2.432.674 3.694.66 6.288 0 9.723-4.401 9.723-12.395a.393.393 0 0 1 .393-.393.403.403 0 0 1 .393.393c0 8.497-3.734 13.181-10.509 13.181zM267.244 312.762a.392.392 0 0 1-.385-.338 13.962 13.962 0 0 0-4.598-8.348.385.385 0 0 1-.116-.279.391.391 0 0 1 .666-.279 14.777 14.777 0 0 1 4.842 8.796.405.405 0 0 1-.338.448h-.071z" fill="#92E3A9"/><path d="M257.302 324.74c-5.274 0-8.552-4.032-8.552-10.516a11.34 11.34 0 0 1 2.672-7.169.4.4 0 0 1 .655.071.383.383 0 0 1-.049.432 10.503 10.503 0 0 0-2.492 6.666c0 6.005 2.971 9.73 7.766 9.73a7.748 7.748 0 0 0 3.89-.935.392.392 0 0 1 .393.676 8.44 8.44 0 0 1-4.283 1.045zM263.385 322.044a.39.39 0 0 1-.236-.086.395.395 0 0 1-.071-.55c1.297-1.667 1.989-4.143 1.989-7.153 0-5.557-4.716-9.739-7.766-9.739a5.827 5.827 0 0 0-3.207 1.164.391.391 0 0 1-.506-.127.397.397 0 0 1 .066-.518 6.553 6.553 0 0 1 3.647-1.305c3.364 0 8.552 4.52 8.552 10.525 0 3.144-.747 5.824-2.154 7.632a.397.397 0 0 1-.314.157z" fill="#92E3A9"/><path d="M253.049 320.48a.361.361 0 0 1-.283-.126 8.646 8.646 0 0 1-2.028-5.989c0-4.237 3.632-7.86 6.603-7.86.558.007 1.11.119 1.627.33a.395.395 0 0 1 .003.708.388.388 0 0 1-.286.023 3.781 3.781 0 0 0-1.344-.275c-2.618 0-5.817 3.27-5.817 7.074a7.937 7.937 0 0 0 1.808 5.455.385.385 0 0 1 .116.279.391.391 0 0 1-.116.279.372.372 0 0 1-.283.102zM257.34 322.233a6.71 6.71 0 0 1-2.555-.48.391.391 0 0 1 .141-.754c.052 0 .103.011.15.031a6.005 6.005 0 0 0 2.264.417c3.639 0 5.808-2.649 5.808-7.074a7.651 7.651 0 0 0-2.845-5.832.385.385 0 0 1-.114-.117.381.381 0 0 1-.048-.315.386.386 0 0 1 .202-.247.395.395 0 0 1 .318-.016c.052.02.098.051.137.09a8.446 8.446 0 0 1 3.144 6.437c-.008 4.92-2.476 7.86-6.602 7.86z" fill="#92E3A9"/><path d="M257.372 319.686a4.421 4.421 0 0 1-4.48-3.733.415.415 0 0 1 .054-.303.413.413 0 0 1 .41-.18.408.408 0 0 1 .259.166c.03.043.052.092.063.144a3.69 3.69 0 0 0 3.718 3.144c2.358 0 3.859-1.69 3.859-4.425a.394.394 0 0 1 .786 0c-.023 3.167-1.847 5.187-4.669 5.187zM253.12 314.868a.39.39 0 0 1-.393-.393c0-2.94 2.499-5.211 4.645-5.211 1.674 0 3.45 1.336 4.236 3.191a.397.397 0 0 1-.515.52.413.413 0 0 1-.129-.085.415.415 0 0 1-.087-.128 4.207 4.207 0 0 0-3.505-2.712c-1.784 0-3.859 1.933-3.859 4.425a.394.394 0 0 1-.393.393z" fill="#92E3A9"/><path d="M257.435 317.147a2.562 2.562 0 0 1 0-5.124.39.39 0 0 1 .393.393.393.393 0 0 1-.393.393 1.787 1.787 0 0 0-1.556 1.186 1.782 1.782 0 0 0 1.383 2.352 1.778 1.778 0 0 0 1.793-.783 1.78 1.78 0 0 0 .29-.979 1.714 1.714 0 0 0-.161-.711 1.719 1.719 0 0 0-.444-.578.395.395 0 1 1 .519-.597 2.527 2.527 0 0 1 .872 1.886 2.63 2.63 0 0 1-2.696 2.562z" fill="#92E3A9"/><path d="M242.17 323.341a.377.377 0 0 1-.134 0 .42.42 0 0 1-.259-.306 17.4 17.4 0 0 1 7.86-17.292 9.524 9.524 0 0 1 4.347-1.572c.117-.37.227-.739.33-1.117a16.508 16.508 0 0 0-14.565 17.678.392.392 0 0 1-.093.287.394.394 0 0 1-.693-.225 17.29 17.29 0 0 1 15.854-18.612.373.373 0 0 1 .33.134.378.378 0 0 1 .078.353 29.77 29.77 0 0 1-.408 1.454 5.064 5.064 0 0 1 4.032 2.201c.356.557.577 1.19.644 1.847l.378-.456a.393.393 0 0 1 .66.417c-.786 1.753-1.407 3.333-1.061 4.889.094.381.268.737.511 1.045a14.936 14.936 0 0 1 5.305-3.521.385.385 0 0 1 .377.055c.079.06.132.147.15.244a40.692 40.692 0 0 1 9.165-5.031.398.398 0 0 1 .314-.01c.05.02.095.05.133.089a.385.385 0 0 1 .114.293.394.394 0 0 1-.278.359 39.905 39.905 0 0 0-9.605 5.4 11.409 11.409 0 0 1-6.493 7.86l-2.672 2.72a.395.395 0 0 1-.456.078.416.416 0 0 1-.212-.416 15.247 15.247 0 0 1 3.615-7.554 3.585 3.585 0 0 1-.731-1.454 5.05 5.05 0 0 1-.118-1.226l-.235.369a15.725 15.725 0 0 1-4.614 3.93.393.393 0 0 1-.511-.581l5.502-6.595a3.81 3.81 0 0 0-.535-2.358 4.376 4.376 0 0 0-3.615-1.839 41.417 41.417 0 0 1-12.152 18.345.407.407 0 0 1-.259.118zm11.57-18.392a9.147 9.147 0 0 0-3.679 1.415 16.62 16.62 0 0 0-7.608 15.806 40.56 40.56 0 0 0 11.287-17.221zm3.309 15.507-.165.574.629-.644-.315.07a.237.237 0 0 1-.149 0zm4.158-4.598a38.412 38.412 0 0 0-3.081 3.53c.196-.071.393-.142.589-.228l3.144-3.144a2.997 2.997 0 0 1-.652-.158zm-1.203-.652a14.43 14.43 0 0 0-2.177 3.293 37.492 37.492 0 0 1 2.617-2.986 4.745 4.745 0 0 1-.44-.307zm2.539 1.179-.865.88c.308-.273.597-.567.865-.88zm-.668-1.195c.355.03.71-.061 1.006-.259a.39.39 0 0 1 .519.079c.036.04.063.088.078.141.487-.749.875-1.557 1.156-2.405a38.075 38.075 0 0 0-2.759 2.444zm-1.336-.566c.147.122.308.224.479.307a40.557 40.557 0 0 1 3.804-3.333 14.297 14.297 0 0 0-4.244 3.026h-.039zm-2.248-3.772-2.594 3.144a9.704 9.704 0 0 0 2.012-2.075c.228-.337.423-.695.582-1.069zM282.996 136.517h-8.717v.786h8.717v-.786zM270.458 136.517h-5.251v.786h5.251v-.786zM261.23 136.517H130.031v.786H261.23v-.786zM225.649 313.186h-6.94v.786h6.94v-.786zM213.639 313.186h-24.932v.786h24.932v-.786zM223.032 330.022a750.999 750.999 0 0 0-27.919 0v-.786a752.29 752.29 0 0 1 27.943 0l-.024.786zM190.043 329.236h-3.945v.786h3.945v-.786zM230.961 185.288h-4.873v.786h4.873v-.786zM217.788 185.278l-.005.786 3.207.02.005-.786-3.207-.02zM194.027 186.074v-.786c6.21-.039 12.427-.055 18.479-.039v.786c-6.06-.016-12.269 0-18.479.039zM230.969 201.338h-10.737v.786h10.737v-.786zM214.959 201.338h-20.932v.786h20.932v-.786zM216.963 218.221c-4.567 0-9.125 0-13.928-.055v-.786c9.605.071 18.22.071 27.919 0v.786c-4.842.032-9.416.055-13.991.055zM197.8 217.38h-3.773v.786h3.773v-.786zM230.969 233.423h-36.942v.786h36.942v-.786zM216.563 250.408h-5.542v-.786c6.485.055 13.197 0 19.933-.126v.786c-4.826.079-9.675.126-14.391.126zM205.716 250.322l-3.144-.063v-.786l3.144.063v.786zM197.454 249.473h-3.427v.786h3.427v-.786zM216.17 266.097c-4.535 0-9.071-.087-13.865-.26v-.786c9.565.346 18.078.346 27.659 0v.786c-4.755.173-9.259.26-13.794.26zM197.195 265.051h-4.127v.786h4.127v-.786zM229.139 281.102h-5.266v.786h5.266v-.786zM205.559 281.895h-13.362v-.786h26.724v.786h-13.362zM199.719 297.93v-.786c9.848-.307 18.392-.307 27.714 0v.786c-9.353-.307-17.889-.307-27.714 0zM194.578 297.144h-4.127v.786h4.127v-.786zM141.17 120.121v1.635c0 2.004-.967 3.097-2.94 3.097h-.927v4.716h-1.973v-12.576h2.9c1.973.031 2.94 1.124 2.94 3.128zm-3.867-1.313v4.245h.927c.629 0 .967-.283.967-1.179v-1.879c0-.896-.338-1.187-.967-1.187h-.927zM144.149 122.314h2.703v1.792h-2.703v3.67h3.403v1.793h-5.376v-12.576h5.376v1.815h-3.403v3.506zM152.896 129.569a4.025 4.025 0 0 1-.173-1.572v-1.973c0-1.164-.401-1.572-1.297-1.572h-.676v5.109h-1.973v-12.576h2.971c2.044 0 2.924.951 2.924 2.884v.983c0 1.297-.408 2.138-1.289 2.546.983.417 1.305 1.36 1.305 2.673v1.933c-.035.519.04 1.038.22 1.525l-2.012.04zm-2.154-10.761v3.852h.786c.731 0 1.179-.323 1.179-1.329v-1.234c0-.896-.306-1.289-.998-1.289h-.967zM158.627 116.883c1.918 0 2.901 1.147 2.901 3.144v.393h-1.863v-.519c0-.896-.362-1.234-.983-1.234s-.99.338-.99 1.234c0 2.578 3.851 3.065 3.851 6.649 0 2.005-.998 3.144-2.931 3.144-1.934 0-2.94-1.147-2.94-3.144v-.786h1.863v.904c0 .896.393 1.219 1.021 1.219.629 0 1.022-.323 1.022-1.219 0-2.578-3.851-3.065-3.851-6.649 0-1.997.982-3.136 2.9-3.136zM162.518 120.034c0-2.004 1.053-3.144 2.986-3.144 1.934 0 2.995 1.148 2.995 3.144v6.524c0 2.004-1.053 3.144-2.995 3.144-1.941 0-2.986-1.147-2.986-3.144v-6.524zm1.965 6.65c0 .896.4 1.234 1.021 1.234.621 0 1.022-.338 1.022-1.234v-6.775c0-.896-.393-1.234-1.022-1.234-.628 0-1.021.338-1.021 1.234v6.775zM171.524 120.482v9.087h-1.768v-12.576h2.468l2.028 7.506v-7.506h1.753v12.576h-2.02l-2.461-9.087zM183.801 129.569h-1.988l-.338-2.28h-2.421l-.338 2.28H176.9l2.013-12.576h2.884l2.004 12.576zm-4.495-3.978h1.886l-.951-6.343-.935 6.343zM184.713 117.024h1.981v10.752h3.246v1.793h-5.219l-.008-12.545zM193.572 117.024h3.144c1.973 0 2.94 1.093 2.94 3.097v6.343c0 2.012-.967 3.105-2.94 3.105h-3.144v-12.545zm1.965 1.792v8.96h1.116c.629 0 .999-.322.999-1.218v-6.524c0-.896-.37-1.218-.999-1.218h-1.116zM207.241 129.569h-1.989l-.338-2.28h-2.421l-.337 2.28h-1.816l2.012-12.576h2.885l2.004 12.576zm-4.496-3.978h1.902l-.951-6.343-.951 6.343zM207.586 117.024h6.091v1.784h-2.067v10.753h-1.965v-10.753h-2.059v-1.784zM220.233 129.569h-1.988l-.338-2.28h-2.421l-.338 2.28h-1.816l2.012-12.576h2.885l2.004 12.576zm-4.457-3.978h1.903l-.951-6.343-.952 6.343zM137.294 181.421v.786h-1.69v3.144h-.786v-7.326h2.909v.786h-2.123v2.665l1.69-.055zM139.165 178.01v7.325h-.786v-7.325h.786zM141.633 178.01c1.147 0 1.635.589 1.635 1.674v.597c0 .786-.283 1.313-.912 1.509.668.197.919.739.919 1.525v1.14c-.025.301.026.604.15.88h-.833a1.939 1.939 0 0 1-.134-.888v-1.187c0-.786-.385-1.084-1.069-1.084h-.574v3.144h-.786v-7.326l1.604.016zm-.212 3.45c.652 0 1.037-.204 1.037-.998v-.699c0-.661-.236-1.007-.849-1.007h-.786v2.704h.598zM147.291 179.77v.197h-.786v-.236c0-.66-.251-1.045-.833-1.045-.581 0-.841.385-.841 1.029 0 1.643 2.46 1.8 2.46 3.86 0 1.108-.534 1.831-1.65 1.831-1.116 0-1.643-.723-1.643-1.831v-.417h.786v.464c0 .652.275 1.045.857 1.045.581 0 .857-.393.857-1.045 0-1.635-2.445-1.792-2.445-3.852 0-1.131.527-1.831 1.619-1.831 1.093 0 1.619.723 1.619 1.831zM149.076 185.335v-6.579h-1.344v-.786h3.514v.786h-1.352v6.579h-.818zM154.155 185.335h-.731v-7.325h1.045l1.698 5.297v-5.297h.723v7.325h-.849l-1.87-5.918-.016 5.918zM158.532 183.858l-.283 1.477h-.786l1.407-7.325h1.179l1.399 7.325h-.786l-.283-1.477h-1.847zm.102-.7h1.635l-.786-4.221-.849 4.221zM164.819 185.32h-.786l-1.21-5.825v5.84h-.716v-7.325h1.14l1.203 5.848 1.163-5.848h1.14v7.325h-.786v-5.887l-1.148 5.872zM170.188 181.256v.731h-1.792v2.602h2.2v.746h-3.018v-7.325h3.018v.786h-2.2v2.499l1.792-.039zM186.694 180.336v1.014h-.786v-1.014h.786zm0 3.985v1.014h-.786v-1.014h.786zM134.818 201.723v-7.317h.786v6.579h2.091v.738h-2.877zM139.141 200.254l-.283 1.469h-.747l1.399-7.317h1.179l1.407 7.317h-.786l-.283-1.469h-1.886zm.11-.7h1.627l-.825-4.229-.802 4.229zM145.901 196.166v.197h-.786v-.244c0-.66-.252-1.045-.833-1.045-.582 0-.834.385-.834 1.037 0 1.643 2.453 1.8 2.453 3.86 0 1.108-.535 1.831-1.651 1.831s-1.643-.723-1.643-1.831v-.417h.786v.456c0 .66.276 1.045.857 1.045.582 0 .857-.385.857-1.045 0-1.627-2.445-1.784-2.445-3.844 0-1.132.527-1.831 1.62-1.831 1.092 0 1.619.715 1.619 1.831zM147.686 201.723v-6.571h-1.344v-.746h3.513v.746h-1.352v6.571h-.817zM152.762 201.723h-.731v-7.317h1.03l1.698 5.289v-5.289h.723v7.317h-.849l-1.871-5.887v5.887zM157.141 200.254l-.283 1.469h-.747l1.399-7.317h1.179l1.399 7.317h-.786l-.282-1.469h-1.879zm.11-.7h1.627l-.825-4.229-.802 4.229zM163.428 201.715h-.786l-1.21-5.824v5.832h-.676v-7.317h1.14l1.202 5.848 1.163-5.848h1.14v7.317h-.786v-5.887l-1.187 5.879zM168.805 197.652v.731h-1.761v2.602h2.201v.738h-3.018v-7.317h3.018v.746h-2.201v2.5h1.761zM186.962 196.724v1.022h-.786v-1.022h.786zm0 3.985v1.014h-.786v-1.014h.786zM135.604 210.393v7.318h-.786v-7.318h.786zM138.159 210.393c1.139 0 1.666.684 1.666 1.816v3.694c0 1.116-.527 1.808-1.666 1.808h-1.714v-7.318h1.714zm0 6.579c.581 0 .864-.37.864-1.038v-3.765c0-.668-.283-1.037-.872-1.037h-.88v5.84h.888zM142.93 217.711h-.731v-7.318h1.038l1.69 5.29v-5.29h.723v7.318h-.849l-1.871-5.919v5.919zM147.261 215.981c0 .661.259 1.061.856 1.061.598 0 .849-.4.849-1.061v-5.588h.786v5.549c0 1.108-.511 1.855-1.643 1.855-1.131 0-1.634-.747-1.634-1.855v-5.549h.786v5.588zM153.235 217.703h-.786l-1.218-5.825v5.833h-.692v-7.318h1.14l1.218 5.879 1.163-5.84h1.14v7.318h-.786v-5.887l-1.179 5.84zM157.613 210.393c1.14 0 1.572.542 1.572 1.619v.33c0 .786-.22 1.25-.857 1.454.716.197.983.786.983 1.572v.621a1.51 1.51 0 0 1-1.674 1.714h-1.596v-7.318l1.572.008zm-.196 3.144c.644 0 .982-.212.982-.975v-.424c0-.653-.22-.967-.786-.967h-.786v2.358l.59.008zm.235 3.474c.598 0 .873-.314.873-.998v-.645c0-.786-.322-1.092-1.03-1.092h-.668v2.735h.825zM162.705 213.631v.731h-1.784v2.61h2.193v.739h-3.01v-7.318h3.01v.739h-2.193v2.499h1.784zM165.472 210.393c1.156 0 1.635.582 1.635 1.674v.59c0 .786-.283 1.312-.911 1.509.668.196.919.739.919 1.525v1.139c-.022.301.03.603.149.881h-.825a1.904 1.904 0 0 1-.141-.889v-1.147c0-.833-.385-1.093-1.061-1.093h-.551v3.144h-.786v-7.317l1.572-.016zm-.204 3.45c.645 0 1.03-.212 1.03-1.006v-.699c0-.66-.236-1.006-.841-1.006h-.786v2.711h.597zM186.6 212.712v1.014h-.786v-1.014h.786zm0 3.985v1.014h-.786v-1.014h.786zM138.026 227.229v.621h-.786v-.668c0-.66-.267-1.053-.865-1.053-.597 0-.856.393-.856 1.053v3.875c0 .652.275 1.053.856 1.053.582 0 .865-.401.865-1.053v-1.47h-.786v-.739h1.525v2.154c0 1.108-.527 1.839-1.651 1.839s-1.642-.731-1.642-1.839v-3.781c0-1.108.518-1.847 1.642-1.847 1.124 0 1.698.747 1.698 1.855zM141.404 228.699v.731h-1.792v2.609h2.201v.739h-3.018v-7.317h3.018v.738h-2.201v2.5h1.792zM143.284 232.778h-.731v-7.317h1.037l1.69 5.289v-5.289h.723v7.317h-.849l-1.87-5.918v5.918zM148.557 225.461c1.14 0 1.659.691 1.659 1.815v3.694c0 1.117-.519 1.808-1.659 1.808h-1.713v-7.317h1.713zm0 6.578c.582 0 .865-.369.865-1.037v-3.726c0-.668-.283-1.037-.88-1.037h-.881v5.84l.896-.04zM153.588 228.699v.731h-1.792v2.609h2.201v.739h-3.011v-7.317h3.011v.738h-2.201v2.5h1.792zM156.379 225.461c1.147 0 1.635.581 1.635 1.674v.597c0 .786-.283 1.305-.912 1.501.668.197.92.747.92 1.525v1.14c-.027.301.025.604.149.88h-.833a2.01 2.01 0 0 1-.134-.888v-1.148c0-.825-.385-1.092-1.069-1.092h-.574v3.144h-.786v-7.318l1.604-.015zm-.212 3.45c.652 0 1.037-.212 1.037-1.006v-.7c0-.66-.236-1.006-.849-1.006h-.786v2.712h.598zM187.214 227.779v1.014h-.786v-1.014h.786zm0 3.985v1.014h-.786v-1.014h.786zM136.508 241.424c1.14 0 1.667.692 1.667 1.816v3.686c0 1.116-.527 1.808-1.667 1.808h-1.69v-7.31h1.69zm0 6.579c.582 0 .865-.369.865-1.038v-3.764c0-.669-.283-1.038-.88-1.038h-.889v5.84h.904zM139.612 247.712v1.014h-.786v-1.014h.786zM140.32 243.169c0-1.124.558-1.839 1.674-1.839 1.117 0 1.69.715 1.69 1.839v3.757a1.616 1.616 0 0 1-1.69 1.847c-1.116 0-1.674-.739-1.674-1.847v-3.757zm.786 3.828c0 .668.283 1.053.865 1.053.582 0 .872-.385.872-1.053v-3.875c0-.652-.275-1.053-.872-1.053s-.865.401-.865 1.053v3.875zM145.091 247.712v1.014h-.786v-1.014h.786zM147.574 241.424c1.14 0 1.572.543 1.572 1.619v.346c0 .786-.22 1.258-.856 1.454.707.197.982.786.982 1.572v.613a1.5 1.5 0 0 1-1.674 1.714h-1.682v-7.318h1.658zm-.196 3.105c.644 0 .982-.212.982-.975v-.424c0-.653-.22-.967-.786-.967h-.786v2.358l.59.008zm.236 3.474c.597 0 .872-.314.872-.998v-.645c0-.786-.33-1.084-1.029-1.084h-.708v2.727h.865zM186.473 243.719v1.014h-.785v-1.014h.785zm0 3.985v1.014h-.785v-1.006l.785-.008zM134.198 261.389v3.293h-.786v-7.318h.786v3.294h1.8v-3.294h.786v7.318h-.786v-3.293h-1.8zM140.25 260.603v.731h-1.784v2.609h2.193v.739h-3.011v-7.318h3.011v.739h-2.193v2.5h1.784zM142.222 257.364v7.318h-.786v-7.318h.786zM146.294 259.133v.629h-.786v-.676c0-.653-.268-1.054-.865-1.054s-.857.401-.857 1.054v3.875c0 .66.275 1.053.857 1.053s.865-.393.865-1.053v-1.47h-.786v-.731h1.524v2.153c0 1.109-.518 1.848-1.65 1.848s-1.643-.739-1.643-1.848v-3.78c0-1.108.519-1.839 1.643-1.839s1.698.731 1.698 1.839zM147.882 261.389v3.293h-.786v-7.318h.786v3.294h1.8v-3.294h.786v7.318h-.786v-3.293h-1.8zM152.401 264.682v-6.579h-1.352v-.739h3.513v.739h-1.344v6.579h-.817zM185.122 259.683v1.014h-.786v-1.014h.786zm0 3.985v1.014h-.786v-1.014h.786zM133.585 279.75h-1.124l-.998-7.318h.786l.857 6.233.786-6.225h.786l.786 6.233.833-6.241h.707l-.99 7.318h-1.077l-.707-4.968-.645 4.968zM140.32 275.678v.731h-1.784v2.602h2.193v.739h-3.01v-7.318h3.01v.747h-2.193v2.499h1.784zM142.317 272.432v7.318h-.786v-7.318h.786zM146.38 274.2v.629h-.786v-.668c0-.66-.268-1.061-.857-1.061-.59 0-.857.401-.857 1.061v3.867c0 .66.267 1.053.857 1.053.589 0 .857-.393.857-1.053v-1.462h-.786v-.731h1.524v2.154c0 1.108-.518 1.839-1.65 1.839s-1.643-.731-1.643-1.839V274.2c0-1.108.527-1.839 1.643-1.839s1.698.731 1.698 1.839zM147.968 276.456v3.294h-.786v-7.318h.786v3.293h1.784v-3.293h.786v7.318h-.786v-3.294h-1.784zM152.489 279.75v-6.571h-1.344v-.747h3.513v.747h-1.352v6.571h-.817zM183.55 274.751v1.021h-.786v-1.021h.786zm0 3.985v1.014h-.786v-1.014h.786zM131.674 289.244c1.14 0 1.572.543 1.572 1.62v.345c0 .786-.22 1.258-.857 1.455.716.196.983.786.983 1.572v.636a1.5 1.5 0 0 1-.991 1.642 1.495 1.495 0 0 1-.683.072h-1.682v-7.318l1.658-.024zm-.196 3.144c.644 0 .982-.204.982-.974v-.472c0-.652-.22-.959-.786-.959h-.786v2.358l.59.047zm.235 3.475c.598 0 .873-.315.873-.991v-.652c0-.786-.322-1.085-1.03-1.085h-.668v2.728h.825zM134.158 296.562v-7.318h.786v6.579h2.091v.739h-2.877zM137.617 291.013c0-1.116.558-1.839 1.674-1.839 1.116 0 1.682.723 1.682 1.839v3.788c0 1.109-.55 1.84-1.682 1.84-1.131 0-1.674-.731-1.674-1.84v-3.788zm.786 3.828c0 .668.283 1.053.865 1.053.581 0 .864-.385.864-1.053v-3.899c0-.66-.267-1.061-.864-1.061-.598 0-.865.401-.865 1.061v3.899zM141.688 291.013c0-1.116.55-1.839 1.674-1.839 1.124 0 1.682.723 1.682 1.839v3.788a1.577 1.577 0 0 1-.976 1.738 1.59 1.59 0 0 1-.706.102c-1.124 0-1.674-.731-1.674-1.84v-3.788zm.785 3.828c0 .668.283 1.053.873 1.053.589 0 .865-.385.865-1.053v-3.899c0-.66-.276-1.061-.865-1.061-.59 0-.873.401-.873 1.061v3.899zM147.528 289.244c1.14 0 1.666.692 1.666 1.824v3.686c0 1.124-.526 1.808-1.666 1.808h-1.706v-7.318h1.706zm0 6.579c.589 0 .872-.369.872-1.037v-3.765c0-.668-.283-1.03-.88-1.03h-.912v5.832h.92zM152.645 296.562v-6.571h-1.321v-.786h3.521v.786h-1.351v6.571h-.849zM156.67 293.937l-1.572-4.716h.849l1.139 3.6 1.156-3.6h.786l-1.572 4.716v2.625h-.786v-2.625zM161.22 289.244c1.148 0 1.643.684 1.643 1.793v.872c0 1.163-.542 1.768-1.705 1.768h-.724v2.885h-.786v-7.318h1.572zm-.062 3.702c.605 0 .903-.282.903-.982v-.975c0-.668-.243-.998-.841-.998h-.786v2.955h.724zM166.133 292.514v.739h-1.784v2.602h2.193v.739h-3.011v-7.318h3.011v.786h-2.193v2.452h1.784zM182.671 291.563v1.014h-.786v-1.014h.786zm0 3.985v1.014h-.786v-1.014h.786zM128.837 309.484v3.293h-.786v-7.317h.786v3.293h1.8v-3.293h.786v7.317h-.786v-3.293h-1.8zM132.232 307.228c0-1.124.551-1.839 1.675-1.839s1.682.715 1.682 1.839v3.781c0 1.108-.558 1.847-1.682 1.847-1.124 0-1.675-.739-1.675-1.847v-3.781zm.786 3.828c0 .668.283 1.053.873 1.053.589 0 .864-.385.864-1.053v-3.875c0-.652-.275-1.053-.864-1.053-.59 0-.873.401-.873 1.053v3.875zM139.055 312.769h-.786l-1.218-5.824v5.832h-.66v-7.317h1.139l1.203 5.847 1.163-5.847h1.14v7.317h-.786v-5.887l-1.195 5.879zM144.432 308.698v.731h-1.753v2.609h2.193v.739h-3.011v-7.317h3.011v.738h-2.193v2.5h1.753zM148.04 311.307l-.283 1.47h-.786l1.399-7.317h1.179l1.407 7.317h-.786l-.283-1.47h-1.847zm.11-.707h1.603l-.786-4.221-.817 4.221zM153.344 305.46c1.14 0 1.659.691 1.659 1.815v3.694c0 1.117-.519 1.808-1.659 1.808h-1.713v-7.317h1.713zm0 6.578c.582 0 .865-.369.865-1.037v-3.765c0-.668-.283-1.038-.88-1.038h-.881v5.84h.896zM157.4 305.46c1.155 0 1.635.581 1.635 1.674v.597c0 .786-.283 1.305-.912 1.501.668.197.92.786.92 1.525v1.14c-.027.301.025.604.149.88h-.786a1.863 1.863 0 0 1-.141-.888v-1.147c0-.826-.385-1.093-1.061-1.093h-.582v3.144h-.786v-7.318l1.564-.015zm-.204 3.45c.644 0 1.029-.212 1.029-1.006v-.699c0-.661-.235-1.007-.841-1.007h-.786v2.712h.598zM162.494 308.698v.731h-1.784v2.609h2.193v.739h-3.01v-7.317h3.01v.738h-2.193v2.5h1.784zM166.825 307.212v.236h-.786v-.243c0-.661-.244-1.046-.834-1.046-.589 0-.833.385-.833 1.038 0 1.642 2.453 1.8 2.453 3.859 0 1.108-.535 1.831-1.651 1.831s-1.643-.723-1.643-1.831v-.464h.786v.464c0 .66.275 1.045.857 1.045s.865-.385.865-1.045c0-1.635-2.453-1.784-2.453-3.851 0-1.124.527-1.824 1.619-1.824 1.093 0 1.62.723 1.62 1.831zM170.715 307.212v.236h-.786v-.243c0-.661-.243-1.046-.833-1.046-.589 0-.833.385-.833 1.038 0 1.642 2.452 1.8 2.452 3.859 0 1.108-.534 1.831-1.65 1.831-1.116 0-1.643-.723-1.643-1.831v-.464h.786v.464c0 .66.275 1.045.857 1.045.581 0 .856-.385.856-1.045 0-1.635-2.444-1.784-2.444-3.851 0-1.124.527-1.824 1.619-1.824 1.093 0 1.619.723 1.619 1.831zM180.327 307.778v1.014h-.786v-1.014h.786zm0 3.985v1.014h-.786v-1.014h.786zM127.013 322.272c1.148 0 1.643.676 1.643 1.784v.881c0 1.163-.55 1.768-1.705 1.768h-.724v2.885h-.786v-7.318h1.572zm-.062 3.702c.605 0 .896-.283.896-.982v-.975c0-.668-.244-1.006-.834-1.006h-.786v2.963h.724zM130.102 326.312v3.294h-.786v-7.318h.786v3.293h1.8v-3.293h.786v7.318h-.786v-3.294h-1.8zM133.498 324.041c0-1.124.55-1.847 1.666-1.847 1.116 0 1.69.723 1.69 1.847v3.78a1.572 1.572 0 0 1-1.69 1.84c-1.116 0-1.666-.731-1.666-1.84v-3.78zm.786 3.828c0 .668.283 1.053.865 1.053.581 0 .872-.385.872-1.053v-3.875c0-.661-.275-1.054-.872-1.054-.598 0-.865.393-.865 1.054v3.875zM138.348 329.59h-.731v-7.318h1.038l1.69 5.29v-5.29h.762v7.318h-.849l-1.871-5.919-.039 5.919zM144.51 325.526v.731h-1.792v2.61h2.193v.739h-3.018v-7.318h3.01v.739h-2.193v2.499h1.8zM148.008 329.59h-.731v-7.318h1.038l1.69 5.29v-5.29h.723v7.318h-.849l-1.871-5.919v5.919zM152.339 327.884c0 .653.259 1.053.856 1.053.598 0 .849-.4.849-1.053v-5.596h.786v5.549c0 1.108-.511 1.855-1.642 1.855-1.132 0-1.627-.747-1.627-1.855v-5.549h.786l-.008 5.596zM158.311 329.582h-.786l-1.21-5.824v5.832h-.715v-7.318h1.139l1.203 5.848 1.163-5.848h1.14v7.318h-.786v-5.887l-1.148 5.879zM162.721 322.272c1.14 0 1.572.543 1.572 1.619v.346c0 .786-.22 1.258-.857 1.454.708.197.983.786.983 1.572v.621a1.514 1.514 0 0 1-.411 1.274 1.496 1.496 0 0 1-1.263.44h-1.69v-7.318l1.666-.008zm-.196 3.105c.652 0 .982-.212.982-.975v-.448c0-.652-.22-.967-.786-.967h-.786v2.358l.59.032zm.243 3.474c.598 0 .865-.314.865-.998v-.645c0-.786-.322-1.092-1.022-1.092h-.715v2.735h.872zM167.783 325.526v.731h-1.784v2.61h2.193v.739h-3.01v-7.318h3.01v.739h-2.193v2.499h1.784zM170.582 322.272c1.148 0 1.627.582 1.627 1.674v.598c0 .786-.283 1.304-.912 1.501.676.196.92.747.92 1.525v1.14c-.023.301.028.603.149.88h-.825a1.9 1.9 0 0 1-.134-.888v-1.148c0-.825-.393-1.092-1.069-1.092h-.573v3.144h-.786v-7.318l1.603-.016zm-.212 3.451c.644 0 1.037-.212 1.037-1.006v-.7c0-.66-.243-1.006-.849-1.006h-.786v2.712h.598zM178.716 324.591v1.014h-.786v-1.014h.786zm0 3.985v1.014h-.786v-1.014h.786z" fill="#263238"/><path d="M282.515 141.673h-42.562v54.313h42.562v-54.313z" fill="#BFBFBF"/><path d="M279.694 196.174h-36.942l.786-4.464v-.92c.005-3.626.81-7.206 2.358-10.485a.737.737 0 0 1 0-.094l9.267-2.516a6.943 6.943 0 0 1 .731-2.224 5.976 5.976 0 0 1 1.674-.786v-1.69a16.202 16.202 0 0 1-1.643-3.592.784.784 0 0 1-.33-.071 1.928 1.928 0 0 1-.542-.369 6.31 6.31 0 0 1-1.101-1.132 2.355 2.355 0 0 1-.471-1.486 3.99 3.99 0 0 1 .306-1.501c.216-.28.5-.499.826-.636.057-.617.057-1.238 0-1.855-1.148-10.714 14.069-13.63 14.258.385 0 .526.039 1.194.039 1.194a1.322 1.322 0 0 1 .731.786c.11.532.189 1.07.236 1.612a2.402 2.402 0 0 1-.472 1.485 6.523 6.523 0 0 1-1.108 1.132 1.967 1.967 0 0 1-.542.37.738.738 0 0 1-.425.055 15.593 15.593 0 0 1-1.965 4.079v1.572c1.108.322 2.154.927 2.217 1.989.011.163.032.326.063.487 3.458.825 8.842 2.358 8.842 2.358l.071.369a24.49 24.49 0 0 1 2.358 10.517l.786 5.447-.008-.016z" fill="#263238"/><path d="M336.097 185.209h-71.275v94.91h71.275v-94.91z" fill="#BFBFBF" stroke="#263238" stroke-linecap="round" stroke-linejoin="round"/><path d="M276.297 279.852h-11.09l1.486-8.568v-1.8a47.073 47.073 0 0 1 4.519-20.113v-.063l5.085 30.512v.032zM336.034 279.852h-11.122l3.93-23.745 1.14-6.886a46.96 46.96 0 0 1 4.543 20.177l1.517 10.454h-.008z" fill="#92E3A9" stroke="#263238" stroke-linecap="round" stroke-linejoin="round"/><path d="M329.856 248.498s-.448 3.294-1.006 7.593c-.825 6.288-1.886 14.73-2.161 18.235a560.97 560.97 0 0 0-.378 5.502h-50.712c-1.635-12.301-4.088-28.547-4.37-30.449v-.181l17.779-4.826 2.421-.661a6.924 6.924 0 0 1 2.208-.896 17.938 17.938 0 0 1 3.05-.448h.487a50.363 50.363 0 0 1 7.224.213c1.572.141 3.01.33 4.15.495h.055c.974.149 2.507.487 4.323.919 6.602 1.557 16.93 4.504 16.93 4.504z" fill="#92E3A9"/><mask id="a" style="mask-type:luminance" maskUnits="userSpaceOnUse" x="271" y="242" width="59" height="38"><path d="M329.856 248.498s-.448 3.294-1.006 7.593c-.825 6.288-1.886 14.73-2.161 18.235a560.97 560.97 0 0 0-.378 5.502h-50.712c-1.635-12.301-4.088-28.547-4.37-30.449v-.181l17.779-4.826 2.421-.661a6.924 6.924 0 0 1 2.208-.896 17.938 17.938 0 0 1 3.05-.448h.487a50.363 50.363 0 0 1 7.224.213c1.572.141 3.01.33 4.15.495h.055c.974.149 2.507.487 4.323.919 6.602 1.557 16.93 4.504 16.93 4.504z" fill="#fff"/></mask><g mask="url(#a)"><path opacity=".2" d="m288.262 257.364 7.49-4.173c.731-.409 1.674-.786 2.358-.291.684.495.543 1.501.975 2.185a2.36 2.36 0 0 0 2.633.731c.951-.252 1.784-2.358 2.712-2.688 3.049-.998 6.233 2.444 8.905 4.228-.424-4.15-.846-8.3-1.265-12.45 0 .212-17.292-.094-18.864.252-5.117 1.155-4.331 7.97-4.944 12.206z" fill="#000"/></g><path d="M329.856 248.498s-.448 3.294-1.006 7.593c-.825 6.288-1.886 14.73-2.161 18.235a560.97 560.97 0 0 0-.378 5.502h-50.712c-1.635-12.301-4.088-28.547-4.37-30.449v-.181l17.779-4.826 2.421-.661a6.924 6.924 0 0 1 2.208-.896 17.938 17.938 0 0 1 3.05-.448h.487a50.363 50.363 0 0 1 7.224.213c1.572.141 3.01.33 4.15.495h.055c.974.149 2.507.487 4.323.919 6.602 1.557 16.93 4.504 16.93 4.504z" stroke="#263238" stroke-linecap="round" stroke-linejoin="round"/><path d="M295.399 237.997s-4.19 1.258-5.023 2.091c-.833.833-1.462 5.266-2.311 7.538-.849 2.271-3.552 6.288-2.711 6.484.841.197 13.676-4.016 13.676-4.016l2.437 9.919 1.556-9.943s12.238 4.866 12.647 4.229c.408-.637-2.696-8.159-2.901-11.303-.204-3.144-4.818-4.189-7.538-4.386-2.719-.196-9.832-.613-9.832-.613z" fill="#263238"/><path d="M293.598 232.928v12.238l7.561 3.843.071 10.202-.071-10.202 7.349-4.016v-12.781l-14.91.716zM286.61 220.281a5.2 5.2 0 0 0-.881 2.279 4.488 4.488 0 0 0 .896 2.853 12.093 12.093 0 0 0 2.123 2.178c.305.294.655.538 1.037.723a1.22 1.22 0 0 0 1.777-1.266 5.068 5.068 0 0 0-.331-1.344c-.628-1.87-.432-3.875-.966-5.683-.606-2.075-2.775-1.179-3.655.26zM316.298 220.281c.47.678.769 1.46.872 2.279a4.448 4.448 0 0 1-.904 2.853 12.28 12.28 0 0 1-2.114 2.178c-.307.296-.66.54-1.046.723a1.37 1.37 0 0 1-1.226-.047 1.4 1.4 0 0 1-.55-1.219c.047-.462.161-.915.338-1.344.621-1.87.424-3.875.959-5.683.613-2.075 2.79-1.179 3.671.26z" fill="#fff" stroke="#263238" stroke-linecap="round" stroke-linejoin="round"/><path d="M293.59 235.341s2.303 8.732 6.925 8.921c4.621.188 8.009-8.018 8.009-8.018s-4.779-3.466-14.934-.903z" fill="#263238"/><path d="M314.026 218.08c0 9.66-5.682 22.975-12.686 22.975-7.003 0-12.694-13.315-12.694-22.975 0-9.66 5.683-17.481 12.694-17.481 7.011 0 12.686 7.813 12.686 17.481z" fill="#fff" stroke="#263238" stroke-linecap="round" stroke-linejoin="round"/><path d="M296.735 219.715c.393 0 .707.786.707 1.816 0 1.029-.314 1.823-.707 1.823-.393 0-.715-.786-.715-1.823 0-1.038.29-1.816.715-1.816zM305.569 219.715c.393 0 .707.786.707 1.816 0 1.029-.314 1.823-.707 1.823-.393 0-.715-.786-.715-1.823 0-1.038.322-1.816.715-1.816z" fill="#263238"/><path d="m302.637 218.803-.464.935s.315 4.905.448 5.966c.134 1.061-.644 2.256-1.8 1.627l-1.163-.629M297.811 231.442c0 .967 7.074.967 7.074 0" stroke="#263238" stroke-linecap="round" stroke-linejoin="round"/><path d="m289.259 224.596 1.486.291a22.955 22.955 0 0 1-1.022-4.826c-.134-1.391 1.863-3.474 1.863-4.449 0-5.29 2.876-5.14 3.466-4.362.079-.967 4.606-5.636 7.986.833.864 1.65 10.06 3.144 10.029 4.606a49.248 49.248 0 0 1-.786 7.813c.747.141 1.407-.637 1.501-1.399.095-.763.283-3.703.92-4.127a1.472 1.472 0 0 0 1.572.786 7.528 7.528 0 0 1-.692-2.924c.047-1.014.574-.346 1.572-.629.511-.149 4.811-3.049 5.345-4.598-1.949.244-3.788-1.092-4.905-2.711-1.116-1.62-1.721-3.522-2.664-5.243-2.358-4.292-7.074-7.341-11.955-7.153-4.881.189-9.566 3.93-10.305 8.772a2.794 2.794 0 0 0-2.876.472 8.317 8.317 0 0 0-1.855 2.428 16.072 16.072 0 0 0-2.209 5.07c-.338 1.816 1.509 4.378 2.916 5.581.228-.425.102 5.769.613 5.769z" fill="#263238"/><path d="M289.935 207.925a6.04 6.04 0 0 0-2.146 2.924M290.076 209.678a5.027 5.027 0 0 0-.904 1.242M290.95 210.684a2.857 2.857 0 0 0-.716 1.194M300.932 206.321a2.598 2.598 0 0 1 2.177 1.887M301.041 204.262a4.95 4.95 0 0 1 3.734 3.545M304.877 204.349a3.853 3.853 0 0 1 1.242 2.696M307.055 204.781c.402.496.612 1.122.589 1.761M308.65 205.205a1.397 1.397 0 0 1 .338 1.085M310.332 205.37c.055.197.11.386.173.582" stroke="#5C5C5C" stroke-linecap="round" stroke-linejoin="round"/><path d="M292.953 218.512c.495-.416.825-.998 1.352-1.375a2.982 2.982 0 0 1 2.429-.338 8.666 8.666 0 0 1 2.295 1.053M303.91 217.844a8.681 8.681 0 0 1 2.295-1.053 2.989 2.989 0 0 1 2.429.338c.519.377.857.959 1.352 1.375" stroke="#263238" stroke-linecap="round" stroke-linejoin="round"/><path d="M296.404 240.575a12.142 12.142 0 0 0 3.066 7.381l-3.066-7.381z" fill="#fff"/><path d="M296.404 240.575a12.142 12.142 0 0 0 3.066 7.381M296.42 211.132a7.764 7.764 0 0 1 1.171-1.989c.219-.294.501-.536.825-.707a1.008 1.008 0 0 1 1.046.071M297.857 211.446a4.492 4.492 0 0 1 3.6-2.397M299.438 211.556c.487-.652 4.299-2.767 5.171.495M293.644 212.24a4.233 4.233 0 0 0-3.498 1.501M292.551 213.647a4.282 4.282 0 0 0-3.026 2.845M266.865 271.182a8.151 8.151 0 0 0 1.439 4.889M274.727 264.289c.691 5.126.99 10.297.896 15.468M329.981 260.626c-1.116 4.638-2.235 9.278-3.356 13.92" stroke="#263238" stroke-linecap="round" stroke-linejoin="round"/><path d="M332.889 271.819a25.444 25.444 0 0 1-4.606 8.339M270.457 261.412a32.413 32.413 0 0 0 4.237 12.891M301.23 259.211l-.298 12.812h2.979l.196-21.764" stroke="#263238" stroke-miterlimit="10"/><path d="M302.448 270.357a.723.723 0 1 0 0-1.447.723.723 0 0 0 0 1.447zM303.321 260.516a.722.722 0 1 1-1.39-.286.726.726 0 0 1 .667-.445.724.724 0 0 1 .723.731z" stroke="#263238" stroke-miterlimit="10"/></svg>