<svg width="286" height="286" viewBox="0 0 286 286" fill="none" xmlns="http://www.w3.org/2000/svg">
<path d="M223.246 27.1643C223.246 27.1643 194.72 3.86671 157.62 14.197C120.521 24.5273 104.997 56.485 83.7124 78.4555C72.5698 89.9641 56.1077 94.2084 42.8716 103.052C0.572187 131.383 6.81271 195.052 39.4682 219.076C67.725 239.868 103.035 242.042 148.978 226.706C194.921 211.371 227.805 202.156 256.302 158.232C284.799 114.308 258.384 58.7787 223.246 27.1643Z" fill="#92E3A9"/>
<path opacity="0.7" d="M223.246 27.1643C223.246 27.1643 194.72 3.86671 157.62 14.197C120.521 24.5273 104.997 56.485 83.7124 78.4555C72.5698 89.9641 56.1077 94.2084 42.8716 103.052C0.572187 131.383 6.81271 195.052 39.4682 219.076C67.725 239.868 103.035 242.042 148.978 226.706C194.921 211.371 227.805 202.156 256.302 158.232C284.799 114.308 258.384 58.7787 223.246 27.1643Z" fill="white"/>
<mask id="mask0_2004_3911" style="mask-type:luminance" maskUnits="userSpaceOnUse" x="14" y="80" width="59" height="95">
<path d="M31.4602 174.048V153.571C31.4602 153.571 34.0056 145.339 37.9124 144.487L41.8134 143.641L72.8387 143.772V79.9999H14.7979V174.763L31.4602 174.048Z" fill="white"/>
</mask>
<g mask="url(#mask0_2004_3911)">
<path d="M53.7684 92.9786C53.7684 92.9786 53.7684 90.4389 50.2106 86.8868C46.6528 83.3347 44.3762 81.2984 44.3762 81.2984C44.3762 81.2984 42.5973 87.1385 45.8977 90.6963C48.3253 93.1998 50.9581 95.4958 53.7684 97.5603V92.9786Z" fill="#92E3A9"/>
<path d="M48.58 108.834C48.58 108.834 48.58 106.295 45.0278 102.743C41.4757 99.1905 39.1877 97.1542 39.1877 97.1542C39.1877 97.1542 37.4088 102.994 40.7092 106.546C43.136 109.051 45.7689 111.347 48.58 113.41V108.834Z" fill="#92E3A9"/>
<path d="M53.5162 97.3029C53.5162 97.3029 53.785 94.7804 57.6918 91.6172C61.5986 88.4541 64.0639 86.6809 64.0639 86.6809C64.0639 86.6809 65.2079 92.6754 61.5585 95.8615C58.8717 98.0934 56.0016 100.095 52.9785 101.845L53.5162 97.3029Z" fill="#92E3A9"/>
<path d="M47.2821 116.024C47.2821 116.024 47.8141 113.542 52.0354 110.814C56.2568 108.085 58.8994 106.575 58.8994 106.575C58.8994 106.575 59.4142 112.655 55.4674 115.441C52.5643 117.379 49.5028 119.069 46.3154 120.492L47.2821 116.024Z" fill="#92E3A9"/>
<path d="M48.4541 136.439C48.4541 136.439 48.4541 133.899 52.0119 130.347C55.5698 126.795 57.8463 124.765 57.8463 124.765C57.8463 124.765 59.6253 130.599 56.3248 134.157C53.8972 136.66 51.2645 138.956 48.4541 141.021V136.439Z" fill="#92E3A9"/>
<path d="M48.3968 141.421C48.3968 141.421 48.7572 138.91 45.7427 134.889C42.7283 130.868 40.7606 128.528 40.7606 128.528C40.7606 128.528 38.1695 134.054 40.9322 138.041C42.9797 140.86 45.2584 143.504 47.7447 145.946L48.3968 141.421Z" fill="#92E3A9"/>
<path d="M44.8906 156.19C44.8906 156.19 44.8906 153.651 48.4427 150.099C51.9949 146.546 54.2829 144.51 54.2829 144.51C54.2829 144.51 56.0618 150.35 52.7613 153.902C50.3345 156.407 47.7017 158.703 44.8906 160.766V156.19Z" fill="#92E3A9"/>
<path d="M47.2646 169.575C47.2646 169.575 46.624 167.121 49.158 162.785C51.6919 158.45 53.3965 155.921 53.3965 155.921C53.3965 155.921 56.594 161.115 54.3002 165.394C52.5845 168.426 50.6176 171.31 48.4201 174.014L47.2646 169.575Z" fill="#92E3A9"/>
<path d="M54.0602 92.3265C53.8819 94.9699 53.5573 97.6013 53.0878 100.209C51.6806 107.467 48.1686 112.152 46.7958 118.707C45.423 125.262 49.4212 133.711 48.3402 142.131C47.2591 150.55 43.9815 155.235 44.9082 160.852C45.8348 166.469 50.9084 182.01 50.9084 182.01" stroke="#263238" stroke-linecap="round" stroke-linejoin="round"/>
<path d="M53.4824 98.9903L57.3091 96.0502" stroke="#263238" stroke-linecap="round" stroke-linejoin="round"/>
<path d="M53.6601 95.6041L52.0527 92.7555" stroke="#263238" stroke-linecap="round" stroke-linejoin="round"/>
<path d="M46.9785 118.404C46.9785 118.404 50.1817 115.996 53.4822 113.593" stroke="#263238" stroke-linecap="round" stroke-linejoin="round"/>
<path d="M48.5804 113.405C48.5804 113.405 45.9091 108.165 42.9004 104.676" stroke="#263238" stroke-linecap="round" stroke-linejoin="round"/>
<path d="M48.5801 140.048C50.4137 136.682 52.7257 133.599 55.4441 130.896" stroke="#263238" stroke-linecap="round" stroke-linejoin="round"/>
<path d="M47.9566 143.612C46.9839 141.323 45.8225 139.119 44.4846 137.023C42.6141 134.26 42.3281 133.905 42.3281 133.905" stroke="#263238" stroke-linecap="round" stroke-linejoin="round"/>
<path d="M44.8906 160.852C45.6947 158.838 46.6507 156.887 47.7506 155.018C48.8597 153.283 50.111 151.643 51.4915 150.116" stroke="#263238" stroke-linecap="round" stroke-linejoin="round"/>
<path d="M48.4202 173.997C48.2369 172.07 48.5686 170.13 49.3812 168.374C50.7196 165.794 52.2412 162.408 52.8589 161.069" stroke="#263238" stroke-linecap="round" stroke-linejoin="round"/>
<path d="M24.7332 126.892C24.7332 126.892 24.4587 125.302 26.3005 122.688C28.1424 120.074 29.355 118.553 29.355 118.553C29.355 118.553 31.1053 122.019 29.4236 124.604C28.1704 126.433 26.768 128.155 25.2309 129.752L24.7332 126.892Z" fill="#92E3A9"/>
<path d="M29.6932 136.273C29.6932 136.273 29.4186 134.683 31.2605 132.069C33.1023 129.455 34.3207 127.934 34.3207 127.934C34.3207 127.934 36.0367 131.4 34.3836 133.985C33.134 135.817 31.7314 137.539 30.1908 139.133L29.6932 136.273Z" fill="#92E3A9"/>
<path d="M25.3456 129.581C25.3456 129.581 24.9052 128.025 22.1081 126.469C19.311 124.913 17.5607 124.067 17.5607 124.067C17.5607 124.067 17.4921 127.951 20.129 129.552C22.0508 130.66 24.0617 131.605 26.1407 132.378L25.3456 129.581Z" fill="#92E3A9"/>
<path d="M31.2827 140.643C31.2827 140.643 30.7107 139.145 27.7363 137.892C24.7619 136.639 22.9658 135.982 22.9658 135.982C22.9658 135.982 23.3033 139.848 26.0947 141.164C28.1272 142.065 30.2319 142.794 32.3867 143.343L31.2827 140.643Z" fill="#92E3A9"/>
<path d="M32.7641 153.571C32.7641 153.571 32.4895 151.98 29.8755 150.139C27.2614 148.297 25.6084 147.279 25.6084 147.279C25.6084 147.279 25.1279 151.134 27.5818 152.999C29.3766 154.298 31.2765 155.446 33.2617 156.431L32.7641 153.571Z" fill="#92E3A9"/>
<path d="M33.342 156.688C33.342 156.688 32.8444 155.155 34.2973 152.306C35.7501 149.458 36.734 147.776 36.734 147.776C36.734 147.776 38.9591 150.962 37.6606 153.759C36.6805 155.76 35.5323 157.673 34.2286 159.479L33.342 156.688Z" fill="#92E3A9"/>
<path d="M37.804 169.529C37.804 169.529 37.9928 167.928 40.4924 165.937C42.992 163.947 44.6165 162.831 44.6165 162.831C44.6165 162.831 45.3144 166.652 42.9692 168.66C41.2531 170.064 39.422 171.321 37.4951 172.418L37.804 169.529Z" fill="#92E3A9"/>
<path d="M37.1456 165.571C37.1456 165.571 36.8711 163.981 34.2856 162.139C31.7002 160.297 30.0185 159.279 30.0185 159.279C30.0185 159.279 29.538 163.134 31.9919 164.999C33.7859 166.3 35.6859 167.448 37.6719 168.431L37.1456 165.571Z" fill="#92E3A9"/>
<path d="M37.1115 174.225C37.1115 174.225 37.2488 172.612 35.1839 170.17C33.1189 167.728 31.7805 166.315 31.7805 166.315C31.7805 166.315 30.339 169.918 32.2438 172.349C33.648 174.066 35.194 175.662 36.8655 177.12L37.1115 174.225Z" fill="#92E3A9"/>
<path d="M24.4648 126.521C24.8634 128.158 25.3522 129.771 25.9292 131.354C27.5994 135.758 30.3107 138.31 31.9008 142.268C33.491 146.226 31.9008 151.992 33.4738 157.14C35.0468 162.288 37.6266 164.879 37.6494 168.505C37.6723 172.132 36.3453 181.942 36.3453 181.942" stroke="#263238" stroke-linecap="round" stroke-linejoin="round"/>
<path d="M25.5518 130.633L22.8291 129.209" stroke="#263238" stroke-linecap="round" stroke-linejoin="round"/>
<path d="M25.0713 128.528L25.7691 126.566" stroke="#263238" stroke-linecap="round" stroke-linejoin="round"/>
<path d="M31.7352 142.102C31.7352 142.102 29.4472 140.958 27.1592 139.814" stroke="#263238" stroke-linecap="round" stroke-linejoin="round"/>
<path d="M30.1846 139.139C30.8529 137.028 31.7345 134.991 32.8158 133.059" stroke="#263238" stroke-linecap="round" stroke-linejoin="round"/>
<path d="M33.0789 155.853C31.566 153.934 29.7817 152.246 27.7822 150.842" stroke="#263238" stroke-linecap="round" stroke-linejoin="round"/>
<path d="M33.8574 158.015C34.2189 156.474 34.7088 154.967 35.3217 153.508C36.1912 151.574 36.3227 151.323 36.3227 151.323" stroke="#263238" stroke-linecap="round" stroke-linejoin="round"/>
<path d="M37.5293 171.245C38.4125 170.149 39.3906 169.133 40.4522 168.208C41.1305 167.709 41.7675 167.156 42.357 166.555" stroke="#263238" stroke-linecap="round" stroke-linejoin="round"/>
<path d="M37.6491 168.494C36.9219 167.318 36.1053 166.199 35.2067 165.148C34.3282 164.182 33.3716 163.291 32.3467 162.482" stroke="#263238" stroke-linecap="round" stroke-linejoin="round"/>
<path d="M36.8657 177.12C36.7733 175.888 36.3548 174.704 35.6531 173.688C34.5091 172.212 33.2164 170.256 32.6787 169.484" stroke="#263238" stroke-linecap="round" stroke-linejoin="round"/>
</g>
<path d="M258.538 57.6462H218.069V110.642H258.538V57.6462Z" stroke="#263238" stroke-linecap="round" stroke-linejoin="round"/>
<path d="M252.287 65.8315H224.327V102.445H252.287V65.8315Z" stroke="#263238" stroke-linecap="round" stroke-linejoin="round"/>
<path d="M197.677 38.3755H166.04V79.8055H197.677V38.3755Z" stroke="#263238" stroke-linecap="round" stroke-linejoin="round"/>
<path d="M192.793 44.7762H170.931V73.3991H192.793V44.7762Z" stroke="#263238" stroke-linecap="round" stroke-linejoin="round"/>
<path opacity="0.37" d="M39.033 243.844L37.1797 249.581H240.812L239.508 244.141L39.033 243.844Z" fill="black"/>
<path d="M244.689 176.971C244.815 167.013 244.947 162.013 244.947 157.895C244.947 145.105 233.507 143.641 233.507 143.641H41.8068C41.8068 143.641 31.7624 142.542 31.7624 157.254C31.7624 162.528 31.3792 168.832 31.608 177.274" stroke="#263238" stroke-linecap="round" stroke-linejoin="round"/>
<path d="M54.5859 194.451H222.045" stroke="#263238" stroke-linecap="round" stroke-linejoin="round"/>
<path d="M31.7627 208.626V220.306C31.7627 221.368 32.1845 222.386 32.9354 223.137C33.6863 223.888 34.7048 224.31 35.7667 224.31H102.462V207.379C102.462 201.401 102.902 194.388 102.902 194.388V150.516C102.902 150.516 102.222 146.678 103.474 144.121" stroke="#263238" stroke-linecap="round" stroke-linejoin="round"/>
<path d="M102.49 224.333H181.192L181.689 194.451V150.859C181.689 150.859 181.558 146.701 179.973 143.824" stroke="#263238" stroke-linecap="round" stroke-linejoin="round"/>
<path d="M181.192 224.333H241.155C242.117 224.333 243.042 223.959 243.732 223.289C244.423 222.62 244.826 221.708 244.856 220.746C244.999 215.764 245.245 210.656 245.245 208.912" stroke="#263238" stroke-linecap="round" stroke-linejoin="round"/>
<path d="M17.3311 205.045L23.4 243.844H254.076L260.145 204.524" stroke="#263238" stroke-linecap="round" stroke-linejoin="round"/>
<path d="M28.2109 244.141L31.2139 252.561H35.727L39.0332 243.844L28.2109 244.141Z" fill="#263238" stroke="#263238" stroke-linecap="round" stroke-linejoin="round"/>
<path d="M239.508 244.141L242.511 252.561H247.024L250.33 243.844L239.508 244.141Z" fill="#263238" stroke="#263238" stroke-linecap="round" stroke-linejoin="round"/>
<path d="M38.3238 206.744C36.3452 207.787 34.1793 208.426 31.9517 208.626C27.5632 208.911 23.1815 207.975 19.2933 205.92C16.2503 204.341 11.8573 202.316 12.2692 198.209C12.681 194.102 15.7012 189.772 18.2923 186.678C21.0581 183.306 24.4815 180.533 28.3538 178.527C33.0671 176.176 38.8672 174.614 43.5804 176.571C46.3099 177.779 48.7937 179.48 50.9078 181.587C53.4875 184.07 56.8165 187.948 55.8155 191.837C54.8832 195.458 50.6275 197.941 47.859 200.086C44.8846 202.379 41.7558 205.005 38.3238 206.744Z" stroke="#263238" stroke-linecap="round" stroke-linejoin="round"/>
<path d="M238.174 206.744C240.153 207.786 242.319 208.425 244.546 208.626C248.939 208.912 253.324 207.975 257.216 205.92C260.254 204.341 264.652 202.316 264.235 198.209C263.817 194.102 260.803 189.772 258.212 186.678C255.446 183.306 252.022 180.533 248.15 178.527C243.437 176.176 237.637 174.614 232.923 176.571C230.194 177.787 227.712 179.495 225.602 181.61C223.022 184.092 219.693 187.971 220.694 191.86C221.626 195.481 225.882 197.963 228.656 200.108C231.619 202.379 234.737 205.005 238.174 206.744Z" stroke="#263238" stroke-linecap="round" stroke-linejoin="round"/>
<path d="M244.547 208.626H183.228C183.228 208.626 181.432 209.129 181.432 204.175C181.432 204.175 181.306 208.597 178.115 208.597H103.497C103.497 208.597 102.268 208.723 102.388 205.891C102.508 203.06 102.268 208.105 101.404 208.597C100.54 209.089 32.6895 208.597 32.6895 208.597" stroke="#263238" stroke-linecap="round" stroke-linejoin="round"/>
<path opacity="0.37" d="M139.567 277.803C153.363 277.803 164.546 273.194 164.546 267.507C164.546 261.821 153.363 257.211 139.567 257.211C125.771 257.211 114.588 261.821 114.588 267.507C114.588 273.194 125.771 277.803 139.567 277.803Z" fill="black"/>
<path d="M122.082 82.94C122.082 82.94 121.241 78.9703 118.472 78.9703C115.704 78.9703 114.977 82.0305 116.722 85.5254C118.467 89.0203 123.426 91.2111 123.717 89.1691C124.009 87.127 122.082 82.94 122.082 82.94Z" fill="white" stroke="#263238" stroke-linecap="round" stroke-linejoin="round"/>
<path d="M165.422 67.107C165.422 67.107 166.629 71.1396 165.422 74.9663C164.769 77.1407 163.745 79.1861 162.396 81.0123V69.5266L165.422 67.107Z" fill="#263238" stroke="#263238" stroke-linecap="round" stroke-linejoin="round"/>
<path d="M128.7 256.513C128.7 256.513 124.341 263.274 120.194 266.546C116.047 269.818 116.705 271.34 119.759 271.997C122.814 272.655 127.39 271.78 130.227 268.943C131.923 267.252 133.391 265.347 134.591 263.274L134.477 264.853C134.475 264.89 134.485 264.927 134.504 264.959C134.523 264.991 134.551 265.016 134.585 265.032C134.618 265.048 134.656 265.053 134.693 265.048C134.729 265.043 134.764 265.027 134.791 265.002L138.08 261.965C138.756 260.145 138.832 258.157 138.298 256.29C137.428 253.024 132.195 252.584 128.7 256.513Z" fill="white" stroke="#263238" stroke-linecap="round" stroke-linejoin="round"/>
<path d="M123.42 270.893C119.559 271.099 117.992 270.259 117.38 269.709C116.991 270.899 117.952 271.608 119.765 271.997C122.819 272.65 127.395 271.78 130.232 268.943C131.929 267.252 133.396 265.347 134.597 263.274L134.482 264.853C134.481 264.89 134.49 264.927 134.509 264.959C134.529 264.991 134.557 265.016 134.59 265.032C134.624 265.048 134.661 265.053 134.698 265.048C134.735 265.043 134.769 265.027 134.797 265.002L138.086 261.965C138.527 260.807 138.71 259.568 138.624 258.332C137.36 259.551 135.192 261.656 133.687 263.154C131.456 265.408 129.077 270.596 123.42 270.893Z" fill="white" stroke="#263238" stroke-linecap="round" stroke-linejoin="round"/>
<path d="M151.717 256.513C151.717 256.513 156.082 263.274 160.223 266.546C164.364 269.818 163.712 271.34 160.663 271.997C157.615 272.655 153.027 271.78 150.19 268.943C148.496 267.252 147.031 265.346 145.831 263.274L145.94 264.853C145.942 264.89 145.932 264.927 145.913 264.959C145.894 264.991 145.866 265.016 145.832 265.032C145.799 265.048 145.761 265.053 145.724 265.048C145.687 265.043 145.653 265.027 145.625 265.002L142.342 261.976C141.663 260.157 141.587 258.168 142.125 256.302C143 253.024 148.228 252.584 151.717 256.513Z" fill="white" stroke="#263238" stroke-linecap="round" stroke-linejoin="round"/>
<path d="M156.905 271.042C151.843 269.555 149.76 266.277 148.273 264.344C146.963 262.628 142.776 259.396 141.787 258.624C141.749 259.761 141.944 260.894 142.359 261.953L145.642 264.99C145.67 265.015 145.704 265.031 145.741 265.037C145.778 265.042 145.815 265.036 145.849 265.021C145.882 265.005 145.911 264.979 145.93 264.947C145.949 264.916 145.958 264.879 145.957 264.842L145.848 263.263C147.048 265.334 148.513 267.24 150.207 268.932C153.067 271.792 157.643 272.638 160.68 271.986C162.613 271.568 163.574 270.802 162.968 269.469C162.22 270.293 161.248 270.88 160.171 271.159C159.094 271.439 157.959 271.398 156.905 271.042Z" fill="white" stroke="#263238" stroke-linecap="round" stroke-linejoin="round"/>
<path d="M140.139 169.226L116.041 166.875L116.476 168.179C116.476 168.179 119.336 193.262 121.71 205.256C124.083 217.251 125.857 222.268 125.857 222.268C125.754 224.843 126.047 227.418 126.726 229.904C127.819 233.393 128.036 241.916 128.905 246.263C129.775 250.61 129.346 253.024 129.346 253.024C129.346 253.024 126.943 255.638 127.161 256.29C127.301 256.787 127.374 257.301 127.378 257.818C127.378 257.818 128.688 261.307 132.177 261.307C135.666 261.307 138.721 258.475 138.721 258.475L139.59 186.14L140.162 186.1L140.706 186.14L141.581 258.475C141.581 258.475 144.635 261.307 148.124 261.307C151.614 261.307 152.918 257.818 152.918 257.818C152.922 257.301 152.997 256.787 153.141 256.29C153.358 255.638 150.956 253.024 150.956 253.024C150.956 253.024 150.521 250.622 151.396 246.263C152.271 241.905 152.483 233.393 153.576 229.904C154.253 227.418 154.544 224.842 154.439 222.268C154.439 222.268 156.184 217.251 158.586 205.256C160.989 193.262 163.82 168.168 163.82 168.168L164.255 166.864L140.139 169.226Z" fill="#263238"/>
<mask id="mask1_2004_3911" style="mask-type:luminance" maskUnits="userSpaceOnUse" x="116" y="166" width="49" height="96">
<path d="M140.139 169.226L116.041 166.875L116.476 168.179C116.476 168.179 119.336 193.262 121.71 205.256C124.083 217.251 125.857 222.268 125.857 222.268C125.754 224.843 126.047 227.418 126.726 229.904C127.819 233.393 128.036 241.916 128.905 246.263C129.775 250.61 129.346 253.024 129.346 253.024C129.346 253.024 126.943 255.638 127.161 256.29C127.301 256.787 127.374 257.301 127.378 257.818C127.378 257.818 128.688 261.307 132.177 261.307C135.666 261.307 138.721 258.475 138.721 258.475L139.59 186.14L140.162 186.1L140.706 186.14L141.581 258.475C141.581 258.475 144.635 261.307 148.124 261.307C151.614 261.307 152.918 257.818 152.918 257.818C152.922 257.301 152.997 256.787 153.141 256.29C153.358 255.638 150.956 253.024 150.956 253.024C150.956 253.024 150.521 250.622 151.396 246.263C152.271 241.905 152.483 233.393 153.576 229.904C154.253 227.418 154.544 224.842 154.439 222.268C154.439 222.268 156.184 217.251 158.586 205.256C160.989 193.262 163.82 168.168 163.82 168.168L164.255 166.864L140.139 169.226Z" fill="white"/>
</mask>
<g mask="url(#mask1_2004_3911)">
<path d="M150.527 232.804C147.587 237.849 143.852 243.815 140.632 247.607" stroke="#7D7D7D" stroke-linecap="round" stroke-linejoin="round"/>
<path d="M155.681 223.526C155.681 223.526 154.491 225.814 152.655 229.086" stroke="#7D7D7D" stroke-linecap="round" stroke-linejoin="round"/>
<path d="M158.233 228.388C158.233 228.388 152.673 243.901 140.403 251.314" stroke="#7D7D7D" stroke-linecap="round" stroke-linejoin="round"/>
<path d="M145.957 230.241C145.957 230.241 141.095 239.965 140.403 241.109" stroke="#7D7D7D" stroke-linecap="round" stroke-linejoin="round"/>
<path d="M123.031 222.834C123.031 222.834 130.467 236.957 140.403 238.347" stroke="#7D7D7D" stroke-linecap="round" stroke-linejoin="round"/>
<path d="M125.582 237.42C125.582 237.42 134.162 242.745 140.631 243.672" stroke="#7D7D7D" stroke-linecap="round" stroke-linejoin="round"/>
<path d="M134.42 255.518C136.338 256.223 138.38 256.525 140.42 256.405" stroke="#7D7D7D" stroke-linecap="round" stroke-linejoin="round"/>
<path d="M129.363 253.024C130.176 253.566 131.024 254.051 131.903 254.477" stroke="#7D7D7D" stroke-linecap="round" stroke-linejoin="round"/>
<path d="M134.843 250.153C136.278 251.621 138.143 252.595 140.168 252.933" stroke="#7D7D7D" stroke-linecap="round" stroke-linejoin="round"/>
<path d="M153.599 251.108C153.599 251.108 148.274 255.741 145.494 256.897" stroke="#7D7D7D" stroke-linecap="round" stroke-linejoin="round"/>
</g>
<path d="M140.139 169.226L116.041 166.875L116.476 168.179C116.476 168.179 119.336 193.262 121.71 205.256C124.083 217.251 125.857 222.268 125.857 222.268C125.754 224.843 126.047 227.418 126.726 229.904C127.819 233.393 128.036 241.916 128.905 246.263C129.775 250.61 129.346 253.024 129.346 253.024C129.346 253.024 126.943 255.638 127.161 256.29C127.301 256.787 127.374 257.301 127.378 257.818C127.378 257.818 128.688 261.307 132.177 261.307C135.666 261.307 138.721 258.475 138.721 258.475L139.59 186.14L140.162 186.1L140.706 186.14L141.581 258.475C141.581 258.475 144.635 261.307 148.124 261.307C151.614 261.307 152.918 257.818 152.918 257.818C152.922 257.301 152.997 256.787 153.141 256.29C153.358 255.638 150.956 253.024 150.956 253.024C150.956 253.024 150.521 250.622 151.396 246.263C152.271 241.905 152.483 233.393 153.576 229.904C154.253 227.418 154.544 224.842 154.439 222.268C154.439 222.268 156.184 217.251 158.586 205.256C160.989 193.262 163.82 168.168 163.82 168.168L164.255 166.864L140.139 169.226Z" stroke="#263238" stroke-linecap="round" stroke-linejoin="round"/>
<path d="M158.151 95.3409C158.151 95.3409 147.678 93.3733 141.358 93.3733C135.037 93.3733 124.77 96.8625 124.77 96.8625L131.559 171.028C131.559 171.028 135.483 172.744 142.461 172.744C149.44 172.744 155.984 169.472 155.984 169.472L158.151 95.3409Z" fill="white" stroke="#263238" stroke-linecap="round" stroke-linejoin="round"/>
<path d="M142.954 122.214C150.52 122.214 156.654 116.167 156.654 108.709C156.654 101.25 150.52 95.2037 142.954 95.2037C135.388 95.2037 129.255 101.25 129.255 108.709C129.255 116.167 135.388 122.214 142.954 122.214Z" fill="white" stroke="#263238" stroke-linecap="round" stroke-linejoin="round"/>
<path d="M142.954 118.907C148.669 118.907 153.301 114.341 153.301 108.709C153.301 103.076 148.669 98.5098 142.954 98.5098C137.239 98.5098 132.606 103.076 132.606 108.709C132.606 114.341 137.239 118.907 142.954 118.907Z" fill="white" stroke="#263238" stroke-linecap="round" stroke-linejoin="round"/>
<path opacity="0.3" d="M126.194 99.9341C126.194 99.9341 124.999 124.702 141.409 129.175C157.82 133.648 164.981 108.886 162.894 101.427C160.806 93.9682 132.16 89.804 126.194 99.9341Z" fill="black"/>
<path d="M142.953 112.581C149.986 112.581 155.686 108.015 155.686 102.382C155.686 96.7497 149.986 92.1835 142.953 92.1835C135.921 92.1835 130.221 96.7497 130.221 102.382C130.221 108.015 135.921 112.581 142.953 112.581Z" fill="#263238" stroke="#263238" stroke-linecap="round" stroke-linejoin="round"/>
<path d="M178.464 126.195C178.464 126.195 223.783 141.364 229.458 132.372C232.518 127.516 220.048 119.468 212.172 116.842C204.295 114.217 182.428 103.881 182.428 103.881" fill="#92E3A9"/>
<mask id="mask2_2004_3911" style="mask-type:luminance" maskUnits="userSpaceOnUse" x="178" y="103" width="52" height="33">
<path d="M178.464 126.195C178.464 126.195 223.783 141.364 229.458 132.372C232.518 127.516 220.048 119.468 212.172 116.842C204.295 114.217 182.428 103.881 182.428 103.881" fill="white"/>
</mask>
<g mask="url(#mask2_2004_3911)">
<path opacity="0.3" d="M216.536 129.032C210.147 129.032 185.305 123.226 179.254 121.79L178.476 126.195C178.476 126.195 223.795 141.364 229.469 132.372C229.641 132.098 229.768 131.799 229.847 131.486C225.57 129.959 221.076 129.13 216.536 129.032Z" fill="black"/>
<path d="M186.517 117.872L180.94 127.379L186.517 122.099" stroke="#263238" stroke-linecap="round" stroke-linejoin="round"/>
</g>
<path d="M178.464 126.195C178.464 126.195 223.783 141.364 229.458 132.372C232.518 127.516 220.048 119.468 212.172 116.842C204.295 114.217 182.428 103.881 182.428 103.881" stroke="#263238" stroke-linecap="round" stroke-linejoin="round"/>
<path d="M182.599 119.491L169.924 176.908L150.688 181.719L152.289 139.311L155.201 101.278L156.345 94.134C156.345 94.134 182.285 103.023 184.178 104.339C186.071 105.654 185.322 112.919 185.322 112.919" fill="#92E3A9"/>
<mask id="mask3_2004_3911" style="mask-type:luminance" maskUnits="userSpaceOnUse" x="150" y="94" width="36" height="88">
<path d="M182.599 119.491L169.924 176.908L150.688 181.719L152.289 139.311L155.201 101.278L156.345 94.134C156.345 94.134 182.285 103.023 184.178 104.339C186.071 105.654 185.322 112.919 185.322 112.919" fill="white"/>
</mask>
<g mask="url(#mask3_2004_3911)">
<path opacity="0.3" d="M180.958 126.927L160.091 166.572C160.091 166.572 164.41 150.367 164.141 148.48C163.986 147.382 157.277 151.368 151.7 154.915L150.688 181.719L169.924 176.908L180.958 126.927Z" fill="black"/>
<path opacity="0.3" d="M160.36 96.096C160.36 96.096 167.115 100.952 166.303 111.757C165.491 122.562 163.06 120.944 163.06 120.944C163.06 120.944 164.684 123.369 163.06 123.644C161.435 123.918 158.484 118.782 157.912 120.131C157.34 121.481 154.131 123.1 154.131 123.1L155.183 101.29C155.183 101.29 156.041 95.524 160.36 96.096Z" fill="black"/>
<path d="M166.303 103.995C166.303 103.995 168.591 109.715 167.207 117.872" stroke="#263238" stroke-linecap="round" stroke-linejoin="round"/>
<path d="M168.871 112.747C168.871 112.747 169.923 115.006 166.303 124.061" stroke="#263238" stroke-linecap="round" stroke-linejoin="round"/>
<path d="M173.699 146.689C173.699 146.689 165.399 162.831 156.499 169.621" stroke="#263238" stroke-linecap="round" stroke-linejoin="round"/>
<path d="M163.741 155.138C163.741 155.138 162.683 156.951 157.872 160.732" stroke="#263238" stroke-linecap="round" stroke-linejoin="round"/>
</g>
<path d="M182.599 119.491L169.924 176.908L150.688 181.719L152.289 139.311L155.201 101.278L156.345 94.134C156.345 94.134 182.285 103.023 184.178 104.339C186.071 105.654 185.322 112.919 185.322 112.919" stroke="#263238" stroke-linecap="round" stroke-linejoin="round"/>
<path d="M158.844 93.6993C159.815 95.6503 160.363 97.7849 160.451 99.9627C160.451 103.172 160.594 111.042 161.32 114.686C162.047 118.33 164.381 122.551 163.654 122.408C162.928 122.265 162.053 120.366 160.159 118.181C158.266 115.996 157.682 112.495 156.659 113.227C155.635 113.96 153.747 120.223 153.747 120.223C153.747 120.223 154.039 107.107 154.474 102.153C154.908 97.1999 155.932 90.6391 158.844 93.6993Z" fill="#92E3A9"/>
<mask id="mask4_2004_3911" style="mask-type:luminance" maskUnits="userSpaceOnUse" x="153" y="92" width="11" height="31">
<path d="M158.844 93.6993C159.815 95.6503 160.363 97.7849 160.451 99.9627C160.451 103.172 160.594 111.042 161.32 114.686C162.047 118.33 164.381 122.551 163.654 122.408C162.928 122.265 162.053 120.366 160.159 118.181C158.266 115.996 157.682 112.495 156.659 113.227C155.635 113.96 153.747 120.223 153.747 120.223C153.747 120.223 154.039 107.107 154.474 102.153C154.908 97.1999 155.932 90.6391 158.844 93.6993Z" fill="white"/>
</mask>
<g mask="url(#mask4_2004_3911)">
<path opacity="0.3" d="M158.844 93.6993C159.815 95.6503 160.363 97.7849 160.451 99.9627C160.451 103.172 160.594 111.042 161.32 114.686C162.047 118.33 164.381 122.551 163.654 122.408C162.928 122.265 162.053 120.366 160.159 118.181C158.266 115.996 157.682 112.495 156.659 113.227C155.635 113.96 153.747 120.223 153.747 120.223C153.747 120.223 154.039 107.107 154.474 102.153C154.908 97.1999 155.932 90.6391 158.844 93.6993Z" fill="black"/>
</g>
<path d="M158.844 93.6993C159.815 95.6503 160.363 97.7849 160.451 99.9627C160.451 103.172 160.594 111.042 161.32 114.686C162.047 118.33 164.381 122.551 163.654 122.408C162.928 122.265 162.053 120.366 160.159 118.181C158.266 115.996 157.682 112.495 156.659 113.227C155.635 113.96 153.747 120.223 153.747 120.223C153.747 120.223 154.039 107.107 154.474 102.153C154.908 97.1999 155.932 90.6391 158.844 93.6993Z" stroke="#263238" stroke-linecap="round" stroke-linejoin="round"/>
<path d="M100.128 106.392C100.128 106.392 81.9845 136.576 79.1589 142.823C76.3332 149.069 72.4664 154.835 73.5075 157.392C74.5485 159.948 77.5115 161.853 83.323 161.556C89.1345 161.258 107.713 128.992 107.713 128.992L100.128 106.392Z" fill="#92E3A9"/>
<mask id="mask5_2004_3911" style="mask-type:luminance" maskUnits="userSpaceOnUse" x="73" y="106" width="35" height="56">
<path d="M100.128 106.392C100.128 106.392 81.9845 136.576 79.1589 142.823C76.3332 149.069 72.4664 154.835 73.5075 157.392C74.5485 159.948 77.5115 161.853 83.323 161.556C89.1345 161.258 107.713 128.992 107.713 128.992L100.128 106.392Z" fill="white"/>
</mask>
<g mask="url(#mask5_2004_3911)">
<path opacity="0.3" d="M92.5599 152.512C97.931 145.265 103.788 135.61 106.362 131.268L103.371 123.358L85.7988 155.767L92.5599 152.512Z" fill="black"/>
<path d="M97.3535 119.834L105.201 133.562L96.7529 126.778" stroke="#263238" stroke-linecap="round" stroke-linejoin="round"/>
<path d="M83.1738 144.716C83.1738 144.716 88.8938 147.576 91.3191 153.016" stroke="#263238" stroke-linecap="round" stroke-linejoin="round"/>
<path d="M88.1504 144.276C88.1504 144.276 90.7187 147.296 91.6224 150.613" stroke="#263238" stroke-linecap="round" stroke-linejoin="round"/>
</g>
<path d="M100.128 106.392C100.128 106.392 81.9845 136.576 79.1589 142.823C76.3332 149.069 72.4664 154.835 73.5075 157.392C74.5485 159.948 77.5115 161.853 83.323 161.556C89.1345 161.258 107.713 128.992 107.713 128.992L100.128 106.392Z" stroke="#263238" stroke-linecap="round" stroke-linejoin="round"/>
<path d="M102.296 119.491L114.972 176.908L134.202 181.719L132.601 139.311L129.689 101.278L128.545 94.134C128.545 94.134 102.588 103.023 100.672 104.339C98.7556 105.654 99.5278 112.919 99.5278 112.919" fill="#92E3A9"/>
<mask id="mask6_2004_3911" style="mask-type:luminance" maskUnits="userSpaceOnUse" x="99" y="94" width="36" height="88">
<path d="M102.296 119.491L114.972 176.908L134.202 181.719L132.601 139.311L129.689 101.278L128.545 94.134C128.545 94.134 102.588 103.023 100.672 104.339C98.7556 105.654 99.5278 112.919 99.5278 112.919" fill="white"/>
</mask>
<g mask="url(#mask6_2004_3911)">
<path opacity="0.3" d="M114.971 176.908L134.208 181.719L133.407 160.463L108.308 146.712L114.971 176.908Z" fill="black"/>
<path d="M111.539 148.051C111.539 148.051 116.687 154.84 122.407 158.759" stroke="#263238" stroke-linecap="round" stroke-linejoin="round"/>
<path opacity="0.3" d="M124.438 115.544C124.438 115.544 120.931 122.568 122.819 122.837C124.706 123.106 126.371 115.716 128.762 117.975L131.147 120.263L129.031 106.924C126.777 109.35 125.194 112.321 124.438 115.544Z" fill="black"/>
<path d="M123.305 96.9025C123.305 96.9025 119.53 107.771 120.588 116.968" stroke="#263238" stroke-linecap="round" stroke-linejoin="round"/>
<path d="M118.93 103.086C118.93 103.086 117.116 112.592 119.078 117.872" stroke="#263238" stroke-linecap="round" stroke-linejoin="round"/>
</g>
<path d="M102.296 119.491L114.972 176.908L134.202 181.719L132.601 139.311L129.689 101.278L128.545 94.134C128.545 94.134 102.588 103.023 100.672 104.339C98.7556 105.654 99.5278 112.919 99.5278 112.919" stroke="#263238" stroke-linecap="round" stroke-linejoin="round"/>
<path d="M126.051 93.6993C125.082 95.651 124.537 97.7854 124.45 99.9627C124.45 103.172 124.301 111.042 123.575 114.686C122.848 118.33 120.514 122.551 121.264 122.408C122.013 122.265 122.865 120.366 124.759 118.181C126.652 115.996 127.241 112.495 128.259 113.227C129.277 113.96 131.171 120.223 131.171 120.223C131.171 120.223 130.879 107.107 130.444 102.153C130.01 97.1999 128.963 90.6391 126.051 93.6993Z" fill="#92E3A9"/>
<mask id="mask7_2004_3911" style="mask-type:luminance" maskUnits="userSpaceOnUse" x="121" y="92" width="11" height="31">
<path d="M126.051 93.6993C125.082 95.651 124.537 97.7854 124.45 99.9627C124.45 103.172 124.301 111.042 123.575 114.686C122.848 118.33 120.514 122.551 121.264 122.408C122.013 122.265 122.865 120.366 124.759 118.181C126.652 115.996 127.241 112.495 128.259 113.227C129.277 113.96 131.171 120.223 131.171 120.223C131.171 120.223 130.879 107.107 130.444 102.153C130.01 97.1999 128.963 90.6391 126.051 93.6993Z" fill="white"/>
</mask>
<g mask="url(#mask7_2004_3911)">
<path opacity="0.3" d="M127.086 99.9341C127.086 99.9341 125.342 105.734 126.789 109.481C128.236 113.227 130.965 118.73 130.965 118.73L130.393 102.142" fill="black"/>
</g>
<path d="M126.051 93.6993C125.082 95.651 124.537 97.7854 124.45 99.9627C124.45 103.172 124.301 111.042 123.575 114.686C122.848 118.33 120.514 122.551 121.264 122.408C122.013 122.265 122.865 120.366 124.759 118.181C126.652 115.996 127.241 112.495 128.259 113.227C129.277 113.96 131.171 120.223 131.171 120.223C131.171 120.223 130.879 107.107 130.444 102.153C130.01 97.1999 128.963 90.6391 126.051 93.6993Z" stroke="#263238" stroke-linecap="round" stroke-linejoin="round"/>
<path d="M121.704 72.5468C121.704 72.5468 121.704 85.0392 123.317 92.2922C124.93 99.5452 128.151 105.585 136.41 109.012C144.67 112.438 154.543 108.005 158.775 102.766C163.008 97.526 162.602 82.8256 162.602 79.5995C162.602 76.3734 162.802 66.1003 162.802 66.1003C162.802 66.1003 161.189 61.2669 154.136 56.628C147.084 51.9891 140.037 49.764 131.171 55.2152C122.305 60.6663 121.704 72.5468 121.704 72.5468Z" fill="white" stroke="#263238" stroke-linecap="round" stroke-linejoin="round"/>
<path d="M150.149 85.6398L154.697 85.4968" stroke="#263238" stroke-linecap="round" stroke-linejoin="round"/>
<path d="M146.74 97.0855C146.74 97.0855 147.409 94.6946 150.944 94.1226" stroke="#263238" stroke-linecap="round" stroke-linejoin="round"/>
<path d="M143.189 86.0631V89.1919C143.579 89.4956 143.896 89.883 144.117 90.3255C144.338 90.768 144.456 91.2543 144.464 91.7488C144.607 93.5963 142.937 94.5745 141.358 93.3733" fill="white"/>
<path d="M143.189 86.0631V89.1919C143.579 89.4956 143.896 89.883 144.117 90.3255C144.338 90.768 144.456 91.2543 144.464 91.7488C144.607 93.5963 142.937 94.5745 141.358 93.3733" stroke="#263238" stroke-linecap="round" stroke-linejoin="round"/>
<path d="M133.47 84.2842H132.99C132.61 84.2842 132.247 84.1335 131.978 83.8653C131.71 83.5972 131.56 83.2334 131.56 82.8542H134.9C134.9 83.2334 134.749 83.5972 134.481 83.8653C134.213 84.1335 133.849 84.2842 133.47 84.2842Z" fill="#263238"/>
<path d="M130.124 82.7569H136.427" stroke="#263238" stroke-linecap="round" stroke-linejoin="round"/>
<path d="M130.124 83.9238H136.427" stroke="#263238" stroke-linecap="round" stroke-linejoin="round"/>
<path d="M153.044 82.6597C153.044 83.7179 152.598 84.5702 152.043 84.5702C151.488 84.5702 151.042 83.7179 151.042 82.6597C151.042 81.6015 151.488 80.7549 152.043 80.7549C152.598 80.7549 153.044 81.6072 153.044 82.6597Z" fill="#263238"/>
<path d="M145.579 77.0884C145.579 77.0884 149.366 74.9034 158.838 76.2133" stroke="#263238" stroke-width="3" stroke-linecap="round" stroke-linejoin="round"/>
<path d="M138.584 75.9215C137.406 74.026 135.78 72.4496 133.848 71.3313C131.917 70.213 129.74 69.5873 127.51 69.5094" stroke="#263238" stroke-width="3" stroke-linecap="round" stroke-linejoin="round"/>
<path d="M169.048 53.196C166.428 47.7563 157.162 39.2964 147.69 38.896C139.59 38.5471 136.822 41.5958 136.164 42.4824C135.809 42.225 130.375 38.4784 121.172 43.0544C121.116 43.0845 121.072 43.1322 121.046 43.19C121.02 43.2479 121.015 43.3126 121.03 43.3741C121.045 43.4356 121.08 43.4904 121.129 43.5298C121.179 43.5693 121.24 43.5912 121.303 43.5921C121.347 43.5937 121.39 43.5838 121.429 43.5635C128.207 40.1716 132.932 41.5215 134.86 42.4195C133.624 42.2079 131.393 42.1278 128.15 43.1231C122.911 44.7361 117.282 50.1758 115.864 59.6424C114.445 69.109 118.884 77.1685 120.497 78.7816C122.11 80.3946 122.31 83.8209 122.31 83.8209L121.904 73.3418C121.904 73.3418 121.704 72.5353 124.123 70.928C126.114 69.5952 134.825 60.7292 137.811 57.6633C138.349 60.5233 139.813 66.1289 143.457 69.9156C143.511 69.9703 143.585 70.0012 143.663 70.0014C143.7 70.0025 143.737 69.996 143.771 69.9823C143.806 69.9685 143.837 69.9477 143.863 69.9213C143.89 69.8952 143.911 69.864 143.925 69.8297C143.94 69.7953 143.947 69.7584 143.947 69.7211C143.947 69.6838 143.94 69.6469 143.925 69.6125C143.911 69.5781 143.89 69.547 143.863 69.5209C140.139 65.6427 138.755 59.7969 138.297 57.16L138.824 56.6223C138.824 56.6223 141.237 63.2689 145.27 66.6952C149.303 70.1215 154.536 72.9414 162.796 70.3217C171.056 67.7019 174.076 63.8752 174.076 63.8752C174.076 63.8752 171.668 58.6472 169.048 53.196Z" fill="#263238"/>
<mask id="mask8_2004_3911" style="mask-type:luminance" maskUnits="userSpaceOnUse" x="115" y="38" width="60" height="46">
<path d="M169.048 53.196C166.428 47.7563 157.162 39.2964 147.69 38.896C139.59 38.5471 136.822 41.5958 136.164 42.4824C135.809 42.225 130.375 38.4784 121.172 43.0544C121.116 43.0845 121.072 43.1322 121.046 43.19C121.02 43.2479 121.015 43.3126 121.03 43.3741C121.045 43.4356 121.08 43.4904 121.129 43.5298C121.179 43.5693 121.24 43.5912 121.303 43.5921C121.347 43.5937 121.39 43.5838 121.429 43.5635C128.207 40.1716 132.932 41.5215 134.86 42.4195C133.624 42.2079 131.393 42.1278 128.15 43.1231C122.911 44.7361 117.282 50.1758 115.864 59.6424C114.445 69.109 118.884 77.1685 120.497 78.7816C122.11 80.3946 122.31 83.8209 122.31 83.8209L121.904 73.3418C121.904 73.3418 121.704 72.5353 124.123 70.928C126.114 69.5952 134.825 60.7292 137.811 57.6633C138.349 60.5233 139.813 66.1289 143.457 69.9156C143.511 69.9703 143.585 70.0012 143.663 70.0014C143.7 70.0025 143.737 69.996 143.771 69.9823C143.806 69.9685 143.837 69.9477 143.863 69.9213C143.89 69.8952 143.911 69.864 143.925 69.8297C143.94 69.7953 143.947 69.7584 143.947 69.7211C143.947 69.6838 143.94 69.6469 143.925 69.6125C143.911 69.5781 143.89 69.547 143.863 69.5209C140.139 65.6427 138.755 59.7969 138.297 57.16L138.824 56.6223C138.824 56.6223 141.237 63.2689 145.27 66.6952C149.303 70.1215 154.536 72.9414 162.796 70.3217C171.056 67.7019 174.076 63.8752 174.076 63.8752C174.076 63.8752 171.668 58.6472 169.048 53.196Z" fill="white"/>
</mask>
<g mask="url(#mask8_2004_3911)">
<path d="M159.707 63.2632C173.366 65.1508 175.889 62.348 175.889 62.348" stroke="#7D7D7D" stroke-linecap="round" stroke-linejoin="round"/>
<path d="M139.566 48.334C139.566 48.334 143.891 58.058 154.221 61.919" stroke="#7D7D7D" stroke-linecap="round" stroke-linejoin="round"/>
<path d="M139.281 44.902C139.281 44.902 155.869 52.6126 162.447 52.91C169.025 53.2074 169.883 51.766 169.883 51.766" stroke="#7D7D7D" stroke-linecap="round" stroke-linejoin="round"/>
<path d="M136.135 48.906C136.135 48.906 123.837 55.484 120.405 62.92C116.973 70.356 118.403 75.504 118.403 75.504" stroke="#7D7D7D" stroke-linecap="round" stroke-linejoin="round"/>
<path d="M120.388 50.8394C119.565 51.4603 118.799 52.1533 118.1 52.91" stroke="#7D7D7D" stroke-linecap="round" stroke-linejoin="round"/>
<path d="M134.99 46.618C130.66 46.4194 126.357 47.3916 122.532 49.4323" stroke="#7D7D7D" stroke-linecap="round" stroke-linejoin="round"/>
</g>
<path d="M140.22 80.2687C137.447 79.0254 134.442 78.3826 131.403 78.3826C128.363 78.3826 125.358 79.0254 122.585 80.2687C122.585 80.2687 120.909 80.4346 120.909 81.7788C120.909 83.123 122.082 82.9514 122.082 82.9514C122.082 82.9514 122.311 89.3064 124.942 91.1825C127.293 92.8642 132.504 93.3675 135.186 92.3608C137.869 91.3541 139.556 89.5008 140.06 87.8249C140.563 86.1489 140.22 80.2687 140.22 80.2687Z" stroke="#263238" stroke-width="3" stroke-linecap="round" stroke-linejoin="round"/>
<path d="M144.195 80.2687C146.967 79.0255 149.971 78.3828 153.009 78.3828C156.048 78.3828 159.051 79.0255 161.824 80.2687C161.824 80.2687 163.505 80.4346 163.505 81.7788C163.505 83.123 162.333 82.94 162.333 82.94C162.333 82.94 162.104 89.2949 159.473 91.1711C157.122 92.8527 151.917 93.3561 149.228 92.3494C146.54 91.3427 144.864 89.4894 144.361 87.8134C143.857 86.1375 144.195 80.2687 144.195 80.2687Z" stroke="#263238" stroke-width="3" stroke-linecap="round" stroke-linejoin="round"/>
<path d="M140.22 80.2688C141.504 79.7521 142.939 79.7521 144.224 80.2688" stroke="#263238" stroke-width="3" stroke-linecap="round" stroke-linejoin="round"/>
<path d="M140.723 82.7856H143.577" stroke="#263238" stroke-width="3" stroke-linecap="round" stroke-linejoin="round"/>
<path d="M161.304 82.94C161.304 82.94 162.15 78.9703 164.919 78.9703C167.687 78.9703 168.414 82.0305 166.663 85.5254C164.913 89.0203 159.96 91.2111 159.674 89.1691C159.388 87.127 161.304 82.94 161.304 82.94Z" stroke="#263238" stroke-linecap="round" stroke-linejoin="round"/>
<path d="M173.121 76.9397C173.121 76.9397 165.542 77.0884 161.023 76.648C156.504 76.2075 159.879 80.08 161.824 80.2687C164.169 80.5523 166.532 80.6575 168.894 80.5833C170.635 80.5176 172.371 80.8157 173.99 81.4585C173.99 81.4585 176.473 78.69 173.121 76.9397Z" fill="white" stroke="#263238" stroke-linecap="round" stroke-linejoin="round"/>
<path d="M168.453 90.948C167.002 89.1854 165.734 87.2805 164.667 85.2623C163.208 82.3508 162.773 81.0409 165.542 81.3269C168.31 81.6129 169.477 84.2442 170.204 86.4292C170.93 88.6142 172.68 88.6142 172.68 88.6142L175.157 81.4757L180.116 85.8458L175.603 101.13C175.603 101.13 169.483 98.0694 168.608 96.7595C167.732 95.4496 168.602 92.092 168.453 90.948Z" fill="white" stroke="#263238" stroke-linecap="round" stroke-linejoin="round"/>
<path d="M182.153 81.6015C182.153 81.6015 181.718 79.2735 179.676 78.833C177.634 78.3926 174.139 75.9216 172.972 76.3563C171.805 76.791 169.62 83.7923 169.62 84.9363C169.62 86.0803 170.93 87.27 171.37 87.27C171.811 87.27 175.603 80.5834 175.603 80.5834L182.153 81.6015Z" fill="white" stroke="#263238" stroke-linecap="round" stroke-linejoin="round"/>
<path d="M182.302 83.3518C182.302 83.3518 183.028 81.7502 182.302 81.0238C181.575 80.2974 176.908 78.833 175.306 78.5413C173.705 78.2496 173.413 78.833 172.538 81.0238C171.663 83.2146 169.769 86.269 170.645 86.9955C171.52 87.7219 172.681 88.5971 172.681 88.5971L175.741 82.3337L182.302 83.3518Z" fill="white" stroke="#263238" stroke-linecap="round" stroke-linejoin="round"/>
<path d="M175.157 90.4961C175.157 90.4961 172.246 89.3521 171.805 88.4541C171.365 87.556 174.282 80.2916 174.723 80.1486C175.163 80.0056 177.051 80.5834 177.634 80.8751C178.217 81.1668 182.736 81.8932 183.028 83.7923C183.32 85.6913 180.259 96.4678 180.551 97.6347C180.843 98.8016 183.177 100.111 183.177 100.111L179.676 106.083C179.676 106.083 174.139 101.278 172.097 100.254C170.055 99.2306 172.829 95.8844 173.556 94.134C174.282 92.3837 175.157 90.4961 175.157 90.4961Z" fill="white" stroke="#263238" stroke-linecap="round" stroke-linejoin="round"/>
<path d="M175.157 90.4961L177.199 86.7038" stroke="#263238" stroke-linecap="round" stroke-linejoin="round"/>
<path d="M175.741 86.5608L178.51 86.8525" stroke="#263238" stroke-linecap="round" stroke-linejoin="round"/>
<path d="M182.301 98.8015L176.473 104.773L182.01 109.727L187.398 101.713L182.301 98.8015Z" fill="#92E3A9" stroke="#263238" stroke-linecap="round" stroke-linejoin="round"/>
<path d="M218.028 133.03C216.884 132.738 193.375 120.658 190.607 118.907C187.838 117.157 181.277 113.227 181.277 111.185C181.277 109.143 186.963 100.838 186.963 100.838C186.963 100.838 188.422 98.6528 190.75 99.9627C193.078 101.273 214.825 115.104 220.362 118.021C225.899 120.938 230.126 123.123 230.418 128.803C230.71 134.483 225.899 135.507 222.696 135.095" fill="#92E3A9"/>
<mask id="mask9_2004_3911" style="mask-type:luminance" maskUnits="userSpaceOnUse" x="181" y="99" width="50" height="37">
<path d="M218.028 133.03C216.884 132.738 193.375 120.658 190.607 118.907C187.838 117.157 181.277 113.227 181.277 111.185C181.277 109.143 186.963 100.838 186.963 100.838C186.963 100.838 188.422 98.6528 190.75 99.9627C193.078 101.273 214.825 115.104 220.362 118.021C225.899 120.938 230.126 123.123 230.418 128.803C230.71 134.483 225.899 135.507 222.696 135.095" fill="white"/>
</mask>
<g mask="url(#mask9_2004_3911)">
<path opacity="0.3" d="M213.178 124.456C205.347 122.934 191.619 118.558 188.37 117.5C189.222 118.072 190.006 118.53 190.607 118.907C193.375 120.658 216.861 132.738 218.028 133.03L222.696 135.072C225.899 135.507 230.704 134.5 230.418 128.78C230.132 123.06 225.899 120.909 220.362 117.998C217.079 116.282 208.087 110.699 200.834 106.18C209.448 112.312 221.781 121.338 222.101 122.946C222.599 125.445 222.101 126.189 213.178 124.456Z" fill="black"/>
</g>
<path d="M218.028 133.03C216.884 132.738 193.375 120.658 190.607 118.907C187.838 117.157 181.277 113.227 181.277 111.185C181.277 109.143 186.963 100.838 186.963 100.838C186.963 100.838 188.422 98.6528 190.75 99.9627C193.078 101.273 214.825 115.104 220.362 118.021C225.899 120.938 230.126 123.123 230.418 128.803C230.71 134.483 225.899 135.507 222.696 135.095" stroke="#263238" stroke-linecap="round" stroke-linejoin="round"/>
<path d="M173.556 128.82L158.112 131.88L158.696 135.959L167.293 137.56L172.973 132.464L173.556 128.82Z" stroke="#263238" stroke-linecap="round" stroke-linejoin="round"/>
<path d="M84.0836 150.831C85.1565 150.603 86.2654 150.603 87.3384 150.83C88.4114 151.058 89.4247 151.508 90.3127 152.152C93.5845 154.383 101.615 159.016 108.308 161.373C115 163.729 116.036 163.901 115.172 168.065C114.308 172.229 111.305 178.178 108.485 178.933C105.665 179.688 99.8593 175.364 90.9361 170.605C82.0129 165.846 73.9821 163.02 73.0897 159.451C72.1974 155.881 76.0641 149.79 76.0641 149.79" fill="#92E3A9"/>
<mask id="mask10_2004_3911" style="mask-type:luminance" maskUnits="userSpaceOnUse" x="72" y="149" width="44" height="31">
<path d="M84.0836 150.831C85.1565 150.603 86.2654 150.603 87.3384 150.83C88.4114 151.058 89.4247 151.508 90.3127 152.152C93.5845 154.383 101.615 159.016 108.308 161.373C115 163.729 116.036 163.901 115.172 168.065C114.308 172.229 111.305 178.178 108.485 178.933C105.665 179.688 99.8593 175.364 90.9361 170.605C82.0129 165.846 73.9821 163.02 73.0897 159.451C72.1974 155.881 76.0641 149.79 76.0641 149.79" fill="white"/>
</mask>
<g mask="url(#mask10_2004_3911)">
<path opacity="0.3" d="M108.308 161.39L107.53 161.104L112.558 164.141C112.558 164.141 106.884 164.141 106.077 168.465C105.271 172.79 107.965 175.215 106.346 175.753C104.727 176.29 83.1172 166.029 83.1172 166.029L83.8207 167.035C86.0287 168.117 88.4311 169.283 90.9078 170.605C99.831 175.364 105.631 179.677 108.457 178.933C111.282 178.189 114.251 172.241 115.143 168.065C116.036 163.889 114.972 163.769 108.308 161.39Z" fill="black"/>
</g>
<path d="M84.0836 150.831C85.1565 150.603 86.2654 150.603 87.3384 150.83C88.4114 151.058 89.4247 151.508 90.3127 152.152C93.5845 154.383 101.615 159.016 108.308 161.373C115 163.729 116.036 163.901 115.172 168.065C114.308 172.229 111.305 178.178 108.485 178.933C105.665 179.688 99.8593 175.364 90.9361 170.605C82.0129 165.846 73.9821 163.02 73.0897 159.451C72.1974 155.881 76.0641 149.79 76.0641 149.79" stroke="#263238" stroke-linecap="round" stroke-linejoin="round"/>
<path d="M147.862 165.554C147.862 165.554 150.979 166.126 153.21 165.554C155.441 164.982 155.59 166.126 154.549 168.082C153.508 170.038 150.979 170.908 149.349 170.759C147.719 170.61 145.185 167.19 147.862 165.554Z" fill="white" stroke="#263238" stroke-linecap="round" stroke-linejoin="round"/>
<path d="M120.199 171.057C120.199 171.057 124.066 170.164 125.553 169.123C127.041 168.082 138.789 160.2 140.277 160.2C141.764 160.2 151.717 167.933 151.871 168.528C152.026 169.123 149.051 172.841 148.159 173.585C147.266 174.328 143.697 178.79 142.805 179.682C141.913 180.575 138.492 182.211 137.451 182.508C136.41 182.805 134.923 181.936 135.22 180.872C135.518 179.808 135.792 178.939 135.792 178.939C135.792 178.939 130.141 181.764 127.166 181.021C124.192 180.277 117.202 176.708 117.202 176.708L120.199 171.057Z" fill="white" stroke="#263238" stroke-linecap="round" stroke-linejoin="round"/>
<path d="M135.815 171.651C135.815 171.651 142.954 177.898 142.805 179.659L135.815 171.651Z" fill="white"/>
<path d="M135.815 171.651C135.815 171.651 142.954 177.898 142.805 179.659" stroke="#263238" stroke-linecap="round" stroke-linejoin="round"/>
<path d="M137.749 166.744L146.077 175.518" stroke="#263238" stroke-linecap="round" stroke-linejoin="round"/>
<path d="M140.574 162.58L149.2 172.098" stroke="#263238" stroke-linecap="round" stroke-linejoin="round"/>
<path d="M135.815 178.939C135.815 178.939 138.344 178.046 138.046 179.511L135.815 178.939Z" fill="white"/>
<path d="M135.815 178.939C135.815 178.939 138.344 178.046 138.046 179.511" stroke="#263238" stroke-linecap="round" stroke-linejoin="round"/>
<path d="M113.21 166.892L121.218 170.164L117.054 179.534L109.046 175.667C109.046 175.667 108.754 170.016 113.21 166.892Z" fill="#92E3A9" stroke="#263238" stroke-linecap="round" stroke-linejoin="round"/>
</svg>
