<svg width="311" height="311" viewBox="0 0 311 311" fill="none" xmlns="http://www.w3.org/2000/svg">
<path d="M127.548 27.4551C127.548 27.4551 156.607 21.5647 183.049 27.4551C199.221 31.0565 233.275 39.5965 241.318 58.9532C249.36 78.3098 210.653 94.8239 229.668 114.46C237.872 122.932 277.238 134.103 275.024 189.051C272.809 243.998 215.131 277.493 134.974 276C54.8171 274.507 8.54032 201.615 39.5408 165.719C70.5413 129.824 83.8894 129.718 69.8384 100.484C55.7874 71.2501 75.2934 35.821 127.548 27.4551Z" fill="#92E3A9"/>
<path opacity="0.7" d="M127.548 27.4551C127.548 27.4551 156.607 21.5647 183.049 27.4551C199.221 31.0565 233.275 39.5965 241.318 58.9532C249.36 78.3098 210.653 94.8239 229.668 114.46C237.872 122.932 277.238 134.103 275.024 189.051C272.809 243.998 215.131 277.493 134.974 276C54.8171 274.507 8.54032 201.615 39.5408 165.719C70.5413 129.824 83.8894 129.718 69.8384 100.484C55.7874 71.2501 75.2934 35.821 127.548 27.4551Z" fill="white"/>
<path d="M72.1147 117.054L77.5261 132.878L51.5763 141.754L45.1572 122.976L71.1071 114.1L72.1147 117.054Z" stroke="#263238" stroke-linecap="round" stroke-linejoin="round"/>
<path d="M74.8141 124.935L77.526 132.878L51.5762 141.754L50.2451 137.86L55.4761 129.936L63.9913 133.251L70.0683 123.001L74.8141 124.935Z" stroke="#263238" stroke-linecap="round" stroke-linejoin="round"/>
<path d="M58.6046 123.934C58.7863 124.462 58.8072 125.032 58.6646 125.573C58.522 126.113 58.2223 126.599 57.8034 126.969C57.3846 127.338 56.8654 127.576 56.3116 127.65C55.7579 127.725 55.1944 127.634 54.6925 127.388C54.1907 127.142 53.773 126.753 53.4923 126.27C53.2117 125.787 53.0807 125.231 53.116 124.674C53.1512 124.116 53.3512 123.581 53.6904 123.137C54.0297 122.693 54.4931 122.36 55.0219 122.179C55.3723 122.059 55.743 122.009 56.1128 122.032C56.4826 122.055 56.8443 122.15 57.1771 122.313C57.5098 122.476 57.8072 122.703 58.0522 122.981C58.2971 123.259 58.4849 123.583 58.6046 123.934Z" stroke="#263238" stroke-linecap="round" stroke-linejoin="round"/>
<path d="M226.757 246.934L223.18 263.274L196.391 257.402L200.633 238.021L227.428 243.886L226.757 246.934Z" stroke="#263238" stroke-linecap="round" stroke-linejoin="round"/>
<path d="M201.702 253.222L220.107 257.253" stroke="#263238" stroke-linecap="round" stroke-linejoin="round"/>
<path d="M203.208 244.633C203.208 244.633 201.342 253.185 210.896 255.281C220.45 257.377 222.322 248.8 222.322 248.8" stroke="#263238" stroke-linecap="round" stroke-linejoin="round"/>
<path d="M204.016 244.813C203.966 245.024 203.835 245.208 203.651 245.324C203.468 245.44 203.246 245.48 203.033 245.435C202.873 245.4 202.727 245.318 202.613 245.2C202.5 245.081 202.424 244.932 202.395 244.77C202.367 244.609 202.387 244.443 202.453 244.293C202.52 244.142 202.629 244.016 202.768 243.928C202.906 243.84 203.068 243.796 203.232 243.8C203.396 243.804 203.555 243.857 203.689 243.952C203.822 244.047 203.925 244.179 203.983 244.333C204.042 244.486 204.053 244.653 204.016 244.813Z" fill="white" stroke="#263238" stroke-linecap="round" stroke-linejoin="round"/>
<path d="M223.13 248.999C223.114 249.112 223.075 249.22 223.015 249.318C222.956 249.415 222.877 249.499 222.783 249.564C222.689 249.629 222.583 249.674 222.471 249.696C222.359 249.718 222.244 249.717 222.133 249.692C222.021 249.668 221.916 249.621 221.824 249.554C221.732 249.486 221.655 249.401 221.597 249.303C221.539 249.204 221.503 249.095 221.489 248.982C221.476 248.868 221.486 248.754 221.519 248.645C221.579 248.445 221.713 248.276 221.892 248.171C222.072 248.065 222.285 248.032 222.488 248.077C222.692 248.121 222.871 248.241 222.99 248.412C223.109 248.583 223.159 248.793 223.13 248.999Z" fill="white" stroke="#263238" stroke-linecap="round" stroke-linejoin="round"/>
<path d="M202.212 252.631L200.796 252.321L200.486 253.737L201.902 254.047L202.212 252.631Z" fill="white" stroke="#263238" stroke-linecap="round" stroke-linejoin="round"/>
<path d="M211.763 254.72L210.348 254.41L210.038 255.825L211.453 256.135L211.763 254.72Z" fill="white" stroke="#263238" stroke-linecap="round" stroke-linejoin="round"/>
<path d="M221.326 256.815L219.91 256.505L219.6 257.921L221.016 258.231L221.326 256.815Z" fill="white" stroke="#263238" stroke-linecap="round" stroke-linejoin="round"/>
<path d="M102.785 69.2099L96.0179 84.5049L70.9326 73.396L78.9689 55.2523L104.048 66.355L102.785 69.2099Z" stroke="#263238" stroke-linecap="round" stroke-linejoin="round"/>
<path d="M89.618 75.517C89.1391 76.5993 87.4037 76.8854 85.7492 76.139C84.0947 75.3926 83.143 73.9309 83.622 72.8424C84.1009 71.7539 85.8363 71.474 87.4908 72.2204C89.1453 72.9668 90.097 74.4285 89.618 75.517Z" fill="#263238"/>
<path d="M90.887 63.5684L84.1943 73.1161L83.6221 72.8611L88.5172 65.8822L89.7612 64.066C90.1497 63.9609 90.5192 63.7951 90.8559 63.5746L90.887 63.5684Z" fill="#263238"/>
<path d="M90.8809 63.5746L89.2575 65.876C89.0115 65.9021 88.7634 65.9021 88.5173 65.876C87.7831 65.8159 87.0693 65.6041 86.4212 65.254C85.9811 65.0172 85.4831 64.9096 84.9845 64.9437C84.4859 64.9779 84.0072 65.1523 83.6035 65.4468C83.6844 65.3473 85.2643 63.3756 87.4413 64.066C88.2043 64.307 89.0231 64.307 89.7862 64.066C90.1747 63.9609 90.5442 63.7951 90.8809 63.5746Z" fill="#263238"/>
<path d="M269.966 193.199L264.126 208.874L238.425 199.301L245.354 180.697L271.055 190.276L269.966 193.199Z" stroke="#263238" stroke-linecap="round" stroke-linejoin="round"/>
<path d="M252.669 189.754L246.225 192.702L249.173 199.152" stroke="#263238" stroke-linecap="round" stroke-linejoin="round"/>
<path d="M256.096 201.727L262.546 198.785L259.598 192.335" stroke="#263238" stroke-linecap="round" stroke-linejoin="round"/>
<path d="M257.259 191.452L251.506 200.029" stroke="#263238" stroke-linecap="round" stroke-linejoin="round"/>
<path d="M244.321 47.5643L238.593 63.2823L212.823 53.8839L219.622 35.2363L245.391 44.6347L244.321 47.5643Z" stroke="#263238" stroke-linecap="round" stroke-linejoin="round"/>
<path d="M226.066 48.7461C226.066 48.7461 225.755 46.9859 223.155 47.3715C220.754 47.7323 220.045 50.4318 222.098 51.1719C224.48 52.0427 226.346 50.0275 228.666 48.0619C231.086 45.9907 233.281 43.7577 233.561 43.4965C233.561 43.4965 228.106 53.2556 227.397 54.5432C226.688 55.8307 228.821 55.358 229.207 54.7858" stroke="#263238" stroke-linecap="round" stroke-linejoin="round"/>
<path d="M235.278 51.626C234.595 51.1709 233.765 50.9935 232.956 51.1299C232.147 51.2663 231.42 51.7062 230.924 52.36C230.165 53.2743 230.563 54.226 231.217 54.481C232.896 55.103 233.935 54.3566 235.701 51.7877C235.701 51.7877 233.257 55.2212 233.779 55.414C234.012 55.4921 234.263 55.5051 234.503 55.4513C234.743 55.3976 234.964 55.2793 235.141 55.1092" stroke="#263238" stroke-linecap="round" stroke-linejoin="round"/>
<path d="M227.926 48.9701L232.242 50.5437" stroke="#263238" stroke-linecap="round" stroke-linejoin="round"/>
<path d="M74.242 229.17L47.4463 223.31L51.1037 206.591L77.9865 212.475L74.242 229.17Z" stroke="#263238" stroke-linecap="round" stroke-linejoin="round"/>
<path d="M57.1738 210.777L72.8358 214.204" stroke="#263238" stroke-linecap="round" stroke-linejoin="round"/>
<path d="M54.6426 211.797L72.5064 215.71" stroke="#263238" stroke-linecap="round" stroke-linejoin="round"/>
<path d="M54.3135 213.302L72.1773 217.209" stroke="#263238" stroke-linecap="round" stroke-linejoin="round"/>
<path d="M53.9834 214.808L71.8472 218.714" stroke="#263238" stroke-linecap="round" stroke-linejoin="round"/>
<path d="M53.6533 216.307L71.5172 220.213" stroke="#263238" stroke-linecap="round" stroke-linejoin="round"/>
<path d="M53.3301 217.812L71.1939 221.718" stroke="#263238" stroke-linecap="round" stroke-linejoin="round"/>
<path d="M53.001 219.311L70.8648 223.217" stroke="#263238" stroke-linecap="round" stroke-linejoin="round"/>
<path d="M52.6709 220.816L68.3329 224.243" stroke="#263238" stroke-linecap="round" stroke-linejoin="round"/>
<path d="M205.621 104.477H105.38L92.8711 42.2525H218.129L205.621 104.477Z" fill="#263238"/>
<path d="M102.275 44.274L83.8145 169.812H227.185L208.725 44.274" fill="#92E3A9"/>
<mask id="mask0_2004_4115" style="mask-type:luminance" maskUnits="userSpaceOnUse" x="83" y="44" width="145" height="126">
<path d="M102.275 44.274L83.8145 169.812H227.185L208.725 44.274" fill="white"/>
</mask>
<g mask="url(#mask0_2004_4115)">
<path opacity="0.3" d="M227.185 169.812H83.8145L91.5335 117.315H219.466L227.185 169.812Z" fill="black" fill-opacity="0.7"/>
</g>
<path d="M102.275 44.274L83.8145 169.812H227.185L208.725 44.274" stroke="#263238" stroke-linecap="round" stroke-linejoin="round"/>
<path d="M204.825 44.274H106.175L89.0703 169.812H221.93L204.825 44.274Z" fill="#263238"/>
<path d="M195.077 53.8403H141.529L140.907 52.4719C140.741 52.1005 140.47 51.7854 140.127 51.5647C139.785 51.3439 139.386 51.2269 138.979 51.2279H126.838C126.508 51.2279 126.191 51.359 125.958 51.5923C125.725 51.8256 125.594 52.142 125.594 52.4719V53.8652H115.922C115.747 53.8655 115.575 53.9045 115.417 53.9793C115.26 54.0542 115.12 54.163 115.01 54.298C114.899 54.433 114.82 54.5908 114.778 54.7601C114.735 54.9294 114.731 55.106 114.765 55.2771L122.677 94.6186H188.323L196.234 55.2771C196.273 55.1042 196.271 54.9249 196.231 54.7525C196.191 54.58 196.112 54.4189 196.001 54.2809C195.89 54.143 195.749 54.0318 195.589 53.9555C195.43 53.8792 195.255 53.8399 195.077 53.8403Z" fill="#BFBFBF" stroke="#263238" stroke-linecap="round" stroke-linejoin="round"/>
<path d="M197.099 56.857L196.415 60.2531L189.387 95.2033C189.286 95.7281 189.005 96.2014 188.593 96.5419C188.181 96.8824 187.663 97.0689 187.129 97.0693H123.871C123.337 97.0689 122.819 96.8824 122.407 96.5419C121.995 96.2014 121.715 95.7281 121.614 95.2033L114.448 59.4259L113.932 56.857C113.898 56.6874 113.902 56.5124 113.943 56.3444C113.985 56.1765 114.062 56.0196 114.171 55.885C114.279 55.7503 114.416 55.6411 114.572 55.5651C114.727 55.4891 114.897 55.4481 115.07 55.4451H195.93C196.106 55.4436 196.279 55.4812 196.439 55.5552C196.598 55.6292 196.738 55.7378 196.85 55.873C196.962 56.0083 197.043 56.1667 197.086 56.3369C197.129 56.5071 197.134 56.6848 197.099 56.857Z" fill="white"/>
<mask id="mask1_2004_4115" style="mask-type:luminance" maskUnits="userSpaceOnUse" x="113" y="55" width="85" height="43">
<path d="M197.099 56.857L196.415 60.2531L189.387 95.2033C189.286 95.7281 189.005 96.2014 188.593 96.5419C188.181 96.8824 187.663 97.0689 187.129 97.0693H123.871C123.337 97.0689 122.819 96.8824 122.407 96.5419C121.995 96.2014 121.715 95.7281 121.614 95.2033L114.448 59.4259L113.932 56.857C113.898 56.6874 113.902 56.5124 113.943 56.3444C113.985 56.1765 114.062 56.0196 114.171 55.885C114.279 55.7503 114.416 55.6411 114.572 55.5651C114.727 55.4891 114.897 55.4481 115.07 55.4451H195.93C196.106 55.4436 196.279 55.4812 196.439 55.5552C196.598 55.6292 196.738 55.7378 196.85 55.873C196.962 56.0083 197.043 56.1667 197.086 56.3369C197.129 56.5071 197.134 56.6848 197.099 56.857Z" fill="white"/>
</mask>
<g mask="url(#mask1_2004_4115)">
<path opacity="0.4" d="M196.415 60.2531L189.387 95.2033C189.286 95.7281 189.005 96.2014 188.593 96.5419C188.181 96.8824 187.663 97.0689 187.129 97.0693H123.872C123.337 97.0689 122.819 96.8824 122.407 96.5419C121.995 96.2014 121.715 95.7281 121.614 95.2033L114.448 59.4259L196.415 60.2531Z" fill="#92E3A9"/>
</g>
<path d="M197.099 56.857L196.415 60.2531L189.387 95.2033C189.286 95.7281 189.005 96.2014 188.593 96.5419C188.181 96.8824 187.663 97.0689 187.129 97.0693H123.871C123.337 97.0689 122.819 96.8824 122.407 96.5419C121.995 96.2014 121.715 95.7281 121.614 95.2033L114.448 59.4259L113.932 56.857C113.898 56.6874 113.902 56.5124 113.943 56.3444C113.985 56.1765 114.062 56.0196 114.171 55.885C114.279 55.7503 114.416 55.6411 114.572 55.5651C114.727 55.4891 114.897 55.4481 115.07 55.4451H195.93C196.106 55.4436 196.279 55.4812 196.439 55.5552C196.598 55.6292 196.738 55.7378 196.85 55.873C196.962 56.0083 197.043 56.1667 197.086 56.3369C197.129 56.5071 197.134 56.6848 197.099 56.857Z" stroke="#263238" stroke-linecap="round" stroke-linejoin="round"/>
<path d="M196.029 62.9029H141.194L140.572 61.5407C140.396 61.1668 140.117 60.851 139.768 60.6305C139.418 60.4101 139.013 60.2943 138.6 60.2967H126.16C125.83 60.2967 125.514 60.4277 125.28 60.661C125.047 60.8943 124.916 61.2108 124.916 61.5407V62.934H114.964C114.788 62.9317 114.613 62.9687 114.453 63.0423C114.293 63.1159 114.151 63.2242 114.038 63.3594C113.925 63.4945 113.843 63.6532 113.799 63.8238C113.755 63.9945 113.749 64.1728 113.782 64.3459L121.868 103.569H189.088L197.174 64.3459C197.211 64.1737 197.211 63.9952 197.171 63.8234C197.131 63.6515 197.054 63.4907 196.944 63.3525C196.835 63.2144 196.696 63.1023 196.537 63.0246C196.379 62.9468 196.205 62.9052 196.029 62.9029Z" fill="#BFBFBF" stroke="#263238" stroke-linecap="round" stroke-linejoin="round"/>
<path d="M198.094 66.0253L197.41 69.3468L190.201 104.26C190.09 104.79 189.799 105.266 189.378 105.606C188.956 105.946 188.429 106.13 187.887 106.126H123.112C122.57 106.13 122.044 105.946 121.622 105.606C121.2 105.266 120.909 104.79 120.798 104.26L113.564 69.2286L112.905 66.0253C112.872 65.8522 112.878 65.6739 112.922 65.5032C112.966 65.3326 113.048 65.1739 113.161 65.0388C113.274 64.9036 113.416 64.7953 113.576 64.7217C113.736 64.6481 113.911 64.6111 114.087 64.6134H196.912C197.089 64.6111 197.263 64.6481 197.423 64.7217C197.584 64.7953 197.725 64.9036 197.839 65.0388C197.952 65.1739 198.033 65.3326 198.078 65.5032C198.122 65.6739 198.127 65.8522 198.094 66.0253Z" fill="white"/>
<mask id="mask2_2004_4115" style="mask-type:luminance" maskUnits="userSpaceOnUse" x="112" y="64" width="87" height="43">
<path d="M198.094 66.0253L197.41 69.3468L190.201 104.26C190.09 104.79 189.799 105.266 189.378 105.606C188.956 105.946 188.429 106.13 187.887 106.126H123.112C122.57 106.13 122.044 105.946 121.622 105.606C121.2 105.266 120.909 104.79 120.798 104.26L113.564 69.2286L112.905 66.0253C112.872 65.8522 112.878 65.6739 112.922 65.5032C112.966 65.3326 113.048 65.1739 113.161 65.0388C113.274 64.9036 113.416 64.7953 113.576 64.7217C113.736 64.6481 113.911 64.6111 114.087 64.6134H196.912C197.089 64.6111 197.263 64.6481 197.423 64.7217C197.584 64.7953 197.725 64.9036 197.839 65.0388C197.952 65.1739 198.033 65.3326 198.078 65.5032C198.122 65.6739 198.127 65.8522 198.094 66.0253Z" fill="white"/>
</mask>
<g mask="url(#mask2_2004_4115)">
<path opacity="0.4" d="M197.41 69.3468L190.201 104.26C190.09 104.79 189.799 105.266 189.378 105.606C188.956 105.946 188.429 106.13 187.887 106.126H123.112C122.57 106.13 122.044 105.946 121.622 105.606C121.2 105.266 120.909 104.79 120.798 104.26L113.564 69.2286L197.41 69.3468Z" fill="#92E3A9"/>
</g>
<path d="M198.094 66.0253L197.41 69.3468L190.201 104.26C190.09 104.79 189.799 105.266 189.378 105.606C188.956 105.946 188.429 106.13 187.887 106.126H123.112C122.57 106.13 122.044 105.946 121.622 105.606C121.2 105.266 120.909 104.79 120.798 104.26L113.564 69.2286L112.905 66.0253C112.872 65.8522 112.878 65.6739 112.922 65.5032C112.966 65.3326 113.048 65.1739 113.161 65.0388C113.274 64.9036 113.416 64.7953 113.576 64.7217C113.736 64.6481 113.911 64.6111 114.087 64.6134H196.912C197.089 64.6111 197.263 64.6481 197.423 64.7217C197.584 64.7953 197.725 64.9036 197.839 65.0388C197.952 65.1739 198.033 65.3326 198.078 65.5032C198.122 65.6739 198.127 65.8522 198.094 66.0253Z" stroke="#263238" stroke-linecap="round" stroke-linejoin="round"/>
<path d="M196.975 71.9654H140.864L140.242 70.6032C140.059 70.2259 139.772 69.9085 139.415 69.6882C139.059 69.4679 138.646 69.3538 138.227 69.3592H125.463C125.297 69.3542 125.131 69.3827 124.976 69.443C124.821 69.5033 124.679 69.5941 124.56 69.7101C124.44 69.8261 124.345 69.965 124.28 70.1184C124.215 70.2718 124.182 70.4367 124.182 70.6032V71.9903H114.025C113.847 71.9847 113.67 72.0189 113.507 72.0904C113.344 72.162 113.199 72.269 113.083 72.4038C112.967 72.5385 112.882 72.6975 112.835 72.8692C112.788 73.0409 112.78 73.2209 112.812 73.396L121.103 112.501H189.896L198.188 73.396C198.224 73.2191 198.219 73.0363 198.174 72.8615C198.129 72.6866 198.045 72.5243 197.928 72.3866C197.811 72.2489 197.665 72.1395 197.5 72.0665C197.335 71.9936 197.155 71.959 196.975 71.9654Z" fill="#BFBFBF" stroke="#263238" stroke-linecap="round" stroke-linejoin="round"/>
<path d="M197.884 73.7878H113.117C112.94 73.7822 112.764 73.8163 112.602 73.8875C112.44 73.9587 112.296 74.0653 112.18 74.1995C112.064 74.3337 111.98 74.492 111.933 74.6629C111.887 74.8339 111.879 75.013 111.911 75.1873L119.997 113.31C120.116 113.845 120.416 114.324 120.846 114.664C121.277 115.004 121.812 115.184 122.36 115.176H188.647C189.195 115.184 189.73 115.004 190.161 114.664C190.592 114.324 190.892 113.845 191.01 113.31L199.096 75.1873C199.128 75.0125 199.12 74.8328 199.073 74.6614C199.026 74.49 198.942 74.3313 198.825 74.197C198.709 74.0627 198.564 73.9562 198.401 73.8854C198.238 73.8146 198.061 73.7813 197.884 73.7878Z" fill="white" stroke="#263238" stroke-linecap="round" stroke-linejoin="round"/>
<path d="M197.927 79.1619H140.528L139.875 77.806C139.683 77.4266 139.388 77.1088 139.024 76.8889C138.66 76.669 138.242 76.5557 137.817 76.562H124.755C124.586 76.5527 124.416 76.5779 124.257 76.6363C124.099 76.6946 123.953 76.7848 123.83 76.9012C123.707 77.0177 123.61 77.158 123.543 77.3136C123.476 77.4691 123.442 77.6367 123.442 77.806V79.193H113.073C112.894 79.184 112.715 79.2154 112.549 79.2848C112.383 79.3543 112.235 79.4601 112.116 79.5944C111.996 79.7288 111.909 79.8882 111.859 80.0609C111.809 80.2337 111.799 80.4153 111.829 80.5925L120.307 119.586H190.687L199.164 80.5925C199.2 80.4136 199.194 80.229 199.147 80.0528C199.1 79.8766 199.014 79.7133 198.894 79.5754C198.775 79.4375 198.626 79.3286 198.458 79.257C198.291 79.1853 198.109 79.1528 197.927 79.1619Z" fill="#BFBFBF" stroke="#263238" stroke-linecap="round" stroke-linejoin="round"/>
<path d="M198.853 81.0901H112.147C111.967 81.0811 111.788 81.1125 111.622 81.182C111.456 81.2514 111.308 81.3572 111.189 81.4915C111.07 81.6259 110.982 81.7853 110.932 81.958C110.883 82.1308 110.873 82.3125 110.903 82.4896L119.169 120.5C119.304 121.034 119.618 121.507 120.058 121.839C120.498 122.172 121.037 122.344 121.589 122.329H189.387C189.938 122.344 190.478 122.172 190.917 121.839C191.357 121.507 191.671 121.034 191.806 120.5L200.073 82.4896C200.102 82.3146 200.092 82.1352 200.044 81.9643C199.996 81.7935 199.911 81.6354 199.794 81.5016C199.677 81.3677 199.533 81.2614 199.37 81.1902C199.207 81.1191 199.031 81.0849 198.853 81.0901Z" fill="white" stroke="#263238" stroke-linecap="round" stroke-linejoin="round"/>
<path d="M198.872 86.3585H140.193L139.527 85.0025C139.325 84.6201 139.021 84.3013 138.649 84.0816C138.277 83.862 137.851 83.7501 137.419 83.7585H124.089C123.752 83.7416 123.422 83.8591 123.171 84.0853C122.92 84.3115 122.769 84.628 122.752 84.9652V86.346H112.128C111.951 86.3448 111.776 86.3812 111.615 86.4528C111.453 86.5244 111.309 86.6297 111.191 86.7615C111.073 86.8933 110.985 87.0487 110.932 87.2173C110.879 87.3859 110.863 87.5639 110.884 87.7393L119.555 126.614H191.47L200.141 87.7393C200.161 87.5627 200.142 87.384 200.087 87.2151C200.032 87.0462 199.941 86.8912 199.821 86.7603C199.7 86.6295 199.554 86.5259 199.39 86.4566C199.226 86.3873 199.05 86.3538 198.872 86.3585Z" fill="#BFBFBF" stroke="#263238" stroke-linecap="round" stroke-linejoin="round"/>
<path d="M199.818 88.3986H111.183C111.004 88.3909 110.826 88.423 110.661 88.4925C110.497 88.562 110.349 88.6672 110.23 88.8005C110.111 88.9338 110.023 89.0919 109.973 89.2634C109.922 89.4348 109.911 89.6154 109.939 89.7919L112.016 99.1219L118.385 127.69C118.533 128.231 118.86 128.705 119.311 129.037C119.763 129.369 120.313 129.539 120.873 129.519H190.164C190.724 129.539 191.275 129.369 191.726 129.037C192.178 128.705 192.504 128.231 192.652 127.69L195.762 113.677L201.086 89.7981C201.116 89.6189 201.104 89.4354 201.053 89.2613C201.002 89.0871 200.912 88.9268 200.79 88.7923C200.668 88.6577 200.517 88.5525 200.349 88.4843C200.18 88.4162 199.999 88.3869 199.818 88.3986Z" fill="white"/>
<mask id="mask3_2004_4115" style="mask-type:luminance" maskUnits="userSpaceOnUse" x="109" y="88" width="93" height="42">
<path d="M199.818 88.3986H111.183C111.004 88.3909 110.826 88.423 110.661 88.4925C110.497 88.562 110.349 88.6672 110.23 88.8005C110.111 88.9338 110.023 89.0919 109.973 89.2634C109.922 89.4348 109.911 89.6154 109.939 89.7919L112.016 99.1219L118.385 127.69C118.533 128.231 118.86 128.705 119.311 129.037C119.763 129.369 120.313 129.539 120.873 129.519H190.164C190.724 129.539 191.275 129.369 191.726 129.037C192.178 128.705 192.504 128.231 192.652 127.69L195.762 113.677L201.086 89.7981C201.116 89.6189 201.104 89.4354 201.053 89.2613C201.002 89.0871 200.912 88.9268 200.79 88.7923C200.668 88.6577 200.517 88.5525 200.349 88.4843C200.18 88.4162 199.999 88.3869 199.818 88.3986Z" fill="white"/>
</mask>
<g mask="url(#mask3_2004_4115)">
<path opacity="0.4" d="M111.991 99.1157L118.36 127.684C118.509 128.225 118.835 128.699 119.286 129.031C119.738 129.363 120.288 129.533 120.848 129.513H190.164C190.724 129.533 191.275 129.363 191.726 129.031C192.178 128.699 192.504 128.225 192.652 127.684L195.762 113.671L111.991 99.1157Z" fill="#92E3A9"/>
</g>
<path d="M199.818 88.3986H111.183C111.004 88.3909 110.826 88.423 110.661 88.4925C110.497 88.562 110.349 88.6672 110.23 88.8005C110.111 88.9338 110.023 89.0919 109.973 89.2634C109.922 89.4348 109.911 89.6154 109.939 89.7919L112.016 99.1219L118.385 127.69C118.533 128.231 118.86 128.705 119.311 129.037C119.763 129.369 120.313 129.539 120.873 129.519H190.164C190.724 129.539 191.275 129.369 191.726 129.037C192.178 128.705 192.504 128.231 192.652 127.69L195.762 113.677L201.086 89.7981C201.116 89.6189 201.104 89.4354 201.053 89.2613C201.002 89.0871 200.912 88.9268 200.79 88.7923C200.668 88.6577 200.517 88.5525 200.349 88.4843C200.18 88.4162 199.999 88.3869 199.818 88.3986Z" stroke="#263238" stroke-linecap="round" stroke-linejoin="round"/>
<path d="M137.941 130.863L137.157 129.556C136.9 129.179 136.548 128.877 136.136 128.68C135.724 128.483 135.267 128.399 134.812 128.437L120.332 129.102C119.983 129.088 119.643 129.21 119.382 129.442C119.121 129.674 118.96 129.998 118.933 130.346L118.995 131.715L107.451 132.243C106.567 132.281 105.933 132.977 106.144 133.68L117.34 171.622L195.489 168.027L203.145 129.233C203.282 128.511 202.592 127.877 201.702 127.921L137.941 130.863Z" fill="#BFBFBF" stroke="#263238" stroke-linecap="round" stroke-linejoin="round"/>
<path d="M204.265 131.659L203.394 136.125L196.819 169.483C196.657 170.046 196.314 170.539 195.843 170.888C195.372 171.236 194.799 171.42 194.213 171.411L118.908 174.869C118.325 174.933 117.738 174.803 117.236 174.499C116.735 174.196 116.347 173.735 116.133 173.19L105.74 137.922L105.236 136.212C105.031 135.509 105.665 134.812 106.548 134.775L202.84 130.346C203.717 130.309 204.408 130.943 204.265 131.659Z" fill="white"/>
<mask id="mask4_2004_4115" style="mask-type:luminance" maskUnits="userSpaceOnUse" x="105" y="130" width="100" height="45">
<path d="M204.265 131.659L203.394 136.125L196.819 169.483C196.657 170.046 196.314 170.539 195.843 170.888C195.372 171.236 194.799 171.42 194.213 171.411L118.908 174.869C118.325 174.933 117.738 174.803 117.236 174.499C116.735 174.196 116.347 173.735 116.133 173.19L105.74 137.922L105.236 136.212C105.031 135.509 105.665 134.812 106.548 134.775L202.84 130.346C203.717 130.309 204.408 130.943 204.265 131.659Z" fill="white"/>
</mask>
<g mask="url(#mask4_2004_4115)">
<path opacity="0.4" d="M203.394 136.125L196.82 169.483C196.657 170.046 196.314 170.539 195.843 170.888C195.372 171.236 194.799 171.42 194.214 171.411L118.908 174.869C118.325 174.933 117.738 174.803 117.237 174.499C116.735 174.196 116.348 173.735 116.134 173.19L105.74 137.922L203.394 136.125Z" fill="#92E3A9"/>
</g>
<path d="M204.265 131.659L203.394 136.125L196.819 169.483C196.657 170.046 196.314 170.539 195.843 170.888C195.372 171.236 194.799 171.42 194.213 171.411L118.908 174.869C118.325 174.933 117.738 174.803 117.236 174.499C116.735 174.196 116.347 173.735 116.133 173.19L105.74 137.922L105.236 136.212C105.031 135.509 105.665 134.812 106.548 134.775L202.84 130.346C203.717 130.309 204.408 130.943 204.265 131.659Z" stroke="#263238" stroke-linecap="round" stroke-linejoin="round"/>
<path d="M139.602 139.521L138.936 138.152C138.707 137.749 138.376 137.413 137.977 137.177C137.578 136.942 137.123 136.815 136.66 136.809L121.912 136.038C121.559 135.983 121.198 136.069 120.908 136.278C120.617 136.486 120.42 136.799 120.357 137.151L120.289 138.513L108.52 137.891C107.618 137.841 106.909 138.47 107.046 139.185L114.653 177.929L194.35 182.097L205.95 144.36C206.162 143.657 205.521 142.96 204.619 142.917L139.602 139.521Z" fill="#BFBFBF" stroke="#263238" stroke-linecap="round" stroke-linejoin="round"/>
<path d="M206.852 146.991L204.986 153.136L195.569 183.776C195.342 184.324 194.942 184.783 194.43 185.081C193.918 185.38 193.321 185.503 192.733 185.431L115.934 181.419C115.342 181.428 114.762 181.243 114.284 180.893C113.806 180.542 113.455 180.046 113.285 179.478L106.785 146.344L105.877 141.71C105.734 140.995 106.449 140.367 107.351 140.416L205.521 145.548C206.423 145.598 207.07 146.294 206.852 146.991Z" fill="white"/>
<mask id="mask5_2004_4115" style="mask-type:luminance" maskUnits="userSpaceOnUse" x="105" y="140" width="102" height="46">
<path d="M206.852 146.991L204.986 153.136L195.569 183.776C195.342 184.324 194.942 184.783 194.43 185.081C193.918 185.38 193.321 185.503 192.733 185.431L115.934 181.419C115.342 181.428 114.762 181.243 114.284 180.893C113.806 180.542 113.455 180.046 113.285 179.478L106.785 146.344L105.877 141.71C105.734 140.995 106.449 140.367 107.351 140.416L205.521 145.548C206.423 145.598 207.07 146.294 206.852 146.991Z" fill="white"/>
</mask>
<g mask="url(#mask5_2004_4115)">
<path opacity="0.4" d="M204.961 153.136L195.544 183.776C195.317 184.324 194.917 184.783 194.405 185.081C193.892 185.38 193.296 185.503 192.708 185.431L115.909 181.419C115.317 181.428 114.737 181.243 114.259 180.893C113.781 180.542 113.43 180.046 113.26 179.478L106.76 146.344L204.961 153.136Z" fill="#92E3A9"/>
</g>
<path d="M206.852 146.991L204.986 153.136L195.569 183.776C195.342 184.324 194.942 184.783 194.43 185.081C193.918 185.38 193.321 185.503 192.733 185.431L115.934 181.419C115.342 181.428 114.762 181.243 114.284 180.893C113.806 180.542 113.455 180.046 113.285 179.478L106.785 146.344L105.877 141.71C105.734 140.995 106.449 140.367 107.351 140.416L205.521 145.548C206.423 145.598 207.07 146.294 206.852 146.991Z" stroke="#263238" stroke-linecap="round" stroke-linejoin="round"/>
<path d="M138.184 149.442L137.462 148.111C137.207 147.715 136.853 147.392 136.436 147.174C136.018 146.956 135.551 146.85 135.08 146.867H119.972C119.614 146.828 119.255 146.93 118.971 147.152C118.688 147.374 118.502 147.698 118.454 148.055V149.411H106.437C105.516 149.411 104.826 150.07 105.006 150.779L114.809 188.951H196.192L205.994 150.779C206.175 150.07 205.484 149.411 204.564 149.411L138.184 149.442Z" fill="#BFBFBF" stroke="#263238" stroke-linecap="round" stroke-linejoin="round"/>
<path d="M194.686 192.503H116.314C114.958 192.503 113.782 191.75 113.515 190.711L103.936 153.497C103.749 152.788 104.44 152.129 105.366 152.129H205.633C206.56 152.129 207.25 152.788 207.063 153.497L197.51 190.711C197.242 191.75 196.067 192.503 194.686 192.503Z" fill="white" stroke="#263238" stroke-linecap="round" stroke-linejoin="round"/>
<path d="M137.847 158.504L137.082 157.179C136.814 156.787 136.449 156.469 136.024 156.257C135.598 156.045 135.125 155.945 134.65 155.966H119.287C118.925 155.924 118.56 156.024 118.271 156.246C117.982 156.468 117.791 156.794 117.738 157.155V158.504H105.491C104.545 158.504 103.843 159.164 104.029 159.873L114.025 197.927H196.975L206.97 159.854C207.157 159.145 206.454 158.486 205.508 158.486L137.847 158.504Z" fill="#BFBFBF" stroke="#263238" stroke-linecap="round" stroke-linejoin="round"/>
<path d="M195.47 201.528H115.53C114.149 201.528 112.955 200.775 112.681 199.737L102.935 162.641C102.754 161.931 103.457 161.272 104.396 161.272H206.603C207.543 161.272 208.245 161.931 208.065 162.641L198.318 199.737C198.045 200.8 196.85 201.528 195.47 201.528Z" fill="white" stroke="#263238" stroke-linecap="round" stroke-linejoin="round"/>
<path d="M211.71 244.427H99.2899L74.6836 174.645H236.316L211.71 244.427Z" fill="#92E3A9"/>
<mask id="mask6_2004_4115" style="mask-type:luminance" maskUnits="userSpaceOnUse" x="74" y="174" width="163" height="71">
<path d="M211.71 244.427H99.2899L74.6836 174.645H236.316L211.71 244.427Z" fill="white"/>
</mask>
<g mask="url(#mask6_2004_4115)">
<path opacity="0.3" d="M211.71 244.427H99.2899L74.6836 174.645H236.316L211.71 244.427Z" fill="black" fill-opacity="0.7"/>
</g>
<path d="M211.71 244.427H99.2899L74.6836 174.645H236.316L211.71 244.427Z" stroke="#263238" stroke-linecap="round" stroke-linejoin="round"/>
<path d="M234.177 165.458H76.8233L74.6836 174.645H236.316L234.177 165.458Z" fill="#92E3A9" stroke="#263238" stroke-linecap="round" stroke-linejoin="round"/>
<path d="M116.482 206.616L114.908 221.513H196.092L194.518 206.616H190.935L191.955 217.246H119.044L120.065 206.616H116.482Z" fill="#BFBFBF" stroke="#263238" stroke-linecap="round" stroke-linejoin="round"/>
<path d="M195.482 224.934H115.518L114.908 221.513H196.092L195.482 224.934Z" fill="#757575" stroke="#263238" stroke-linecap="round" stroke-linejoin="round"/>
<path d="M190.935 206.616L190.438 210.566L190.935 217.246H191.955L190.935 206.616Z" fill="#757575" stroke="#263238" stroke-linecap="round" stroke-linejoin="round"/>
<path d="M120.065 206.616L120.569 210.566L120.065 217.246H119.045L120.065 206.616Z" fill="#757575" stroke="#263238" stroke-linecap="round" stroke-linejoin="round"/>
<path d="M181.662 199.14H129.339L126.845 186.5H184.156L181.662 199.14Z" fill="white" stroke="#263238" stroke-linecap="round" stroke-linejoin="round"/>
<path d="M144.566 194.649L144.914 189.293H146.506L146.973 196.726H145.946L145.579 191.476L145.225 196.726H144.192L142.948 191.551L143.415 196.726H142.438L141.717 189.293H143.309L144.566 194.649Z" fill="#263238"/>
<path d="M148.658 194.35L146.96 189.293H148.16L149.18 192.776L149.883 189.293H150.978L149.734 194.35L149.834 196.726H148.745L148.658 194.35Z" fill="#263238"/>
<path d="M154.256 192.696H155.705V193.753H154.274V196.726H153.186L153.062 189.293H156.122V190.407H154.256V192.696Z" fill="#263238"/>
<path d="M156.694 189.293H157.839L157.72 196.726H156.632L156.694 189.293Z" fill="#263238"/>
<path d="M158.679 189.293H159.854L159.662 195.712H161.459L161.416 196.726H158.542L158.679 189.293Z" fill="#263238"/>
<path d="M163.181 192.521H164.718L164.649 193.585H163.119L163.001 195.712H164.867L164.799 196.726H161.838L162.186 189.293H165.296L165.215 190.407H163.25L163.181 192.521Z" fill="#263238"/>
<path d="M167.598 189.206C168.717 189.206 169.221 189.915 169.103 191.153V191.389H168.033L168.064 191.072C168.114 190.525 167.921 190.313 167.56 190.313C167.2 190.313 166.976 190.525 166.938 191.072C166.901 191.62 167.081 192.036 167.759 192.714C168.612 193.573 168.848 194.182 168.767 195.009C168.655 196.16 168.039 196.807 166.976 196.807C165.912 196.807 165.402 196.185 165.483 195.009L165.52 194.568H166.565L166.522 195.084C166.478 195.6 166.683 195.781 167.032 195.781C167.38 195.781 167.616 195.6 167.654 195.084C167.691 194.568 167.517 194.164 166.845 193.498C165.981 192.64 165.725 192.018 165.794 191.153C165.856 189.915 166.484 189.206 167.598 189.206Z" fill="#263238"/>
<path d="M159.002 76.8357L158.492 75.374C158.327 74.9576 158.05 74.5947 157.693 74.3248C157.335 74.055 156.91 73.8886 156.464 73.8438L142.631 72.0587C142.287 71.9929 141.931 72.0659 141.641 72.2617C141.351 72.4575 141.15 72.7602 141.082 73.1037L140.902 74.5032L129.88 73.085C129.697 73.0466 129.507 73.05 129.326 73.0951C129.144 73.1401 128.975 73.2256 128.83 73.3452C128.686 73.4648 128.571 73.6154 128.493 73.7857C128.415 73.9561 128.377 74.1418 128.381 74.329L132.306 114.846L206.946 124.468L221.016 86.2714C221.066 86.0917 221.076 85.903 221.044 85.7191C221.011 85.5352 220.938 85.361 220.829 85.2092C220.721 85.0575 220.579 84.9322 220.416 84.8426C220.252 84.7529 220.07 84.7013 219.884 84.6915L159.002 76.8357Z" fill="white"/>
<mask id="mask7_2004_4115" style="mask-type:luminance" maskUnits="userSpaceOnUse" x="128" y="72" width="94" height="53">
<path d="M159.002 76.8357L158.492 75.374C158.327 74.9576 158.05 74.5947 157.693 74.3248C157.335 74.055 156.91 73.8886 156.464 73.8438L142.631 72.0587C142.287 71.9929 141.931 72.0659 141.641 72.2617C141.351 72.4575 141.15 72.7602 141.082 73.1037L140.902 74.5032L129.88 73.085C129.697 73.0466 129.507 73.05 129.326 73.0951C129.144 73.1401 128.975 73.2256 128.83 73.3452C128.686 73.4648 128.571 73.6154 128.493 73.7857C128.415 73.9561 128.377 74.1418 128.381 74.329L132.306 114.846L206.946 124.468L221.016 86.2714C221.066 86.0917 221.076 85.903 221.044 85.7191C221.011 85.5352 220.938 85.361 220.829 85.2092C220.721 85.0575 220.579 84.9322 220.416 84.8426C220.252 84.7529 220.07 84.7013 219.884 84.6915L159.002 76.8357Z" fill="white"/>
</mask>
<g mask="url(#mask7_2004_4115)">
<path opacity="0.4" d="M159.002 76.8357L158.492 75.374C158.327 74.9576 158.05 74.5947 157.693 74.3248C157.335 74.055 156.91 73.8886 156.464 73.8438L142.631 72.0587C142.287 71.9929 141.931 72.0659 141.641 72.2617C141.351 72.4575 141.15 72.7602 141.082 73.1037L140.902 74.5032L129.88 73.085C129.697 73.0466 129.507 73.05 129.326 73.0951C129.144 73.1401 128.975 73.2256 128.83 73.3452C128.686 73.4648 128.571 73.6154 128.493 73.7857C128.415 73.9561 128.377 74.1418 128.381 74.329L132.306 114.846L206.946 124.468L221.016 86.2714C221.066 86.0917 221.076 85.903 221.044 85.7191C221.011 85.5352 220.938 85.361 220.829 85.2092C220.721 85.0575 220.579 84.9322 220.416 84.8426C220.252 84.7529 220.07 84.7013 219.884 84.6915L159.002 76.8357Z" fill="#92E3A9"/>
</g>
<path d="M159.002 76.8357L158.492 75.374C158.327 74.9576 158.05 74.5947 157.693 74.3248C157.335 74.055 156.91 73.8886 156.464 73.8438L142.631 72.0587C142.287 71.9929 141.931 72.0659 141.641 72.2617C141.351 72.4575 141.15 72.7602 141.082 73.1037L140.902 74.5032L129.88 73.085C129.697 73.0466 129.507 73.05 129.326 73.0951C129.144 73.1401 128.975 73.2256 128.83 73.3452C128.686 73.4648 128.571 73.6154 128.493 73.7857C128.415 73.9561 128.377 74.1418 128.381 74.329L132.306 114.846L206.946 124.468L221.016 86.2714C221.066 86.0917 221.076 85.903 221.044 85.7191C221.011 85.5352 220.938 85.361 220.829 85.2092C220.721 85.0575 220.579 84.9322 220.416 84.8426C220.252 84.7529 220.07 84.7013 219.884 84.6915L159.002 76.8357Z" stroke="#263238" stroke-linecap="round" stroke-linejoin="round"/>
<path d="M221.731 88.5666L208.992 123.156L208.01 125.818C207.78 126.349 207.378 126.787 206.869 127.062C206.361 127.337 205.774 127.434 205.204 127.336L133.27 118.056C132.694 118.005 132.151 117.762 131.729 117.366C131.307 116.97 131.031 116.444 130.944 115.872L127.118 76.3754C127.114 76.1882 127.153 76.0025 127.231 75.8321C127.308 75.6618 127.424 75.5112 127.568 75.3916C127.712 75.272 127.881 75.1865 128.063 75.1415C128.245 75.0964 128.434 75.093 128.617 75.1314L189.835 83.0246L220.599 86.9867C220.785 86.9965 220.967 87.0481 221.131 87.1377C221.295 87.2274 221.436 87.3527 221.545 87.5044C221.653 87.6562 221.727 87.8304 221.759 88.0143C221.791 88.1982 221.782 88.3869 221.731 88.5666Z" fill="white"/>
<mask id="mask8_2004_4115" style="mask-type:luminance" maskUnits="userSpaceOnUse" x="127" y="75" width="95" height="53">
<path d="M221.731 88.5666L208.992 123.156L208.01 125.818C207.78 126.349 207.378 126.787 206.869 127.062C206.361 127.337 205.774 127.434 205.204 127.336L133.27 118.056C132.694 118.005 132.151 117.762 131.729 117.366C131.307 116.97 131.031 116.444 130.944 115.872L127.118 76.3754C127.114 76.1882 127.153 76.0025 127.231 75.8321C127.308 75.6618 127.424 75.5112 127.568 75.3916C127.712 75.272 127.881 75.1865 128.063 75.1415C128.245 75.0964 128.434 75.093 128.617 75.1314L189.835 83.0246L220.599 86.9867C220.785 86.9965 220.967 87.0481 221.131 87.1377C221.295 87.2274 221.436 87.3527 221.545 87.5044C221.653 87.6562 221.727 87.8304 221.759 88.0143C221.791 88.1982 221.782 88.3869 221.731 88.5666Z" fill="white"/>
</mask>
<g mask="url(#mask8_2004_4115)">
<path opacity="0.3" d="M221.731 88.5666L208.992 123.156C199.967 121.023 199.625 115.4 198.113 112.489C196.446 109.279 185.878 107.575 182.924 107.059C179.969 106.542 178.172 103.551 178.172 103.551C175.51 96.0866 189.405 89.5556 189.405 89.5556C189.132 88.5293 189.536 85.1642 189.828 83.037L220.592 86.9991C220.778 87.0085 220.959 87.0593 221.122 87.1478C221.286 87.2363 221.427 87.3603 221.536 87.5106C221.646 87.6609 221.72 87.8338 221.753 88.0166C221.787 88.1993 221.779 88.3872 221.731 88.5666Z" fill="black" fill-opacity="0.7"/>
</g>
<path d="M221.731 88.5666L208.992 123.156L208.01 125.818C207.78 126.349 207.378 126.787 206.869 127.062C206.361 127.337 205.774 127.434 205.204 127.336L133.27 118.056C132.694 118.005 132.151 117.762 131.729 117.366C131.307 116.97 131.031 116.444 130.944 115.872L127.118 76.3754C127.114 76.1882 127.153 76.0025 127.231 75.8321C127.308 75.6618 127.424 75.5112 127.568 75.3916C127.712 75.272 127.881 75.1865 128.063 75.1415C128.245 75.0964 128.434 75.093 128.617 75.1314L189.835 83.0246L220.599 86.9867C220.785 86.9965 220.967 87.0481 221.131 87.1377C221.295 87.2274 221.436 87.3527 221.545 87.5044C221.653 87.6562 221.727 87.8304 221.759 88.0143C221.791 88.1982 221.782 88.3869 221.731 88.5666Z" stroke="#263238" stroke-linecap="round" stroke-linejoin="round"/>
<path d="M140.646 87.0178L141.629 111.462L150.487 112.607L151.531 88.2494L140.646 87.0178Z" fill="#92E3A9" stroke="#263238" stroke-linecap="round" stroke-linejoin="round"/>
<path d="M146.052 109.665C146.164 109.233 146.184 108.781 146.11 108.341C146.036 107.9 145.87 107.48 145.623 107.108C145.119 106.37 144.514 105.706 143.825 105.137C144.853 105.726 145.989 106.103 147.165 106.244C147.165 104.969 145.921 104.085 144.858 103.414C145.101 103.319 145.363 103.28 145.623 103.3C145.883 103.319 146.136 103.396 146.363 103.526C146.378 103.328 146.346 103.129 146.27 102.947C146.193 102.764 146.073 102.602 145.921 102.475C146.058 102.593 146.27 102.406 146.263 102.232C146.23 102.057 146.156 101.893 146.046 101.753C145.879 101.376 145.812 100.963 145.853 100.553C145.853 99.0908 145.896 97.6229 145.915 96.1612C145.936 96.2949 145.995 96.4196 146.086 96.5201C146.176 96.6206 146.294 96.6926 146.425 96.7272C146.425 96.1488 146.357 95.5703 146.301 94.9918C146.164 93.5301 146.027 92.0622 145.884 90.6005" stroke="#263238" stroke-linecap="round" stroke-linejoin="round"/>
<path d="M286.742 166.497C286.742 166.497 236.547 121.589 233.35 118.758C230.153 115.928 227.814 116.053 226.091 114.33C224.368 112.607 223.503 111.382 216.493 111.5C209.484 111.618 200.129 107.811 198.039 106.455C195.949 105.099 192.994 106.088 191.023 105.323C189.051 104.558 184.013 105.23 180.934 105.323C177.855 105.417 177.612 102.275 178.844 98.7052C180.075 95.1349 189.418 92.9268 190.662 93.6608C191.906 94.3947 196.813 92.311 196.813 92.311C196.073 89.7235 196.322 83.4475 196.322 83.4475C196.322 83.4475 191.153 81.2332 189.188 80.4992C187.673 80.0425 186.086 79.8758 184.51 80.0079C184.51 80.0079 185.132 77.184 186.109 76.1328C187.085 75.0816 191.769 74.0989 196.322 70.9018C200.875 67.7047 203.705 66.9645 204.408 67.2071C205.111 67.4497 210.193 68.93 211.549 68.93C212.905 68.93 214.87 67.686 216.836 68.0717C218.801 68.4573 222.371 71.5176 223.97 71.8845C225.568 72.2515 226.06 72.5874 228.156 72.5874C229.077 72.5874 232.833 75.3304 232.833 75.3304C234.406 75.6308 235.936 76.126 237.386 76.8046C239.719 77.9117 242.182 83.2049 243.289 84.9279C244.396 86.6508 244.533 90.8307 244.533 90.8307C244.533 90.8307 247.488 92.4292 248.595 94.6435C249.702 96.8578 290.474 118.758 290.474 118.758C290.474 118.758 296.899 143.943 286.742 166.497Z" fill="white"/>
<path opacity="0.4" d="M251.003 134.507C242.008 126.459 234.544 119.791 233.375 118.758C230.172 115.928 227.839 116.053 226.116 114.33C224.393 112.607 223.529 111.382 216.519 111.5C209.509 111.618 200.154 107.811 198.064 106.455C195.974 105.099 193.02 106.088 191.048 105.323C189.076 104.558 184.038 105.23 180.959 105.323C177.88 105.417 177.638 102.275 178.869 98.7052C180.101 95.1349 189.443 92.9268 190.687 93.6608C191.931 94.3947 196.839 92.311 196.839 92.311C196.099 89.7235 196.347 83.4475 196.347 83.4475C196.347 83.4475 191.179 81.2332 189.213 80.4992C187.699 80.0425 186.112 79.8758 184.536 80.0079C184.536 80.0079 185.158 77.184 186.134 76.1328C187.111 75.0816 191.794 74.0989 196.347 70.9018C200.9 67.7047 203.731 66.9645 204.433 67.2071C205.136 67.4497 210.218 68.93 211.574 68.93C212.6 68.93 213.987 68.221 215.461 68.0406C214.267 68.7061 213.44 69.975 213.664 70.653C214.018 71.7228 215.02 74.4472 215.076 74.6213C214.808 74.3601 208.358 67.9908 204.191 68.3205C200.589 68.6004 196.932 74.6649 197.548 79.1184C198.164 83.5719 196.671 83.5719 197.479 86.8934C198.288 90.2149 199.022 94.8923 197.79 96.7397C196.559 98.587 194.102 95.3028 194.102 95.3028C193.179 95.8091 192.406 96.5492 191.86 97.4489C191.315 98.3486 191.015 99.376 190.992 100.428C190.992 103.998 194.724 104.241 196.926 104.614C199.128 104.987 207.251 109.435 212.799 109.671L218.348 109.901C218.348 109.901 215.144 105.547 216.482 105.323C217.819 105.099 221.893 105.497 224.568 109.677C227.242 113.857 229.295 114.784 234.252 116.836C237.182 118.012 244.907 126.353 251.003 134.507Z" fill="#92E3A9"/>
<path opacity="0.4" d="M275.584 110.654C274.831 110.299 250.704 98.9291 249.491 97.2311C248.278 95.533 246.785 95.1162 245.43 93.4057C244.074 91.6952 239.527 90.5881 238.911 88.2494C238.295 85.9107 237.555 78.8136 236.423 77.9366C235.492 77.2538 234.506 76.6505 233.475 76.1328L235.303 80.6921C235.303 80.6921 231.136 74.7893 230.147 74.6276C229.158 74.4658 231.217 78.9194 231.036 78.7825C230.856 78.6457 226.34 74.4285 222.559 71.2314C223.007 71.5023 223.491 71.7115 223.995 71.8534C225.6 72.2204 226.085 72.5563 228.181 72.5563C229.102 72.5563 232.859 75.2993 232.859 75.2993C234.432 75.5997 235.961 76.0949 237.412 76.7735C239.744 77.8806 242.208 83.1739 243.315 84.8968C244.422 86.6197 244.559 90.7996 244.559 90.7996C244.559 90.7996 247.513 92.3981 248.62 94.6124C249.286 95.9559 263.835 104.173 275.584 110.654Z" fill="#92E3A9"/>
<path d="M286.742 166.497C286.742 166.497 236.547 121.589 233.35 118.758C230.153 115.928 227.814 116.053 226.091 114.33C224.368 112.607 223.503 111.382 216.493 111.5C209.484 111.618 200.129 107.811 198.039 106.455C195.949 105.099 192.994 106.088 191.023 105.323C189.051 104.558 184.013 105.23 180.934 105.323C177.855 105.417 177.612 102.275 178.844 98.7052C180.075 95.1349 189.418 92.9268 190.662 93.6608C191.906 94.3947 196.813 92.311 196.813 92.311C196.073 89.7235 196.322 83.4475 196.322 83.4475C196.322 83.4475 191.153 81.2332 189.188 80.4992C187.673 80.0425 186.086 79.8758 184.51 80.0079C184.51 80.0079 185.132 77.184 186.109 76.1328C187.085 75.0816 191.769 74.0989 196.322 70.9018C200.875 67.7047 203.705 66.9645 204.408 67.2071C205.111 67.4497 210.193 68.93 211.549 68.93C212.904 68.93 214.87 67.686 216.836 68.0717C218.801 68.4573 222.371 71.5176 223.97 71.8845C225.568 72.2515 226.06 72.5874 228.156 72.5874C229.077 72.5874 232.833 75.3304 232.833 75.3304C234.406 75.6308 235.936 76.126 237.386 76.8046C239.719 77.9117 242.182 83.2049 243.289 84.9279C244.396 86.6508 244.533 90.8307 244.533 90.8307C244.533 90.8307 247.488 92.4292 248.595 94.6435C249.702 96.8578 290.474 118.758 290.474 118.758" stroke="#263238" stroke-linecap="round" stroke-linejoin="round"/>
<path d="M196.341 83.4475C196.341 83.4475 196.913 78.6084 196.341 77.9366" stroke="#263238" stroke-linecap="round" stroke-linejoin="round"/>
<path d="M211.512 71.5984C211.512 71.5984 219.884 78.683 220.537 79.1184" stroke="#263238" stroke-linecap="round" stroke-linejoin="round"/>
<path d="M219.373 69.2162C220.524 69.9315 229.804 78.1605 232.839 80.0452" stroke="#263238" stroke-linecap="round" stroke-linejoin="round"/>
<path d="M244.571 90.812C243.669 90.2833 241.287 89.1326 241.044 88.2307" stroke="#263238" stroke-linecap="round" stroke-linejoin="round"/>
<path d="M196.832 92.311C196.832 92.311 197.323 94.3201 196.832 95.3028" stroke="#263238" stroke-linecap="round" stroke-linejoin="round"/>
<path d="M189.449 98.6679C189.449 98.6679 188.305 101.865 191.011 103.998" stroke="#263238" stroke-linecap="round" stroke-linejoin="round"/>
<path d="M200.608 68.3205C199.745 69.2244 199.173 70.3662 198.966 71.5984" stroke="#263238" stroke-linecap="round" stroke-linejoin="round"/>
<path d="M187.845 77.9366C188.116 78.6775 188.542 79.3525 189.093 79.9174C189.644 80.4823 190.308 80.9244 191.042 81.2145" stroke="#263238" stroke-linecap="round" stroke-linejoin="round"/>
<path d="M224.635 112.961C223.036 110.642 221.278 108.437 219.373 106.362" stroke="#263238" stroke-linecap="round" stroke-linejoin="round"/>
<path d="M52.5527 276.983C52.5527 276.983 92.7339 250.573 95.1908 247.164C96.4519 245.326 97.9399 243.654 99.6195 242.188C99.6195 242.188 100.77 232.342 103.725 227.26C106.679 222.178 107.824 218.397 109.136 215.772C110.448 213.147 116.681 211.181 118.466 210.174C120.251 209.166 123.392 207.219 125.196 207.219C126.573 207.329 127.914 207.721 129.133 208.37C129.133 208.37 135.204 205.26 137.991 207.219C137.991 207.219 144.882 207.549 146.518 207.381C148.154 207.213 150.623 208.37 150.623 208.37C150.623 208.37 154.722 205.422 157.509 206.566C160.296 207.711 161.627 208.202 161.701 209.844C161.776 211.486 161.011 217.059 161.011 217.059H159.642C159.642 217.059 155.052 223.037 154.561 224.231C154.069 225.425 151.451 231.987 151.451 231.987C151.451 231.987 154.89 229.362 157.049 227.397C159.207 225.431 162.958 221.656 166.895 220.673C170.832 219.69 173.619 221.886 173.619 224.231C173.619 224.231 169.028 227.888 168.021 229.039C167.013 230.19 165.259 233.138 163.281 235.259C161.303 237.38 156.744 246.312 152.776 250.573C148.807 254.833 131.628 264.02 127.672 265.333C127.672 265.333 103.725 282.065 93.2253 296.172C93.2253 296.172 64.688 296.339 52.5527 276.983Z" fill="white"/>
<path opacity="0.4" d="M130.465 261.725C130.807 262.073 132.206 262.285 134.197 262.347C132.09 263.479 129.917 264.484 127.691 265.358C127.691 265.358 112.029 276.299 100.484 287.949C104.459 281.623 112.091 273.73 114.927 272.088C118.877 269.786 126.465 262.36 126.465 262.36C126.465 262.36 129.327 260.574 130.465 261.725Z" fill="#92E3A9"/>
<path opacity="0.4" d="M157.037 227.441C158.717 225.789 160.517 224.265 162.423 222.881C160.399 225.103 158.751 227.641 157.547 230.395C156.788 234.519 149.672 243.022 149.672 243.022C151.967 235.645 149.996 234.164 150.643 232.031C151.289 229.897 151.706 224.666 151.706 224.666C151.706 224.666 152.95 222.52 154.263 222.029C155.575 221.538 159.021 212.842 159.662 211.667C160.302 210.491 155.413 208.557 154.101 208.414C152.788 208.27 152.297 210.541 149.672 211.667C147.047 212.792 143.751 214.857 142.538 216.064C141.325 217.271 139.216 222.608 139.08 222.937C139.173 222.564 140.659 216.574 141.045 215.38C141.369 214.385 144.522 212.55 145.691 211.897C143.751 212.799 142.662 211.088 141.045 209.533C139.31 207.866 136.722 207.337 133.892 208.202C131.062 209.067 129.165 211.2 129.152 211.038C129.14 210.877 124.923 210.136 123.554 210.541C122.186 210.945 119.026 212.376 119.026 212.376C119.026 212.376 116.153 210.721 111.432 215.38C109.46 217.327 102.898 232.174 103.881 230.395C104.863 228.616 109.149 223.304 109.416 222.975C109.13 223.671 100.429 243.202 98.6496 244.446C96.8707 245.69 96.3544 250.094 89.9416 253.708C83.8584 257.135 60.3966 271.882 58.0703 273.344C69.1979 265.949 93.3004 249.783 95.1664 247.164C96.4275 245.326 97.9155 243.654 99.595 242.188C99.595 242.188 100.746 232.342 103.7 227.26C106.655 222.178 107.799 218.397 109.112 215.772C110.424 213.147 116.656 211.181 118.442 210.174C120.227 209.166 123.368 207.219 125.172 207.219C126.549 207.329 127.889 207.721 129.109 208.37C129.109 208.37 135.18 205.26 137.966 207.219C137.966 207.219 144.858 207.549 146.494 207.381C148.13 207.213 150.599 208.37 150.599 208.37C150.599 208.37 154.698 205.422 157.485 206.566C160.271 207.711 161.602 208.202 161.677 209.844C161.751 211.486 160.986 217.059 160.986 217.059H159.618C159.618 217.059 155.028 223.037 154.536 224.231C154.045 225.425 151.426 231.987 151.426 231.987C151.426 231.987 154.878 229.406 157.037 227.441Z" fill="#92E3A9"/>
<path opacity="0.4" d="M173.607 224.275C173.607 224.275 169.016 227.932 168.009 229.083C167.418 229.773 166.541 231.117 165.521 232.541C166.033 230.878 166.385 229.17 166.572 227.441C167.539 226.029 168.912 224.945 170.509 224.331C171.517 224.034 172.577 223.953 173.619 224.094C173.621 224.155 173.616 224.215 173.607 224.275Z" fill="#92E3A9"/>
<path d="M52.5527 276.983C52.5527 276.983 92.7339 250.573 95.1908 247.164C96.4519 245.326 97.9399 243.654 99.6195 242.188C99.6195 242.188 100.77 232.342 103.725 227.26C106.679 222.178 107.824 218.397 109.136 215.772C110.448 213.147 116.681 211.181 118.466 210.174C120.251 209.166 123.392 207.219 125.196 207.219C126.573 207.329 127.914 207.721 129.133 208.37C129.133 208.37 135.204 205.26 137.991 207.219C137.991 207.219 144.882 207.549 146.518 207.381C148.154 207.213 150.623 208.37 150.623 208.37C150.623 208.37 154.722 205.422 157.509 206.566C160.296 207.711 161.627 208.202 161.701 209.844C161.776 211.486 161.011 217.059 161.011 217.059H159.642C159.642 217.059 155.052 223.037 154.561 224.231C154.069 225.425 151.451 231.987 151.451 231.987C151.451 231.987 154.89 229.362 157.049 227.397C159.207 225.431 162.958 221.656 166.895 220.673C170.832 219.69 173.619 221.886 173.619 224.231C173.619 224.231 169.028 227.888 168.021 229.039C167.013 230.19 165.259 233.138 163.281 235.259C161.303 237.38 156.744 246.312 152.776 250.573C148.807 254.833 131.628 264.02 127.672 265.333C127.672 265.333 103.725 282.065 93.2253 296.172" stroke="#263238" stroke-linecap="round" stroke-linejoin="round"/>
<path d="M151.464 232.006C151.464 232.006 152.446 236.932 150.475 241.336" stroke="#263238" stroke-linecap="round" stroke-linejoin="round"/>
<path d="M145.062 212.183C147.124 211.245 149.016 209.971 150.66 208.414" stroke="#263238" stroke-linecap="round" stroke-linejoin="round"/>
<path d="M159.661 217.078C160.191 215.993 160.551 214.833 160.731 213.638" stroke="#263238" stroke-linecap="round" stroke-linejoin="round"/>
<path d="M138.009 207.263C136.014 207.219 134.067 207.879 132.511 209.129" stroke="#263238" stroke-linecap="round" stroke-linejoin="round"/>
<path d="M129.152 208.414C129.152 208.414 124.232 210.709 122.509 210.709C120.786 210.709 117.993 213.004 117.993 213.663" stroke="#263238" stroke-linecap="round" stroke-linejoin="round"/>
<path d="M99.6191 242.207C101.072 239.973 102.258 237.577 103.152 235.066" stroke="#263238" stroke-linecap="round" stroke-linejoin="round"/>
<path d="M146.127 213.663C146.127 213.663 143.017 214.478 141.947 217.103C140.877 219.728 135.957 228.834 135.957 228.834" stroke="#263238" stroke-linecap="round" stroke-linejoin="round"/>
<path d="M130.464 212.183C129.805 213.744 122.422 227.441 122.422 227.441" stroke="#263238" stroke-linecap="round" stroke-linejoin="round"/>
</svg>
