<svg width="393" height="393" viewBox="0 0 393 393" fill="none" xmlns="http://www.w3.org/2000/svg">
<path d="M315.186 135.774C313.095 131.356 313.111 125.768 311.775 121.201C307.845 107.674 297.132 96.9059 283.911 91.3332C252.094 77.9712 244.753 104.695 211.3 110.197C177.848 115.699 165.61 92.9052 128.087 101.551C90.563 110.197 99.5313 132.991 100.341 151.902C101.15 170.814 60.3649 175.482 53.0237 198.324C45.6824 221.165 70.9759 230.55 67.7061 247.056C64.4364 263.562 41.6031 272.994 48.1269 287.967C54.6507 302.94 60.3649 306.045 106.873 294.255C153.38 282.465 212.935 276.963 256.213 285.609C299.49 294.255 330.458 312.333 341.887 306.831C353.181 301.384 347.216 273.465 345.51 264.803C341.761 245.766 326.206 229.646 326.473 210.357C326.638 197.781 339.198 192.036 340.126 179.224C340.967 167.599 334.317 157.121 326.929 148.507C323.604 144.632 318.417 141.158 315.838 136.835C315.603 136.544 315.406 136.167 315.186 135.774Z" fill="#92E3A9"/>
<path opacity="0.9" d="M315.186 135.774C313.095 131.356 313.111 125.768 311.775 121.201C307.845 107.674 297.132 96.9059 283.911 91.3332C252.094 77.9712 244.753 104.695 211.3 110.197C177.848 115.699 165.61 92.9052 128.087 101.551C90.563 110.197 99.5313 132.991 100.341 151.902C101.15 170.814 60.3649 175.482 53.0237 198.324C45.6824 221.165 70.9759 230.55 67.7061 247.056C64.4364 263.562 41.6031 272.994 48.1269 287.967C54.6507 302.94 60.3649 306.045 106.873 294.255C153.38 282.465 212.935 276.963 256.213 285.609C299.49 294.255 330.458 312.333 341.887 306.831C353.181 301.384 347.216 273.465 345.51 264.803C341.761 245.766 326.206 229.646 326.473 210.357C326.638 197.781 339.198 192.036 340.126 179.224C340.967 167.599 334.317 157.121 326.929 148.507C323.604 144.632 318.417 141.158 315.838 136.835C315.603 136.544 315.406 136.167 315.186 135.774Z" fill="white"/>
<path d="M70.9912 130.885L138.972 181.833L136.575 278.967" stroke="#263238" stroke-linecap="round" stroke-linejoin="round"/>
<path d="M124.078 185.724L118.757 282.732" stroke="#263238" stroke-linecap="round" stroke-linejoin="round"/>
<path d="M124.786 172.794L124.385 180.151" stroke="#263238" stroke-linecap="round" stroke-linejoin="round"/>
<path d="M98.3126 228.474L91.5137 286.528" stroke="#263238" stroke-linecap="round" stroke-linejoin="round"/>
<path d="M106.574 157.389L98.9258 223.232" stroke="#263238" stroke-linecap="round" stroke-linejoin="round"/>
<path d="M79.5504 154.268L53.5889 292.085" stroke="#263238" stroke-linecap="round" stroke-linejoin="round"/>
<path d="M82.2779 139.767L80.0928 151.344" stroke="#263238" stroke-linecap="round" stroke-linejoin="round"/>
<path d="M65.167 142.227L76.3203 149.12" stroke="#263238" stroke-linecap="round" stroke-linejoin="round"/>
<path d="M101.299 164.549L83.96 153.836" stroke="#263238" stroke-linecap="round" stroke-linejoin="round"/>
<path d="M121.059 176.764L108.813 169.194" stroke="#263238" stroke-linecap="round" stroke-linejoin="round"/>
<path d="M136.701 186.423L126.641 180.206" stroke="#263238" stroke-linecap="round" stroke-linejoin="round"/>
<path d="M75.1575 153.985L60.8916 145.614" stroke="#263238" stroke-linecap="round" stroke-linejoin="round"/>
<path d="M100.607 168.911L83.1504 158.67" stroke="#263238" stroke-linecap="round" stroke-linejoin="round"/>
<path d="M121.39 181.102L109.215 173.958" stroke="#263238" stroke-linecap="round" stroke-linejoin="round"/>
<path d="M136.017 189.685L126.185 183.916" stroke="#263238" stroke-linecap="round" stroke-linejoin="round"/>
<path d="M73.923 161.114L63.3984 155.652" stroke="#263238" stroke-linecap="round" stroke-linejoin="round"/>
<path d="M99.8061 174.547L82.9229 165.783" stroke="#263238" stroke-linecap="round" stroke-linejoin="round"/>
<path d="M121.453 185.779L108.397 179.004" stroke="#263238" stroke-linecap="round" stroke-linejoin="round"/>
<path d="M135.954 193.309L125.917 188.098" stroke="#263238" stroke-linecap="round" stroke-linejoin="round"/>
<path d="M72.3192 167.693L64.7422 164.298" stroke="#263238" stroke-linecap="round" stroke-linejoin="round"/>
<path d="M99.6489 179.97L80.9893 171.592" stroke="#263238" stroke-linecap="round" stroke-linejoin="round"/>
<path d="M120.675 189.41L107.737 183.602" stroke="#263238" stroke-linecap="round" stroke-linejoin="round"/>
<path d="M135.962 196.272L126.098 191.847" stroke="#263238" stroke-linecap="round" stroke-linejoin="round"/>
<path d="M53.7465 269.323L32.5088 269.653" stroke="#263238" stroke-linecap="round" stroke-linejoin="round"/>
<path d="M89.0302 268.773L63.1943 269.174" stroke="#263238" stroke-linecap="round" stroke-linejoin="round"/>
<path d="M116.768 268.333L97.5264 268.639" stroke="#263238" stroke-linecap="round" stroke-linejoin="round"/>
<path d="M134.406 268.057L122.985 268.238" stroke="#263238" stroke-linecap="round" stroke-linejoin="round"/>
<path d="M51.719 275.485L33.7432 276.318" stroke="#263238" stroke-linecap="round" stroke-linejoin="round"/>
<path d="M88.118 273.795L61.9678 275.006" stroke="#263238" stroke-linecap="round" stroke-linejoin="round"/>
<path d="M116.304 272.483L97.6523 273.355" stroke="#263238" stroke-linecap="round" stroke-linejoin="round"/>
<path d="M134.02 271.665L122.568 272.2" stroke="#263238" stroke-linecap="round" stroke-linejoin="round"/>
<path d="M50.0369 282.708L35.8496 284.013" stroke="#263238" stroke-linecap="round" stroke-linejoin="round"/>
<path d="M87.5922 279.266L60.2236 281.781" stroke="#263238" stroke-linecap="round" stroke-linejoin="round"/>
<path d="M115.887 276.672L97.3613 278.37" stroke="#263238" stroke-linecap="round" stroke-linejoin="round"/>
<path d="M134.311 274.982L122.38 276.075" stroke="#263238" stroke-linecap="round" stroke-linejoin="round"/>
<path d="M48.6922 289.264L37.083 290.679" stroke="#263238" stroke-linecap="round" stroke-linejoin="round"/>
<path d="M86.2869 284.697L58.5332 288.069" stroke="#263238" stroke-linecap="round" stroke-linejoin="round"/>
<path d="M115.439 281.152L96.2373 283.487" stroke="#263238" stroke-linecap="round" stroke-linejoin="round"/>
<path d="M133.887 278.912L122.978 280.24" stroke="#263238" stroke-linecap="round" stroke-linejoin="round"/>
<path d="M94.9483 185.787L100.065 187.854L98.6975 202.717L92.834 201.232L94.9483 185.787Z" stroke="#263238" stroke-linecap="round" stroke-linejoin="round"/>
<path d="M115.204 206.914L116.328 194.401L120.164 195.95L119.48 207.999L115.204 206.914Z" stroke="#263238" stroke-linecap="round" stroke-linejoin="round"/>
<path d="M63.3119 173.038L71.1091 176.182L67.9651 194.92L60.0107 192.9L63.3119 173.038Z" stroke="#263238" stroke-linecap="round" stroke-linejoin="round"/>
<path d="M131.883 200.674L135.648 202.191L135.561 212.079L131.867 211.143L131.883 200.674Z" stroke="#263238" stroke-linecap="round" stroke-linejoin="round"/>
<path d="M322.008 130.885L254.027 181.833L256.425 278.967" stroke="#263238" stroke-linecap="round" stroke-linejoin="round"/>
<path d="M268.922 185.724L274.243 282.732" stroke="#263238" stroke-linecap="round" stroke-linejoin="round"/>
<path d="M268.215 172.794L268.616 180.151" stroke="#263238" stroke-linecap="round" stroke-linejoin="round"/>
<path d="M294.687 228.474L301.485 286.528" stroke="#263238" stroke-linecap="round" stroke-linejoin="round"/>
<path d="M286.426 157.389L294.074 223.232" stroke="#263238" stroke-linecap="round" stroke-linejoin="round"/>
<path d="M313.449 154.268L339.411 292.085" stroke="#263238" stroke-linecap="round" stroke-linejoin="round"/>
<path d="M310.722 139.767L312.907 151.344" stroke="#263238" stroke-linecap="round" stroke-linejoin="round"/>
<path d="M316.68 149.12L327.833 142.227" stroke="#263238" stroke-linecap="round" stroke-linejoin="round"/>
<path d="M291.7 164.549L309.039 153.836" stroke="#263238" stroke-linecap="round" stroke-linejoin="round"/>
<path d="M271.94 176.764L284.186 169.194" stroke="#263238" stroke-linecap="round" stroke-linejoin="round"/>
<path d="M256.299 186.423L266.36 180.206" stroke="#263238" stroke-linecap="round" stroke-linejoin="round"/>
<path d="M317.843 153.985L332.109 145.614" stroke="#263238" stroke-linecap="round" stroke-linejoin="round"/>
<path d="M292.392 168.911L309.849 158.67" stroke="#263238" stroke-linecap="round" stroke-linejoin="round"/>
<path d="M271.61 181.102L283.785 173.958" stroke="#263238" stroke-linecap="round" stroke-linejoin="round"/>
<path d="M256.982 189.685L266.815 183.916" stroke="#263238" stroke-linecap="round" stroke-linejoin="round"/>
<path d="M319.076 161.114L329.601 155.652" stroke="#263238" stroke-linecap="round" stroke-linejoin="round"/>
<path d="M293.193 174.547L310.077 165.783" stroke="#263238" stroke-linecap="round" stroke-linejoin="round"/>
<path d="M271.547 185.779L284.602 179.004" stroke="#263238" stroke-linecap="round" stroke-linejoin="round"/>
<path d="M257.045 193.309L267.082 188.098" stroke="#263238" stroke-linecap="round" stroke-linejoin="round"/>
<path d="M320.68 167.693L328.257 164.298" stroke="#263238" stroke-linecap="round" stroke-linejoin="round"/>
<path d="M293.351 179.97L312.01 171.592" stroke="#263238" stroke-linecap="round" stroke-linejoin="round"/>
<path d="M272.325 189.41L285.263 183.602" stroke="#263238" stroke-linecap="round" stroke-linejoin="round"/>
<path d="M257.037 196.272L266.901 191.847" stroke="#263238" stroke-linecap="round" stroke-linejoin="round"/>
<path d="M339.253 269.323L360.491 269.653" stroke="#263238" stroke-linecap="round" stroke-linejoin="round"/>
<path d="M303.97 268.773L329.806 269.174" stroke="#263238" stroke-linecap="round" stroke-linejoin="round"/>
<path d="M276.231 268.333L295.473 268.639" stroke="#263238" stroke-linecap="round" stroke-linejoin="round"/>
<path d="M258.594 268.057L270.014 268.238" stroke="#263238" stroke-linecap="round" stroke-linejoin="round"/>
<path d="M341.281 275.485L359.257 276.318" stroke="#263238" stroke-linecap="round" stroke-linejoin="round"/>
<path d="M304.882 273.795L331.032 275.006" stroke="#263238" stroke-linecap="round" stroke-linejoin="round"/>
<path d="M276.695 272.483L295.347 273.355" stroke="#263238" stroke-linecap="round" stroke-linejoin="round"/>
<path d="M258.979 271.665L270.431 272.2" stroke="#263238" stroke-linecap="round" stroke-linejoin="round"/>
<path d="M342.963 282.708L357.15 284.013" stroke="#263238" stroke-linecap="round" stroke-linejoin="round"/>
<path d="M305.408 279.266L332.777 281.781" stroke="#263238" stroke-linecap="round" stroke-linejoin="round"/>
<path d="M277.112 276.672L295.638 278.37" stroke="#263238" stroke-linecap="round" stroke-linejoin="round"/>
<path d="M258.688 274.982L270.62 276.075" stroke="#263238" stroke-linecap="round" stroke-linejoin="round"/>
<path d="M344.307 289.264L355.916 290.679" stroke="#263238" stroke-linecap="round" stroke-linejoin="round"/>
<path d="M306.713 284.697L334.467 288.069" stroke="#263238" stroke-linecap="round" stroke-linejoin="round"/>
<path d="M277.56 281.152L296.762 283.487" stroke="#263238" stroke-linecap="round" stroke-linejoin="round"/>
<path d="M259.112 278.912L270.022 280.24" stroke="#263238" stroke-linecap="round" stroke-linejoin="round"/>
<path d="M298.051 185.787L292.935 187.854L294.302 202.717L300.166 201.232L298.051 185.787Z" stroke="#263238" stroke-linecap="round" stroke-linejoin="round"/>
<path d="M277.796 206.914L276.672 194.401L272.836 195.95L273.52 207.999L277.796 206.914Z" stroke="#263238" stroke-linecap="round" stroke-linejoin="round"/>
<path d="M329.688 173.038L321.891 176.182L325.035 194.92L332.989 192.9L329.688 173.038Z" stroke="#263238" stroke-linecap="round" stroke-linejoin="round"/>
<path d="M261.116 200.674L257.352 202.191L257.438 212.079L261.132 211.143L261.116 200.674Z" stroke="#263238" stroke-linecap="round" stroke-linejoin="round"/>
<path d="M73.8838 296.322C92.402 292.911 117.318 288.321 136.261 284.799" stroke="#263238" stroke-linecap="round" stroke-linejoin="round"/>
<path d="M48.0322 301.038L67.3285 297.493" stroke="#263238" stroke-linecap="round" stroke-linejoin="round"/>
<path d="M330.765 298.68C310.989 293.964 278.747 286.458 256.409 282.308" stroke="#263238" stroke-linecap="round" stroke-linejoin="round"/>
<path d="M351.24 302.94C351.24 302.94 346.626 301.824 339.229 300.016" stroke="#263238" stroke-linecap="round" stroke-linejoin="round"/>
<path d="M123.747 170.908L128.125 121.468L95.585 85.1788" stroke="#263238" stroke-linecap="round" stroke-linejoin="round"/>
<path d="M262.037 175.915L259.537 122.097L298.955 85.1788" stroke="#263238" stroke-linecap="round" stroke-linejoin="round"/>
<path d="M171.623 314.141C171.623 314.141 159.432 316.318 150.723 319.808C142.015 323.298 174.241 322.857 167.269 324.162C160.297 325.467 138.973 328.517 147.234 333.303C155.494 338.09 218.657 338.97 236.948 334.616C255.238 330.261 204.722 319.808 213.871 315.886C223.02 311.963 232.593 315.886 232.161 310.659C231.729 305.432 214.327 299.104 211.489 299.222C208.652 299.34 226.934 306.744 216.48 308.922C206.026 311.099 185.559 308.898 171.623 314.141Z" fill="#92E3A9"/>
<path opacity="0.6" d="M171.623 314.141C171.623 314.141 159.432 316.318 150.723 319.808C142.015 323.298 174.241 322.857 167.269 324.162C160.297 325.467 138.973 328.517 147.234 333.303C155.494 338.09 218.657 338.97 236.948 334.616C255.238 330.261 204.722 319.808 213.871 315.886C223.02 311.963 232.593 315.886 232.161 310.659C231.729 305.432 214.327 299.104 211.489 299.222C208.652 299.34 226.934 306.744 216.48 308.922C206.026 311.099 185.559 308.898 171.623 314.141Z" fill="white"/>
<path d="M197.639 124.039C197.639 124.039 189.607 126.947 186.871 128.142C184.136 129.336 175.427 130.366 174.059 131.223C172.692 132.079 138.689 169.674 139.365 170.358C140.041 171.041 147.736 171.379 149.961 170.869C152.185 170.358 179.868 143.524 179.868 143.524C179.868 143.524 183.46 143.697 183.46 146.432C183.46 149.167 185.166 178.901 185.166 178.901L220.536 178.218L220.709 142.156C220.709 142.156 221.047 138.572 223.782 138.737C226.517 138.902 255.748 149.34 255.748 149.34L264.096 142.156C264.096 142.156 234.526 130.704 228.883 127.12C223.239 123.536 221.707 119.771 219.451 119.771C217.195 119.771 197.639 124.039 197.639 124.039Z" fill="white"/>
<mask id="mask0_2003_6055" style="mask-type:luminance" maskUnits="userSpaceOnUse" x="139" y="119" width="126" height="60">
<path d="M197.639 124.039C197.639 124.039 189.607 126.947 186.871 128.142C184.136 129.336 175.427 130.366 174.059 131.223C172.692 132.079 138.689 169.674 139.365 170.358C140.041 171.041 147.736 171.379 149.961 170.869C152.185 170.358 179.868 143.524 179.868 143.524C179.868 143.524 183.46 143.697 183.46 146.432C183.46 149.167 185.166 178.901 185.166 178.901L220.536 178.218L220.709 142.156C220.709 142.156 221.047 138.572 223.782 138.737C226.517 138.902 255.748 149.34 255.748 149.34L264.096 142.156C264.096 142.156 234.526 130.704 228.883 127.12C223.239 123.536 221.707 119.771 219.451 119.771C217.195 119.771 197.639 124.039 197.639 124.039Z" fill="white"/>
</mask>
<g mask="url(#mask0_2003_6055)">
<g style="mix-blend-mode:multiply">
<path d="M259.018 140.16L257.022 142.313L250.238 139.625L251.81 137.267L250.694 136.819L249.122 139.177C246.764 138.234 244.477 137.314 242.551 136.528L243.895 134.029L242.803 133.573L241.459 136.08C239.431 135.294 237.945 134.634 237.458 134.39C236.806 134.06 235.611 133.447 234.173 132.685L234.629 130.012L233.52 129.501L233.072 132.103C230.816 130.893 228.168 129.446 225.998 128.173L225.755 124.746C225.299 124.353 224.882 123.96 224.489 123.606L224.764 127.45C223.752 126.881 222.78 126.243 221.856 125.54C219.616 123.614 219.294 123.614 219.097 123.614V123.724C218.736 121.696 218.5 120.289 218.492 120.242L217.329 120.439C217.329 120.612 217.58 121.956 217.918 123.85L215.175 124.416V120.431L213.996 120.651V124.66L208.73 125.744V121.704L207.559 121.948V125.988L201.734 127.191L201.538 123.206L200.375 123.457L200.571 127.434L192.161 129.171L191.681 126.247L190.557 126.672L191.005 129.415L187.516 130.13L187.193 128.008L186.903 128.134C186.63 128.25 186.352 128.352 186.069 128.44L186.36 130.374L180.261 131.631L179.954 129.808L178.799 130.028L179.105 131.875L175.27 132.661L174.665 130.971C174.465 131.031 174.272 131.112 174.091 131.215C173.929 131.334 173.779 131.468 173.643 131.616L174.13 132.968L170.137 137.636L169.249 136.237L168.463 137.133L169.375 138.58L161.994 147.226L160.532 145.827L159.746 146.699L161.232 148.122L155.612 154.693L153.788 153.341L153.002 154.221L154.849 155.589L148.208 163.362L146.062 162.113L145.276 163.024L147.43 164.274L141.778 170.884C142.226 170.931 142.714 170.979 143.225 171.01L148.467 164.871L150.212 165.885L145.378 171.104C145.921 171.104 146.463 171.104 146.95 171.104L151.234 166.483L153.042 167.528L149.748 170.908L150.008 170.861C150.66 170.711 153.498 168.298 157.184 164.966L161.499 160.541L161.782 160.753L162.654 159.967L162.324 159.715L167.614 154.284L168.149 154.803L169.013 154.017L168.439 153.467L174.727 147.045L175.341 148.012L176.205 147.179L175.568 146.172L177.997 143.681L178.469 144.993L179.404 144.097L178.972 142.895L180.898 142.533L181.102 143.775C181.56 143.898 181.996 144.094 182.391 144.357L182.061 142.313L188.042 141.189L188.907 146.896L183.491 147.768C183.491 148.114 183.491 148.515 183.546 148.955L189.009 148.02L189.748 152.916L183.924 154.056L183.735 152.916C183.892 156.06 184.104 159.857 184.309 163.622L185.299 169.619L184.655 169.87C184.655 170.295 184.702 170.703 184.725 171.104L185.511 170.798L186.84 178.854H188.034L186.643 170.413C188.514 169.737 190.361 169.163 192.145 168.683L193.67 178.744H194.865L193.293 168.416C194.605 168.086 195.894 167.811 197.176 167.583L198.976 178.666H200.162L198.331 167.402C199.738 167.174 201.121 167.001 202.473 166.868L203.016 177.872L202.23 178.658H203.927L204.226 178.367L203.66 166.836C205.043 166.734 206.395 166.679 207.724 166.663L207.779 178.587H208.958L208.903 166.687C210.593 166.687 212.227 166.789 213.815 166.931L213.792 178.351H214.971L215.01 166.931C216.975 167.151 218.846 167.447 220.622 167.819V166.632C218.838 166.278 216.967 165.98 215.01 165.767V158.56C216.89 158.621 218.766 158.779 220.63 159.031V157.852C218.766 157.605 216.89 157.453 215.01 157.397V149.128L220.646 148.004V146.801L215.01 147.925V143.586L220.646 142.62V142.195C220.678 141.93 220.73 141.667 220.803 141.409L215.01 142.4V136.112L220.072 135.161C220.346 136.374 220.689 137.571 221.101 138.745L222.202 138.328C221.843 137.312 221.544 136.275 221.306 135.223L225.385 137.786L225.582 139.122C225.943 139.216 226.368 139.334 226.784 139.468L226.713 138.485L229.716 140.372C231.115 140.82 232.687 141.339 234.346 141.889L232.774 140.898L233.198 138.454C234.904 139.318 236.774 140.254 238.7 141.213L237.733 143.052L238.865 143.437L239.769 141.747C241.647 142.675 243.589 143.618 245.491 144.545L244.847 145.496L246.002 145.897L246.568 145.064C248.478 145.992 250.349 146.888 252.07 147.713L251.85 147.949L253.06 148.381L253.178 148.247L254.609 148.931L255.733 149.332L256.613 148.546L254.011 147.312L257.344 143.673L260.732 145.009L261.746 144.145L258.201 142.738L260.181 140.584L259.018 140.16ZM207.574 136.269L202.198 137.275L201.978 132.779L207.551 131.506L207.574 136.269ZM207.574 127.198V130.303L201.947 131.576L201.789 128.393L207.574 127.198ZM201.734 151.698L202.049 158.096C200.32 158.332 198.614 158.615 196.971 158.882L195.981 152.806L201.734 151.698ZM201.672 150.511L195.792 151.698L195.006 146.982L201.428 145.882L201.672 150.511ZM201.389 144.663L194.833 145.787L193.89 140.002L201.09 138.65L201.389 144.663ZM194.637 151.91L190.911 152.649L190.172 147.784L193.859 147.147L194.637 151.91ZM201.027 137.464L193.701 138.839L193.041 134.775L200.815 133.007L201.027 137.464ZM200.595 128.605L200.752 131.812L192.892 133.612L192.357 130.311L200.595 128.605ZM179.263 133.015L179.852 136.575L177.258 137.165L177.109 136.725L176.818 137.039L175.639 133.761L179.263 133.015ZM174.547 134.225L175.906 138.014L172.613 141.574L170.758 138.658L174.547 134.225ZM169.964 139.594L171.788 142.47L164.824 149.985L162.772 148.012L169.964 139.594ZM162.002 148.908L164.038 150.912L158.481 156.909L156.492 155.432L162.002 148.908ZM150.959 164.966L149.167 163.928L155.714 156.265L157.671 157.711L150.959 164.966ZM153.836 166.632L152.004 165.571L158.622 158.418L160.485 159.802L153.836 166.632ZM161.318 158.953L159.424 157.554L164.879 151.659L166.71 153.419L161.318 158.953ZM167.528 152.57L165.681 150.794L172.44 143.5L174.012 145.937L167.528 152.57ZM174.837 145.072L173.265 142.604L176.354 139.263L177.471 142.368L174.837 145.072ZM178.767 141.637L177.636 138.336L180.049 137.786L180.638 141.331L178.767 141.637ZM180.418 132.834L186.51 131.576L187.028 135.003L181 136.371L180.418 132.834ZM181.786 141.134L181.196 137.534L187.201 136.167L187.791 140.01L181.786 141.134ZM187.665 131.341L191.163 130.617L191.705 133.934L188.176 134.72L187.665 131.341ZM188.946 139.79L188.357 135.907L191.894 135.121L192.57 139.122L188.946 139.79ZM189.127 140.953L192.735 140.277L193.67 146.047L189.992 146.675L189.127 140.953ZM185.197 161.83L184.12 155.266L189.929 154.111L190.872 160.305C188.828 160.776 186.918 161.295 185.197 161.798V161.83ZM186.423 169.249L185.393 162.961C187.107 162.458 189.009 161.94 191.045 161.437L191.964 167.504C190.149 167.984 188.302 168.55 186.423 169.218V169.249ZM192.019 160.03L191.084 153.883L194.825 153.097L195.808 159.173C194.511 159.44 193.246 159.715 192.019 159.998V160.03ZM193.112 167.245L192.192 161.193C193.419 160.902 194.692 160.627 195.997 160.36L196.979 166.412C195.714 166.632 194.425 166.891 193.112 167.214V167.245ZM198.142 166.215L197.16 160.14C198.732 159.833 200.422 159.558 202.104 159.354L202.418 165.697C201.019 165.796 199.594 165.959 198.142 166.184V166.215ZM202.261 138.493L207.582 137.495V143.657L202.536 144.522L202.261 138.493ZM202.615 145.709L207.614 144.852V149.387L202.819 150.338L202.615 145.709ZM202.898 151.533L207.614 150.59V157.562C206.112 157.672 204.627 157.813 203.157 158.002L202.898 151.533ZM203.589 165.571L203.275 159.165C204.732 158.982 206.199 158.835 207.677 158.725V165.398C206.364 165.382 204.996 165.437 203.574 165.539L203.589 165.571ZM213.807 165.642C212.235 165.5 210.577 165.414 208.887 165.398V158.646C210.545 158.552 212.212 158.505 213.87 158.528L213.807 165.642ZM213.807 157.365C212.149 157.365 210.483 157.365 208.824 157.483L208.785 150.354L213.87 149.34L213.807 157.365ZM213.847 148.145L208.785 149.151V144.655L213.886 143.775L213.847 148.145ZM213.847 142.58L208.73 143.461V137.275L213.894 136.308L213.847 142.58ZM213.847 135.106L208.675 136.08V131.27L213.894 130.083L213.847 135.106ZM213.847 128.873L208.62 130.059V126.986L213.878 125.901L213.847 128.873ZM215.041 125.658L218.005 125.045C218.162 125.909 218.335 126.845 218.516 127.811L215.034 128.597L215.041 125.658ZM215.002 134.885V129.816L218.72 128.967C219.05 130.665 219.412 132.41 219.773 133.989L215.002 134.885ZM219.718 127.536H219.655C219.49 126.68 219.333 125.839 219.191 125.06C219.514 125.281 220.048 125.697 220.952 126.467C222.152 127.368 223.413 128.185 224.725 128.912L224.984 132.457C222.571 130.24 220.308 127.741 220.268 127.741L219.828 128.134L219.718 127.536ZM221.353 133.824L221.062 134.272C220.693 132.7 220.315 130.861 219.962 129.069C220.881 130.067 222.854 132.134 224.804 133.872L225.102 134.099L225.252 136.277L221.353 133.824ZM231.571 140.246L226.493 137.055L226.336 134.885C227.641 135.671 229.614 136.701 231.972 137.912L231.571 140.246ZM232.176 136.701C229.441 135.286 227.319 134.139 226.234 133.447L225.959 129.596C228.16 130.853 230.675 132.213 232.758 133.321L232.176 136.701ZM239.148 140.199C237.034 139.161 235.053 138.163 233.277 137.259L233.85 133.903C235.21 134.618 236.295 135.176 236.821 135.475C237.348 135.774 238.786 136.34 240.791 137.157L239.148 140.199ZM246.041 143.571C244.06 142.612 242.111 141.653 240.201 140.718L241.883 137.574L248.336 140.175L246.041 143.571ZM252.793 146.817L247.11 144.09L249.468 140.623L256.078 143.249L252.793 146.817Z" fill="#92E3A9"/>
</g>
</g>
<path d="M197.639 124.039C197.639 124.039 189.607 126.947 186.871 128.142C184.136 129.336 175.427 130.366 174.059 131.223C172.692 132.079 138.689 169.674 139.365 170.358C140.041 171.041 147.736 171.379 149.961 170.869C152.185 170.358 179.868 143.524 179.868 143.524C179.868 143.524 183.46 143.697 183.46 146.432C183.46 149.167 185.166 178.901 185.166 178.901L220.536 178.218L220.709 142.156C220.709 142.156 221.047 138.572 223.782 138.737C226.517 138.902 255.748 149.34 255.748 149.34L264.096 142.156C264.096 142.156 234.526 130.704 228.883 127.12C223.239 123.536 221.707 119.771 219.451 119.771C217.195 119.771 197.639 124.039 197.639 124.039Z" stroke="#263238" stroke-miterlimit="10"/>
<path d="M203.33 157.2C203.833 161.727 203.967 170.562 203.967 170.562" stroke="#263238" stroke-miterlimit="10"/>
<path d="M202.969 154.842C202.183 149.584 200.721 131.089 200.721 131.089" stroke="#263238" stroke-miterlimit="10"/>
<path d="M222.682 138.729L231.493 136.127" stroke="#263238" stroke-linecap="round" stroke-linejoin="round"/>
<path d="M232.688 135.726L235.494 135.129" stroke="#263238" stroke-linecap="round" stroke-linejoin="round"/>
<path d="M224.882 138.132H236.295" stroke="#263238" stroke-linecap="round" stroke-linejoin="round"/>
<path d="M169.657 140.136L179.867 143.524L174.263 143.531" stroke="#263238" stroke-linecap="round" stroke-linejoin="round"/>
<path d="M172.464 143.736H169.862" stroke="#263238" stroke-linecap="round" stroke-linejoin="round"/>
<path d="M203.872 134.626C203.872 135.129 203.605 135.53 203.275 135.53C202.945 135.53 202.678 135.129 202.678 134.626C202.678 134.123 202.945 133.73 203.275 133.73C203.605 133.73 203.872 134.131 203.872 134.626Z" stroke="#263238" stroke-linecap="round" stroke-linejoin="round"/>
<path d="M204.878 144.333C204.878 144.828 204.603 145.237 204.273 145.237C203.943 145.237 203.676 144.828 203.676 144.333C203.676 143.838 203.943 143.437 204.273 143.437C204.603 143.437 204.878 143.838 204.878 144.333Z" stroke="#263238" stroke-linecap="round" stroke-linejoin="round"/>
<path d="M205.475 156.241C205.805 156.241 206.073 155.836 206.073 155.337C206.073 154.838 205.805 154.433 205.475 154.433C205.145 154.433 204.878 154.838 204.878 155.337C204.878 155.836 205.145 156.241 205.475 156.241Z" stroke="#263238" stroke-linecap="round" stroke-linejoin="round"/>
<path d="M206.278 165.744C206.278 166.239 206.011 166.648 205.68 166.648C205.35 166.648 205.075 166.239 205.075 165.744C205.075 165.249 205.342 164.848 205.68 164.848C206.018 164.848 206.278 165.249 206.278 165.744Z" stroke="#263238" stroke-linecap="round" stroke-linejoin="round"/>
<path d="M193.898 122.427L192.971 123.04C192.08 123.64 191.351 124.45 190.849 125.398L188.766 129.289L194.268 134.052L198.646 127.764L206.828 133.086L209.862 126.232L207.936 123.457C207.579 122.945 207.111 122.521 206.566 122.216C206.022 121.911 205.415 121.734 204.792 121.696C201.436 121.453 194.747 121.154 193.898 122.427Z" fill="white" stroke="#263238" stroke-miterlimit="10"/>
<path d="M193.025 117.208C193.025 117.208 193.371 126.263 194.393 126.64C195.415 127.018 198.323 129.203 200.037 129.203C201.75 129.203 204.139 125.784 204.304 125.273C204.47 124.762 203.621 116.037 203.621 116.037L193.709 117.067L193.025 117.208Z" fill="white"/>
<mask id="mask1_2003_6055" style="mask-type:luminance" maskUnits="userSpaceOnUse" x="193" y="116" width="12" height="14">
<path d="M193.025 117.208C193.025 117.208 193.371 126.263 194.393 126.64C195.415 127.018 198.323 129.203 200.037 129.203C201.75 129.203 204.139 125.784 204.304 125.273C204.47 124.762 203.621 116.037 203.621 116.037L193.709 117.067L193.025 117.208Z" fill="white"/>
</mask>
<g mask="url(#mask1_2003_6055)">
<g style="mix-blend-mode:multiply" opacity="0.5">
<path d="M203.621 116.006L193.709 117.036L193.025 117.209C193.025 117.209 193.135 120.14 193.426 122.711C195.447 123.106 197.51 123.241 199.565 123.111C201.139 123.048 202.694 122.749 204.179 122.223C203.967 119.551 203.621 116.006 203.621 116.006Z" fill="#92E3A9"/>
</g>
</g>
<path d="M193.025 117.208C193.025 117.208 193.371 126.263 194.393 126.64C195.415 127.018 198.323 129.203 200.037 129.203C201.75 129.203 204.139 125.784 204.304 125.273C204.47 124.762 203.621 116.037 203.621 116.037L193.709 117.067L193.025 117.208Z" stroke="#263238" stroke-miterlimit="10"/>
<path d="M185.496 102.51C185.496 102.51 183.617 98.5801 180.882 100.152C178.147 101.724 182.085 106.817 184.474 108.012C186.864 109.207 187.893 109.034 187.893 109.034L185.496 102.51Z" fill="white" stroke="#263238" stroke-miterlimit="10"/>
<path d="M208.4 101.465C208.4 101.465 209.147 97.1732 212.196 97.912C215.246 98.6509 212.841 104.656 210.86 106.456C208.879 108.256 207.85 108.366 207.85 108.366L208.4 101.465Z" fill="white" stroke="#263238" stroke-miterlimit="10"/>
<path d="M184.655 101.653C184.655 101.653 184.718 101.858 184.844 102.219C185.575 104.404 188.239 112.319 189.269 114.795C190.463 117.704 195.077 120.95 201.232 119.928C207.386 118.906 209.092 111.722 209.092 108.987C209.092 106.251 207.724 85.0609 207.724 85.0609C207.724 85.0609 200.375 77.5389 194.362 75.1495C188.349 72.76 185.472 75.4874 183.256 79.5904C181.039 83.6933 179.837 86.0827 180.521 88.818C181.204 91.5533 184.655 101.653 184.655 101.653Z" fill="white"/>
<mask id="mask2_2003_6055" style="mask-type:luminance" maskUnits="userSpaceOnUse" x="180" y="74" width="30" height="47">
<path d="M184.655 101.653C184.655 101.653 184.718 101.858 184.844 102.219C185.575 104.404 188.239 112.319 189.269 114.795C190.463 117.704 195.077 120.95 201.232 119.928C207.386 118.906 209.092 111.722 209.092 108.987C209.092 106.251 207.724 85.0609 207.724 85.0609C207.724 85.0609 200.375 77.5389 194.362 75.1495C188.349 72.76 185.472 75.4874 183.256 79.5904C181.039 83.6933 179.837 86.0827 180.521 88.818C181.204 91.5533 184.655 101.653 184.655 101.653Z" fill="white"/>
</mask>
<g mask="url(#mask2_2003_6055)">
<g style="mix-blend-mode:multiply" opacity="0.5">
<path d="M187.068 90.4451C189.371 87.8906 189.371 82.7816 189.371 82.7816C193.072 85.2995 197.113 87.2765 201.373 88.653C203.539 89.2726 205.778 89.5978 208.03 89.6198C207.858 86.9395 207.74 85.0767 207.74 85.0767C207.74 85.0767 200.391 77.5547 194.378 75.1653C188.365 72.7758 185.488 75.5032 183.271 79.6062C181.055 83.7091 179.852 86.0985 180.536 88.8338C180.843 90.0757 181.715 92.8267 182.58 95.4676C183.036 94.9646 185.024 92.7009 187.068 90.4451Z" fill="#92E3A9"/>
</g>
<g style="mix-blend-mode:multiply" opacity="0.5">
<path d="M206.207 113.184C203.652 117.271 200.587 118.804 195.485 117.271C190.88 115.888 187.523 109.537 186.902 108.287C187.798 110.889 188.742 113.553 189.26 114.819C190.455 117.727 195.069 120.973 201.223 119.951C207.378 118.93 209.083 111.746 209.083 109.01C209.083 108.099 208.934 105.08 208.73 101.551" fill="#92E3A9"/>
</g>
</g>
<path d="M184.655 101.653C184.655 101.653 184.718 101.858 184.844 102.219C185.575 104.404 188.239 112.319 189.269 114.795C190.463 117.704 195.077 120.95 201.232 119.928C207.386 118.906 209.092 111.722 209.092 108.987C209.092 106.251 207.724 85.0609 207.724 85.0609C207.724 85.0609 200.375 77.5389 194.362 75.1495C188.349 72.76 185.472 75.4874 183.256 79.5904C181.039 83.6933 179.837 86.0827 180.521 88.818C181.204 91.5533 184.655 101.653 184.655 101.653Z" stroke="#263238" stroke-miterlimit="10"/>
<path d="M190.456 92.5908C190.542 93.2903 190.267 93.9034 189.842 93.9506C189.418 93.9977 189.009 93.4711 188.931 92.7716C188.852 92.072 189.119 91.459 189.544 91.4039C189.968 91.3489 190.377 91.8913 190.456 92.5908Z" fill="#263238"/>
<path d="M202.418 91.2232C202.505 91.9306 202.23 92.5358 201.805 92.5829C201.381 92.6301 200.98 92.1035 200.894 91.4039C200.807 90.7044 201.09 90.0913 201.507 90.0442C201.923 89.997 202.34 90.5236 202.418 91.2232Z" fill="#263238"/>
<path d="M186.36 87.8119C186.36 87.8119 188.412 84.9037 191.485 85.9334" stroke="#263238" stroke-width="2" stroke-linecap="round" stroke-linejoin="round"/>
<path d="M197.302 101.653L199.007 99.9478L197.813 92.9366" stroke="#263238" stroke-linecap="round" stroke-linejoin="round"/>
<path d="M191.485 104.043C191.849 104.932 192.463 105.697 193.252 106.244C194.042 106.791 194.974 107.096 195.934 107.124" stroke="#263238" stroke-linecap="round" stroke-linejoin="round"/>
<path d="M187.39 78.0655C187.39 78.0655 189.441 81.9955 188.074 84.2199C186.706 86.4443 184.309 86.9552 183.287 88.1499C182.265 89.3446 182.603 95.161 183.287 96.6937C183.87 98.3092 184.327 99.9674 184.655 101.653C184.655 101.653 180.379 94.1314 179.153 91.9149C177.926 89.6983 174.877 81.9955 177.581 77.7669C180.284 73.5382 183.224 76.7372 184.246 74.3477C185.268 71.9583 185.614 67.1716 194.157 64.7743C202.701 62.377 206.977 67.1323 208.172 69.9069C209.366 72.6814 213.674 74.8587 216.889 74.0019C220.103 73.1452 217.918 72.1234 217.918 72.1234C217.918 72.1234 221.675 72.1234 220.819 77.421C219.962 82.7187 215.356 86.1377 208.856 86.3107C202.355 86.4836 192.004 84.7308 187.39 78.0655Z" fill="#263238" stroke="#263238" stroke-miterlimit="10"/>
<path d="M186.659 75.0237C186.659 75.0237 194.378 68.2091 198.858 68.382C203.338 68.5549 205.673 76.242 211.057 76.0927" stroke="white" stroke-width="0.5" stroke-miterlimit="10"/>
<path d="M185.048 76.1005L187.917 78.6157C187.917 78.6157 192.224 74.3084 197.789 76.2577C203.354 78.207 208.376 84.5107 213.58 83.9762C218.783 83.4418 220.575 78.0498 219.868 75.0001" stroke="white" stroke-width="0.5" stroke-miterlimit="10"/>
<path d="M185.401 77.3581C185.401 77.3581 182.171 76.4621 180.74 79.1502C179.31 81.8383 181.094 85.6111 181.094 85.6111" stroke="white" stroke-width="0.5" stroke-miterlimit="10"/>
<path d="M187.916 78.6C187.916 78.6 185.944 78.7808 185.944 81.4689C185.944 84.157 185.401 85.957 183.428 86.853C181.456 87.749 180.74 88.4722 181.456 89.549" stroke="white" stroke-width="0.5" stroke-miterlimit="10"/>
<path d="M213.006 89.3839C212.369 87.6469 209.775 87.0259 207.315 86.7037C204.855 86.3814 198.74 88.1971 197.679 88.5115C196.955 88.1946 196.164 88.0605 195.376 88.1208C194.588 88.1811 193.827 88.434 193.159 88.8573C191.713 88.8573 185.637 88.7944 183.523 89.7219C181.251 90.728 178.909 91.9934 178.767 93.8405C178.665 95.2318 179.946 96.002 181.008 96.3243C181.503 98.5723 183.318 102.039 187.461 101.826C192.695 101.575 194.935 98.5801 194.81 95.892C194.731 94.2414 194.377 91.2389 194.228 90.0442C194.667 89.803 195.157 89.6701 195.657 89.6564C196.157 89.6427 196.654 89.7487 197.105 89.9656C197.286 91.1917 197.749 94.1156 198.111 95.7034C198.716 98.3207 201.687 100.6 206.757 99.429C210.789 98.4937 211.607 94.6737 211.473 92.355C212.487 91.7812 213.517 90.6965 213.006 89.3839ZM187.382 100.27C183.224 100.467 182.501 95.7662 182.47 95.554C182.446 95.3912 182.372 95.2399 182.257 95.1214C182.143 95.003 181.995 94.9233 181.833 94.8938C181.44 94.823 180.3 94.4458 180.339 93.9427C180.394 93.1567 181.684 92.2371 184.159 91.1446C185.693 90.7056 187.28 90.4834 188.875 90.4843C190.275 90.4136 191.674 90.3979 192.672 90.4057C192.829 91.6869 193.151 94.4615 193.222 95.9706C193.356 97.3697 192.2 100.042 187.413 100.27H187.382ZM210.341 91.2389C210.197 91.3102 210.079 91.4237 210.002 91.5642C209.925 91.7046 209.892 91.8654 209.909 92.0249C209.909 92.2292 210.506 96.9452 206.45 97.8806C201.782 98.9495 199.966 96.6859 199.651 95.3339C199.337 93.982 198.865 91.1053 198.685 89.8319C199.636 89.5568 200.988 89.1953 202.355 88.8809C203.889 88.4454 205.477 88.2285 207.071 88.2364C209.752 88.6215 211.237 89.1796 211.504 89.8948C211.732 90.39 210.742 91.0581 210.373 91.2389H210.341Z" fill="#263238"/>
<path d="M158.952 265.11L166.985 279.494L168.714 268.49C168.714 268.49 162.088 264.78 158.952 265.11Z" fill="#92E3A9" stroke="#263238" stroke-miterlimit="10"/>
<path d="M207.213 271.532C207.213 271.532 203.456 273.583 202.253 275.462C201.05 277.34 199.18 278.024 200.885 280.413C202.947 283.469 204.393 286.897 205.145 290.506C205.829 294.098 208.565 296.998 211.473 299.222C214.381 301.447 218.987 301.958 219.498 299.395C220.009 296.833 213.689 286.403 213.21 284.524C212.759 282.855 212.642 281.114 212.864 279.399C213.005 277.513 210.121 270.51 207.213 271.532Z" fill="#263238" stroke="#263238" stroke-miterlimit="10"/>
<path d="M219.506 299.466C218.854 299.804 218.139 300.004 217.407 300.056C216.674 300.107 215.939 300.008 215.246 299.765C210.459 298.397 208.235 292.761 205.814 286.607C204.516 283.353 202.764 280.299 200.61 277.537C200.068 278.323 199.903 279.109 200.854 280.453C202.922 283.494 204.379 286.908 205.146 290.506C205.83 294.098 208.565 296.998 211.473 299.222C214.381 301.447 218.948 301.95 219.506 299.466Z" fill="white" stroke="#263238" stroke-miterlimit="10"/>
<path d="M210.969 268.285C210.969 268.285 205.334 271.877 205.161 273.583C204.988 275.289 206.529 280.594 207.212 281.443C207.896 282.292 209.948 278.535 210.631 279.557L212.337 282.127L213.021 277.505L210.969 268.285Z" fill="white" stroke="#263238" stroke-miterlimit="10"/>
<path d="M166.812 267.499L164.934 293.131L175.867 308.175L176.724 273.654L166.812 267.499Z" fill="white"/>
<mask id="mask3_2003_6055" style="mask-type:luminance" maskUnits="userSpaceOnUse" x="164" y="267" width="13" height="42">
<path d="M166.812 267.499L164.934 293.131L175.867 308.175L176.724 273.654L166.812 267.499Z" fill="white"/>
</mask>
<g mask="url(#mask3_2003_6055)">
<g style="mix-blend-mode:multiply" opacity="0.5">
<path d="M166.042 278.008L168.235 278.142C171.183 278.416 174.027 279.371 176.543 280.932L176.724 273.654L166.812 267.499L166.042 278.008Z" fill="#92E3A9"/>
</g>
</g>
<path d="M166.812 267.499L164.934 293.131L175.867 308.175L176.724 273.654L166.812 267.499Z" stroke="#263238" stroke-miterlimit="10"/>
<path d="M176.323 289.838C173.456 286.888 169.645 285.039 165.555 284.611L164.934 293.178L175.867 308.214L176.323 289.838Z" fill="white" stroke="#263238" stroke-miterlimit="10"/>
<path d="M176.064 315.013C176.064 315.013 176.92 309.881 176.064 306.296C175.207 302.712 169.398 292.934 163.755 286.984C158.111 281.034 150.259 269.205 145.3 264.426C140.34 259.647 134.193 260.834 134.193 268.867C134.193 276.9 139.145 290.741 146.494 298.091C153.843 305.44 164.274 313.614 166.977 315.013C169.681 316.412 172.794 317.544 176.064 315.013Z" fill="#263238" stroke="#263238" stroke-miterlimit="10"/>
<path d="M176.417 310.47C174.081 307.289 171.317 304.445 168.203 302.02C161.876 296.896 157.089 285.444 154.189 278.268C152.389 273.827 148.247 268.152 145.339 264.465V264.426C140.379 259.639 134.232 260.834 134.232 268.867C134.232 276.9 139.184 290.741 146.533 298.09C153.882 305.44 164.273 313.614 166.977 315.013C169.681 316.412 172.794 317.575 176.04 315.013C176.267 313.509 176.393 311.991 176.417 310.47Z" fill="white" stroke="#263238" stroke-miterlimit="10"/>
<path d="M176.158 314.156C173.941 310.753 169.744 306.587 164.761 302.021C156.728 294.671 150.063 272.286 144.081 265.448C140.434 261.282 136.858 263.334 134.649 265.574C134.338 266.643 134.187 267.753 134.201 268.867C134.201 276.9 139.153 290.741 146.502 298.091C153.851 305.44 164.273 313.614 166.977 315.013C169.681 316.412 172.794 317.575 176.04 315.013C176.063 315.013 176.063 314.691 176.158 314.156Z" fill="white" stroke="#263238" stroke-miterlimit="10"/>
<path d="M181.746 197.703L183.798 176.001C183.798 176.001 199.007 171.725 206.529 172.582C211.925 173.316 217.248 174.515 222.437 176.166C222.437 176.166 225.346 204.541 228.725 218.382C232.105 232.224 233.677 252.738 233.85 260.425C234.023 268.112 228.89 270.848 227.523 272.561C226.155 274.275 217.446 284.697 217.446 284.697C217.446 284.697 211.944 281.278 210.262 275.807C208.58 270.337 209.578 268.12 209.578 268.12L222.437 258.374C222.437 258.374 217.14 227.099 213.005 220.088C208.871 213.077 205.829 210.349 201.388 209.155C196.947 207.96 196.774 208.471 191.131 212.228C187.571 214.638 184.252 217.386 181.22 220.434L177.062 278.244C177.062 278.244 170.774 272.263 166.639 269.527C164.175 267.883 161.607 266.4 158.952 265.086C158.952 265.086 165.853 213.21 169.272 210.326C172.691 207.441 181.746 197.703 181.746 197.703Z" fill="#92E3A9"/>
<mask id="mask4_2003_6055" style="mask-type:luminance" maskUnits="userSpaceOnUse" x="158" y="172" width="76" height="113">
<path d="M181.746 197.703L183.798 176.001C183.798 176.001 199.007 171.725 206.529 172.582C211.925 173.316 217.248 174.515 222.437 176.166C222.437 176.166 225.346 204.541 228.725 218.382C232.105 232.224 233.677 252.738 233.85 260.425C234.023 268.112 228.89 270.848 227.523 272.561C226.155 274.275 217.446 284.697 217.446 284.697C217.446 284.697 211.944 281.278 210.262 275.807C208.58 270.337 209.578 268.12 209.578 268.12L222.437 258.374C222.437 258.374 217.14 227.099 213.005 220.088C208.871 213.077 205.829 210.349 201.388 209.155C196.947 207.96 196.774 208.471 191.131 212.228C187.571 214.638 184.252 217.386 181.22 220.434L177.062 278.244C177.062 278.244 170.774 272.263 166.639 269.527C164.175 267.883 161.607 266.4 158.952 265.086C158.952 265.086 165.853 213.21 169.272 210.326C172.691 207.441 181.746 197.703 181.746 197.703Z" fill="white"/>
</mask>
<g mask="url(#mask4_2003_6055)">
<g style="mix-blend-mode:multiply" opacity="0.2">
<path d="M233.858 261.219C231.909 261.219 228.859 261.369 226.91 256.826C223.86 249.712 221.156 229.056 216.409 218.893C211.661 208.73 202.182 199.919 197.105 199.919C192.027 199.919 203.542 207.37 203.542 207.37C203.542 207.37 199.133 205.343 198.119 205.343C197.105 205.343 184.568 212.118 180.504 214.484C176.441 216.85 177.117 218.893 175.788 224.985C174.633 230.172 173.973 264.953 173.8 275.289C175.694 276.963 177.085 278.283 177.085 278.283L181.259 220.449C184.283 217.395 187.594 214.639 191.147 212.22C196.79 208.463 196.955 207.952 201.404 209.147C205.853 210.341 208.918 213.077 213.021 220.08C217.124 227.083 222.453 258.366 222.453 258.366L209.634 268.112C209.634 268.112 208.612 270.329 210.317 275.8C212.023 281.27 217.501 284.689 217.501 284.689C217.501 284.689 226.21 274.259 227.578 272.553C228.946 270.848 233.669 268.293 233.858 261.219Z" fill="#263238"/>
</g>
</g>
<path d="M181.746 197.703L183.798 176.001C183.798 176.001 199.007 171.725 206.529 172.582C211.925 173.316 217.248 174.515 222.437 176.166C222.437 176.166 225.346 204.541 228.725 218.382C232.105 232.224 233.677 252.738 233.85 260.425C234.023 268.112 228.89 270.848 227.523 272.561C226.155 274.275 217.446 284.697 217.446 284.697C217.446 284.697 211.944 281.278 210.262 275.807C208.58 270.337 209.578 268.12 209.578 268.12L222.437 258.374C222.437 258.374 217.14 227.099 213.005 220.088C208.871 213.077 205.829 210.349 201.388 209.155C196.947 207.96 196.774 208.471 191.131 212.228C187.571 214.638 184.252 217.386 181.22 220.434L177.062 278.244C177.062 278.244 170.774 272.263 166.639 269.527C164.175 267.883 161.607 266.4 158.952 265.086C158.952 265.086 165.853 213.21 169.272 210.326C172.691 207.441 181.746 197.703 181.746 197.703Z" stroke="#263238" stroke-miterlimit="10"/>
<path d="M222.438 258.374C222.438 258.374 223.506 265.448 224.01 266.517" stroke="#263238" stroke-miterlimit="10"/>
<path d="M203.675 174.351L202.276 195.958C203.339 195.709 204.31 195.164 205.075 194.386C206.073 193.183 207.079 183.775 207.079 183.775" stroke="#263238" stroke-linecap="round" stroke-linejoin="round"/>
<path d="M191.666 175.946L197.27 175.152L197.671 173.745" stroke="#263238" stroke-linecap="round" stroke-linejoin="round"/>
<path d="M209.28 173.95L208.879 175.152L205.877 174.948" stroke="#263238" stroke-linecap="round" stroke-linejoin="round"/>
<path d="M211.277 173.95L211.08 175.553L215.678 176.551" stroke="#263238" stroke-linecap="round" stroke-linejoin="round"/>
<path d="M184.27 196.563C184.27 196.563 188.671 196.162 193.269 201.758" stroke="#263238" stroke-linecap="round" stroke-linejoin="round"/>
<path d="M191.469 198.363C191.469 198.363 192.467 198.363 195.069 202.364" stroke="#263238" stroke-linecap="round" stroke-linejoin="round"/>
<path d="M181.409 152.413C181.409 152.413 184.136 150.055 185.166 148.994C186.195 147.933 186.533 145.402 187.728 146.943C188.923 148.483 188.923 150.362 188.074 150.873C187.225 151.384 185.166 152.445 184.655 153.097C184.144 153.749 180.041 154.119 181.409 152.413Z" fill="white" stroke="#263238" stroke-miterlimit="10"/>
<path d="M221.927 140.812C221.927 140.812 218.602 139.342 217.313 138.666C216.024 137.99 214.955 135.648 214.255 137.479C213.556 139.311 214.137 141.095 215.104 141.331C216.071 141.566 218.335 141.928 219.034 142.431C219.734 142.934 223.742 142.038 221.927 140.812Z" fill="white" stroke="#263238" stroke-miterlimit="10"/>
<path d="M183.287 129.171L183.971 153.608L187.044 176.339L189.952 175.828L186.36 152.924L186.187 128.487L183.287 129.171Z" fill="#263238" stroke="#263238" stroke-miterlimit="10"/>
<path d="M212.338 120.965C212.338 120.965 217.636 139.767 218.154 141.991C218.673 144.215 220.033 156.516 220.371 157.711C220.709 158.906 218.154 176.85 218.154 176.85L221.055 177.534L223.106 155.832L220.748 142.156L215.45 120.627L212.338 120.965Z" fill="#263238" stroke="#263238" stroke-miterlimit="10"/>
<path d="M189.3 171.702L188.027 170.578L186.675 172.661L187.044 176.339L189.952 175.828L189.3 171.702Z" fill="white" stroke="#263238" stroke-miterlimit="10"/>
<path d="M221.424 173.706L220.693 171.623L218.689 173.006C218.382 175.278 218.154 176.881 218.154 176.881L221.055 177.565L221.424 173.706Z" fill="white" stroke="#263238" stroke-miterlimit="10"/>
<path d="M200.202 130.028C200.202 130.028 190.636 124.526 190.29 126.271C189.945 128.016 190.463 136.866 191.485 136.489C192.507 136.112 200.375 131.718 200.375 131.718C200.375 131.718 210.459 137.346 210.632 134.61C210.805 131.875 210.286 124.699 207.897 124.526C205.507 124.353 200.202 130.028 200.202 130.028Z" fill="#263238" stroke="#263238" stroke-miterlimit="10"/>
<path d="M201.797 130.625L206.788 128.354" stroke="white" stroke-width="0.5" stroke-linecap="round" stroke-linejoin="round"/>
<path d="M201.797 130.625L206.332 131.686" stroke="white" stroke-width="0.5" stroke-linecap="round" stroke-linejoin="round"/>
<path d="M195.14 129.564L199.078 130.924L195.297 132.134" stroke="white" stroke-width="0.5" stroke-linecap="round" stroke-linejoin="round"/>
<path d="M201.498 129.415C201.498 129.415 201.797 131.38 201.498 131.836C201.2 132.292 199.981 132.134 199.525 131.529" stroke="white" stroke-width="0.5" stroke-linecap="round" stroke-linejoin="round"/>
<path d="M238.276 150.739C238.276 150.739 235.596 149.607 237.49 147.752C239.384 145.897 259.341 141.464 263.121 141.535C266.902 141.606 269.016 144.349 269.818 147.501C270.62 150.653 268.78 153.915 264.803 155.518C260.826 157.121 243.809 159.385 241.168 158.961C238.527 158.536 238.276 150.739 238.276 150.739Z" fill="white"/>
<mask id="mask5_2003_6055" style="mask-type:luminance" maskUnits="userSpaceOnUse" x="236" y="141" width="35" height="19">
<path d="M238.276 150.739C238.276 150.739 235.596 149.607 237.49 147.752C239.384 145.897 259.341 141.464 263.121 141.535C266.902 141.606 269.016 144.349 269.818 147.501C270.62 150.653 268.78 153.915 264.803 155.518C260.826 157.121 243.809 159.385 241.168 158.961C238.527 158.536 238.276 150.739 238.276 150.739Z" fill="white"/>
</mask>
<g mask="url(#mask5_2003_6055)">
<g style="mix-blend-mode:multiply">
<path d="M269.88 147.65L268.591 147.925C268.356 146.534 268.096 145.135 267.805 143.752H267.955C267.477 143.197 266.905 142.731 266.265 142.376C266.304 142.557 266.359 142.745 266.398 142.934L260.417 144.451C260.15 143.594 259.835 142.777 259.505 141.975L258.318 142.172C258.664 142.958 258.986 143.846 259.277 144.742L251.292 146.778C250.878 145.794 250.4 144.838 249.861 143.917L248.635 144.207C249.199 145.125 249.692 146.084 250.113 147.076L243.825 148.648C243.301 147.695 242.682 146.797 241.977 145.968C241.561 146.094 241.191 146.212 240.798 146.337C241.524 147.131 242.162 148 242.701 148.931L241.687 149.183C240.456 149.473 239.296 150.007 238.275 150.755C238.275 150.881 238.275 151.439 238.385 152.209C239.402 151.277 240.637 150.617 241.977 150.291L243.259 149.969C243.71 150.93 244.058 151.936 244.296 152.971L238.653 154.15C238.716 154.538 238.794 154.923 238.888 155.306L244.516 154.135C244.667 155.146 244.727 156.17 244.697 157.192L239.91 157.978C240.045 158.222 240.23 158.436 240.451 158.605C240.673 158.774 240.928 158.895 241.199 158.961L244.618 158.41C244.618 158.575 244.579 158.733 244.563 158.898L245.75 158.796C245.75 158.607 245.79 158.41 245.805 158.222L252.188 157.2V158.041L253.414 157.868C253.414 157.577 253.414 157.286 253.414 156.996L260.574 155.848C260.574 156.115 260.527 156.383 260.503 156.634L261.737 156.414C261.737 156.17 261.785 155.927 261.8 155.683L265.966 155.007C266.735 154.601 267.441 154.088 268.065 153.482L261.848 154.48C261.878 153.182 261.828 151.882 261.698 150.59L267.64 149.348C267.853 150.7 268.025 152.044 268.175 153.356C268.568 152.956 268.911 152.51 269.197 152.028C269.079 151.061 268.945 150.095 268.796 149.112L270.046 148.853C270.035 148.447 269.98 148.044 269.88 147.65ZM244.367 149.702L250.521 148.13C250.918 149.222 251.239 150.341 251.48 151.478L245.412 152.743C245.168 151.697 244.818 150.677 244.367 149.702ZM245.868 157.019C245.886 155.967 245.809 154.914 245.64 153.875L251.708 152.61C251.907 153.723 252.049 154.846 252.133 155.974L245.868 157.019ZM251.7 147.847L259.56 145.834C259.905 147.081 260.167 148.35 260.346 149.631L252.651 151.203C252.406 150.065 252.088 148.944 251.7 147.847ZM253.351 155.817C253.264 154.67 253.12 153.529 252.919 152.398L260.527 150.826C260.646 152.1 260.686 153.381 260.645 154.661L253.351 155.817ZM261.533 149.395C261.354 148.096 261.091 146.809 260.747 145.544L266.666 144.042C266.964 145.41 267.226 146.783 267.452 148.161L261.533 149.395Z" fill="#92E3A9"/>
</g>
</g>
<path d="M238.276 150.739C238.276 150.739 235.596 149.607 237.49 147.752C239.384 145.897 259.341 141.464 263.121 141.535C266.902 141.606 269.016 144.349 269.818 147.501C270.62 150.653 268.78 153.915 264.803 155.518C260.826 157.121 243.809 159.385 241.168 158.961C238.527 158.536 238.276 150.739 238.276 150.739Z" stroke="#263238" stroke-miterlimit="10"/>
<path d="M233.441 150.653L235.359 157.931L240.515 157.2C240.975 155.892 241 154.471 240.587 153.148C240.173 151.825 239.343 150.672 238.22 149.859L233.441 150.653Z" fill="white" stroke="#263238" stroke-miterlimit="10"/>
<path d="M233.441 150.653C233.441 150.653 224.882 140.435 223.742 140.788C222.602 141.142 215.937 141.574 215.096 142.407C214.255 143.241 215.953 145.724 215.953 145.724C215.631 146.721 215.412 147.748 215.301 148.79C215.301 149.874 216.873 150.983 216.873 150.983C216.816 151.924 216.872 152.868 217.038 153.797C217.289 154.583 217.721 154.842 217.871 155.369C218.02 155.895 217.769 157.907 219.168 158.363C220.399 158.858 221.744 158.997 223.05 158.764L224.843 158.206C224.843 158.206 228.883 159.086 230.565 158.741C232.247 158.395 235.336 157.955 235.336 157.955L233.441 150.653Z" fill="white"/>
<mask id="mask6_2003_6055" style="mask-type:luminance" maskUnits="userSpaceOnUse" x="214" y="140" width="22" height="19">
<path d="M233.441 150.653C233.441 150.653 224.882 140.435 223.742 140.788C222.602 141.142 215.937 141.574 215.096 142.407C214.255 143.241 215.953 145.724 215.953 145.724C215.631 146.721 215.412 147.748 215.301 148.79C215.301 149.874 216.873 150.983 216.873 150.983C216.816 151.924 216.872 152.868 217.038 153.797C217.289 154.583 217.721 154.842 217.871 155.369C218.02 155.895 217.769 157.907 219.168 158.363C220.399 158.858 221.744 158.997 223.05 158.764L224.843 158.206C224.843 158.206 228.883 159.086 230.565 158.741C232.247 158.395 235.336 157.955 235.336 157.955L233.441 150.653Z" fill="white"/>
</mask>
<g mask="url(#mask6_2003_6055)">
<g style="mix-blend-mode:multiply" opacity="0.5">
<path d="M230.556 158.701C231.46 158.52 232.757 158.308 233.771 158.159C232.27 158.324 230.03 158.434 228.67 157.829C226.477 156.854 223.805 155.4 221.124 156.367C220.163 156.713 219.225 157.122 218.318 157.593C218.403 157.764 218.521 157.917 218.666 158.043C218.81 158.168 218.978 158.264 219.159 158.324C220.39 158.819 221.736 158.958 223.042 158.725L224.834 158.167C224.834 158.167 228.874 159.047 230.556 158.701Z" fill="#92E3A9"/>
</g>
</g>
<path d="M233.441 150.653C233.441 150.653 224.882 140.435 223.742 140.788C222.602 141.142 215.937 141.574 215.096 142.407C214.255 143.241 215.953 145.724 215.953 145.724C215.631 146.721 215.412 147.748 215.301 148.79C215.301 149.874 216.873 150.983 216.873 150.983C216.816 151.924 216.872 152.868 217.038 153.797C217.289 154.583 217.721 154.842 217.871 155.369C218.02 155.895 217.769 157.907 219.168 158.363C220.399 158.858 221.744 158.997 223.05 158.764L224.843 158.206C224.843 158.206 228.883 159.086 230.565 158.741C232.247 158.395 235.336 157.955 235.336 157.955L233.441 150.653Z" stroke="#263238" stroke-miterlimit="10"/>
<path d="M215.938 145.724L223.68 145.276" stroke="#263238" stroke-miterlimit="10"/>
<path d="M216.865 150.983L224.552 150.378" stroke="#263238" stroke-miterlimit="10"/>
<path d="M217.863 155.329L224.371 154.37" stroke="#263238" stroke-miterlimit="10"/>
<path d="M168.762 166.766C168.762 166.766 170.978 164.887 168.589 163.692C166.199 162.498 145.858 164.203 142.266 165.398C138.674 166.593 137.479 169.847 137.652 173.093C137.825 176.339 140.56 178.901 144.828 179.247C149.096 179.593 166.05 176.685 168.408 175.482C170.766 174.28 168.762 166.766 168.762 166.766Z" fill="white"/>
<mask id="mask7_2003_6055" style="mask-type:luminance" maskUnits="userSpaceOnUse" x="137" y="163" width="33" height="17">
<path d="M168.762 166.766C168.762 166.766 170.978 164.887 168.589 163.692C166.199 162.498 145.858 164.203 142.266 165.398C138.674 166.593 137.479 169.847 137.652 173.093C137.825 176.339 140.56 178.901 144.828 179.247C149.096 179.593 166.05 176.685 168.408 175.482C170.766 174.28 168.762 166.766 168.762 166.766Z" fill="white"/>
</mask>
<g mask="url(#mask7_2003_6055)">
<g style="mix-blend-mode:multiply">
<path d="M168.989 174.987C169.25 174.603 169.422 174.165 169.493 173.706L163.205 174.759C163.205 173.871 163.205 172.983 163.315 172.11L169.603 171.207C169.603 170.814 169.524 170.421 169.477 170.035L163.456 170.9C163.587 169.882 163.805 168.878 164.108 167.897L168.997 167.465C168.903 167.033 168.832 166.766 168.832 166.766C169.007 166.612 169.165 166.441 169.304 166.255L164.588 166.671C165.101 165.399 165.909 164.268 166.946 163.37C166.474 163.37 165.916 163.307 165.311 163.299C164.403 164.32 163.699 165.504 163.236 166.789L156.862 167.347C157.306 166.012 157.867 164.718 158.536 163.48L157.168 163.567C156.532 164.829 156.006 166.144 155.596 167.497L148.664 168.11C148.877 166.806 149.189 165.522 149.599 164.266L148.318 164.415C147.942 165.659 147.656 166.928 147.461 168.212L142.242 168.676C142.641 167.416 143.176 166.204 143.837 165.06C143.33 165.147 142.829 165.265 142.336 165.414C141.783 166.486 141.331 167.607 140.984 168.762L138.335 168.99C138.169 169.385 138.032 169.792 137.927 170.208L140.662 169.965C140.351 171.362 140.248 172.797 140.356 174.225L137.95 174.578C138.074 174.966 138.237 175.34 138.438 175.695L140.497 175.396C140.673 176.409 140.961 177.4 141.354 178.351C142.201 178.744 143.101 179.009 144.026 179.137L147.453 178.571C147.453 178.776 147.516 178.98 147.547 179.184L148.719 179.09L148.553 178.422L155.117 177.329C155.195 177.644 155.297 177.966 155.392 178.281L156.571 178.1C156.468 177.777 156.366 177.455 156.288 177.133L161.939 176.19C161.939 176.512 161.939 176.826 161.986 177.141C162.395 177.062 162.772 176.984 163.181 176.897C163.181 176.598 163.181 176.3 163.181 175.993L168.989 174.987ZM141.857 169.847L147.257 169.375C147.111 170.662 147.043 171.956 147.052 173.25L141.511 174.036C141.394 172.632 141.5 171.218 141.825 169.847H141.857ZM142.58 178.194C142.151 177.242 141.839 176.242 141.652 175.215L147.084 174.429C147.084 175.443 147.202 176.433 147.312 177.4L142.58 178.194ZM148.467 177.212C148.357 176.253 148.278 175.278 148.239 174.272L154.669 173.344C154.678 174.28 154.765 175.213 154.928 176.135L148.467 177.212ZM154.692 172.15L148.223 173.085C148.223 171.809 148.297 170.533 148.443 169.265L155.219 168.676C154.927 169.809 154.74 170.967 154.661 172.134L154.692 172.15ZM161.915 174.964L156.036 175.938C155.872 175.028 155.788 174.105 155.785 173.179L162.01 172.283C161.963 173.172 161.915 174.068 161.915 174.964ZM162.136 171.073L155.848 171.985C155.928 170.83 156.118 169.685 156.413 168.566L162.757 168.008C162.474 169.011 162.274 170.036 162.159 171.073H162.136Z" fill="#92E3A9"/>
</g>
</g>
<path d="M168.762 166.766C168.762 166.766 170.978 164.887 168.589 163.692C166.199 162.498 145.858 164.203 142.266 165.398C138.674 166.593 137.479 169.847 137.652 173.093C137.825 176.339 140.56 178.901 144.828 179.247C149.096 179.593 166.05 176.685 168.408 175.482C170.766 174.28 168.762 166.766 168.762 166.766Z" stroke="#263238" stroke-miterlimit="10"/>
<path d="M173.376 165.233L173.713 172.747L168.589 173.604C167.76 172.494 167.312 171.146 167.312 169.76C167.312 168.375 167.76 167.027 168.589 165.917L173.376 165.233Z" fill="white" stroke="#263238" stroke-miterlimit="10"/>
<path d="M173.375 165.233C173.375 165.233 178.5 152.924 179.663 152.924C180.826 152.924 187.358 151.352 188.38 151.902C189.402 152.453 188.553 155.321 188.553 155.321C189.169 156.174 189.696 157.088 190.125 158.049C190.463 159.079 189.268 160.619 189.268 160.619C189.601 161.501 189.83 162.419 189.952 163.354C189.952 164.203 189.606 164.549 189.606 165.06C189.606 165.571 190.463 167.418 189.268 168.306C188.241 169.156 186.997 169.7 185.676 169.878H183.797C183.797 169.878 180.205 171.93 178.5 172.095C176.794 172.26 173.713 172.779 173.713 172.779L173.375 165.233Z" fill="white"/>
<mask id="mask8_2003_6055" style="mask-type:luminance" maskUnits="userSpaceOnUse" x="173" y="151" width="18" height="22">
<path d="M173.375 165.233C173.375 165.233 178.5 152.924 179.663 152.924C180.826 152.924 187.358 151.352 188.38 151.902C189.402 152.453 188.553 155.321 188.553 155.321C189.169 156.174 189.696 157.088 190.125 158.049C190.463 159.079 189.268 160.619 189.268 160.619C189.601 161.501 189.83 162.419 189.952 163.354C189.952 164.203 189.606 164.549 189.606 165.06C189.606 165.571 190.463 167.418 189.268 168.306C188.241 169.156 186.997 169.7 185.676 169.878H183.797C183.797 169.878 180.205 171.93 178.5 172.095C176.794 172.26 173.713 172.779 173.713 172.779L173.375 165.233Z" fill="white"/>
</mask>
<g mask="url(#mask8_2003_6055)">
<g style="mix-blend-mode:multiply" opacity="0.5">
<path d="M183.797 169.847H185.676C186.997 169.669 188.241 169.124 189.268 168.275C189.537 168.045 189.737 167.744 189.842 167.406C189.948 167.068 189.956 166.707 189.865 166.365C188.789 167.049 187.595 167.526 186.344 167.772C183.664 168.259 180.748 168.503 178.311 169.713C176.737 170.573 175.243 171.573 173.847 172.7C174.46 172.598 176.991 172.181 178.5 172.032C180.205 171.898 183.797 169.847 183.797 169.847Z" fill="#92E3A9"/>
</g>
</g>
<path d="M173.375 165.233C173.375 165.233 178.5 152.924 179.663 152.924C180.826 152.924 187.358 151.352 188.38 151.902C189.402 152.453 188.553 155.321 188.553 155.321C189.169 156.174 189.696 157.088 190.125 158.049C190.463 159.079 189.268 160.619 189.268 160.619C189.601 161.501 189.83 162.419 189.952 163.354C189.952 164.203 189.606 164.549 189.606 165.06C189.606 165.571 190.463 167.418 189.268 168.306C188.241 169.156 186.997 169.7 185.676 169.878H183.797C183.797 169.878 180.205 171.93 178.5 172.095C176.794 172.26 173.713 172.779 173.713 172.779L173.375 165.233Z" stroke="#263238" stroke-miterlimit="10"/>
<path d="M188.585 155.321L181.062 157.2" stroke="#263238" stroke-miterlimit="10"/>
<path d="M189.268 160.619L181.746 162.325" stroke="#263238" stroke-miterlimit="10"/>
<path d="M189.607 165.06L183.114 166.082" stroke="#263238" stroke-miterlimit="10"/>
</svg>
