<svg width="393" height="353" viewBox="0 0 393 353" fill="none" xmlns="http://www.w3.org/2000/svg">
<g clip-path="url(#clip0_2014_2784)">
<path d="M68.8435 326.537C68.8435 326.537 49.1349 291.926 53.6808 283.124C58.2266 274.323 69.8553 290.155 69.8553 290.155C69.8553 290.155 59.7444 257.888 65.3095 243.804C70.8746 229.72 80.4648 243.804 80.9335 253.781C81.4022 263.758 78.9173 280.766 78.9173 280.766C78.9173 280.766 82.9572 245.567 92.5548 256.124C102.152 266.682 80.4276 301.888 80.4276 301.888C80.4276 301.888 95.0844 293.704 94.5636 304.239C94.0428 314.774 76.8787 324.186 76.8787 324.186" fill="#92E3A9"/>
<path d="M90.8577 312.468H56.7676L60.1751 352.681H87.4501L90.8577 312.468Z" fill="#263238"/>
<path d="M343.112 108.93L304.543 111.326C302.361 111.461 300.316 112.431 298.83 114.033C297.343 115.636 296.531 117.749 296.56 119.934L296.753 135.431L285.541 136.622L296.842 142.455C296.858 143.576 297.095 144.683 297.539 145.712C297.984 146.741 298.627 147.672 299.432 148.452C300.238 149.232 301.189 149.845 302.232 150.256C303.275 150.667 304.389 150.868 305.51 150.847L342.956 150.163C345.129 150.122 347.204 149.252 348.757 147.73C350.309 146.209 351.22 144.151 351.303 141.979L352.166 117.754C352.214 116.563 352.01 115.375 351.569 114.267C351.127 113.16 350.458 112.158 349.604 111.326C348.75 110.494 347.731 109.85 346.613 109.438C345.494 109.025 344.301 108.852 343.112 108.93Z" fill="white" stroke="#263238" stroke-miterlimit="10"/>
<path d="M335.3 112.933H310.041V128.84H335.3V112.933Z" fill="#8C8C8C" stroke="#263238" stroke-linecap="round" stroke-linejoin="round"/>
<path d="M335.299 112.933H320.955V128.84H335.299V112.933Z" fill="#696969" stroke="#263238" stroke-linecap="round" stroke-linejoin="round"/>
<path d="M327.815 112.933H317.525V128.84H327.815V112.933Z" fill="white" stroke="#263238" stroke-linecap="round" stroke-linejoin="round"/>
<path d="M309.854 141.711V137.671C309.854 135.729 311.23 134.434 313.306 134.434C315.381 134.434 316.758 135.699 316.758 137.611C316.758 137.701 316.683 137.76 316.572 137.775L315.91 137.82C315.791 137.82 315.716 137.82 315.716 137.73V137.641C315.716 137.002 315.462 136.389 315.01 135.937C314.558 135.485 313.945 135.231 313.306 135.231C312.666 135.231 312.053 135.485 311.601 135.937C311.149 136.389 310.895 137.002 310.895 137.641V141.755C310.895 142.395 311.149 143.008 311.601 143.46C312.053 143.912 312.666 144.166 313.306 144.166C313.945 144.166 314.558 143.912 315.01 143.46C315.462 143.008 315.716 142.395 315.716 141.755C315.714 141.731 315.718 141.706 315.728 141.683C315.737 141.66 315.752 141.64 315.771 141.624C315.79 141.608 315.812 141.597 315.836 141.591C315.861 141.586 315.886 141.586 315.91 141.592H316.572C316.683 141.592 316.758 141.592 316.758 141.666V141.741C316.758 143.668 315.381 144.947 313.306 144.947C311.23 144.947 309.854 143.668 309.854 141.711Z" fill="#263238"/>
<path d="M318.73 135.305C318.72 135.146 318.757 134.987 318.838 134.849C318.919 134.712 319.04 134.602 319.184 134.533C319.328 134.465 319.489 134.442 319.647 134.466C319.805 134.491 319.952 134.562 320.068 134.671C320.185 134.78 320.266 134.922 320.301 135.077C320.336 135.233 320.324 135.396 320.265 135.544C320.207 135.693 320.105 135.82 319.974 135.91C319.842 136 319.686 136.049 319.526 136.049C319.424 136.056 319.322 136.042 319.226 136.008C319.129 135.974 319.041 135.92 318.966 135.85C318.891 135.781 318.832 135.696 318.791 135.602C318.751 135.508 318.73 135.407 318.73 135.305ZM319.013 144.65V137.596C319.011 137.571 319.014 137.546 319.023 137.522C319.031 137.498 319.045 137.476 319.062 137.458C319.08 137.439 319.101 137.425 319.125 137.416C319.148 137.406 319.174 137.402 319.199 137.403H319.861C319.887 137.401 319.913 137.404 319.938 137.413C319.962 137.422 319.984 137.436 320.003 137.455C320.021 137.473 320.036 137.495 320.044 137.52C320.053 137.544 320.057 137.57 320.055 137.596V144.65C320.057 144.676 320.053 144.702 320.044 144.726C320.036 144.751 320.021 144.773 320.003 144.791C319.984 144.81 319.962 144.824 319.938 144.833C319.913 144.842 319.887 144.845 319.861 144.843H319.199C319.174 144.844 319.148 144.84 319.125 144.83C319.101 144.821 319.08 144.807 319.062 144.788C319.045 144.77 319.031 144.748 319.023 144.724C319.014 144.7 319.011 144.675 319.013 144.65Z" fill="#263238"/>
<path d="M327.844 139.754V144.65C327.846 144.675 327.843 144.7 327.834 144.724C327.826 144.748 327.812 144.77 327.795 144.788C327.777 144.807 327.756 144.821 327.732 144.831C327.709 144.84 327.683 144.844 327.658 144.843H326.996C326.97 144.845 326.944 144.842 326.919 144.833C326.895 144.824 326.872 144.81 326.854 144.791C326.836 144.773 326.821 144.751 326.812 144.726C326.804 144.702 326.8 144.676 326.802 144.65V144.121C326.802 144.062 326.758 144.032 326.713 144.121C326.41 144.414 326.051 144.642 325.657 144.792C325.263 144.942 324.843 145.01 324.422 144.992C323.172 144.992 321.996 144.389 321.996 142.842C321.996 141.294 323.112 140.461 325.024 140.461H326.743C326.753 140.462 326.763 140.461 326.773 140.458C326.782 140.454 326.791 140.449 326.798 140.442C326.805 140.435 326.811 140.426 326.814 140.416C326.817 140.407 326.818 140.397 326.817 140.386V139.843C326.84 139.617 326.809 139.388 326.729 139.175C326.649 138.961 326.521 138.769 326.355 138.613C326.189 138.457 325.989 138.341 325.772 138.275C325.554 138.208 325.323 138.192 325.099 138.229C324.169 138.229 323.566 138.608 323.402 139.226C323.4 139.251 323.392 139.275 323.379 139.296C323.367 139.318 323.35 139.336 323.329 139.351C323.309 139.365 323.285 139.374 323.26 139.378C323.236 139.383 323.211 139.381 323.186 139.375L322.442 139.285C322.323 139.285 322.249 139.226 322.264 139.129C322.457 138.05 323.544 137.314 325.061 137.314C326.862 137.284 327.844 138.303 327.844 139.754ZM326.802 142.462V141.331C326.804 141.321 326.802 141.311 326.799 141.302C326.796 141.292 326.79 141.283 326.783 141.276C326.776 141.269 326.767 141.264 326.758 141.26C326.748 141.257 326.738 141.256 326.728 141.257H325.188C323.908 141.257 323.038 141.8 323.038 142.745C323.038 143.69 323.782 144.047 324.652 144.047C325.746 144.062 326.802 143.489 326.802 142.462Z" fill="#263238"/>
<path d="M329.981 142.916C329.825 142.327 329.755 141.718 329.772 141.108C329.756 140.504 329.821 139.901 329.966 139.315C330.178 138.723 330.567 138.211 331.081 137.849C331.595 137.487 332.209 137.293 332.837 137.293C333.466 137.293 334.08 137.487 334.594 137.849C335.108 138.211 335.497 138.723 335.709 139.315C335.863 139.905 335.933 140.514 335.918 141.123C335.935 141.733 335.865 142.341 335.709 142.931C335.505 143.528 335.119 144.046 334.605 144.413C334.091 144.78 333.476 144.977 332.845 144.977C332.214 144.977 331.598 144.78 331.085 144.413C330.571 144.046 330.185 143.528 329.981 142.931V142.916ZM334.742 142.611C334.836 142.121 334.876 141.622 334.861 141.123C334.881 140.624 334.841 140.124 334.742 139.635C334.625 139.222 334.377 138.858 334.034 138.599C333.692 138.34 333.274 138.2 332.845 138.2C332.416 138.2 331.998 138.34 331.655 138.599C331.313 138.858 331.065 139.222 330.948 139.635C330.788 140.621 330.788 141.625 330.948 142.611C331.065 143.024 331.313 143.388 331.655 143.647C331.998 143.906 332.416 144.046 332.845 144.046C333.274 144.046 333.692 143.906 334.034 143.647C334.377 143.388 334.625 143.024 334.742 142.611Z" fill="#263238"/>
<path d="M181.566 127.999L166.314 123.877L169.759 101.267C169.922 100.195 169.84 99.1004 169.52 98.0647C169.2 97.0289 168.649 96.079 167.91 95.2861C167.171 94.4931 166.262 93.8777 165.251 93.4859C164.24 93.094 163.154 92.9359 162.073 93.0234L129.687 95.7018C128.748 95.7779 127.833 96.0382 126.995 96.4679C126.156 96.8975 125.411 97.4882 124.801 98.206C124.191 98.9239 123.728 99.7549 123.439 100.652C123.15 101.548 123.041 102.493 123.117 103.432L125.498 133.088C125.639 134.838 126.416 136.476 127.683 137.692C128.95 138.909 130.618 139.618 132.373 139.687L157.297 140.669C159.061 140.742 160.789 140.162 162.151 139.038C163.513 137.915 164.413 136.329 164.677 134.583L165.324 130.35L181.566 127.999Z" fill="white" stroke="#263238" stroke-miterlimit="10"/>
<path d="M158.903 99.3474H133.645V115.254H158.903V99.3474Z" fill="#8C8C8C" stroke="#263238" stroke-linecap="round" stroke-linejoin="round"/>
<path d="M158.903 103.201H133.645V111.408H158.903V103.201Z" fill="white" stroke="#263238" stroke-linecap="round" stroke-linejoin="round"/>
<path d="M139.516 120.998H140.178C140.203 120.997 140.228 121.001 140.252 121.01C140.276 121.02 140.297 121.034 140.314 121.052C140.332 121.071 140.346 121.093 140.354 121.117C140.363 121.14 140.366 121.166 140.364 121.191V131.101C140.366 131.127 140.363 131.152 140.354 131.176C140.346 131.2 140.332 131.222 140.314 131.24C140.297 131.258 140.276 131.273 140.252 131.282C140.228 131.292 140.203 131.296 140.178 131.295H139.516C139.49 131.297 139.463 131.294 139.439 131.285C139.414 131.276 139.392 131.262 139.374 131.243C139.355 131.225 139.341 131.202 139.332 131.178C139.323 131.153 139.32 131.127 139.322 131.101V126.637C139.323 126.627 139.322 126.617 139.319 126.608C139.316 126.598 139.31 126.589 139.303 126.582C139.296 126.575 139.287 126.569 139.277 126.566C139.268 126.563 139.258 126.562 139.248 126.563H134.59C134.58 126.562 134.57 126.563 134.56 126.566C134.551 126.569 134.542 126.575 134.535 126.582C134.528 126.589 134.522 126.598 134.519 126.608C134.516 126.617 134.515 126.627 134.516 126.637V131.101C134.518 131.127 134.515 131.153 134.506 131.178C134.497 131.202 134.483 131.225 134.464 131.243C134.446 131.262 134.424 131.276 134.399 131.285C134.375 131.294 134.348 131.297 134.322 131.295H133.66C133.635 131.297 133.609 131.294 133.584 131.285C133.56 131.276 133.538 131.262 133.52 131.243C133.503 131.224 133.489 131.202 133.481 131.178C133.473 131.153 133.471 131.127 133.474 131.101V121.162C133.471 121.136 133.473 121.11 133.481 121.085C133.489 121.061 133.503 121.038 133.52 121.02C133.538 121.001 133.56 120.987 133.584 120.978C133.609 120.969 133.635 120.966 133.66 120.968H134.322C134.348 120.966 134.375 120.969 134.399 120.978C134.424 120.987 134.446 121.001 134.464 121.02C134.483 121.038 134.497 121.06 134.506 121.085C134.515 121.109 134.518 121.136 134.516 121.162V125.559C134.515 125.569 134.516 125.579 134.519 125.588C134.522 125.598 134.528 125.607 134.535 125.614C134.542 125.621 134.551 125.626 134.56 125.63C134.57 125.633 134.58 125.634 134.59 125.633H139.255C139.265 125.634 139.275 125.633 139.285 125.63C139.295 125.626 139.303 125.621 139.31 125.614C139.318 125.607 139.323 125.598 139.326 125.588C139.33 125.579 139.331 125.569 139.33 125.559V121.162C139.333 121.115 139.355 121.073 139.389 121.042C139.424 121.012 139.469 120.996 139.516 120.998Z" fill="#263238"/>
<path d="M142.849 129.338C142.696 128.748 142.629 128.139 142.648 127.53C142.629 126.927 142.692 126.324 142.834 125.737C143.047 125.146 143.438 124.635 143.953 124.274C144.467 123.913 145.081 123.719 145.709 123.719C146.338 123.719 146.951 123.913 147.466 124.274C147.98 124.635 148.371 125.146 148.585 125.737C148.739 126.327 148.809 126.936 148.793 127.545C148.81 128.155 148.74 128.763 148.585 129.353C148.378 129.949 147.991 130.466 147.477 130.832C146.963 131.198 146.348 131.394 145.717 131.394C145.086 131.394 144.47 131.198 143.956 130.832C143.442 130.466 143.055 129.949 142.849 129.353V129.338ZM147.61 129.026C147.705 128.536 147.745 128.036 147.729 127.538C147.749 127.039 147.709 126.539 147.61 126.05C147.496 125.635 147.249 125.27 146.907 125.009C146.565 124.749 146.147 124.608 145.717 124.608C145.287 124.608 144.869 124.749 144.527 125.009C144.185 125.27 143.937 125.635 143.823 126.05C143.726 126.539 143.686 127.039 143.704 127.538C143.685 128.037 143.725 128.536 143.823 129.026C143.937 129.44 144.185 129.806 144.527 130.066C144.869 130.327 145.287 130.468 145.717 130.468C146.147 130.468 146.565 130.327 146.907 130.066C147.249 129.806 147.496 129.44 147.61 129.026Z" fill="#263238"/>
<path d="M150.907 131.072V121.162C150.905 121.136 150.908 121.109 150.917 121.085C150.926 121.06 150.94 121.038 150.959 121.02C150.977 121.001 150.999 120.987 151.024 120.978C151.048 120.969 151.074 120.966 151.1 120.968H151.763C151.788 120.967 151.813 120.971 151.837 120.981C151.86 120.99 151.882 121.004 151.899 121.023C151.917 121.041 151.93 121.063 151.939 121.087C151.947 121.111 151.951 121.136 151.949 121.162V131.072C151.951 131.097 151.947 131.122 151.939 131.146C151.93 131.17 151.917 131.192 151.899 131.21C151.882 131.229 151.86 131.243 151.837 131.253C151.813 131.262 151.788 131.266 151.763 131.265H151.1C151.074 131.267 151.048 131.264 151.024 131.255C150.999 131.246 150.977 131.232 150.959 131.213C150.94 131.195 150.926 131.173 150.917 131.148C150.908 131.124 150.905 131.098 150.907 131.072Z" fill="#263238"/>
<path d="M159.67 126.206V131.101C159.672 131.127 159.669 131.153 159.66 131.178C159.651 131.202 159.637 131.225 159.618 131.243C159.6 131.262 159.577 131.276 159.553 131.285C159.528 131.294 159.502 131.297 159.476 131.295H158.814C158.788 131.297 158.762 131.294 158.737 131.285C158.713 131.276 158.691 131.262 158.672 131.243C158.654 131.225 158.64 131.202 158.631 131.178C158.622 131.153 158.618 131.127 158.621 131.101V130.573C158.621 130.514 158.576 130.484 158.531 130.573C158.228 130.865 157.869 131.092 157.475 131.241C157.081 131.389 156.66 131.456 156.24 131.436C154.99 131.436 153.814 130.834 153.814 129.293C153.814 127.753 154.93 126.913 156.843 126.913H158.546C158.556 126.914 158.567 126.913 158.576 126.909C158.586 126.906 158.594 126.901 158.602 126.893C158.609 126.886 158.614 126.878 158.617 126.868C158.621 126.858 158.622 126.848 158.621 126.838V126.206C158.644 125.979 158.615 125.749 158.535 125.535C158.456 125.32 158.328 125.127 158.162 124.97C157.996 124.814 157.796 124.697 157.577 124.63C157.359 124.563 157.128 124.547 156.902 124.584C155.979 124.584 155.377 124.971 155.213 125.588C155.21 125.613 155.201 125.637 155.188 125.659C155.174 125.68 155.156 125.698 155.135 125.712C155.114 125.725 155.09 125.734 155.064 125.737C155.039 125.74 155.014 125.738 154.99 125.73L154.246 125.648C154.134 125.648 154.06 125.588 154.075 125.484C154.261 124.413 155.355 123.676 156.865 123.676C158.68 123.706 159.67 124.718 159.67 126.206ZM158.598 128.877V127.746C158.6 127.736 158.598 127.726 158.595 127.716C158.592 127.707 158.586 127.698 158.579 127.691C158.572 127.683 158.563 127.678 158.554 127.675C158.544 127.671 158.534 127.67 158.524 127.672H156.984C155.704 127.672 154.834 128.215 154.834 129.16C154.834 130.104 155.578 130.469 156.456 130.469C157.564 130.484 158.598 129.926 158.598 128.877Z" fill="#263238"/>
<path d="M355.231 166.88H335.388C331.377 166.88 327.529 168.474 324.693 171.31C321.856 174.147 320.263 177.994 320.263 182.006V187.593L310.375 187.214L320.293 193.687V197.875C320.293 201.888 321.886 205.736 324.722 208.573C327.559 211.411 331.406 213.006 335.418 213.008H355.261C359.273 213.006 363.12 211.411 365.956 208.573C368.793 205.736 370.386 201.888 370.386 197.875V182.006C370.386 180.017 369.994 178.048 369.232 176.211C368.47 174.374 367.353 172.705 365.945 171.3C364.538 169.895 362.867 168.782 361.028 168.023C359.19 167.265 357.22 166.876 355.231 166.88Z" fill="white" stroke="#263238" stroke-miterlimit="10"/>
<path d="M337.495 195.1H338.157C338.182 195.099 338.206 195.103 338.229 195.112C338.252 195.121 338.273 195.135 338.291 195.152C338.308 195.17 338.322 195.191 338.331 195.214C338.34 195.237 338.344 195.262 338.343 195.286V205.196C338.345 205.222 338.342 205.247 338.333 205.271C338.325 205.295 338.311 205.317 338.294 205.335C338.276 205.353 338.255 205.368 338.231 205.377C338.208 205.387 338.182 205.391 338.157 205.39H337.495C337.469 205.392 337.443 205.389 337.418 205.38C337.394 205.371 337.371 205.357 337.353 205.338C337.334 205.32 337.32 205.297 337.311 205.273C337.302 205.248 337.299 205.222 337.301 205.196V200.732C337.302 200.722 337.301 200.712 337.298 200.702C337.295 200.693 337.289 200.684 337.282 200.677C337.275 200.67 337.266 200.664 337.257 200.661C337.247 200.658 337.237 200.657 337.227 200.658H332.569C332.559 200.657 332.549 200.658 332.54 200.661C332.53 200.664 332.521 200.67 332.514 200.677C332.507 200.684 332.502 200.693 332.498 200.702C332.495 200.712 332.494 200.722 332.495 200.732V205.196C332.497 205.222 332.494 205.248 332.485 205.273C332.476 205.297 332.462 205.32 332.443 205.338C332.425 205.357 332.403 205.371 332.378 205.38C332.354 205.389 332.328 205.392 332.302 205.39H331.639C331.613 205.392 331.587 205.389 331.563 205.38C331.538 205.371 331.516 205.357 331.498 205.338C331.479 205.32 331.465 205.297 331.456 205.273C331.447 205.248 331.444 205.222 331.446 205.196V195.286C331.445 195.261 331.449 195.236 331.459 195.212C331.468 195.188 331.482 195.167 331.501 195.149C331.519 195.132 331.541 195.118 331.565 195.11C331.589 195.101 331.614 195.098 331.639 195.1H332.302C332.327 195.098 332.352 195.101 332.376 195.11C332.4 195.118 332.422 195.132 332.44 195.149C332.459 195.167 332.473 195.188 332.482 195.212C332.492 195.236 332.496 195.261 332.495 195.286V199.683C332.494 199.693 332.495 199.704 332.498 199.713C332.502 199.723 332.507 199.731 332.514 199.739C332.521 199.746 332.53 199.751 332.54 199.754C332.549 199.758 332.559 199.759 332.569 199.758H337.227C337.237 199.759 337.247 199.758 337.257 199.754C337.266 199.751 337.275 199.746 337.282 199.739C337.289 199.731 337.295 199.723 337.298 199.713C337.301 199.704 337.302 199.693 337.301 199.683V195.286C337.3 195.261 337.304 195.236 337.314 195.212C337.323 195.188 337.338 195.167 337.356 195.149C337.374 195.132 337.396 195.118 337.42 195.11C337.444 195.101 337.469 195.098 337.495 195.1Z" fill="#263238"/>
<path d="M345.632 203.507C345.641 203.483 345.655 203.461 345.673 203.443C345.691 203.424 345.713 203.41 345.737 203.402C345.762 203.393 345.788 203.39 345.813 203.393C345.839 203.396 345.864 203.404 345.885 203.418L346.309 203.656C346.414 203.716 346.458 203.805 346.399 203.902C346.151 204.408 345.761 204.83 345.275 205.116C344.79 205.402 344.231 205.538 343.668 205.509C343.071 205.549 342.477 205.39 341.98 205.058C341.482 204.725 341.108 204.238 340.915 203.671C340.7 203.017 340.604 202.329 340.633 201.64C340.605 201.069 340.65 200.496 340.767 199.936C340.923 199.31 341.292 198.758 341.81 198.374C342.329 197.99 342.964 197.798 343.609 197.831C344.334 197.777 345.05 198.014 345.601 198.488C346.152 198.962 346.492 199.636 346.548 200.36C346.625 200.852 346.655 201.351 346.637 201.848C346.639 201.874 346.636 201.9 346.627 201.924C346.618 201.948 346.604 201.97 346.585 201.988C346.567 202.006 346.544 202.019 346.52 202.027C346.495 202.035 346.469 202.038 346.443 202.034H341.741C341.731 202.033 341.721 202.034 341.712 202.038C341.702 202.041 341.693 202.046 341.686 202.053C341.679 202.061 341.673 202.069 341.67 202.079C341.667 202.088 341.666 202.099 341.667 202.109C341.655 202.471 341.685 202.833 341.756 203.188C341.864 203.625 342.124 204.009 342.489 204.272C342.855 204.535 343.301 204.66 343.75 204.623C344.138 204.638 344.522 204.541 344.856 204.343C345.19 204.145 345.459 203.855 345.632 203.507ZM341.786 200.122C341.706 200.451 341.666 200.788 341.667 201.127C341.666 201.137 341.667 201.147 341.67 201.156C341.673 201.166 341.679 201.175 341.686 201.182C341.693 201.189 341.702 201.195 341.712 201.198C341.721 201.201 341.731 201.202 341.741 201.201H345.521C345.53 201.201 345.54 201.199 345.548 201.195C345.557 201.192 345.565 201.186 345.571 201.179C345.577 201.172 345.582 201.164 345.585 201.155C345.588 201.146 345.589 201.136 345.588 201.127C345.58 200.81 345.553 200.495 345.506 200.182C345.411 199.756 345.169 199.378 344.821 199.115C344.474 198.852 344.044 198.721 343.609 198.746C343.19 198.717 342.775 198.84 342.44 199.093C342.105 199.346 341.873 199.712 341.786 200.122Z" fill="#263238"/>
<path d="M348.706 205.196V195.286C348.705 195.261 348.709 195.236 348.718 195.212C348.728 195.188 348.742 195.167 348.76 195.149C348.779 195.132 348.801 195.118 348.824 195.11C348.848 195.101 348.874 195.098 348.899 195.1H349.561C349.586 195.098 349.612 195.101 349.635 195.11C349.659 195.118 349.68 195.132 349.698 195.15C349.716 195.167 349.729 195.189 349.738 195.212C349.746 195.236 349.75 195.261 349.747 195.286V205.196C349.751 205.222 349.748 205.248 349.74 205.272C349.732 205.297 349.719 205.319 349.701 205.338C349.683 205.357 349.661 205.371 349.637 205.38C349.613 205.389 349.587 205.392 349.561 205.39H348.899C348.873 205.392 348.847 205.389 348.823 205.38C348.798 205.371 348.776 205.357 348.757 205.338C348.739 205.32 348.725 205.297 348.716 205.273C348.707 205.248 348.703 205.222 348.706 205.196Z" fill="#263238"/>
<path d="M352.122 205.196V195.286C352.121 195.262 352.125 195.237 352.134 195.214C352.143 195.191 352.156 195.17 352.174 195.152C352.191 195.135 352.212 195.121 352.235 195.112C352.258 195.103 352.283 195.099 352.308 195.1H352.97C352.995 195.098 353.021 195.101 353.045 195.11C353.069 195.118 353.09 195.132 353.109 195.149C353.127 195.167 353.141 195.188 353.151 195.212C353.16 195.236 353.164 195.261 353.163 195.286V205.196C353.166 205.222 353.162 205.248 353.153 205.273C353.144 205.297 353.13 205.32 353.112 205.338C353.093 205.357 353.071 205.371 353.047 205.38C353.022 205.389 352.996 205.392 352.97 205.39H352.308C352.282 205.391 352.257 205.387 352.233 205.377C352.21 205.368 352.189 205.353 352.171 205.335C352.153 205.317 352.14 205.295 352.131 205.271C352.123 205.247 352.12 205.222 352.122 205.196Z" fill="#263238"/>
<path d="M355.498 203.463C355.342 202.873 355.272 202.264 355.29 201.655C355.273 201.051 355.338 200.448 355.483 199.862C355.697 199.271 356.088 198.76 356.602 198.399C357.117 198.038 357.73 197.844 358.359 197.844C358.987 197.844 359.601 198.038 360.115 198.399C360.63 198.76 361.021 199.271 361.234 199.862C361.385 200.452 361.453 201.061 361.435 201.67C361.455 202.279 361.387 202.888 361.234 203.478C361.028 204.074 360.64 204.591 360.126 204.957C359.612 205.323 358.997 205.519 358.366 205.519C357.735 205.519 357.12 205.323 356.606 204.957C356.092 204.591 355.705 204.074 355.498 203.478V203.463ZM360.26 203.158C360.353 202.668 360.393 202.169 360.379 201.67C360.398 201.171 360.358 200.671 360.26 200.182C360.145 199.767 359.898 199.402 359.556 199.141C359.214 198.881 358.796 198.74 358.366 198.74C357.936 198.74 357.518 198.881 357.176 199.141C356.834 199.402 356.587 199.767 356.473 200.182C356.376 200.672 356.336 201.171 356.354 201.67C356.335 202.169 356.375 202.668 356.473 203.158C356.587 203.572 356.834 203.938 357.176 204.198C357.518 204.459 357.936 204.6 358.366 204.6C358.796 204.6 359.214 204.459 359.556 204.198C359.898 203.938 360.145 203.572 360.26 203.158Z" fill="#263238"/>
<path d="M358.058 173.48H332.799V189.386H358.058V173.48Z" fill="white" stroke="#263238" stroke-linecap="round" stroke-linejoin="round"/>
<path d="M358.192 173.48H332.934V175.02H358.192V173.48Z" fill="#263238"/>
<path d="M358.192 175.89H332.934V177.43H358.192V175.89Z" fill="#263238"/>
<path d="M358.192 178.293H332.934V179.833H358.192V178.293Z" fill="#263238"/>
<path d="M358.192 180.704H332.934V182.244H358.192V180.704Z" fill="#263238"/>
<path d="M358.192 183.114H332.934V184.654H358.192V183.114Z" fill="#263238"/>
<path d="M358.192 185.525H332.934V187.065H358.192V185.525Z" fill="#263238"/>
<path d="M358.192 187.936H332.934V189.476H358.192V187.936Z" fill="#263238"/>
<path d="M345.045 173.48H332.799V181.954H345.045V173.48Z" fill="#263238"/>
<path d="M333.276 174.194L333.387 174.432L333.626 174.469L333.454 174.655L333.492 174.916L333.276 174.796L333.068 174.916L333.105 174.655L332.934 174.469L333.172 174.432L333.276 174.194Z" fill="white"/>
<path d="M333.276 175.764L333.387 176.002L333.626 176.039L333.454 176.225L333.492 176.485L333.276 176.359L333.068 176.485L333.105 176.225L332.934 176.039L333.172 176.002L333.276 175.764Z" fill="white"/>
<path d="M333.276 177.326L333.387 177.564L333.626 177.601L333.454 177.787L333.492 178.048L333.276 177.921L333.068 178.048L333.105 177.787L332.934 177.601L333.172 177.564L333.276 177.326Z" fill="white"/>
<path d="M333.276 178.888L333.387 179.127L333.626 179.171L333.454 179.35L333.492 179.61L333.276 179.491L333.068 179.61L333.105 179.35L332.934 179.171L333.172 179.127L333.276 178.888Z" fill="white"/>
<path d="M333.276 180.458L333.387 180.696L333.626 180.734L333.454 180.92L333.492 181.18L333.276 181.054L333.068 181.18L333.105 180.92L332.934 180.734L333.172 180.696L333.276 180.458Z" fill="white"/>
<path d="M334.399 175.109L334.503 175.347L334.741 175.384L334.57 175.57L334.607 175.831L334.399 175.712L334.183 175.831L334.22 175.57L334.049 175.384L334.287 175.347L334.399 175.109Z" fill="white"/>
<path d="M334.399 176.679L334.503 176.917L334.741 176.954L334.57 177.14L334.607 177.4L334.399 177.274L334.183 177.4L334.22 177.14L334.049 176.954L334.287 176.917L334.399 176.679Z" fill="white"/>
<path d="M334.399 178.241L334.503 178.479L334.741 178.516L334.57 178.702L334.607 178.963L334.399 178.844L334.183 178.963L334.22 178.702L334.049 178.516L334.287 178.479L334.399 178.241Z" fill="white"/>
<path d="M334.399 179.804L334.503 180.042L334.741 180.079L334.57 180.265L334.607 180.525L334.399 180.406L334.183 180.525L334.22 180.265L334.049 180.079L334.287 180.042L334.399 179.804Z" fill="white"/>
<path d="M335.516 174.194L335.627 174.432L335.865 174.469L335.687 174.655L335.731 174.916L335.516 174.796L335.3 174.916L335.345 174.655L335.166 174.469L335.412 174.432L335.516 174.194Z" fill="white"/>
<path d="M335.516 175.764L335.627 176.002L335.865 176.039L335.687 176.225L335.731 176.485L335.516 176.359L335.3 176.485L335.345 176.225L335.166 176.039L335.412 176.002L335.516 175.764Z" fill="white"/>
<path d="M335.516 177.326L335.627 177.564L335.865 177.601L335.687 177.787L335.731 178.048L335.516 177.921L335.3 178.048L335.345 177.787L335.166 177.601L335.412 177.564L335.516 177.326Z" fill="white"/>
<path d="M335.516 178.888L335.627 179.127L335.865 179.171L335.687 179.35L335.731 179.61L335.516 179.491L335.3 179.61L335.345 179.35L335.166 179.171L335.412 179.127L335.516 178.888Z" fill="white"/>
<path d="M335.516 180.458L335.627 180.696L335.865 180.734L335.687 180.92L335.731 181.18L335.516 181.054L335.3 181.18L335.345 180.92L335.166 180.734L335.412 180.696L335.516 180.458Z" fill="white"/>
<path d="M336.639 175.109L336.743 175.347L336.981 175.384L336.81 175.57L336.847 175.831L336.639 175.712L336.423 175.831L336.46 175.57L336.289 175.384L336.527 175.347L336.639 175.109Z" fill="white"/>
<path d="M336.639 176.679L336.743 176.917L336.981 176.954L336.81 177.14L336.847 177.4L336.639 177.274L336.423 177.4L336.46 177.14L336.289 176.954L336.527 176.917L336.639 176.679Z" fill="white"/>
<path d="M336.639 178.241L336.743 178.479L336.981 178.516L336.81 178.702L336.847 178.963L336.639 178.844L336.423 178.963L336.46 178.702L336.289 178.516L336.527 178.479L336.639 178.241Z" fill="white"/>
<path d="M336.639 179.804L336.743 180.042L336.981 180.079L336.81 180.265L336.847 180.525L336.639 180.406L336.423 180.525L336.46 180.265L336.289 180.079L336.527 180.042L336.639 179.804Z" fill="white"/>
<path d="M337.754 174.194L337.858 174.432L338.096 174.469L337.925 174.655L337.97 174.916L337.754 174.796L337.538 174.916L337.575 174.655L337.404 174.469L337.642 174.432L337.754 174.194Z" fill="white"/>
<path d="M337.754 175.764L337.858 176.002L338.096 176.039L337.925 176.225L337.97 176.485L337.754 176.359L337.538 176.485L337.575 176.225L337.404 176.039L337.642 176.002L337.754 175.764Z" fill="white"/>
<path d="M337.754 177.326L337.858 177.564L338.096 177.601L337.925 177.787L337.97 178.048L337.754 177.921L337.538 178.048L337.575 177.787L337.404 177.601L337.642 177.564L337.754 177.326Z" fill="white"/>
<path d="M337.754 178.888L337.858 179.127L338.096 179.171L337.925 179.35L337.97 179.61L337.754 179.491L337.538 179.61L337.575 179.35L337.404 179.171L337.642 179.127L337.754 178.888Z" fill="white"/>
<path d="M337.754 180.458L337.858 180.696L338.096 180.734L337.925 180.92L337.97 181.18L337.754 181.054L337.538 181.18L337.575 180.92L337.404 180.734L337.642 180.696L337.754 180.458Z" fill="white"/>
<path d="M338.87 175.109L338.981 175.347L339.219 175.384L339.048 175.57L339.085 175.831L338.87 175.712L338.654 175.831L338.698 175.57L338.527 175.384L338.765 175.347L338.87 175.109Z" fill="white"/>
<path d="M338.87 176.679L338.981 176.917L339.219 176.954L339.048 177.14L339.085 177.4L338.87 177.274L338.654 177.4L338.698 177.14L338.527 176.954L338.765 176.917L338.87 176.679Z" fill="white"/>
<path d="M338.87 178.241L338.981 178.479L339.219 178.516L339.048 178.702L339.085 178.963L338.87 178.844L338.654 178.963L338.698 178.702L338.527 178.516L338.765 178.479L338.87 178.241Z" fill="white"/>
<path d="M338.87 179.804L338.981 180.042L339.219 180.079L339.048 180.265L339.085 180.525L338.87 180.406L338.654 180.525L338.698 180.265L338.527 180.079L338.765 180.042L338.87 179.804Z" fill="white"/>
<path d="M339.994 174.194L340.098 174.432L340.336 174.469L340.165 174.655L340.203 174.916L339.994 174.796L339.778 174.916L339.816 174.655L339.645 174.469L339.883 174.432L339.994 174.194Z" fill="white"/>
<path d="M339.994 175.764L340.098 176.002L340.336 176.039L340.165 176.225L340.203 176.485L339.994 176.359L339.778 176.485L339.816 176.225L339.645 176.039L339.883 176.002L339.994 175.764Z" fill="white"/>
<path d="M339.994 177.326L340.098 177.564L340.336 177.601L340.165 177.787L340.203 178.048L339.994 177.921L339.778 178.048L339.816 177.787L339.645 177.601L339.883 177.564L339.994 177.326Z" fill="white"/>
<path d="M339.994 178.888L340.098 179.127L340.336 179.171L340.165 179.35L340.203 179.61L339.994 179.491L339.778 179.61L339.816 179.35L339.645 179.171L339.883 179.127L339.994 178.888Z" fill="white"/>
<path d="M339.994 180.458L340.098 180.696L340.336 180.734L340.165 180.92L340.203 181.18L339.994 181.054L339.778 181.18L339.816 180.92L339.645 180.734L339.883 180.696L339.994 180.458Z" fill="white"/>
<path d="M341.109 175.109L341.214 175.347L341.459 175.384L341.281 175.57L341.325 175.831L341.109 175.712L340.894 175.831L340.938 175.57L340.76 175.384L341.005 175.347L341.109 175.109Z" fill="white"/>
<path d="M341.109 176.679L341.214 176.917L341.459 176.954L341.281 177.14L341.325 177.4L341.109 177.274L340.894 177.4L340.938 177.14L340.76 176.954L341.005 176.917L341.109 176.679Z" fill="white"/>
<path d="M341.109 178.241L341.214 178.479L341.459 178.516L341.281 178.702L341.325 178.963L341.109 178.844L340.894 178.963L340.938 178.702L340.76 178.516L341.005 178.479L341.109 178.241Z" fill="white"/>
<path d="M341.109 179.804L341.214 180.042L341.459 180.079L341.281 180.265L341.325 180.525L341.109 180.406L340.894 180.525L340.938 180.265L340.76 180.079L341.005 180.042L341.109 179.804Z" fill="white"/>
<path d="M342.225 174.194L342.337 174.432L342.575 174.469L342.404 174.655L342.441 174.916L342.225 174.796L342.017 174.916L342.054 174.655L341.883 174.469L342.121 174.432L342.225 174.194Z" fill="white"/>
<path d="M342.225 175.764L342.337 176.002L342.575 176.039L342.404 176.225L342.441 176.485L342.225 176.359L342.017 176.485L342.054 176.225L341.883 176.039L342.121 176.002L342.225 175.764Z" fill="white"/>
<path d="M342.225 177.326L342.337 177.564L342.575 177.601L342.404 177.787L342.441 178.048L342.225 177.921L342.017 178.048L342.054 177.787L341.883 177.601L342.121 177.564L342.225 177.326Z" fill="white"/>
<path d="M342.225 178.888L342.337 179.127L342.575 179.171L342.404 179.35L342.441 179.61L342.225 179.491L342.017 179.61L342.054 179.35L341.883 179.171L342.121 179.127L342.225 178.888Z" fill="white"/>
<path d="M342.225 180.458L342.337 180.696L342.575 180.734L342.404 180.92L342.441 181.18L342.225 181.054L342.017 181.18L342.054 180.92L341.883 180.734L342.121 180.696L342.225 180.458Z" fill="white"/>
<path d="M343.35 175.109L343.454 175.347L343.692 175.384L343.521 175.57L343.565 175.831L343.35 175.712L343.134 175.831L343.171 175.57L343 175.384L343.238 175.347L343.35 175.109Z" fill="white"/>
<path d="M343.35 176.679L343.454 176.917L343.692 176.954L343.521 177.14L343.565 177.4L343.35 177.274L343.134 177.4L343.171 177.14L343 176.954L343.238 176.917L343.35 176.679Z" fill="white"/>
<path d="M343.35 178.241L343.454 178.479L343.692 178.516L343.521 178.702L343.565 178.963L343.35 178.844L343.134 178.963L343.171 178.702L343 178.516L343.238 178.479L343.35 178.241Z" fill="white"/>
<path d="M343.35 179.804L343.454 180.042L343.692 180.079L343.521 180.265L343.565 180.525L343.35 180.406L343.134 180.525L343.171 180.265L343 180.079L343.238 180.042L343.35 179.804Z" fill="white"/>
<path d="M344.465 174.194L344.577 174.432L344.815 174.469L344.644 174.655L344.681 174.916L344.465 174.796L344.25 174.916L344.294 174.655L344.123 174.469L344.361 174.432L344.465 174.194Z" fill="white"/>
<path d="M344.465 175.764L344.577 176.002L344.815 176.039L344.644 176.225L344.681 176.485L344.465 176.359L344.25 176.485L344.294 176.225L344.123 176.039L344.361 176.002L344.465 175.764Z" fill="white"/>
<path d="M344.465 177.326L344.577 177.564L344.815 177.601L344.644 177.787L344.681 178.048L344.465 177.921L344.25 178.048L344.294 177.787L344.123 177.601L344.361 177.564L344.465 177.326Z" fill="white"/>
<path d="M344.465 178.888L344.577 179.127L344.815 179.171L344.644 179.35L344.681 179.61L344.465 179.491L344.25 179.61L344.294 179.35L344.123 179.171L344.361 179.127L344.465 178.888Z" fill="white"/>
<path d="M344.465 180.458L344.577 180.696L344.815 180.734L344.644 180.92L344.681 181.18L344.465 181.054L344.25 181.18L344.294 180.92L344.123 180.734L344.361 180.696L344.465 180.458Z" fill="white"/>
<path d="M168.197 189.885H155.154C153.196 183.762 148.998 178.604 143.401 175.443C137.803 172.282 131.218 171.351 124.964 172.835C118.709 174.32 113.246 178.111 109.666 183.45C106.086 188.79 104.654 195.284 105.656 201.634C106.658 207.984 110.02 213.721 115.07 217.699C120.12 221.677 126.485 223.601 132.893 223.088C139.301 222.574 145.279 219.661 149.631 214.93C153.983 210.198 156.389 203.999 156.367 197.57C156.367 197.377 156.367 197.191 156.367 196.997L168.197 189.885Z" fill="white" stroke="#263238" stroke-miterlimit="10"/>
<path d="M118.49 206.074C118.03 206.879 117.511 207.647 116.935 208.373C116.743 208.094 116.532 207.828 116.303 207.577C117.909 205.427 119.11 203.001 119.844 200.42L121.064 200.784C121.005 200.933 120.878 200.963 120.715 200.948C120.317 202.135 119.85 203.298 119.316 204.43L119.74 204.549C119.74 204.638 119.643 204.713 119.45 204.72V214.072H118.49V206.074ZM128.556 206.431C128.675 205.888 128.824 205.062 128.951 204.266H126.027V212.852C126.027 213.909 125.647 214.102 123.586 214.102C123.512 213.75 123.389 213.409 123.222 213.09C123.586 213.09 123.966 213.09 124.219 213.09H124.807C125 213.09 125.06 213.031 125.06 212.837V204.266H122.694C122.313 205.251 121.813 206.185 121.206 207.049C120.983 206.819 120.733 206.617 120.462 206.446C121.671 204.637 122.497 202.598 122.887 200.457L124.107 200.784C124.107 200.889 123.981 200.948 123.787 200.933C123.584 201.75 123.335 202.555 123.043 203.344H129.538H130.059C129.908 204.433 129.687 205.512 129.397 206.573L128.556 206.431ZM123.854 206.915C123.81 207.019 123.706 207.079 123.527 207.079C123.098 208.841 122.341 210.507 121.295 211.989C121.052 211.795 120.79 211.625 120.514 211.483C121.557 210.004 122.289 208.328 122.664 206.558L123.854 206.915ZM129.189 211.87C128.747 210.096 128.069 208.389 127.173 206.796L128.043 206.491C128.969 208.06 129.673 209.75 130.134 211.513L129.189 211.87Z" fill="#263238"/>
<path d="M136.219 203.493L136.777 203.634L136.688 203.842C136.578 206.015 136.1 208.153 135.274 210.166C135.916 210.631 136.503 211.168 137.023 211.766L136.42 212.577C135.955 212.01 135.428 211.496 134.85 211.044C134.176 212.312 133.17 213.374 131.941 214.117C131.766 213.824 131.559 213.552 131.323 213.306C132.503 212.641 133.462 211.645 134.084 210.442C133.546 210.036 132.987 209.658 132.41 209.311L132.231 209.958L131.39 209.519C131.762 208.224 132.216 206.357 132.64 204.46H131.152V203.53H132.826C133.064 202.429 133.265 201.372 133.444 200.427L134.649 200.576C134.649 200.68 134.545 200.74 134.359 200.755C134.195 201.595 133.987 202.548 133.771 203.53H136.003L136.219 203.493ZM133.57 204.46C133.258 205.829 132.923 207.205 132.611 208.41C133.228 208.753 133.861 209.154 134.478 209.578C135.144 207.944 135.555 206.218 135.698 204.46H133.57ZM144.79 206.989V207.942H141.241V212.807C141.241 213.938 140.802 214.117 138.198 214.087C138.111 213.748 137.989 213.419 137.833 213.105H139.597C140.095 213.105 140.244 213.105 140.244 212.793V207.912H136.643V206.96H140.244V204.46H140.728C141.539 203.743 142.27 202.94 142.908 202.064H137.246V201.134H143.652L143.845 201.075L144.626 201.566C144.563 201.635 144.48 201.684 144.388 201.707C143.486 202.968 142.429 204.11 141.241 205.107V206.93L144.79 206.989Z" fill="#263238"/>
<path d="M143.532 179.923H118.273V195.829H143.532V179.923Z" fill="#263238" stroke="#263238" stroke-linecap="round" stroke-linejoin="round"/>
<path d="M121.259 180.86L121.876 182.103L123.238 182.296L122.248 183.263L122.486 184.617L121.259 183.977L120.039 184.617L120.277 183.263L119.287 182.296L120.649 182.103L121.259 180.86Z" fill="white"/>
<path d="M125.222 180.376L125.542 181.016L126.242 181.12L125.736 181.612L125.855 182.311L125.222 181.984L124.597 182.311L124.716 181.612L124.203 181.12L124.91 181.016L125.222 180.376Z" fill="white"/>
<path d="M126.08 183.605L126.392 184.245L127.099 184.342L126.586 184.84L126.705 185.54L126.08 185.212L125.447 185.54L125.566 184.84L125.061 184.342L125.76 184.245L126.08 183.605Z" fill="white"/>
<path d="M123.98 185.718L124.293 186.351L124.999 186.455L124.494 186.953L124.613 187.653L123.98 187.318L123.355 187.653L123.474 186.953L122.961 186.455L123.668 186.351L123.98 185.718Z" fill="white"/>
<path d="M121.072 186.686L121.384 187.318L122.091 187.422L121.585 187.921L121.704 188.62L121.072 188.293L120.447 188.62L120.566 187.921L120.053 187.422L120.76 187.318L121.072 186.686Z" fill="white"/>
<path d="M272.788 129.539C272.788 125.486 271.99 121.473 270.439 117.729C268.888 113.985 266.615 110.583 263.749 107.717C260.883 104.851 257.481 102.578 253.737 101.027C249.993 99.4761 245.979 98.6779 241.927 98.6779H231.183C222.999 98.6779 215.149 101.929 209.361 107.717C203.574 113.504 200.322 121.354 200.322 129.539" stroke="#263238" stroke-width="3" stroke-linecap="round" stroke-linejoin="round"/>
<path d="M272.789 152.395V129.539" stroke="#263238" stroke-width="6" stroke-linecap="round" stroke-linejoin="round"/>
<path d="M200.322 129.539V152.395" stroke="#263238" stroke-width="6" stroke-linecap="round" stroke-linejoin="round"/>
<path d="M222.486 186.686C222.486 186.686 224.413 200.145 224.027 203.604C223.64 207.064 222.873 210.523 213.261 206.677C203.648 202.83 186.35 209.757 175.198 223.209C164.045 236.66 142.908 281.65 142.908 287.029C142.908 292.408 147.134 299.677 154.812 300.867C162.49 302.058 180.569 280.11 180.569 280.11C180.569 280.11 188.255 323.552 188.255 326.982C188.255 330.412 184.81 353.126 184.81 353.126H293.613L289.379 325.062L297.072 263.161C297.072 263.161 328.983 306.604 335.902 308.545C342.821 310.487 353.587 307.005 356.28 298.933C358.973 290.86 354.74 282.401 349.353 276.248C343.967 270.095 310.145 215.888 303.969 210.895C297.794 205.903 280.518 205.509 274.366 207.049C268.213 208.589 257.834 210.895 255.141 209.355C252.447 207.815 252.455 193.211 255.141 186.671C255.163 186.686 231.712 192.838 222.486 186.686Z" fill="#92E3A9" stroke="#263238" stroke-linecap="round" stroke-linejoin="round"/>
<path d="M207.457 303.747C208.697 304.225 209.961 304.64 211.244 304.989" stroke="#263238" stroke-linecap="round" stroke-linejoin="round"/>
<path d="M187.615 279.083C187.615 279.083 189.326 294.022 203.403 301.849" stroke="#263238" stroke-linecap="round" stroke-linejoin="round"/>
<path d="M231.4 235.328L238.885 246.265" stroke="#263238" stroke-linecap="round" stroke-linejoin="round"/>
<path d="M305.412 245.782L307.391 241.66" stroke="#263238" stroke-linecap="round" stroke-linejoin="round"/>
<path d="M302.206 240.507L297.072 263.191L303.381 250.03" stroke="#263238" stroke-linecap="round" stroke-linejoin="round"/>
<path d="M325.256 281.382C325.256 281.382 333.38 276.174 341.378 276.174" stroke="#263238" stroke-linecap="round" stroke-linejoin="round"/>
<path d="M308.723 296.984C313.875 294.198 318.798 291.009 323.446 287.446C330.124 282.321 338.509 279.946 346.882 280.809C354.553 281.635 358.705 291.173 358.905 300.718C359.106 310.264 353.928 316.06 344.598 317.511C335.269 318.961 324.272 316.893 317.435 315.234C313.816 314.315 310.143 313.622 306.439 313.158C306.439 313.158 297.525 299.469 308.723 296.984Z" fill="white" stroke="#263238" stroke-linecap="round" stroke-linejoin="round"/>
<path d="M358.907 300.718C358.706 291.173 354.554 281.635 346.884 280.809C338.511 279.946 330.125 282.321 323.448 287.446L322.406 288.242C331.334 288.547 349.384 292.192 346.556 317.124C354.651 315.182 359.1 309.565 358.907 300.718Z" fill="#92E3A9" stroke="#263238" stroke-linecap="round" stroke-linejoin="round"/>
<path d="M222.487 186.686C222.487 186.686 224.414 200.145 224.027 203.604C223.737 206.201 223.231 208.812 218.945 208.306C225.076 218.328 242.88 241.853 259.493 209.794C257.559 209.913 255.997 209.794 255.163 209.333C252.477 207.793 252.477 193.188 255.163 186.648C255.163 186.686 231.712 192.838 222.487 186.686Z" fill="white" stroke="#263238" stroke-linecap="round" stroke-linejoin="round"/>
<path d="M222.486 186.686C222.486 186.686 222.985 190.182 223.424 194.066C227.885 196.429 232.815 197.77 237.857 197.994C243.429 198.083 248.9 196.5 253.563 193.449C253.812 191.136 254.349 188.864 255.163 186.686C255.163 186.686 231.712 192.838 222.486 186.686Z" fill="#263238" stroke="#263238" stroke-linecap="round" stroke-linejoin="round"/>
<path d="M201.357 140.156H199.236C196.631 140.156 194.52 142.268 194.52 144.873V162.922C194.52 165.527 196.631 167.639 199.236 167.639H201.357C203.962 167.639 206.074 165.527 206.074 162.922V144.873C206.074 142.268 203.962 140.156 201.357 140.156Z" fill="#263238" stroke="#263238" stroke-linecap="round" stroke-linejoin="round"/>
<path d="M201.475 140.178C201.304 140.178 201.126 140.178 200.947 140.178H199.638C199.459 140.178 199.288 140.178 199.109 140.178V167.617C199.288 167.617 199.459 167.617 199.638 167.617H200.947C201.126 167.617 201.304 167.617 201.475 167.617V140.178Z" fill="white" stroke="#263238" stroke-linecap="round" stroke-linejoin="round"/>
<path d="M274.06 140.156H271.94C269.335 140.156 267.223 142.268 267.223 144.873V162.922C267.223 165.527 269.335 167.639 271.94 167.639H274.06C276.665 167.639 278.777 165.527 278.777 162.922V144.873C278.777 142.268 276.665 140.156 274.06 140.156Z" fill="#263238" stroke="#263238" stroke-linecap="round" stroke-linejoin="round"/>
<path d="M274.186 140.178C274.015 140.178 273.837 140.178 273.658 140.178H272.349C272.17 140.178 271.991 140.178 271.82 140.178V167.617C271.991 167.617 272.17 167.617 272.349 167.617H273.658C273.837 167.617 274.015 167.617 274.186 167.617V140.178Z" fill="white" stroke="#263238" stroke-linecap="round" stroke-linejoin="round"/>
<path d="M182.132 161.858C181.231 161.94 180.366 162.246 179.613 162.747C178.861 163.249 178.246 163.93 177.824 164.73C176.098 167.602 170.645 178.226 171.218 181.388C171.79 184.55 195.628 206.945 195.628 208.381C195.628 209.817 176.678 235.663 164.038 247.151C151.397 258.638 141.353 271.554 139.627 281.895C137.901 292.237 143.935 300.845 150.259 302.571C156.583 304.297 164.328 300.562 173.226 289.358C182.125 278.153 206.543 229.339 210.278 212.726C210.278 212.726 211.133 205.286 207.688 200.948C204.244 196.611 195.628 186.589 195.628 186.589C195.628 186.589 197.354 166.776 195.918 165.34C194.482 163.904 193.046 167.066 193.046 167.066C193.046 167.066 191.715 160.422 189.884 160.742C187.883 161.099 187.303 163.614 187.303 163.614C187.303 163.614 185.867 157.833 182.132 161.858Z" fill="white" stroke="#263238" stroke-linecap="round" stroke-linejoin="round"/>
<path d="M193.046 167.029C193.046 167.029 188.925 183.524 189.326 186.306" stroke="#263238" stroke-linecap="round" stroke-linejoin="round"/>
<path d="M187.302 163.577C187.302 163.577 182.935 179.618 182.377 181.85C182.191 182.58 182.157 183.34 182.278 184.084C182.398 184.827 182.67 185.538 183.076 186.172" stroke="#263238" stroke-linecap="round" stroke-linejoin="round"/>
<path d="M182.133 161.858C182.133 161.858 175.965 179.06 175.965 180.875C175.965 182.69 177.364 184.915 177.364 184.915" stroke="#263238" stroke-linecap="round" stroke-linejoin="round"/>
<path d="M176.641 233.736C172.715 238.452 168.507 242.924 164.038 247.128C151.39 258.608 141.353 271.531 139.627 281.873C137.901 292.215 143.935 300.823 150.259 302.549C156.583 304.275 164.328 300.54 173.226 289.335C178.352 282.892 188.605 263.995 197.101 245.938C184.156 242.5 178.814 237.144 176.641 233.736Z" fill="#92E3A9" stroke="#263238" stroke-linecap="round" stroke-linejoin="round"/>
<path d="M205.821 125.916C205.821 125.916 205.323 165.891 206.826 173.39C208.329 180.89 221.817 193.627 237.33 194.126C252.842 194.624 265.066 180.384 266.562 172.884C268.057 165.385 266.562 135.409 266.316 123.416C266.071 111.423 248.825 100.679 231.348 103.425C213.872 106.17 204.825 116.415 205.821 125.916Z" fill="white" stroke="#263238" stroke-linecap="round" stroke-linejoin="round"/>
<path d="M243.803 142.157C243.803 142.157 244.8 149.151 245.804 150.646C246.809 152.142 248.55 154.15 245.06 155.646C241.571 157.141 238.811 155.393 238.811 153.645" stroke="#263238" stroke-linecap="round" stroke-linejoin="round"/>
<path d="M247.551 166.888C247.551 166.888 234.055 168.614 228.059 162.662C228.059 162.662 229.547 171.91 234.055 173.413C238.564 174.916 247.551 166.888 247.551 166.888Z" fill="white" stroke="#263238" stroke-linecap="round" stroke-linejoin="round"/>
<path d="M230.061 142.403L231.31 146.398" stroke="#263238" stroke-linecap="round" stroke-linejoin="round"/>
<path d="M224.562 146.152C224.562 146.152 228.059 148.384 234.554 146.398" stroke="#263238" stroke-width="2" stroke-linecap="round" stroke-linejoin="round"/>
<path d="M254.545 142.403L255.795 146.398" stroke="#263238" stroke-linecap="round" stroke-linejoin="round"/>
<path d="M249.047 146.152C249.047 146.152 252.544 148.384 259.046 146.398" stroke="#263238" stroke-width="2" stroke-linecap="round" stroke-linejoin="round"/>
<path d="M222.814 135.409C224.036 133.78 225.619 132.458 227.44 131.548C229.261 130.637 231.269 130.164 233.305 130.164" stroke="#263238" stroke-width="2" stroke-linecap="round" stroke-linejoin="round"/>
<path d="M246.801 129.658C246.801 129.658 254.047 127.664 259.047 133.378" stroke="#263238" stroke-width="2" stroke-linecap="round" stroke-linejoin="round"/>
<path d="M237.464 140.342C238.099 141.426 238.426 142.662 238.41 143.918C238.394 145.174 238.036 146.402 237.374 147.469L237.233 147.693C236.189 149.37 234.734 150.754 233.007 151.713C231.279 152.673 229.336 153.176 227.36 153.176H225.798C224.21 153.176 222.65 152.758 221.273 151.966C219.897 151.173 218.753 150.033 217.956 148.66C217.371 147.653 217.028 146.524 216.953 145.362C216.878 144.201 217.074 143.037 217.524 141.964C218.066 140.673 218.958 139.559 220.099 138.748C221.24 137.937 222.585 137.461 223.982 137.373L231.095 136.927C232.369 136.85 233.639 137.128 234.764 137.731C235.888 138.334 236.823 139.238 237.464 140.342Z" stroke="#263238" stroke-linecap="round" stroke-linejoin="round"/>
<path d="M245.648 140.342C245.013 141.426 244.686 142.662 244.702 143.918C244.717 145.174 245.075 146.402 245.737 147.469L245.879 147.693C246.923 149.37 248.377 150.754 250.105 151.713C251.832 152.673 253.776 153.176 255.752 153.176H257.314C258.902 153.176 260.462 152.758 261.838 151.966C263.214 151.173 264.358 150.033 265.156 148.66C265.742 147.654 266.086 146.525 266.161 145.363C266.236 144.201 266.04 143.037 265.587 141.964C265.045 140.673 264.153 139.559 263.012 138.748C261.871 137.937 260.526 137.461 259.129 137.373L252.024 136.927C250.749 136.85 249.478 137.129 248.352 137.731C247.227 138.334 246.29 139.238 245.648 140.342Z" stroke="#263238" stroke-linecap="round" stroke-linejoin="round"/>
<path d="M238.305 141.651C238.305 141.651 240.537 139.903 244.8 141.651" stroke="#263238" stroke-linecap="round" stroke-linejoin="round"/>
<path d="M235.307 137.909H247.553" stroke="#263238" stroke-linecap="round" stroke-linejoin="round"/>
<path d="M217.509 141.956H205.82" stroke="#263238" stroke-linecap="round" stroke-linejoin="round"/>
<path d="M250.551 115.418C250.551 115.418 257.024 136.205 266.852 141.577C266.636 134.449 266.383 127.753 266.294 123.416C266.041 111.423 248.803 100.679 231.326 103.425C213.849 106.17 204.84 116.415 205.837 125.916C205.837 125.916 205.755 132.441 205.762 140.721C214.199 137.083 236.415 126.95 250.551 115.418Z" fill="#263238"/>
<mask id="mask0_2014_2784" style="mask-type:luminance" maskUnits="userSpaceOnUse" x="205" y="102" width="62" height="40">
<path d="M250.551 115.418C250.551 115.418 257.024 136.205 266.852 141.577C266.636 134.449 266.383 127.753 266.294 123.416C266.041 111.423 248.803 100.679 231.326 103.425C213.849 106.17 204.84 116.415 205.837 125.916C205.837 125.916 205.755 132.441 205.762 140.721C214.199 137.083 236.415 126.95 250.551 115.418Z" fill="white"/>
</mask>
<g mask="url(#mask0_2014_2784)">
<path d="M204.088 135.26C204.088 135.26 236.861 121.519 254.576 104.072" stroke="#737373" stroke-linecap="round" stroke-linejoin="round"/>
<path d="M201.439 124.16C201.439 124.16 235.805 116.229 255.632 95.3447" stroke="#737373" stroke-linecap="round" stroke-linejoin="round"/>
<path d="M256.949 106.445C256.949 106.445 257.477 119.926 271.755 132.351" stroke="#737373" stroke-linecap="round" stroke-linejoin="round"/>
</g>
<path d="M253.228 190.331C253.228 190.331 253.228 199.393 246.435 213.834C239.643 228.275 239.352 242.716 243.883 253.475C248.414 264.233 260.594 268.488 273.643 263.675C286.693 258.861 288.367 237.337 286.954 224.31C285.54 211.282 272.818 195.993 269.961 188.345C267.104 180.696 265.147 176.738 265.147 176.738C265.147 176.738 257.781 186.931 253.243 189.193L253.228 190.331Z" fill="#263238"/>
<mask id="mask1_2014_2784" style="mask-type:luminance" maskUnits="userSpaceOnUse" x="240" y="176" width="48" height="90">
<path d="M253.228 190.331C253.228 190.331 253.228 199.393 246.435 213.834C239.643 228.275 239.352 242.716 243.883 253.475C248.414 264.233 260.594 268.488 273.643 263.675C286.693 258.861 288.367 237.337 286.954 224.31C285.54 211.282 272.818 195.993 269.961 188.345C267.104 180.696 265.147 176.738 265.147 176.738C265.147 176.738 257.781 186.931 253.243 189.193L253.228 190.331Z" fill="white"/>
</mask>
<g mask="url(#mask1_2014_2784)">
<path d="M258.004 180.198C259.641 192.557 258.001 205.128 253.249 216.654C245.318 235.685 251.397 256.041 260.652 260.267C269.908 264.493 278.888 262.916 283.381 257.098" stroke="#737373" stroke-linecap="round" stroke-linejoin="round"/>
<path d="M261.441 175.972C261.441 175.972 270.429 197.116 266.731 212.979C263.034 228.841 264.618 248.966 275.719 252.894C286.819 256.822 293.166 248.966 293.166 248.966" stroke="#737373" stroke-linecap="round" stroke-linejoin="round"/>
<path d="M272.281 189.714C272.281 189.714 279.944 218.789 279.944 233.855C279.944 248.921 289.2 246.548 291.581 239.145" stroke="#737373" stroke-linecap="round" stroke-linejoin="round"/>
</g>
<path d="M253.228 190.331C253.228 190.331 253.228 199.393 246.435 213.834C239.643 228.275 239.352 242.716 243.883 253.475C248.414 264.233 260.594 268.488 273.643 263.675C286.693 258.861 288.367 237.337 286.954 224.31C285.54 211.282 272.818 195.993 269.961 188.345C267.104 180.696 265.147 176.738 265.147 176.738C265.147 176.738 257.781 186.931 253.243 189.193L253.228 190.331Z" stroke="#263238" stroke-linecap="round" stroke-linejoin="round"/>
<path d="M288.174 270.488L239.868 268.539C237.737 268.453 235.94 270.111 235.854 272.242L233.164 338.939C233.078 341.07 234.735 342.867 236.866 342.953L285.172 344.902C287.303 344.988 289.1 343.33 289.186 341.199L291.876 274.502C291.962 272.371 290.305 270.574 288.174 270.488Z" fill="#263238" stroke="#263238" stroke-linecap="round" stroke-linejoin="round"/>
<path d="M312.786 297.467C312.786 297.467 288.055 289.774 283.837 288.48C279.619 287.185 255.319 305.331 254.352 307.92C253.385 310.51 256.941 310.517 256.941 310.517C256.941 310.517 255.453 313.106 257.685 314.401C258.389 314.875 259.137 315.281 259.917 315.613C259.917 315.613 258.623 318.53 261.212 319.504C263.801 320.479 267.372 317.883 267.372 317.883L273.205 313.672C273.205 313.672 266.197 322.25 267.692 324.043C269.753 326.498 271.07 323.864 271.07 323.864L279.127 314.319L287.222 310.428C287.222 310.428 293.702 314.319 304.074 314.639C314.445 314.959 316.722 310.428 316.722 310.428" fill="white"/>
<path d="M312.786 297.467C312.786 297.467 288.055 289.774 283.837 288.48C279.619 287.185 255.319 305.331 254.352 307.92C253.385 310.51 256.941 310.517 256.941 310.517C256.941 310.517 255.453 313.106 257.685 314.401C258.389 314.875 259.137 315.281 259.917 315.613C259.917 315.613 258.623 318.53 261.212 319.504C263.801 320.479 267.372 317.883 267.372 317.883L273.205 313.672C273.205 313.672 266.197 322.25 267.692 324.043C269.753 326.498 271.07 323.864 271.07 323.864L279.127 314.319L287.222 310.428C287.222 310.428 293.702 314.319 304.074 314.639C314.445 314.959 316.722 310.428 316.722 310.428" stroke="#263238" stroke-linecap="round" stroke-linejoin="round"/>
<path d="M259.969 315.613C259.969 315.613 269.053 309.379 271.315 307.124C273.577 304.87 280.905 300.16 283.167 300.16" stroke="#263238" stroke-linecap="round" stroke-linejoin="round"/>
<path d="M273.258 313.694C273.258 313.694 277.722 308.65 279.403 307.898C281.085 307.147 283.54 306.016 283.54 306.016" stroke="#263238" stroke-linecap="round" stroke-linejoin="round"/>
<path d="M256.941 310.517C256.941 310.517 269.589 301.589 273.919 298.963C276.509 297.383 279.212 295.997 282.007 294.819" stroke="#263238" stroke-linecap="round" stroke-linejoin="round"/>
</g>
<defs>
<clipPath id="clip0_2014_2784">
<rect width="393" height="353" fill="white"/>
</clipPath>
</defs>
</svg>
