<svg width="30" height="30" viewBox="0 0 30 30" fill="none" xmlns="http://www.w3.org/2000/svg">
<path d="M12.1963 3.94238C12.4913 0.511204 17.5087 0.51119 17.8037 3.94238C17.8656 4.65952 18.76 4.94928 19.2314 4.40527C21.4869 1.80363 25.5463 4.75311 23.7686 7.70215C23.3968 8.31871 23.9491 9.07903 24.6504 8.91602C28.0046 8.13654 29.5548 12.9092 26.3828 14.25C25.7202 14.5305 25.7202 15.4695 26.3828 15.75C29.5548 17.0908 28.0046 21.8635 24.6504 21.084C23.9491 20.921 23.3968 21.6813 23.7686 22.2979C25.5464 25.2471 21.4868 28.1962 19.2314 25.5938C18.76 25.0499 17.8655 25.3405 17.8037 26.0576C17.5087 29.4888 12.4913 29.4888 12.1963 26.0576C12.1345 25.3405 11.24 25.0499 10.7686 25.5938C8.51315 28.1962 4.45356 25.2471 6.23145 22.2979C6.60318 21.6813 6.05086 20.921 5.34961 21.084C1.99537 21.8635 0.445159 17.0908 3.61719 15.75C4.2798 15.4695 4.2798 14.5305 3.61719 14.25C0.445162 12.9092 1.99537 8.13655 5.34961 8.91602C6.05086 9.07903 6.60318 8.31871 6.23145 7.70215C4.45368 4.75312 8.51306 1.80362 10.7686 4.40527C11.24 4.94928 12.1344 4.65952 12.1963 3.94238Z" stroke="#FAFAFA" stroke-width="2"/>
</svg>
