<svg width="17" height="14" viewBox="0 0 17 14" fill="none" xmlns="http://www.w3.org/2000/svg">
<mask id="path-1-inside-1_2072_3361" fill="white">
<path d="M7.40213 14H16.291V5.25C16.291 4.2835 15.4951 3.5 14.5132 3.5H10.9577M10.9577 14V1.75C10.9577 0.783501 10.1618 0 9.1799 0H2.06879C1.08695 0 0.291016 0.783501 0.291016 1.75V14H10.9577Z"/>
</mask>
<path d="M7.40213 12C6.29756 12 5.40213 12.8954 5.40213 14C5.40213 15.1046 6.29756 16 7.40213 16V14V12ZM16.291 14V16C17.3956 16 18.291 15.1046 18.291 14H16.291ZM10.9577 1.5C9.85311 1.5 8.95768 2.39543 8.95768 3.5C8.95768 4.60457 9.85311 5.5 10.9577 5.5V3.5V1.5ZM10.9577 14V16C12.0623 16 12.9577 15.1046 12.9577 14H10.9577ZM0.291016 14H-1.70898C-1.70898 15.1046 -0.813554 16 0.291016 16L0.291016 14ZM7.40213 14V16H16.291V14V12H7.40213V14ZM16.291 14H18.291V5.25H16.291H14.291V14H16.291ZM16.291 5.25H18.291C18.291 3.14937 16.5699 1.5 14.5132 1.5V3.5V5.5C14.4203 5.5 14.291 5.41763 14.291 5.25H16.291ZM14.5132 3.5V1.5H10.9577V3.5V5.5H14.5132V3.5ZM10.9577 14H12.9577V1.75H10.9577H8.95768V14H10.9577ZM10.9577 1.75H12.9577C12.9577 -0.350626 11.2366 -2 9.1799 -2V0V2C9.08699 2 8.95768 1.91763 8.95768 1.75H10.9577ZM9.1799 0V-2H2.06879V0V2H9.1799V0ZM2.06879 0V-2C0.0121947 -2 -1.70898 -0.350645 -1.70898 1.75H0.291016H2.29102C2.29102 1.91765 2.16171 2 2.06879 2V0ZM0.291016 1.75H-1.70898V14H0.291016H2.29102V1.75H0.291016ZM0.291016 14V16H10.9577V14V12H0.291016V14Z" fill="#FAFAFA" mask="url(#path-1-inside-1_2072_3361)"/>
</svg>
