<svg width="286" height="286" fill="none" xmlns="http://www.w3.org/2000/svg"><path d="M223.246 27.164S194.72 3.867 157.62 14.197c-37.099 10.33-52.623 42.288-73.908 64.258-11.142 11.51-27.604 15.753-40.84 24.597-42.3 28.331-36.06 92-3.404 116.024 28.257 20.792 63.567 22.966 109.51 7.63 45.943-15.335 78.827-24.55 107.324-68.474 28.497-43.924 2.082-99.453-33.056-131.068z" fill="#92E3A9"/><path opacity=".7" d="M223.246 27.164S194.72 3.867 157.62 14.197c-37.099 10.33-52.623 42.288-73.908 64.258-11.142 11.51-27.604 15.753-40.84 24.597-42.3 28.331-36.06 92-3.404 116.024 28.257 20.792 63.567 22.966 109.51 7.63 45.943-15.335 78.827-24.55 107.324-68.474 28.497-43.924 2.082-99.453-33.056-131.068z" fill="#fff"/><mask id="a" style="mask-type:luminance" maskUnits="userSpaceOnUse" x="14" y="80" width="59" height="95"><path d="M31.46 174.048v-20.477s2.546-8.232 6.452-9.084l3.901-.846 31.026.131V80H14.798v94.763l16.662-.715z" fill="#fff"/></mask><g mask="url(#a)"><path d="M53.768 92.979s0-2.54-3.557-6.092c-3.558-3.552-5.835-5.589-5.835-5.589s-1.779 5.84 1.522 9.398a62.531 62.531 0 0 0 7.87 6.864V92.98zM48.58 108.834s0-2.539-3.552-6.091-5.84-5.589-5.84-5.589-1.78 5.84 1.521 9.392a62.18 62.18 0 0 0 7.871 6.864v-4.576z" fill="#92E3A9"/><path d="M53.516 97.303s.269-2.523 4.176-5.686 6.372-4.936 6.372-4.936 1.144 5.994-2.505 9.18a62.177 62.177 0 0 1-8.58 5.984l.537-4.542zM47.282 116.024s.532-2.482 4.753-5.21c4.222-2.729 6.864-4.239 6.864-4.239s.515 6.08-3.432 8.866a62.028 62.028 0 0 1-9.152 5.051l.967-4.468zM48.454 136.439s0-2.54 3.558-6.092c3.558-3.552 5.834-5.582 5.834-5.582s1.78 5.834-1.521 9.392a62.605 62.605 0 0 1-7.87 6.864v-4.582z" fill="#92E3A9"/><path d="M48.397 141.421s.36-2.511-2.654-6.532c-3.015-4.021-4.982-6.361-4.982-6.361s-2.592 5.526.171 9.513a62.855 62.855 0 0 0 6.813 7.905l.652-4.525zM44.89 156.19s0-2.539 3.553-6.091c3.552-3.553 5.84-5.589 5.84-5.589s1.779 5.84-1.522 9.392a62.179 62.179 0 0 1-7.87 6.864v-4.576zM47.265 169.575s-.641-2.454 1.893-6.79c2.534-4.335 4.239-6.864 4.239-6.864s3.197 5.194.903 9.473a62.378 62.378 0 0 1-5.88 8.62l-1.155-4.439z" fill="#92E3A9"/><path d="M54.06 92.326a71.725 71.725 0 0 1-.972 7.883c-1.407 7.258-4.92 11.943-6.292 18.498-1.373 6.555 2.625 15.004 1.544 23.424-1.08 8.419-4.359 13.104-3.432 18.721.927 5.617 6 21.158 6 21.158M53.482 98.99l3.827-2.94M53.66 95.604l-1.607-2.849" stroke="#263238" stroke-linecap="round" stroke-linejoin="round"/><path d="M46.978 118.404s3.204-2.408 6.504-4.811M48.58 113.405s-2.67-5.24-5.68-8.729M48.58 140.048a39.664 39.664 0 0 1 6.864-9.152M47.957 143.612a44.84 44.84 0 0 0-3.472-6.589c-1.87-2.763-2.157-3.118-2.157-3.118M44.89 160.852a42.777 42.777 0 0 1 2.86-5.834 37.131 37.131 0 0 1 3.742-4.902M48.42 173.997a10.924 10.924 0 0 1 .961-5.623c1.339-2.58 2.86-5.966 3.478-7.305" stroke="#263238" stroke-linecap="round" stroke-linejoin="round"/><path d="M24.733 126.892s-.274-1.59 1.567-4.204c1.842-2.614 3.055-4.135 3.055-4.135s1.75 3.466.069 6.051a40.145 40.145 0 0 1-4.193 5.148l-.498-2.86zM29.693 136.273s-.274-1.59 1.567-4.204c1.842-2.614 3.06-4.135 3.06-4.135s1.717 3.466.064 6.051a39.157 39.157 0 0 1-4.193 5.148l-.498-2.86z" fill="#92E3A9"/><path d="M25.346 129.581s-.44-1.556-3.238-3.112c-2.797-1.556-4.547-2.402-4.547-2.402s-.069 3.884 2.568 5.485a39.818 39.818 0 0 0 6.012 2.826l-.795-2.797zM31.283 140.643s-.572-1.498-3.547-2.751c-2.974-1.253-4.77-1.91-4.77-1.91s.337 3.866 3.129 5.182a39.73 39.73 0 0 0 6.292 2.179l-1.104-2.7zM32.764 153.571s-.275-1.591-2.889-3.432c-2.614-1.842-4.267-2.86-4.267-2.86s-.48 3.855 1.974 5.72a40.045 40.045 0 0 0 5.68 3.432l-.498-2.86z" fill="#92E3A9"/><path d="M33.342 156.688s-.498-1.533.955-4.382c1.453-2.848 2.437-4.53 2.437-4.53s2.225 3.186.927 5.983a39.33 39.33 0 0 1-3.432 5.72l-.887-2.791zM37.804 169.529s.189-1.601 2.688-3.592c2.5-1.99 4.125-3.106 4.125-3.106s.697 3.821-1.648 5.829a39.533 39.533 0 0 1-5.474 3.758l.309-2.889zM37.146 165.571s-.275-1.59-2.86-3.432c-2.586-1.842-4.268-2.86-4.268-2.86s-.48 3.855 1.974 5.72a39.59 39.59 0 0 0 5.68 3.432l-.526-2.86zM37.111 174.225s.138-1.613-1.927-4.055c-2.065-2.442-3.403-3.855-3.403-3.855s-1.442 3.603.463 6.034a39.585 39.585 0 0 0 4.621 4.771l.246-2.895z" fill="#92E3A9"/><path d="M24.465 126.521c.398 1.637.887 3.25 1.464 4.833 1.67 4.404 4.382 6.956 5.972 10.914 1.59 3.958 0 9.724 1.573 14.872s4.153 7.739 4.175 11.365c.023 3.627-1.304 13.437-1.304 13.437M25.552 130.633l-2.723-1.424M25.071 128.528l.698-1.962M31.735 142.102l-4.576-2.288" stroke="#263238" stroke-linecap="round" stroke-linejoin="round"/><path d="M30.185 139.139a32.586 32.586 0 0 1 2.63-6.08M33.079 155.853a25.145 25.145 0 0 0-5.297-5.011M33.857 158.015a28.358 28.358 0 0 1 1.465-4.507c.87-1.934 1-2.185 1-2.185M37.53 171.245a24.012 24.012 0 0 1 2.922-3.037 15.703 15.703 0 0 0 1.905-1.653M37.65 168.494a27.005 27.005 0 0 0-2.443-3.346 23.778 23.778 0 0 0-2.86-2.666M36.866 177.12a6.953 6.953 0 0 0-1.213-3.432c-1.144-1.476-2.437-3.432-2.974-4.204" stroke="#263238" stroke-linecap="round" stroke-linejoin="round"/></g><path d="M258.538 57.646h-40.469v52.996h40.469V57.646z" stroke="#263238" stroke-linecap="round" stroke-linejoin="round"/><path d="M252.287 65.832h-27.96v36.613h27.96V65.832zM197.677 38.376H166.04v41.43h31.637v-41.43z" stroke="#263238" stroke-linecap="round" stroke-linejoin="round"/><path d="M192.793 44.776h-21.862V73.4h21.862V44.776z" stroke="#263238" stroke-linecap="round" stroke-linejoin="round"/><path opacity=".37" d="m39.033 243.844-1.853 5.737h203.632l-1.304-5.44-200.475-.297z" fill="#000"/><path d="M244.689 176.971c.126-9.958.258-14.958.258-19.076 0-12.79-11.44-14.254-11.44-14.254h-191.7s-10.045-1.099-10.045 13.613c0 5.274-.383 11.578-.154 20.02M54.586 194.451h167.459" stroke="#263238" stroke-linecap="round" stroke-linejoin="round"/><path d="M31.763 208.626v11.68a4.003 4.003 0 0 0 4.004 4.004h66.695v-16.931c0-5.978.44-12.991.44-12.991v-43.872s-.68-3.838.572-6.395M102.49 224.333h78.702l.497-29.882v-43.592s-.131-4.158-1.716-7.035M181.192 224.333h59.963a3.7 3.7 0 0 0 3.701-3.587c.143-4.982.389-10.09.389-11.834" stroke="#263238" stroke-linecap="round" stroke-linejoin="round"/><path d="m17.331 205.045 6.069 38.799h230.676l6.069-39.32" stroke="#263238" stroke-linecap="round" stroke-linejoin="round"/><path d="m28.21 244.141 3.004 8.42h4.513l3.306-8.717-10.822.297zM239.508 244.141l3.003 8.42h4.513l3.306-8.717-10.822.297z" fill="#263238" stroke="#263238" stroke-linecap="round" stroke-linejoin="round"/><path d="M38.324 206.744a16.906 16.906 0 0 1-6.372 1.882 23.79 23.79 0 0 1-12.659-2.706c-3.043-1.579-7.436-3.604-7.024-7.711.412-4.107 3.432-8.437 6.023-11.531a32.123 32.123 0 0 1 10.062-8.151c4.713-2.351 10.513-3.913 15.226-1.956a24.33 24.33 0 0 1 7.328 5.016c2.58 2.483 5.908 6.361 4.907 10.25-.932 3.621-5.188 6.104-7.956 8.249-2.974 2.293-6.103 4.919-9.535 6.658zM238.174 206.744a16.947 16.947 0 0 0 6.372 1.882 23.82 23.82 0 0 0 12.67-2.706c3.038-1.579 7.436-3.604 7.019-7.711-.418-4.107-3.432-8.437-6.023-11.531a32.13 32.13 0 0 0-10.062-8.151c-4.713-2.351-10.513-3.913-15.227-1.956a24.327 24.327 0 0 0-7.321 5.039c-2.58 2.482-5.909 6.361-4.908 10.25.932 3.621 5.188 6.103 7.962 8.248 2.963 2.271 6.081 4.897 9.518 6.636z" stroke="#263238" stroke-linecap="round" stroke-linejoin="round"/><path d="M244.547 208.626h-61.319s-1.796.503-1.796-4.451c0 0-.126 4.422-3.317 4.422h-74.618s-1.229.126-1.109-2.706c.12-2.831-.12 2.214-.984 2.706s-68.714 0-68.714 0" stroke="#263238" stroke-linecap="round" stroke-linejoin="round"/><path opacity=".37" d="M139.567 277.803c13.796 0 24.979-4.609 24.979-10.296 0-5.686-11.183-10.296-24.979-10.296s-24.979 4.61-24.979 10.296c0 5.687 11.183 10.296 24.979 10.296z" fill="#000"/><path d="M122.082 82.94s-.841-3.97-3.61-3.97c-2.768 0-3.495 3.06-1.75 6.555 1.745 3.495 6.704 5.686 6.995 3.644.292-2.042-1.635-6.229-1.635-6.229z" fill="#fff" stroke="#263238" stroke-linecap="round" stroke-linejoin="round"/><path d="M165.422 67.107s1.207 4.033 0 7.86a19.725 19.725 0 0 1-3.026 6.045V69.527l3.026-2.42z" fill="#263238" stroke="#263238" stroke-linecap="round" stroke-linejoin="round"/><path d="M128.7 256.513s-4.359 6.761-8.506 10.033c-4.147 3.272-3.489 4.794-.435 5.451 3.055.658 7.631-.217 10.468-3.054a27.369 27.369 0 0 0 4.364-5.669l-.114 1.579a.189.189 0 0 0 .108.179c.033.016.071.021.108.016a.182.182 0 0 0 .098-.046l3.289-3.037a9.106 9.106 0 0 0 .218-5.675c-.87-3.266-6.103-3.706-9.598.223z" fill="#fff" stroke="#263238" stroke-linecap="round" stroke-linejoin="round"/><path d="M123.42 270.893c-3.861.206-5.428-.634-6.04-1.184-.389 1.19.572 1.899 2.385 2.288 3.054.653 7.63-.217 10.467-3.054a27.373 27.373 0 0 0 4.365-5.669l-.115 1.579a.197.197 0 0 0 .027.106.191.191 0 0 0 .288.043l3.289-3.037a8.54 8.54 0 0 0 .538-3.633 508.003 508.003 0 0 0-4.937 4.822c-2.231 2.254-4.61 7.442-10.267 7.739zM151.717 256.513s4.365 6.761 8.506 10.033c4.141 3.272 3.489 4.794.44 5.451-3.048.658-7.636-.217-10.473-3.054a27.44 27.44 0 0 1-4.359-5.669l.109 1.579a.189.189 0 0 1-.108.179c-.033.016-.071.021-.108.016a.185.185 0 0 1-.099-.046l-3.283-3.026a9.053 9.053 0 0 1-.217-5.674c.875-3.278 6.103-3.718 9.592.211z" fill="#fff" stroke="#263238" stroke-linecap="round" stroke-linejoin="round"/><path d="M156.905 271.042c-5.062-1.487-7.145-4.765-8.632-6.698-1.31-1.716-5.497-4.948-6.486-5.72a8.36 8.36 0 0 0 .572 3.329l3.283 3.037a.194.194 0 0 0 .099.047.2.2 0 0 0 .108-.016.193.193 0 0 0 .108-.179l-.109-1.579a27.494 27.494 0 0 0 4.359 5.669c2.86 2.86 7.436 3.706 10.473 3.054 1.933-.418 2.894-1.184 2.288-2.517a5.713 5.713 0 0 1-6.063 1.573z" fill="#fff" stroke="#263238" stroke-linecap="round" stroke-linejoin="round"/><path d="m140.139 169.226-24.098-2.351.435 1.304s2.86 25.083 5.234 37.077c2.373 11.995 4.147 17.012 4.147 17.012-.103 2.575.19 5.15.869 7.636 1.093 3.489 1.31 12.012 2.179 16.359.87 4.347.441 6.761.441 6.761s-2.403 2.614-2.185 3.266c.14.497.213 1.011.217 1.528 0 0 1.31 3.489 4.799 3.489 3.489 0 6.544-2.832 6.544-2.832l.869-72.335.572-.04.544.04.875 72.335s3.054 2.832 6.543 2.832c3.49 0 4.794-3.489 4.794-3.489a5.647 5.647 0 0 1 .223-1.528c.217-.652-2.185-3.266-2.185-3.266s-.435-2.402.44-6.761c.875-4.358 1.087-12.87 2.18-16.359.677-2.486.968-5.062.863-7.636 0 0 1.745-5.017 4.147-17.012 2.403-11.994 5.234-37.088 5.234-37.088l.435-1.304-24.116 2.362z" fill="#263238"/><mask id="b" style="mask-type:luminance" maskUnits="userSpaceOnUse" x="116" y="166" width="49" height="96"><path d="m140.139 169.226-24.098-2.351.435 1.304s2.86 25.083 5.234 37.077c2.373 11.995 4.147 17.012 4.147 17.012-.103 2.575.19 5.15.869 7.636 1.093 3.489 1.31 12.012 2.179 16.359.87 4.347.441 6.761.441 6.761s-2.403 2.614-2.185 3.266c.14.497.213 1.011.217 1.528 0 0 1.31 3.489 4.799 3.489 3.489 0 6.544-2.832 6.544-2.832l.869-72.335.572-.04.544.04.875 72.335s3.054 2.832 6.543 2.832c3.49 0 4.794-3.489 4.794-3.489a5.647 5.647 0 0 1 .223-1.528c.217-.652-2.185-3.266-2.185-3.266s-.435-2.402.44-6.761c.875-4.358 1.087-12.87 2.18-16.359.677-2.486.968-5.062.863-7.636 0 0 1.745-5.017 4.147-17.012 2.403-11.994 5.234-37.088 5.234-37.088l.435-1.304-24.116 2.362z" fill="#fff"/></mask><g mask="url(#b)" stroke="#7D7D7D" stroke-linecap="round" stroke-linejoin="round"><path d="M150.527 232.804c-2.94 5.045-6.675 11.011-9.895 14.803M155.681 223.526s-1.19 2.288-3.026 5.56M158.233 228.388s-5.56 15.513-17.83 22.926M145.957 230.241s-4.862 9.724-5.554 10.868M123.031 222.834s7.436 14.123 17.372 15.513M125.582 237.42s8.58 5.325 15.049 6.252M134.42 255.518a14.86 14.86 0 0 0 6 .887M129.363 253.024a21.412 21.412 0 0 0 2.54 1.453M134.843 250.153a9.675 9.675 0 0 0 5.325 2.78M153.599 251.108s-5.325 4.633-8.105 5.789"/></g><path d="m140.139 169.226-24.098-2.351.435 1.304s2.86 25.083 5.234 37.077c2.373 11.995 4.147 17.012 4.147 17.012-.103 2.575.19 5.15.869 7.636 1.093 3.489 1.31 12.012 2.179 16.359.87 4.347.441 6.761.441 6.761s-2.403 2.614-2.185 3.266c.14.497.213 1.011.217 1.528 0 0 1.31 3.489 4.799 3.489 3.489 0 6.544-2.832 6.544-2.832l.869-72.335.572-.04.544.04.875 72.335s3.054 2.832 6.543 2.832c3.49 0 4.794-3.489 4.794-3.489a5.647 5.647 0 0 1 .223-1.528c.217-.652-2.185-3.266-2.185-3.266s-.435-2.402.44-6.761c.875-4.358 1.087-12.87 2.18-16.359.677-2.486.968-5.062.863-7.636 0 0 1.745-5.017 4.147-17.012 2.403-11.994 5.234-37.088 5.234-37.088l.435-1.304-24.116 2.362z" stroke="#263238" stroke-linecap="round" stroke-linejoin="round"/><path d="M158.151 95.34s-10.473-1.967-16.793-1.967c-6.321 0-16.588 3.49-16.588 3.49l6.789 74.165s3.924 1.716 10.902 1.716c6.979 0 13.523-3.272 13.523-3.272l2.167-74.131z" fill="#fff" stroke="#263238" stroke-linecap="round" stroke-linejoin="round"/><path d="M142.954 122.214c7.566 0 13.7-6.047 13.7-13.505 0-7.459-6.134-13.505-13.7-13.505-7.566 0-13.699 6.046-13.699 13.505 0 7.458 6.133 13.505 13.699 13.505z" fill="#fff" stroke="#263238" stroke-linecap="round" stroke-linejoin="round"/><path d="M142.954 118.907c5.715 0 10.347-4.566 10.347-10.198 0-5.633-4.632-10.2-10.347-10.2s-10.348 4.567-10.348 10.2c0 5.632 4.633 10.198 10.348 10.198z" fill="#fff" stroke="#263238" stroke-linecap="round" stroke-linejoin="round"/><path opacity=".3" d="M126.194 99.934s-1.195 24.768 15.215 29.241c16.411 4.473 23.572-20.289 21.485-27.748-2.088-7.459-30.734-11.623-36.7-1.493z" fill="#000"/><path d="M142.953 112.581c7.033 0 12.733-4.566 12.733-10.199 0-5.632-5.7-10.199-12.733-10.199-7.032 0-12.732 4.567-12.732 10.199 0 5.633 5.7 10.199 12.732 10.199z" fill="#263238" stroke="#263238" stroke-linecap="round" stroke-linejoin="round"/><path d="M178.464 126.195s45.319 15.169 50.994 6.177c3.06-4.856-9.41-12.904-17.286-15.53-7.877-2.625-29.744-12.961-29.744-12.961" fill="#92E3A9"/><mask id="c" style="mask-type:luminance" maskUnits="userSpaceOnUse" x="178" y="103" width="52" height="33"><path d="M178.464 126.195s45.319 15.169 50.994 6.177c3.06-4.856-9.41-12.904-17.286-15.53-7.877-2.625-29.744-12.961-29.744-12.961" fill="#fff"/></mask><g mask="url(#c)"><path opacity=".3" d="M216.536 129.032c-6.389 0-31.231-5.806-37.282-7.242l-.778 4.405s45.319 15.169 50.993 6.177c.172-.274.299-.573.378-.886a42.302 42.302 0 0 0-13.311-2.454z" fill="#000"/><path d="m186.517 117.872-5.577 9.507 5.577-5.28" stroke="#263238" stroke-linecap="round" stroke-linejoin="round"/></g><path d="M178.464 126.195s45.319 15.169 50.994 6.177c3.06-4.856-9.41-12.904-17.286-15.53-7.877-2.625-29.744-12.961-29.744-12.961" stroke="#263238" stroke-linecap="round" stroke-linejoin="round"/><path d="m182.599 119.491-12.675 57.417-19.236 4.811 1.601-42.408 2.912-38.033 1.144-7.144s25.94 8.889 27.833 10.205c1.893 1.315 1.144 8.58 1.144 8.58" fill="#92E3A9"/><mask id="d" style="mask-type:luminance" maskUnits="userSpaceOnUse" x="150" y="94" width="36" height="88"><path d="m182.599 119.491-12.675 57.417-19.236 4.811 1.601-42.408 2.912-38.033 1.144-7.144s25.94 8.889 27.833 10.205c1.893 1.315 1.144 8.58 1.144 8.58" fill="#fff"/></mask><g mask="url(#d)"><path opacity=".3" d="m180.958 126.927-20.867 39.645s4.319-16.205 4.05-18.092c-.155-1.098-6.864 2.888-12.441 6.435l-1.012 26.804 19.236-4.811 11.034-49.981zM160.36 96.096s6.755 4.856 5.943 15.661c-.812 10.805-3.243 9.187-3.243 9.187s1.624 2.425 0 2.7c-1.625.274-4.576-4.862-5.148-3.513-.572 1.35-3.781 2.969-3.781 2.969l1.052-21.81s.858-5.766 5.177-5.194z" fill="#000"/><path d="M166.303 103.995s2.288 5.72.904 13.877M168.871 112.747s1.052 2.259-2.568 11.314M173.699 146.689s-8.3 16.142-17.2 22.932M163.741 155.138s-1.058 1.813-5.869 5.594" stroke="#263238" stroke-linecap="round" stroke-linejoin="round"/></g><path d="m182.599 119.491-12.675 57.417-19.236 4.811 1.601-42.408 2.912-38.033 1.144-7.144s25.94 8.889 27.833 10.205c1.893 1.315 1.144 8.58 1.144 8.58" stroke="#263238" stroke-linecap="round" stroke-linejoin="round"/><path d="M158.844 93.7a15.459 15.459 0 0 1 1.607 6.263c0 3.209.143 11.079.869 14.723.727 3.644 3.061 7.865 2.334 7.722-.726-.143-1.601-2.042-3.495-4.227-1.893-2.185-2.477-5.686-3.5-4.954-1.024.733-2.912 6.996-2.912 6.996s.292-13.116.727-18.07c.434-4.953 1.458-11.514 4.37-8.454z" fill="#92E3A9"/><mask id="e" style="mask-type:luminance" maskUnits="userSpaceOnUse" x="153" y="92" width="11" height="31"><path d="M158.844 93.7a15.459 15.459 0 0 1 1.607 6.263c0 3.209.143 11.079.869 14.723.727 3.644 3.061 7.865 2.334 7.722-.726-.143-1.601-2.042-3.495-4.227-1.893-2.185-2.477-5.686-3.5-4.954-1.024.733-2.912 6.996-2.912 6.996s.292-13.116.727-18.07c.434-4.953 1.458-11.514 4.37-8.454z" fill="#fff"/></mask><g mask="url(#e)"><path opacity=".3" d="M158.844 93.7a15.459 15.459 0 0 1 1.607 6.263c0 3.209.143 11.079.869 14.723.727 3.644 3.061 7.865 2.334 7.722-.726-.143-1.601-2.042-3.495-4.227-1.893-2.185-2.477-5.686-3.5-4.954-1.024.733-2.912 6.996-2.912 6.996s.292-13.116.727-18.07c.434-4.953 1.458-11.514 4.37-8.454z" fill="#000"/></g><path d="M158.844 93.7a15.459 15.459 0 0 1 1.607 6.263c0 3.209.143 11.079.869 14.723.727 3.644 3.061 7.865 2.334 7.722-.726-.143-1.601-2.042-3.495-4.227-1.893-2.185-2.477-5.686-3.5-4.954-1.024.733-2.912 6.996-2.912 6.996s.292-13.116.727-18.07c.434-4.953 1.458-11.514 4.37-8.454z" stroke="#263238" stroke-linecap="round" stroke-linejoin="round"/><path d="M100.128 106.392s-18.144 30.184-20.97 36.431c-2.825 6.246-6.692 12.012-5.65 14.569 1.04 2.556 4.004 4.461 9.815 4.164 5.812-.298 24.39-32.564 24.39-32.564l-7.585-22.6z" fill="#92E3A9"/><mask id="f" style="mask-type:luminance" maskUnits="userSpaceOnUse" x="73" y="106" width="35" height="56"><path d="M100.128 106.392s-18.144 30.184-20.97 36.431c-2.825 6.246-6.692 12.012-5.65 14.569 1.04 2.556 4.004 4.461 9.815 4.164 5.812-.298 24.39-32.564 24.39-32.564l-7.585-22.6z" fill="#fff"/></mask><g mask="url(#f)"><path opacity=".3" d="M92.56 152.512c5.371-7.247 11.228-16.902 13.802-21.244l-2.991-7.91-17.572 32.409 6.76-3.255z" fill="#000"/><path d="m97.353 119.834 7.848 13.728-8.448-6.784M83.174 144.716s5.72 2.86 8.145 8.3M88.15 144.276s2.569 3.02 3.472 6.337" stroke="#263238" stroke-linecap="round" stroke-linejoin="round"/></g><path d="M100.128 106.392s-18.144 30.184-20.97 36.431c-2.825 6.246-6.692 12.012-5.65 14.569 1.04 2.556 4.004 4.461 9.815 4.164 5.812-.298 24.39-32.564 24.39-32.564l-7.585-22.6z" stroke="#263238" stroke-linecap="round" stroke-linejoin="round"/><path d="m102.296 119.491 12.676 57.417 19.23 4.811-1.601-42.408-2.912-38.033-1.144-7.144s-25.957 8.889-27.873 10.205c-1.916 1.315-1.144 8.58-1.144 8.58" fill="#92E3A9"/><mask id="g" style="mask-type:luminance" maskUnits="userSpaceOnUse" x="99" y="94" width="36" height="88"><path d="m102.296 119.491 12.676 57.417 19.23 4.811-1.601-42.408-2.912-38.033-1.144-7.144s-25.957 8.889-27.873 10.205c-1.916 1.315-1.144 8.58-1.144 8.58" fill="#fff"/></mask><g mask="url(#g)"><path opacity=".3" d="m114.971 176.908 19.237 4.811-.801-21.256-25.099-13.751 6.663 30.196z" fill="#000"/><path d="M111.539 148.051s5.148 6.789 10.868 10.708" stroke="#263238" stroke-linecap="round" stroke-linejoin="round"/><path opacity=".3" d="M124.438 115.544s-3.507 7.024-1.619 7.293c1.887.269 3.552-7.121 5.943-4.862l2.385 2.288-2.116-13.339a19.06 19.06 0 0 0-4.593 8.62z" fill="#000"/><path d="M123.305 96.903s-3.775 10.868-2.717 20.065M118.93 103.086s-1.814 9.506.148 14.786" stroke="#263238" stroke-linecap="round" stroke-linejoin="round"/></g><path d="m102.296 119.491 12.676 57.417 19.23 4.811-1.601-42.408-2.912-38.033-1.144-7.144s-25.957 8.889-27.873 10.205c-1.916 1.315-1.144 8.58-1.144 8.58" stroke="#263238" stroke-linecap="round" stroke-linejoin="round"/><path d="M126.051 93.7a15.473 15.473 0 0 0-1.601 6.263c0 3.209-.149 11.079-.875 14.723-.727 3.644-3.061 7.865-2.311 7.722.749-.143 1.601-2.042 3.495-4.227 1.893-2.185 2.482-5.686 3.5-4.954 1.018.733 2.912 6.996 2.912 6.996s-.292-13.116-.727-18.07c-.434-4.953-1.481-11.514-4.393-8.454z" fill="#92E3A9"/><mask id="h" style="mask-type:luminance" maskUnits="userSpaceOnUse" x="121" y="92" width="11" height="31"><path d="M126.051 93.7a15.473 15.473 0 0 0-1.601 6.263c0 3.209-.149 11.079-.875 14.723-.727 3.644-3.061 7.865-2.311 7.722.749-.143 1.601-2.042 3.495-4.227 1.893-2.185 2.482-5.686 3.5-4.954 1.018.733 2.912 6.996 2.912 6.996s-.292-13.116-.727-18.07c-.434-4.953-1.481-11.514-4.393-8.454z" fill="#fff"/></mask><g mask="url(#h)"><path opacity=".3" d="M127.086 99.934s-1.744 5.8-.297 9.547c1.447 3.746 4.176 9.249 4.176 9.249l-.572-16.588" fill="#000"/></g><path d="M126.051 93.7a15.473 15.473 0 0 0-1.601 6.263c0 3.209-.149 11.079-.875 14.723-.727 3.644-3.061 7.865-2.311 7.722.749-.143 1.601-2.042 3.495-4.227 1.893-2.185 2.482-5.686 3.5-4.954 1.018.733 2.912 6.996 2.912 6.996s-.292-13.116-.727-18.07c-.434-4.953-1.481-11.514-4.393-8.454z" stroke="#263238" stroke-linecap="round" stroke-linejoin="round"/><path d="M121.704 72.547s0 12.492 1.613 19.745 4.834 13.293 13.093 16.72c8.26 3.426 18.133-1.007 22.365-6.246 4.233-5.24 3.827-19.94 3.827-23.166 0-3.227.2-13.5.2-13.5s-1.613-4.833-8.666-9.472c-7.052-4.639-14.099-6.864-22.965-1.413s-9.467 17.332-9.467 17.332z" fill="#fff" stroke="#263238" stroke-linecap="round" stroke-linejoin="round"/><path d="m150.149 85.64 4.548-.143M146.74 97.085s.669-2.39 4.204-2.962" stroke="#263238" stroke-linecap="round" stroke-linejoin="round"/><path d="M143.189 86.063v3.129a3.312 3.312 0 0 1 1.275 2.557c.143 1.847-1.527 2.826-3.106 1.624" fill="#fff"/><path d="M143.189 86.063v3.129a3.312 3.312 0 0 1 1.275 2.557c.143 1.847-1.527 2.826-3.106 1.624" stroke="#263238" stroke-linecap="round" stroke-linejoin="round"/><path d="M133.47 84.284h-.48a1.432 1.432 0 0 1-1.43-1.43h3.34a1.43 1.43 0 0 1-1.43 1.43z" fill="#263238"/><path d="M130.124 82.757h6.303M130.124 83.924h6.303" stroke="#263238" stroke-linecap="round" stroke-linejoin="round"/><path d="M153.044 82.66c0 1.058-.446 1.91-1.001 1.91-.555 0-1.001-.852-1.001-1.91 0-1.058.446-1.905 1.001-1.905.555 0 1.001.852 1.001 1.905z" fill="#263238"/><path d="M145.579 77.088s3.787-2.185 13.259-.875M138.584 75.921a13.594 13.594 0 0 0-11.074-6.412" stroke="#263238" stroke-width="3" stroke-linecap="round" stroke-linejoin="round"/><path d="M169.048 53.196c-2.62-5.44-11.886-13.9-21.358-14.3-8.1-.349-10.868 2.7-11.526 3.586-.355-.257-5.789-4.004-14.992.572a.287.287 0 0 0-.142.32.287.287 0 0 0 .273.218.252.252 0 0 0 .126-.029c6.778-3.391 11.503-2.041 13.431-1.144-1.236-.211-3.467-.291-6.71.704-5.239 1.613-10.868 7.053-12.286 16.52-1.419 9.466 3.02 17.525 4.633 19.139 1.613 1.613 1.813 5.039 1.813 5.039l-.406-10.48s-.2-.806 2.219-2.413c1.991-1.333 10.702-10.199 13.688-13.265.538 2.86 2.002 8.466 5.646 12.253a.29.29 0 0 0 .206.085.268.268 0 0 0 .2-.08.268.268 0 0 0 .062-.091.27.27 0 0 0 0-.218.267.267 0 0 0-.062-.091c-3.724-3.878-5.108-9.724-5.566-12.361l.527-.538s2.413 6.647 6.446 10.073c4.033 3.427 9.266 6.246 17.526 3.627 8.26-2.62 11.28-6.447 11.28-6.447s-2.408-5.228-5.028-10.679z" fill="#263238"/><mask id="i" style="mask-type:luminance" maskUnits="userSpaceOnUse" x="115" y="38" width="60" height="46"><path d="M169.048 53.196c-2.62-5.44-11.886-13.9-21.358-14.3-8.1-.349-10.868 2.7-11.526 3.586-.355-.257-5.789-4.004-14.992.572a.287.287 0 0 0-.142.32.287.287 0 0 0 .273.218.252.252 0 0 0 .126-.029c6.778-3.391 11.503-2.041 13.431-1.144-1.236-.211-3.467-.291-6.71.704-5.239 1.613-10.868 7.053-12.286 16.52-1.419 9.466 3.02 17.525 4.633 19.139 1.613 1.613 1.813 5.039 1.813 5.039l-.406-10.48s-.2-.806 2.219-2.413c1.991-1.333 10.702-10.199 13.688-13.265.538 2.86 2.002 8.466 5.646 12.253a.29.29 0 0 0 .206.085.268.268 0 0 0 .2-.08.268.268 0 0 0 .062-.091.27.27 0 0 0 0-.218.267.267 0 0 0-.062-.091c-3.724-3.878-5.108-9.724-5.566-12.361l.527-.538s2.413 6.647 6.446 10.073c4.033 3.427 9.266 6.246 17.526 3.627 8.26-2.62 11.28-6.447 11.28-6.447s-2.408-5.228-5.028-10.679z" fill="#fff"/></mask><g mask="url(#i)" stroke="#7D7D7D" stroke-linecap="round" stroke-linejoin="round"><path d="M159.707 63.263c13.659 1.888 16.182-.915 16.182-.915M139.566 48.334s4.325 9.724 14.655 13.585M139.281 44.902s16.588 7.71 23.166 8.008c6.578.297 7.436-1.144 7.436-1.144M136.135 48.906s-12.298 6.578-15.73 14.014c-3.432 7.436-2.002 12.584-2.002 12.584M120.388 50.84a17.295 17.295 0 0 0-2.288 2.07M134.99 46.618a24.117 24.117 0 0 0-12.458 2.814"/></g><path d="M140.22 80.269a21.552 21.552 0 0 0-17.635 0s-1.676.166-1.676 1.51 1.173 1.172 1.173 1.172.229 6.355 2.86 8.232c2.351 1.681 7.562 2.184 10.244 1.178 2.683-1.007 4.37-2.86 4.874-4.536.503-1.676.16-7.556.16-7.556zM144.195 80.269a21.54 21.54 0 0 1 17.629 0s1.681.166 1.681 1.51-1.172 1.161-1.172 1.161-.229 6.355-2.86 8.231c-2.351 1.682-7.556 2.185-10.245 1.178-2.688-1.006-4.364-2.86-4.867-4.536-.504-1.675-.166-7.544-.166-7.544z" stroke="#263238" stroke-width="3" stroke-linecap="round" stroke-linejoin="round"/><path d="M140.22 80.269a5.365 5.365 0 0 1 4.004 0M140.723 82.786h2.854" stroke="#263238" stroke-width="3" stroke-linecap="round" stroke-linejoin="round"/><path d="M161.304 82.94s.846-3.97 3.615-3.97c2.768 0 3.495 3.06 1.744 6.555-1.75 3.495-6.703 5.686-6.989 3.644-.286-2.042 1.63-6.229 1.63-6.229z" stroke="#263238" stroke-linecap="round" stroke-linejoin="round"/><path d="M173.121 76.94s-7.579.148-12.098-.292c-4.519-.44-1.144 3.432.801 3.62 2.345.284 4.708.39 7.07.315a12.53 12.53 0 0 1 5.096.876s2.483-2.769-.869-4.52z" fill="#fff" stroke="#263238" stroke-linecap="round" stroke-linejoin="round"/><path d="M168.453 90.948a33.804 33.804 0 0 1-3.786-5.686c-1.459-2.911-1.894-4.221.875-3.935 2.768.286 3.935 2.917 4.662 5.102.726 2.185 2.476 2.185 2.476 2.185l2.477-7.138 4.959 4.37-4.513 15.284s-6.12-3.06-6.995-4.37c-.876-1.31-.006-4.668-.155-5.812z" fill="#fff" stroke="#263238" stroke-linecap="round" stroke-linejoin="round"/><path d="M182.153 81.602s-.435-2.329-2.477-2.769c-2.042-.44-5.537-2.911-6.704-2.477-1.167.435-3.352 7.436-3.352 8.58 0 1.144 1.31 2.334 1.75 2.334.441 0 4.233-6.687 4.233-6.687l6.55 1.019z" fill="#fff" stroke="#263238" stroke-linecap="round" stroke-linejoin="round"/><path d="M182.302 83.352s.726-1.602 0-2.328c-.727-.727-5.394-2.191-6.996-2.483-1.601-.291-1.893.292-2.768 2.483-.875 2.19-2.769 5.245-1.893 5.972.875.726 2.036 1.601 2.036 1.601l3.06-6.263 6.561 1.018z" fill="#fff" stroke="#263238" stroke-linecap="round" stroke-linejoin="round"/><path d="M175.157 90.496s-2.911-1.144-3.352-2.042c-.44-.898 2.477-8.162 2.918-8.305.44-.143 2.328.434 2.911.726.583.292 5.102 1.018 5.394 2.917.292 1.9-2.769 12.676-2.477 13.843.292 1.167 2.626 2.476 2.626 2.476l-3.501 5.972s-5.537-4.805-7.579-5.829c-2.042-1.023.732-4.37 1.459-6.12.726-1.75 1.601-3.638 1.601-3.638z" fill="#fff" stroke="#263238" stroke-linecap="round" stroke-linejoin="round"/><path d="m175.157 90.496 2.042-3.792M175.741 86.56l2.769.293" stroke="#263238" stroke-linecap="round" stroke-linejoin="round"/><path d="m182.301 98.802-5.828 5.971 5.537 4.954 5.388-8.014-5.097-2.911z" fill="#92E3A9" stroke="#263238" stroke-linecap="round" stroke-linejoin="round"/><path d="M218.028 133.03c-1.144-.292-24.653-12.372-27.421-14.123-2.769-1.75-9.33-5.68-9.33-7.722 0-2.042 5.686-10.347 5.686-10.347s1.459-2.185 3.787-.875 24.075 15.141 29.612 18.058c5.537 2.917 9.764 5.102 10.056 10.782.292 5.68-4.519 6.704-7.722 6.292" fill="#92E3A9"/><mask id="j" style="mask-type:luminance" maskUnits="userSpaceOnUse" x="181" y="99" width="50" height="37"><path d="M218.028 133.03c-1.144-.292-24.653-12.372-27.421-14.123-2.769-1.75-9.33-5.68-9.33-7.722 0-2.042 5.686-10.347 5.686-10.347s1.459-2.185 3.787-.875 24.075 15.141 29.612 18.058c5.537 2.917 9.764 5.102 10.056 10.782.292 5.68-4.519 6.704-7.722 6.292" fill="#fff"/></mask><g mask="url(#j)"><path opacity=".3" d="M213.178 124.456c-7.831-1.522-21.559-5.898-24.808-6.956.852.572 1.636 1.03 2.237 1.407 2.768 1.751 26.254 13.831 27.421 14.123l4.668 2.042c3.203.435 8.008-.572 7.722-6.292-.286-5.72-4.519-7.871-10.056-10.782-3.283-1.716-12.275-7.299-19.528-11.818 8.614 6.132 20.947 15.158 21.267 16.766.498 2.499 0 3.243-8.923 1.51z" fill="#000"/></g><path d="M218.028 133.03c-1.144-.292-24.653-12.372-27.421-14.123-2.769-1.75-9.33-5.68-9.33-7.722 0-2.042 5.686-10.347 5.686-10.347s1.459-2.185 3.787-.875 24.075 15.141 29.612 18.058c5.537 2.917 9.764 5.102 10.056 10.782.292 5.68-4.519 6.704-7.722 6.292M173.556 128.82l-15.444 3.06.584 4.079 8.597 1.601 5.68-5.096.583-3.644z" stroke="#263238" stroke-linecap="round" stroke-linejoin="round"/><path d="M84.084 150.831a7.846 7.846 0 0 1 6.229 1.321c3.272 2.231 11.302 6.864 17.995 9.221 6.692 2.356 7.728 2.528 6.864 6.692-.864 4.164-3.867 10.113-6.687 10.868-2.82.755-8.626-3.569-17.549-8.328-8.923-4.759-16.954-7.585-17.846-11.154-.893-3.57 2.974-9.661 2.974-9.661" fill="#92E3A9"/><mask id="k" style="mask-type:luminance" maskUnits="userSpaceOnUse" x="72" y="149" width="44" height="31"><path d="M84.084 150.831a7.846 7.846 0 0 1 6.229 1.321c3.272 2.231 11.302 6.864 17.995 9.221 6.692 2.356 7.728 2.528 6.864 6.692-.864 4.164-3.867 10.113-6.687 10.868-2.82.755-8.626-3.569-17.549-8.328-8.923-4.759-16.954-7.585-17.846-11.154-.893-3.57 2.974-9.661 2.974-9.661" fill="#fff"/></mask><g mask="url(#k)"><path opacity=".3" d="m108.308 161.39-.778-.286 5.028 3.037s-5.674 0-6.481 4.324c-.806 4.325 1.888 6.75.269 7.288-1.619.537-23.229-9.724-23.229-9.724l.704 1.006c2.208 1.082 4.61 2.248 7.087 3.57 8.923 4.759 14.723 9.072 17.549 8.328 2.825-.744 5.794-6.692 6.686-10.868.893-4.176-.171-4.296-6.835-6.675z" fill="#000"/></g><path d="M84.084 150.831a7.846 7.846 0 0 1 6.229 1.321c3.272 2.231 11.302 6.864 17.995 9.221 6.692 2.356 7.728 2.528 6.864 6.692-.864 4.164-3.867 10.113-6.687 10.868-2.82.755-8.626-3.569-17.549-8.328-8.923-4.759-16.954-7.585-17.846-11.154-.893-3.57 2.974-9.661 2.974-9.661" stroke="#263238" stroke-linecap="round" stroke-linejoin="round"/><path d="M147.862 165.554s3.117.572 5.348 0 2.38.572 1.339 2.528-3.57 2.826-5.2 2.677c-1.63-.149-4.164-3.569-1.487-5.205z" fill="#fff" stroke="#263238" stroke-linecap="round" stroke-linejoin="round"/><path d="M120.199 171.057s3.867-.893 5.354-1.934c1.488-1.041 13.236-8.923 14.724-8.923 1.487 0 11.44 7.733 11.594 8.328.155.595-2.82 4.313-3.712 5.057-.893.743-4.462 5.205-5.354 6.097-.892.893-4.313 2.529-5.354 2.826-1.041.297-2.528-.572-2.231-1.636.298-1.064.572-1.933.572-1.933s-5.651 2.825-8.626 2.082c-2.974-.744-9.964-4.313-9.964-4.313l2.997-5.651z" fill="#fff" stroke="#263238" stroke-linecap="round" stroke-linejoin="round"/><path d="M135.815 171.651s7.139 6.247 6.99 8.008l-6.99-8.008z" fill="#fff"/><path d="M135.815 171.651s7.139 6.247 6.99 8.008M137.749 166.744l8.328 8.774M140.574 162.58l8.626 9.518" stroke="#263238" stroke-linecap="round" stroke-linejoin="round"/><path d="M135.815 178.939s2.529-.893 2.231.572l-2.231-.572z" fill="#fff"/><path d="M135.815 178.939s2.529-.893 2.231.572" stroke="#263238" stroke-linecap="round" stroke-linejoin="round"/><path d="m113.21 166.892 8.008 3.272-4.164 9.37-8.008-3.867s-.292-5.651 4.164-8.775z" fill="#92E3A9" stroke="#263238" stroke-linecap="round" stroke-linejoin="round"/></svg>