<svg width="311" height="311" fill="none" xmlns="http://www.w3.org/2000/svg"><path d="M127.548 27.455s29.059-5.89 55.501 0c16.172 3.602 50.226 12.142 58.269 31.498 8.042 19.357-30.665 35.87-11.65 55.507 8.204 8.472 47.57 19.643 45.356 74.591-2.215 54.947-59.893 88.442-140.05 86.949-80.157-1.493-126.434-74.385-95.433-110.281 31-35.895 44.348-36.001 30.297-65.235-14.05-29.234 5.455-64.663 57.71-73.029z" fill="#92E3A9"/><path opacity=".7" d="M127.548 27.455s29.059-5.89 55.501 0c16.172 3.602 50.226 12.142 58.269 31.498 8.042 19.357-30.665 35.87-11.65 55.507 8.204 8.472 47.57 19.643 45.356 74.591-2.215 54.947-59.893 88.442-140.05 86.949-80.157-1.493-126.434-74.385-95.433-110.281 31-35.895 44.348-36.001 30.297-65.235-14.05-29.234 5.455-64.663 57.71-73.029z" fill="#fff"/><path d="m72.115 117.054 5.411 15.824-25.95 8.876-6.419-18.778 25.95-8.876 1.008 2.954z" stroke="#263238" stroke-linecap="round" stroke-linejoin="round"/><path d="m74.814 124.935 2.712 7.943-25.95 8.876-1.33-3.894 5.23-7.924 8.515 3.315 6.077-10.25 4.746 1.934zM58.605 123.934a2.824 2.824 0 1 1-2.492-1.902 2.816 2.816 0 0 1 2.492 1.902zM226.757 246.934l-3.577 16.34-26.789-5.872 4.242-19.381 26.795 5.865-.671 3.048zM201.702 253.222l18.405 4.031" stroke="#263238" stroke-linecap="round" stroke-linejoin="round"/><path d="M203.208 244.633s-1.866 8.552 7.688 10.648 11.426-6.481 11.426-6.481" stroke="#263238" stroke-linecap="round" stroke-linejoin="round"/><path d="M204.016 244.813a.831.831 0 0 1-1.403.387.831.831 0 0 1 .155-1.272.826.826 0 0 1 1.248.885zM223.13 248.999a.833.833 0 0 1-.659.697.819.819 0 0 1-.338-.004.814.814 0 0 1-.536-.389.837.837 0 0 1-.078-.658.825.825 0 0 1 .969-.568.823.823 0 0 1 .642.922zM202.212 252.631l-1.416-.31-.31 1.416 1.416.31.31-1.416zM211.763 254.72l-1.415-.31-.31 1.415 1.415.31.31-1.415zM221.326 256.815l-1.416-.31-.31 1.416 1.416.31.31-1.416z" fill="#fff" stroke="#263238" stroke-linecap="round" stroke-linejoin="round"/><path d="m102.785 69.21-6.767 15.295-25.085-11.109 8.036-18.144 25.079 11.103-1.263 2.855z" stroke="#263238" stroke-linecap="round" stroke-linejoin="round"/><path d="M89.618 75.517c-.479 1.082-2.214 1.368-3.869.622-1.654-.746-2.606-2.208-2.127-3.297.479-1.088 2.214-1.368 3.869-.622 1.654.747 2.606 2.209 2.127 3.297z" fill="#263238"/><path d="m90.887 63.568-6.693 9.548-.572-.255 4.895-6.979 1.244-1.816c.389-.105.758-.27 1.095-.491l.031-.007z" fill="#263238"/><path d="m90.88 63.575-1.623 2.301a3.508 3.508 0 0 1-.74 0 5.324 5.324 0 0 1-2.096-.622 2.65 2.65 0 0 0-2.818.193c.081-.1 1.661-2.071 3.838-1.381a3.893 3.893 0 0 0 2.345 0c.389-.105.758-.27 1.095-.491z" fill="#263238"/><path d="m269.966 193.199-5.84 15.675-25.701-9.573 6.929-18.604 25.701 9.579-1.089 2.923z" stroke="#263238" stroke-linecap="round" stroke-linejoin="round"/><path d="m252.669 189.754-6.444 2.948 2.948 6.45M256.096 201.727l6.45-2.942-2.948-6.45M257.259 191.452l-5.753 8.577M244.321 47.564l-5.728 15.718-25.77-9.398 6.799-18.648 25.769 9.399-1.07 2.93z" stroke="#263238" stroke-linecap="round" stroke-linejoin="round"/><path d="M226.066 48.746s-.311-1.76-2.911-1.375c-2.401.361-3.11 3.06-1.057 3.8 2.382.872 4.248-1.143 6.568-3.11 2.42-2.07 4.615-4.303 4.895-4.565 0 0-5.455 9.76-6.164 11.047-.709 1.288 1.424.815 1.81.243M235.278 51.626a3.22 3.22 0 0 0-4.354.734c-.759.914-.361 1.866.293 2.121 1.679.622 2.718-.124 4.484-2.693 0 0-2.444 3.433-1.922 3.626a1.351 1.351 0 0 0 1.362-.305M227.926 48.97l4.316 1.574M74.242 229.17l-26.796-5.86 3.658-16.719 26.883 5.884-3.745 16.695zM57.174 210.777l15.662 3.427M54.643 211.797l17.863 3.913M54.313 213.302l17.864 3.907M53.983 214.808l17.864 3.906M53.653 216.307l17.864 3.906M53.33 217.812l17.864 3.906M53.001 219.311l17.864 3.906M52.67 220.816l15.663 3.427" stroke="#263238" stroke-linecap="round" stroke-linejoin="round"/><path d="M205.621 104.477H105.38L92.871 42.252H218.13l-12.508 62.225z" fill="#263238"/><path d="m102.275 44.274-18.46 125.538h143.37l-18.46-125.538" fill="#92E3A9"/><mask id="a" style="mask-type:luminance" maskUnits="userSpaceOnUse" x="83" y="44" width="145" height="126"><path d="m102.275 44.274-18.46 125.538h143.37l-18.46-125.538" fill="#fff"/></mask><g mask="url(#a)"><path opacity=".3" d="M227.185 169.812H83.815l7.719-52.497h127.932l7.719 52.497z" fill="#000" fill-opacity=".7"/></g><path d="m102.275 44.274-18.46 125.538h143.37l-18.46-125.538" stroke="#263238" stroke-linecap="round" stroke-linejoin="round"/><path d="M204.825 44.274h-98.65L89.07 169.812h132.86L204.825 44.274z" fill="#263238"/><path d="M195.077 53.84h-53.548l-.622-1.368a2.108 2.108 0 0 0-1.928-1.244h-12.141a1.244 1.244 0 0 0-1.244 1.244v1.393h-9.672a1.184 1.184 0 0 0-1.157 1.412l7.912 39.342h65.646l7.911-39.342a1.176 1.176 0 0 0-.233-.996 1.182 1.182 0 0 0-.924-.44z" fill="#BFBFBF" stroke="#263238" stroke-linecap="round" stroke-linejoin="round"/><path d="m197.099 56.857-.684 3.396-7.028 34.95a2.301 2.301 0 0 1-2.258 1.866h-63.258a2.302 2.302 0 0 1-2.257-1.866l-7.166-35.777-.516-2.569a1.182 1.182 0 0 1 1.138-1.412h80.86a1.186 1.186 0 0 1 .92.428 1.182 1.182 0 0 1 .249.984z" fill="#fff"/><mask id="b" style="mask-type:luminance" maskUnits="userSpaceOnUse" x="113" y="55" width="85" height="43"><path d="m197.099 56.857-.684 3.396-7.028 34.95a2.301 2.301 0 0 1-2.258 1.866h-63.258a2.302 2.302 0 0 1-2.257-1.866l-7.166-35.777-.516-2.569a1.182 1.182 0 0 1 1.138-1.412h80.86a1.186 1.186 0 0 1 .92.428 1.182 1.182 0 0 1 .249.984z" fill="#fff"/></mask><g mask="url(#b)"><path opacity=".4" d="m196.415 60.253-7.028 34.95a2.301 2.301 0 0 1-2.258 1.866h-63.257a2.302 2.302 0 0 1-2.258-1.866l-7.166-35.777 81.967.827z" fill="#92E3A9"/></g><path d="m197.099 56.857-.684 3.396-7.028 34.95a2.301 2.301 0 0 1-2.258 1.866h-63.258a2.302 2.302 0 0 1-2.257-1.866l-7.166-35.777-.516-2.569a1.182 1.182 0 0 1 1.138-1.412h80.86a1.186 1.186 0 0 1 .92.428 1.182 1.182 0 0 1 .249.984z" stroke="#263238" stroke-linecap="round" stroke-linejoin="round"/><path d="M196.029 62.903h-54.835l-.622-1.362a2.17 2.17 0 0 0-1.972-1.244h-12.44a1.246 1.246 0 0 0-1.244 1.244v1.393h-9.952a1.187 1.187 0 0 0-1.182 1.412l8.086 39.223h67.22l8.086-39.223a1.196 1.196 0 0 0-.23-.994 1.186 1.186 0 0 0-.915-.45z" fill="#BFBFBF" stroke="#263238" stroke-linecap="round" stroke-linejoin="round"/><path d="m198.094 66.025-.684 3.322-7.209 34.913a2.35 2.35 0 0 1-2.314 1.866h-64.775a2.347 2.347 0 0 1-2.314-1.866l-7.234-35.031-.659-3.204a1.195 1.195 0 0 1 .256-.986 1.188 1.188 0 0 1 .926-.426h82.825a1.184 1.184 0 0 1 .927.426 1.195 1.195 0 0 1 .255.987z" fill="#fff"/><mask id="c" style="mask-type:luminance" maskUnits="userSpaceOnUse" x="112" y="64" width="87" height="43"><path d="m198.094 66.025-.684 3.322-7.209 34.913a2.35 2.35 0 0 1-2.314 1.866h-64.775a2.347 2.347 0 0 1-2.314-1.866l-7.234-35.031-.659-3.204a1.195 1.195 0 0 1 .256-.986 1.188 1.188 0 0 1 .926-.426h82.825a1.184 1.184 0 0 1 .927.426 1.195 1.195 0 0 1 .255.987z" fill="#fff"/></mask><g mask="url(#c)"><path opacity=".4" d="m197.41 69.347-7.209 34.913a2.35 2.35 0 0 1-2.314 1.866h-64.775a2.347 2.347 0 0 1-2.314-1.866l-7.234-35.031 83.846.118z" fill="#92E3A9"/></g><path d="m198.094 66.025-.684 3.322-7.209 34.913a2.35 2.35 0 0 1-2.314 1.866h-64.775a2.347 2.347 0 0 1-2.314-1.866l-7.234-35.031-.659-3.204a1.195 1.195 0 0 1 .256-.986 1.188 1.188 0 0 1 .926-.426h82.825a1.184 1.184 0 0 1 .927.426 1.195 1.195 0 0 1 .255.987z" stroke="#263238" stroke-linecap="round" stroke-linejoin="round"/><path d="M196.975 71.965h-56.111l-.622-1.362a2.207 2.207 0 0 0-2.015-1.244h-12.764a1.242 1.242 0 0 0-1.281 1.244v1.387h-10.157a1.196 1.196 0 0 0-1.213 1.406l8.291 39.105h68.793l8.292-39.105a1.191 1.191 0 0 0-.688-1.33 1.196 1.196 0 0 0-.525-.1z" fill="#BFBFBF" stroke="#263238" stroke-linecap="round" stroke-linejoin="round"/><path d="M197.884 73.788h-84.767a1.187 1.187 0 0 0-1.206 1.4l8.086 38.122c.119.535.419 1.014.849 1.354.431.34.966.52 1.514.512h66.287a2.378 2.378 0 0 0 2.363-1.866l8.086-38.123a1.183 1.183 0 0 0-.271-.99 1.183 1.183 0 0 0-.941-.41z" fill="#fff" stroke="#263238" stroke-linecap="round" stroke-linejoin="round"/><path d="M197.927 79.162h-57.399l-.653-1.356a2.268 2.268 0 0 0-2.058-1.244h-13.062a1.248 1.248 0 0 0-1.212.752 1.244 1.244 0 0 0-.101.492v1.387h-10.369a1.202 1.202 0 0 0-1.244 1.4l8.478 38.993h70.38l8.477-38.993a1.186 1.186 0 0 0-.27-1.018 1.194 1.194 0 0 0-.967-.413z" fill="#BFBFBF" stroke="#263238" stroke-linecap="round" stroke-linejoin="round"/><path d="M198.853 81.09h-86.706a1.202 1.202 0 0 0-1.244 1.4l8.266 38.01a2.422 2.422 0 0 0 2.42 1.829h67.798a2.422 2.422 0 0 0 2.419-1.829l8.267-38.01a1.211 1.211 0 0 0-.279-.988 1.2 1.2 0 0 0-.941-.412z" fill="#fff" stroke="#263238" stroke-linecap="round" stroke-linejoin="round"/><path d="M198.872 86.359h-58.679l-.666-1.356a2.337 2.337 0 0 0-2.108-1.245h-13.33a1.276 1.276 0 0 0-1.337 1.207v1.381h-10.624a1.242 1.242 0 0 0-1.244 1.393l8.671 38.875h71.915l8.671-38.875a1.242 1.242 0 0 0-1.269-1.38z" fill="#BFBFBF" stroke="#263238" stroke-linecap="round" stroke-linejoin="round"/><path d="M199.818 88.399h-88.635a1.21 1.21 0 0 0-1.21.864 1.196 1.196 0 0 0-.034.529l2.077 9.33 6.369 28.568a2.489 2.489 0 0 0 2.488 1.829h69.291a2.486 2.486 0 0 0 2.488-1.829l3.11-14.013 5.324-23.879a1.203 1.203 0 0 0-.737-1.314 1.21 1.21 0 0 0-.531-.085z" fill="#fff"/><mask id="d" style="mask-type:luminance" maskUnits="userSpaceOnUse" x="109" y="88" width="93" height="42"><path d="M199.818 88.399h-88.635a1.21 1.21 0 0 0-1.21.864 1.196 1.196 0 0 0-.034.529l2.077 9.33 6.369 28.568a2.489 2.489 0 0 0 2.488 1.829h69.291a2.486 2.486 0 0 0 2.488-1.829l3.11-14.013 5.324-23.879a1.203 1.203 0 0 0-.737-1.314 1.21 1.21 0 0 0-.531-.085z" fill="#fff"/></mask><g mask="url(#d)"><path opacity=".4" d="m111.991 99.116 6.369 28.568a2.494 2.494 0 0 0 2.488 1.829h69.316a2.486 2.486 0 0 0 2.488-1.829l3.11-14.013-83.771-14.555z" fill="#92E3A9"/></g><path d="M199.818 88.399h-88.635a1.21 1.21 0 0 0-1.21.864 1.196 1.196 0 0 0-.034.529l2.077 9.33 6.369 28.568a2.489 2.489 0 0 0 2.488 1.829h69.291a2.486 2.486 0 0 0 2.488-1.829l3.11-14.013 5.324-23.879a1.203 1.203 0 0 0-.737-1.314 1.21 1.21 0 0 0-.531-.085z" stroke="#263238" stroke-linecap="round" stroke-linejoin="round"/><path d="m137.941 130.863-.784-1.307a2.584 2.584 0 0 0-2.345-1.119l-14.48.665a1.348 1.348 0 0 0-1.399 1.244l.062 1.369-11.544.528c-.884.038-1.518.734-1.307 1.437l11.196 37.942 78.149-3.595 7.656-38.794c.137-.722-.553-1.356-1.443-1.312l-63.761 2.942z" fill="#BFBFBF" stroke="#263238" stroke-linecap="round" stroke-linejoin="round"/><path d="m204.265 131.659-.871 4.466-6.575 33.358a2.666 2.666 0 0 1-2.606 1.928l-75.305 3.458a2.665 2.665 0 0 1-2.775-1.679l-10.393-35.268-.504-1.71c-.205-.703.429-1.4 1.312-1.437l96.292-4.429c.877-.037 1.568.597 1.425 1.313z" fill="#fff"/><mask id="e" style="mask-type:luminance" maskUnits="userSpaceOnUse" x="105" y="130" width="100" height="45"><path d="m204.265 131.659-.871 4.466-6.575 33.358a2.666 2.666 0 0 1-2.606 1.928l-75.305 3.458a2.665 2.665 0 0 1-2.775-1.679l-10.393-35.268-.504-1.71c-.205-.703.429-1.4 1.312-1.437l96.292-4.429c.877-.037 1.568.597 1.425 1.313z" fill="#fff"/></mask><g mask="url(#e)"><path opacity=".4" d="m203.394 136.125-6.574 33.358a2.673 2.673 0 0 1-2.606 1.928l-75.306 3.458a2.667 2.667 0 0 1-2.774-1.679l-10.394-35.268 97.654-1.797z" fill="#92E3A9"/></g><path d="m204.265 131.659-.871 4.466-6.575 33.358a2.666 2.666 0 0 1-2.606 1.928l-75.305 3.458a2.665 2.665 0 0 1-2.775-1.679l-10.393-35.268-.504-1.71c-.205-.703.429-1.4 1.312-1.437l96.292-4.429c.877-.037 1.568.597 1.425 1.313z" stroke="#263238" stroke-linecap="round" stroke-linejoin="round"/><path d="m139.602 139.521-.666-1.369a2.66 2.66 0 0 0-2.276-1.343l-14.748-.771a1.368 1.368 0 0 0-1.555 1.113l-.068 1.362-11.769-.622c-.902-.05-1.611.579-1.474 1.294l7.607 38.744 79.697 4.168 11.6-37.737c.212-.703-.429-1.4-1.331-1.443l-65.017-3.396z" fill="#BFBFBF" stroke="#263238" stroke-linecap="round" stroke-linejoin="round"/><path d="m206.852 146.991-1.866 6.145-9.417 30.64a2.71 2.71 0 0 1-2.836 1.655l-76.799-4.012a2.725 2.725 0 0 1-2.649-1.941l-6.5-33.134-.908-4.634c-.143-.715.572-1.343 1.474-1.294l98.17 5.132c.902.05 1.549.746 1.331 1.443z" fill="#fff"/><mask id="f" style="mask-type:luminance" maskUnits="userSpaceOnUse" x="105" y="140" width="102" height="46"><path d="m206.852 146.991-1.866 6.145-9.417 30.64a2.71 2.71 0 0 1-2.836 1.655l-76.799-4.012a2.725 2.725 0 0 1-2.649-1.941l-6.5-33.134-.908-4.634c-.143-.715.572-1.343 1.474-1.294l98.17 5.132c.902.05 1.549.746 1.331 1.443z" fill="#fff"/></mask><g mask="url(#f)"><path opacity=".4" d="m204.961 153.136-9.417 30.64a2.71 2.71 0 0 1-2.836 1.655l-76.799-4.012a2.725 2.725 0 0 1-2.649-1.941l-6.5-33.134 98.201 6.792z" fill="#92E3A9"/></g><path d="m206.852 146.991-1.866 6.145-9.417 30.64a2.71 2.71 0 0 1-2.836 1.655l-76.799-4.012a2.725 2.725 0 0 1-2.649-1.941l-6.5-33.134-.908-4.634c-.143-.715.572-1.343 1.474-1.294l98.17 5.132c.902.05 1.549.746 1.331 1.443z" stroke="#263238" stroke-linecap="round" stroke-linejoin="round"/><path d="m138.184 149.442-.722-1.331a2.719 2.719 0 0 0-2.382-1.244h-15.108a1.382 1.382 0 0 0-1.518 1.188v1.356h-12.017c-.921 0-1.611.659-1.431 1.368l9.803 38.172h81.383l9.802-38.172c.181-.709-.51-1.368-1.43-1.368l-66.38.031z" fill="#BFBFBF" stroke="#263238" stroke-linecap="round" stroke-linejoin="round"/><path d="M194.686 192.503h-78.372c-1.356 0-2.532-.753-2.799-1.792l-9.579-37.214c-.187-.709.504-1.368 1.43-1.368h100.267c.927 0 1.617.659 1.43 1.368l-9.553 37.214c-.268 1.039-1.443 1.792-2.824 1.792z" fill="#fff" stroke="#263238" stroke-linecap="round" stroke-linejoin="round"/><path d="m137.847 158.504-.765-1.325a2.793 2.793 0 0 0-2.432-1.213h-15.363a1.403 1.403 0 0 0-1.549 1.189v1.349h-12.247c-.946 0-1.648.66-1.462 1.369l9.996 38.054h82.95l9.995-38.073c.187-.709-.516-1.368-1.462-1.368l-67.661.018z" fill="#BFBFBF" stroke="#263238" stroke-linecap="round" stroke-linejoin="round"/><path d="M195.47 201.528h-79.94c-1.381 0-2.575-.753-2.849-1.791l-9.746-37.096c-.181-.71.522-1.369 1.461-1.369h102.207c.94 0 1.642.659 1.462 1.369l-9.747 37.096c-.273 1.063-1.468 1.791-2.848 1.791z" fill="#fff" stroke="#263238" stroke-linecap="round" stroke-linejoin="round"/><path d="M211.71 244.427H99.29l-24.606-69.782h161.632l-24.606 69.782z" fill="#92E3A9"/><mask id="g" style="mask-type:luminance" maskUnits="userSpaceOnUse" x="74" y="174" width="163" height="71"><path d="M211.71 244.427H99.29l-24.606-69.782h161.632l-24.606 69.782z" fill="#fff"/></mask><g mask="url(#g)"><path opacity=".3" d="M211.71 244.427H99.29l-24.606-69.782h161.632l-24.606 69.782z" fill="#000" fill-opacity=".7"/></g><path d="M211.71 244.427H99.29l-24.606-69.782h161.632l-24.606 69.782z" stroke="#263238" stroke-linecap="round" stroke-linejoin="round"/><path d="M234.177 165.458H76.823l-2.14 9.187h161.633l-2.139-9.187z" fill="#92E3A9" stroke="#263238" stroke-linecap="round" stroke-linejoin="round"/><path d="m116.482 206.616-1.574 14.897h81.184l-1.574-14.897h-3.583l1.02 10.63h-72.911l1.021-10.63h-3.583z" fill="#BFBFBF" stroke="#263238" stroke-linecap="round" stroke-linejoin="round"/><path d="M195.482 224.934h-79.964l-.61-3.421h81.184l-.61 3.421zM190.935 206.616l-.497 3.95.497 6.68h1.02l-1.02-10.63zM120.065 206.616l.504 3.95-.504 6.68h-1.02l1.02-10.63z" fill="#757575" stroke="#263238" stroke-linecap="round" stroke-linejoin="round"/><path d="M181.662 199.14h-52.323l-2.494-12.64h57.311l-2.494 12.64z" fill="#fff" stroke="#263238" stroke-linecap="round" stroke-linejoin="round"/><path d="m144.566 194.649.348-5.356h1.592l.467 7.433h-1.027l-.367-5.25-.354 5.25h-1.033l-1.244-5.175.467 5.175h-.977l-.721-7.433h1.592l1.257 5.356zM148.658 194.35l-1.698-5.057h1.2l1.02 3.483.703-3.483h1.095l-1.244 5.057.1 2.376h-1.089l-.087-2.376zM154.256 192.696h1.449v1.057h-1.431v2.973h-1.088l-.124-7.433h3.06v1.114h-1.866v2.289zM156.694 189.293h1.145l-.119 7.433h-1.088l.062-7.433zM158.679 189.293h1.175l-.192 6.419h1.797l-.043 1.014h-2.874l.137-7.433zM163.181 192.521h1.537l-.069 1.064h-1.53l-.118 2.127h1.866l-.068 1.014h-2.961l.348-7.433h3.11l-.081 1.114h-1.965l-.069 2.114zM167.598 189.206c1.119 0 1.623.709 1.505 1.947v.236h-1.07l.031-.317c.05-.547-.143-.759-.504-.759-.36 0-.584.212-.622.759-.037.548.143.964.821 1.642.853.859 1.089 1.468 1.008 2.295-.112 1.151-.728 1.798-1.791 1.798-1.064 0-1.574-.622-1.493-1.798l.037-.441h1.045l-.043.516c-.044.516.161.697.51.697.348 0 .584-.181.622-.697.037-.516-.137-.92-.809-1.586-.864-.858-1.12-1.48-1.051-2.345.062-1.238.69-1.947 1.804-1.947z" fill="#263238"/><path d="m159.002 76.836-.51-1.462a2.446 2.446 0 0 0-2.028-1.53l-13.833-1.785a1.325 1.325 0 0 0-1.549 1.045l-.18 1.4-11.022-1.419a1.24 1.24 0 0 0-1.387.7c-.078.171-.116.357-.112.544l3.925 40.517 74.64 9.622 14.07-38.197a1.253 1.253 0 0 0-.6-1.429 1.246 1.246 0 0 0-.532-.15l-60.882-7.856z" fill="#fff"/><mask id="h" style="mask-type:luminance" maskUnits="userSpaceOnUse" x="128" y="72" width="94" height="53"><path d="m159.002 76.836-.51-1.462a2.446 2.446 0 0 0-2.028-1.53l-13.833-1.785a1.325 1.325 0 0 0-1.549 1.045l-.18 1.4-11.022-1.419a1.24 1.24 0 0 0-1.387.7c-.078.171-.116.357-.112.544l3.925 40.517 74.64 9.622 14.07-38.197a1.253 1.253 0 0 0-.6-1.429 1.246 1.246 0 0 0-.532-.15l-60.882-7.856z" fill="#fff"/></mask><g mask="url(#h)"><path opacity=".4" d="m159.002 76.836-.51-1.462a2.446 2.446 0 0 0-2.028-1.53l-13.833-1.785a1.325 1.325 0 0 0-1.549 1.045l-.18 1.4-11.022-1.419a1.24 1.24 0 0 0-1.387.7c-.078.171-.116.357-.112.544l3.925 40.517 74.64 9.622 14.07-38.197a1.253 1.253 0 0 0-.6-1.429 1.246 1.246 0 0 0-.532-.15l-60.882-7.856z" fill="#92E3A9"/></g><path d="m159.002 76.836-.51-1.462a2.446 2.446 0 0 0-2.028-1.53l-13.833-1.785a1.325 1.325 0 0 0-1.549 1.045l-.18 1.4-11.022-1.419a1.24 1.24 0 0 0-1.387.7c-.078.171-.116.357-.112.544l3.925 40.517 74.64 9.622 14.07-38.197a1.253 1.253 0 0 0-.6-1.429 1.246 1.246 0 0 0-.532-.15l-60.882-7.856z" stroke="#263238" stroke-linecap="round" stroke-linejoin="round"/><path d="m221.731 88.567-12.739 34.589-.982 2.662a2.58 2.58 0 0 1-2.806 1.518l-71.934-9.28a2.586 2.586 0 0 1-2.326-2.184l-3.826-39.497a1.242 1.242 0 0 1 .45-.983 1.24 1.24 0 0 1 1.049-.26l61.218 7.893 30.764 3.962a1.247 1.247 0 0 1 1.16 1.027c.032.184.023.373-.028.553z" fill="#fff"/><mask id="i" style="mask-type:luminance" maskUnits="userSpaceOnUse" x="127" y="75" width="95" height="53"><path d="m221.731 88.567-12.739 34.589-.982 2.662a2.58 2.58 0 0 1-2.806 1.518l-71.934-9.28a2.586 2.586 0 0 1-2.326-2.184l-3.826-39.497a1.242 1.242 0 0 1 .45-.983 1.24 1.24 0 0 1 1.049-.26l61.218 7.893 30.764 3.962a1.247 1.247 0 0 1 1.16 1.027c.032.184.023.373-.028.553z" fill="#fff"/></mask><g mask="url(#i)"><path opacity=".3" d="m221.731 88.567-12.739 34.589c-9.025-2.133-9.367-7.756-10.879-10.667-1.667-3.21-12.235-4.914-15.189-5.43-2.955-.517-4.752-3.508-4.752-3.508-2.662-7.464 11.233-13.995 11.233-13.995-.273-1.027.131-4.392.423-6.519l30.764 3.962a1.242 1.242 0 0 1 1.161 1.018c.034.182.026.37-.022.55z" fill="#000" fill-opacity=".7"/></g><path d="m221.731 88.567-12.739 34.589-.982 2.662a2.58 2.58 0 0 1-2.806 1.518l-71.934-9.28a2.586 2.586 0 0 1-2.326-2.184l-3.826-39.497a1.242 1.242 0 0 1 .45-.983 1.24 1.24 0 0 1 1.049-.26l61.218 7.893 30.764 3.962a1.247 1.247 0 0 1 1.16 1.027c.032.184.023.373-.028.553z" stroke="#263238" stroke-linecap="round" stroke-linejoin="round"/><path d="m140.646 87.018.983 24.444 8.858 1.145 1.044-24.358-10.885-1.231z" fill="#92E3A9" stroke="#263238" stroke-linecap="round" stroke-linejoin="round"/><path d="M146.052 109.665a3.18 3.18 0 0 0-.429-2.557 9.516 9.516 0 0 0-1.798-1.971 8.836 8.836 0 0 0 3.34 1.107c0-1.275-1.244-2.159-2.307-2.83a1.745 1.745 0 0 1 1.505.112 1.245 1.245 0 0 0-.442-1.051c.137.118.349-.069.342-.243a1.106 1.106 0 0 0-.217-.479 2.378 2.378 0 0 1-.193-1.2c0-1.462.043-2.93.062-4.392a.695.695 0 0 0 .51.566c0-.578-.068-1.157-.124-1.735-.137-1.462-.274-2.93-.417-4.392" stroke="#263238" stroke-linecap="round" stroke-linejoin="round"/><path d="M286.742 166.497s-50.195-44.908-53.392-47.739c-3.197-2.83-5.536-2.705-7.259-4.428-1.723-1.723-2.588-2.948-9.598-2.83-7.009.118-16.364-3.689-18.454-5.045-2.09-1.356-5.045-.367-7.016-1.132-1.972-.765-7.01-.093-10.089 0-3.079.094-3.322-3.048-2.09-6.618 1.231-3.57 10.574-5.778 11.818-5.044 1.244.734 6.151-1.35 6.151-1.35-.74-2.588-.491-8.864-.491-8.864s-5.169-2.214-7.134-2.948a12.57 12.57 0 0 0-4.678-.491s.622-2.824 1.599-3.875c.976-1.051 5.66-2.034 10.213-5.231 4.553-3.197 7.383-3.938 8.086-3.695.703.243 5.785 1.723 7.141 1.723 1.356 0 3.321-1.244 5.287-.858 1.965.385 5.535 3.446 7.134 3.813 1.598.366 2.09.702 4.186.702.921 0 4.677 2.743 4.677 2.743 1.573.3 3.103.796 4.553 1.475 2.333 1.107 4.796 6.4 5.903 8.123 1.107 1.723 1.244 5.903 1.244 5.903s2.955 1.598 4.062 3.813c1.107 2.214 41.879 24.114 41.879 24.114s6.425 25.185-3.732 47.739z" fill="#fff"/><path opacity=".4" d="M251.003 134.507a9573.96 9573.96 0 0 0-17.628-15.749c-3.203-2.83-5.536-2.705-7.259-4.428-1.723-1.723-2.587-2.948-9.597-2.83-7.01.118-16.365-3.689-18.455-5.045-2.09-1.356-5.044-.367-7.016-1.132-1.972-.765-7.01-.093-10.089 0-3.079.094-3.321-3.048-2.09-6.618 1.232-3.57 10.574-5.778 11.818-5.044 1.244.734 6.152-1.35 6.152-1.35-.74-2.588-.492-8.864-.492-8.864s-5.168-2.214-7.134-2.948a12.562 12.562 0 0 0-4.677-.491s.622-2.824 1.598-3.875c.977-1.051 5.66-2.034 10.213-5.231 4.553-3.197 7.384-3.938 8.086-3.695.703.243 5.785 1.723 7.141 1.723 1.026 0 2.413-.709 3.887-.89-1.194.666-2.021 1.935-1.797 2.613.354 1.07 1.356 3.794 1.412 3.968-.268-.26-6.718-6.63-10.885-6.3-3.602.28-7.259 6.344-6.643 10.797.616 4.454-.877 4.454-.069 7.775.809 3.322 1.543 8 .311 9.847-1.231 1.847-3.688-1.437-3.688-1.437a5.995 5.995 0 0 0-3.11 5.125c0 3.57 3.732 3.813 5.934 4.186 2.202.373 10.325 4.821 15.873 5.057l5.549.23s-3.204-4.354-1.866-4.578c1.337-.224 5.411.174 8.086 4.354 2.674 4.18 4.727 5.107 9.684 7.159 2.93 1.176 10.655 9.517 16.751 17.671zM275.584 110.654c-.753-.355-24.88-11.725-26.093-13.423-1.213-1.698-2.706-2.115-4.061-3.825-1.356-1.71-5.903-2.818-6.519-5.157-.616-2.338-1.356-9.435-2.488-10.312a20.663 20.663 0 0 0-2.948-1.804l1.828 4.56s-4.167-5.904-5.156-6.065c-.989-.162 1.07 4.291.889 4.154-.18-.136-4.696-4.353-8.477-7.55.448.27.932.48 1.436.621 1.605.367 2.09.703 4.186.703.921 0 4.678 2.743 4.678 2.743 1.573.3 3.102.796 4.553 1.474 2.332 1.108 4.796 6.4 5.903 8.124 1.107 1.723 1.244 5.903 1.244 5.903s2.954 1.598 4.061 3.812c.666 1.344 15.215 9.561 26.964 16.042z" fill="#92E3A9"/><path d="M286.742 166.497s-50.195-44.908-53.392-47.739c-3.197-2.83-5.536-2.705-7.259-4.428-1.723-1.723-2.588-2.948-9.598-2.83-7.009.118-16.364-3.689-18.454-5.045-2.09-1.356-5.045-.367-7.016-1.132-1.972-.765-7.01-.093-10.089 0-3.079.094-3.322-3.048-2.09-6.618 1.231-3.57 10.574-5.778 11.818-5.044 1.244.734 6.151-1.35 6.151-1.35-.74-2.588-.491-8.864-.491-8.864s-5.169-2.214-7.134-2.948a12.57 12.57 0 0 0-4.678-.491s.622-2.824 1.599-3.875c.976-1.051 5.66-2.034 10.213-5.231 4.553-3.197 7.383-3.938 8.086-3.695.703.243 5.785 1.723 7.141 1.723 1.355 0 3.321-1.244 5.287-.858 1.965.385 5.535 3.446 7.134 3.813 1.598.366 2.09.702 4.186.702.921 0 4.677 2.743 4.677 2.743 1.573.3 3.103.796 4.553 1.475 2.333 1.107 4.796 6.4 5.903 8.123 1.107 1.723 1.244 5.903 1.244 5.903s2.955 1.598 4.062 3.813c1.107 2.214 41.879 24.114 41.879 24.114" stroke="#263238" stroke-linecap="round" stroke-linejoin="round"/><path d="M196.341 83.448s.572-4.84 0-5.511M211.512 71.598s8.372 7.085 9.025 7.52M219.373 69.216c1.151.716 10.431 8.945 13.466 10.83M244.571 90.812c-.902-.529-3.284-1.68-3.527-2.581M196.832 92.311s.491 2.01 0 2.992M189.449 98.668s-1.144 3.197 1.562 5.33M200.608 68.32a6.245 6.245 0 0 0-1.642 3.278M187.845 77.937a5.586 5.586 0 0 0 3.197 3.278M224.635 112.961a60.745 60.745 0 0 0-5.262-6.599" stroke="#263238" stroke-linecap="round" stroke-linejoin="round"/><path d="M52.553 276.983s40.18-26.41 42.638-29.819a26.521 26.521 0 0 1 4.428-4.976s1.151-9.846 4.106-14.928c2.954-5.082 4.099-8.863 5.411-11.488 1.312-2.625 7.545-4.591 9.33-5.598 1.785-1.008 4.926-2.955 6.73-2.955a10.09 10.09 0 0 1 3.937 1.151s6.071-3.11 8.858-1.151c0 0 6.891.33 8.527.162 1.636-.168 4.105.989 4.105.989s4.099-2.948 6.886-1.804c2.787 1.145 4.118 1.636 4.192 3.278.075 1.642-.69 7.215-.69 7.215h-1.369s-4.59 5.978-5.081 7.172c-.492 1.194-3.11 7.756-3.11 7.756s3.439-2.625 5.598-4.59c2.158-1.966 5.909-5.741 9.846-6.724 3.937-.983 6.724 1.213 6.724 3.558 0 0-4.591 3.657-5.598 4.808-1.008 1.151-2.762 4.099-4.74 6.22-1.978 2.121-6.537 11.053-10.505 15.314-3.969 4.26-21.148 13.447-25.104 14.76 0 0-23.947 16.732-34.447 30.839 0 0-28.537.167-40.672-19.189z" fill="#fff"/><path opacity=".4" d="M130.465 261.725c.342.348 1.741.56 3.732.622a60.35 60.35 0 0 1-6.506 3.011s-15.662 10.941-27.207 22.591c3.975-6.326 11.607-14.219 14.443-15.861 3.95-2.302 11.538-9.728 11.538-9.728s2.862-1.786 4-.635zM157.037 227.441a47.42 47.42 0 0 1 5.386-4.56 27.545 27.545 0 0 0-4.876 7.514c-.759 4.124-7.875 12.627-7.875 12.627 2.295-7.377.324-8.858.971-10.991.646-2.134 1.063-7.365 1.063-7.365s1.244-2.146 2.557-2.637c1.312-.491 4.758-9.187 5.399-10.362.64-1.176-4.249-3.11-5.561-3.253-1.313-.144-1.804 2.127-4.429 3.253-2.625 1.125-5.921 3.19-7.134 4.397-1.213 1.207-3.322 6.544-3.458 6.873.093-.373 1.579-6.363 1.965-7.557.324-.995 3.477-2.83 4.646-3.483-1.94.902-3.029-.809-4.646-2.364-1.735-1.667-4.323-2.196-7.153-1.331-2.83.865-4.727 2.998-4.74 2.836-.012-.161-4.229-.902-5.598-.497-1.368.404-4.528 1.835-4.528 1.835s-2.873-1.655-7.594 3.004c-1.972 1.947-8.534 16.794-7.551 15.015.982-1.779 5.268-7.091 5.535-7.42-.286.696-8.987 20.227-10.766 21.471-1.78 1.244-2.296 5.648-8.708 9.262-6.084 3.427-29.545 18.174-31.872 19.636 11.128-7.395 35.23-23.561 37.096-26.18a26.524 26.524 0 0 1 4.429-4.976s1.151-9.846 4.105-14.928c2.955-5.082 4.099-8.863 5.412-11.488 1.312-2.625 7.544-4.591 9.33-5.598 1.785-1.008 4.926-2.955 6.73-2.955 1.377.11 2.717.502 3.937 1.151 0 0 6.071-3.11 8.857-1.151 0 0 6.892.33 8.528.162 1.636-.168 4.105.989 4.105.989s4.099-2.948 6.886-1.804c2.786 1.145 4.117 1.636 4.192 3.278.074 1.642-.691 7.215-.691 7.215h-1.368s-4.59 5.978-5.082 7.172c-.491 1.194-3.11 7.756-3.11 7.756s3.452-2.581 5.611-4.546zM173.607 224.275s-4.591 3.657-5.598 4.808c-.591.69-1.468 2.034-2.488 3.458a27.316 27.316 0 0 0 1.051-5.1 8.443 8.443 0 0 1 3.937-3.11 7.464 7.464 0 0 1 3.11-.237.995.995 0 0 1-.012.181z" fill="#92E3A9"/><path d="M52.553 276.983s40.18-26.41 42.638-29.819a26.521 26.521 0 0 1 4.428-4.976s1.151-9.846 4.106-14.928c2.954-5.082 4.099-8.863 5.411-11.488 1.312-2.625 7.545-4.591 9.33-5.598 1.785-1.008 4.926-2.955 6.73-2.955a10.09 10.09 0 0 1 3.937 1.151s6.071-3.11 8.858-1.151c0 0 6.891.33 8.527.162 1.636-.168 4.105.989 4.105.989s4.099-2.948 6.886-1.804c2.787 1.145 4.118 1.636 4.192 3.278.075 1.642-.69 7.215-.69 7.215h-1.369s-4.59 5.978-5.081 7.172c-.492 1.194-3.11 7.756-3.11 7.756s3.439-2.625 5.598-4.59c2.158-1.966 5.909-5.741 9.846-6.724 3.937-.983 6.724 1.213 6.724 3.558 0 0-4.591 3.657-5.598 4.808-1.008 1.151-2.762 4.099-4.74 6.22-1.978 2.121-6.537 11.053-10.505 15.314-3.969 4.26-21.148 13.447-25.104 14.76 0 0-23.947 16.732-34.447 30.839" stroke="#263238" stroke-linecap="round" stroke-linejoin="round"/><path d="M151.464 232.006s.982 4.926-.989 9.33M145.062 212.183a20.465 20.465 0 0 0 5.598-3.769M159.661 217.078a11.86 11.86 0 0 0 1.07-3.44M138.009 207.263a8.48 8.48 0 0 0-5.498 1.866M129.152 208.414s-4.92 2.295-6.643 2.295c-1.723 0-4.516 2.295-4.516 2.954M99.62 242.207a34.037 34.037 0 0 0 3.532-7.141M146.127 213.663s-3.11.815-4.18 3.44c-1.07 2.625-5.99 11.731-5.99 11.731M130.464 212.183c-.659 1.561-8.042 15.258-8.042 15.258" stroke="#263238" stroke-linecap="round" stroke-linejoin="round"/></svg>