<svg width="393" height="393" fill="none" xmlns="http://www.w3.org/2000/svg"><path d="M315.186 135.774c-2.091-4.418-2.075-10.006-3.411-14.573-3.93-13.527-14.643-24.295-27.864-29.868-31.817-13.362-39.158 13.362-72.611 18.864-33.452 5.502-45.69-17.292-83.213-8.646-37.524 8.646-28.556 31.44-27.746 50.351.809 18.912-39.976 23.58-47.317 46.422-7.342 22.841 17.952 32.226 14.682 48.732-3.27 16.506-26.103 25.938-19.58 40.911 6.525 14.973 12.239 18.078 58.747 6.288 46.507-11.79 106.062-17.292 149.34-8.646 43.277 8.646 74.245 26.724 85.674 21.222 11.294-5.447 5.329-33.366 3.623-42.028-3.749-19.037-19.304-35.157-19.037-54.446.165-12.576 12.725-18.321 13.653-31.133.841-11.625-5.809-22.103-13.197-30.717-3.325-3.875-8.512-7.349-11.091-11.672-.235-.291-.432-.668-.652-1.061z" fill="#92E3A9"/><path opacity=".9" d="M315.186 135.774c-2.091-4.418-2.075-10.006-3.411-14.573-3.93-13.527-14.643-24.295-27.864-29.868-31.817-13.362-39.158 13.362-72.611 18.864-33.452 5.502-45.69-17.292-83.213-8.646-37.524 8.646-28.556 31.44-27.746 50.351.809 18.912-39.976 23.58-47.317 46.422-7.342 22.841 17.952 32.226 14.682 48.732-3.27 16.506-26.103 25.938-19.58 40.911 6.525 14.973 12.239 18.078 58.747 6.288 46.507-11.79 106.062-17.292 149.34-8.646 43.277 8.646 74.245 26.724 85.674 21.222 11.294-5.447 5.329-33.366 3.623-42.028-3.749-19.037-19.304-35.157-19.037-54.446.165-12.576 12.725-18.321 13.653-31.133.841-11.625-5.809-22.103-13.197-30.717-3.325-3.875-8.512-7.349-11.091-11.672-.235-.291-.432-.668-.652-1.061z" fill="#fff"/><path d="m70.991 130.885 67.981 50.948-2.397 97.134M124.078 185.724l-5.321 97.008M124.786 172.794l-.401 7.357M98.313 228.474l-6.8 58.054M106.574 157.389l-7.648 65.843M79.55 154.268 53.59 292.085M82.278 139.767l-2.185 11.577M65.167 142.227l11.153 6.893M101.299 164.549 83.96 153.836M121.059 176.764l-12.246-7.57M136.701 186.423l-10.06-6.217M75.157 153.985l-14.265-8.371M100.607 168.911 83.15 158.67M121.39 181.102l-12.175-7.144M136.017 189.685l-9.832-5.769M73.923 161.114l-10.525-5.462M99.806 174.547l-16.883-8.764M121.453 185.779l-13.056-6.775M135.954 193.309l-10.037-5.211M72.32 167.693l-7.578-3.395M99.649 179.97l-18.66-8.378M120.675 189.41l-12.938-5.808M135.962 196.272l-9.864-4.425M53.746 269.323l-21.237.33M89.03 268.773l-25.836.401M116.768 268.333l-19.242.306M134.406 268.057l-11.421.181M51.719 275.485l-17.976.833M88.118 273.795l-26.15 1.211M116.304 272.483l-18.652.872M134.02 271.665l-11.452.535M50.037 282.708l-14.187 1.305M87.592 279.266l-27.368 2.515M115.887 276.672l-18.526 1.698M134.311 274.982l-11.931 1.093M48.692 289.264l-11.609 1.415M86.287 284.697l-27.754 3.372M115.439 281.152l-19.202 2.335M133.887 278.912l-10.909 1.328" stroke="#263238" stroke-linecap="round" stroke-linejoin="round"/><path d="m94.948 185.787 5.117 2.067-1.367 14.863-5.864-1.485 2.114-15.445zM115.204 206.914l1.124-12.513 3.836 1.549-.684 12.049-4.276-1.085zM63.312 173.038l7.797 3.144-3.144 18.738-7.954-2.02 3.3-19.862zM131.883 200.674l3.765 1.517-.087 9.888-3.694-.936.016-10.469zM322.008 130.885l-67.981 50.948 2.398 97.134M268.922 185.724l5.321 97.008M268.215 172.794l.401 7.357M294.687 228.474l6.798 58.054M286.426 157.389l7.648 65.843M313.449 154.268l25.962 137.817M310.722 139.767l2.185 11.577M316.68 149.12l11.153-6.893M291.7 164.549l17.339-10.713M271.94 176.764l12.246-7.57M256.299 186.423l10.061-6.217M317.843 153.985l14.266-8.371M292.392 168.911l17.457-10.241M271.61 181.102l12.175-7.144M256.982 189.685l9.833-5.769M319.076 161.114l10.525-5.462M293.193 174.547l16.884-8.764M271.547 185.779l13.055-6.775M257.045 193.309l10.037-5.211M320.68 167.693l7.577-3.395M293.351 179.97l18.659-8.378M272.325 189.41l12.938-5.808M257.037 196.272l9.864-4.425M339.253 269.323l21.238.33M303.97 268.773l25.836.401M276.231 268.333l19.242.306M258.594 268.057l11.42.181M341.281 275.485l17.976.833M304.882 273.795l26.15 1.211M276.695 272.483l18.652.872M258.979 271.665l11.452.535M342.963 282.708l14.187 1.305M305.408 279.266l27.369 2.515M277.112 276.672l18.526 1.698M258.688 274.982l11.932 1.093M344.307 289.264l11.609 1.415M306.713 284.697l27.754 3.372M277.56 281.152l19.202 2.335M259.112 278.912l10.91 1.328" stroke="#263238" stroke-linecap="round" stroke-linejoin="round"/><path d="m298.051 185.787-5.116 2.067 1.367 14.863 5.864-1.485-2.115-15.445zM277.796 206.914l-1.124-12.513-3.836 1.549.684 12.049 4.276-1.085zM329.688 173.038l-7.797 3.144 3.144 18.738 7.954-2.02-3.301-19.862zM261.116 200.674l-3.764 1.517.086 9.888 3.694-.936-.016-10.469zM73.884 296.322c18.518-3.411 43.434-8.001 62.377-11.523M48.032 301.038l19.297-3.545M330.765 298.68c-19.776-4.716-52.018-12.222-74.356-16.372M351.24 302.94s-4.614-1.116-12.011-2.924M123.747 170.908l4.378-49.44-32.54-36.29M262.037 175.915l-2.5-53.818 39.418-36.918" stroke="#263238" stroke-linecap="round" stroke-linejoin="round"/><path d="M171.623 314.141s-12.191 2.177-20.9 5.667c-8.708 3.49 23.518 3.049 16.546 4.354-6.972 1.305-28.296 4.355-20.035 9.141 8.26 4.787 71.423 5.667 89.714 1.313 18.29-4.355-32.226-14.808-23.077-18.73 9.149-3.923 18.722 0 18.29-5.227-.432-5.227-17.834-11.555-20.672-11.437-2.837.118 15.445 7.522 4.991 9.7-10.454 2.177-30.921-.024-44.857 5.219z" fill="#92E3A9"/><path opacity=".6" d="M171.623 314.141s-12.191 2.177-20.9 5.667c-8.708 3.49 23.518 3.049 16.546 4.354-6.972 1.305-28.296 4.355-20.035 9.141 8.26 4.787 71.423 5.667 89.714 1.313 18.29-4.355-32.226-14.808-23.077-18.73 9.149-3.923 18.722 0 18.29-5.227-.432-5.227-17.834-11.555-20.672-11.437-2.837.118 15.445 7.522 4.991 9.7-10.454 2.177-30.921-.024-44.857 5.219z" fill="#fff"/><path d="M197.639 124.039s-8.032 2.908-10.768 4.103c-2.735 1.194-11.444 2.224-12.812 3.081-1.367.856-35.37 38.451-34.694 39.135.676.683 8.371 1.021 10.596.511 2.224-.511 29.907-27.345 29.907-27.345s3.592.173 3.592 2.908 1.706 32.469 1.706 32.469l35.37-.683.173-36.062s.338-3.584 3.073-3.419c2.735.165 31.966 10.603 31.966 10.603l8.348-7.184s-29.57-11.452-35.213-15.036c-5.644-3.584-7.176-7.349-9.432-7.349-2.256 0-21.812 4.268-21.812 4.268z" fill="#fff"/><mask id="a" style="mask-type:luminance" maskUnits="userSpaceOnUse" x="139" y="119" width="126" height="60"><path d="M197.639 124.039s-8.032 2.908-10.768 4.103c-2.735 1.194-11.444 2.224-12.812 3.081-1.367.856-35.37 38.451-34.694 39.135.676.683 8.371 1.021 10.596.511 2.224-.511 29.907-27.345 29.907-27.345s3.592.173 3.592 2.908 1.706 32.469 1.706 32.469l35.37-.683.173-36.062s.338-3.584 3.073-3.419c2.735.165 31.966 10.603 31.966 10.603l8.348-7.184s-29.57-11.452-35.213-15.036c-5.644-3.584-7.176-7.349-9.432-7.349-2.256 0-21.812 4.268-21.812 4.268z" fill="#fff"/></mask><g mask="url(#a)"><path d="m259.018 140.16-1.996 2.153-6.784-2.688 1.572-2.358-1.116-.448-1.572 2.358c-2.358-.943-4.645-1.863-6.571-2.649l1.344-2.499-1.092-.456-1.344 2.507c-2.028-.786-3.514-1.446-4.001-1.69-.652-.33-1.847-.943-3.285-1.705l.456-2.673-1.109-.511-.448 2.602c-2.256-1.21-4.904-2.657-7.074-3.93l-.243-3.427c-.456-.393-.873-.786-1.266-1.14l.275 3.844a25.199 25.199 0 0 1-2.908-1.91c-2.24-1.926-2.562-1.926-2.759-1.926v.11c-.361-2.028-.597-3.435-.605-3.482l-1.163.197c0 .173.251 1.517.589 3.411l-2.743.566v-3.985l-1.179.22v4.009l-5.266 1.084v-4.04l-1.171.244v4.04l-5.825 1.203-.196-3.985-1.163.251.196 3.977-8.41 1.737-.48-2.924-1.124.425.448 2.743-3.489.715-.323-2.122-.29.126a8.854 8.854 0 0 1-.834.306l.291 1.934-6.099 1.257-.307-1.823-1.155.22.306 1.847-3.835.786-.605-1.69c-.2.06-.393.141-.574.244a3.101 3.101 0 0 0-.448.401l.487 1.352-3.993 4.668-.888-1.399-.786.896.912 1.447-7.381 8.646-1.462-1.399-.786.872 1.486 1.423-5.62 6.571-1.824-1.352-.786.88 1.847 1.368-6.641 7.773-2.146-1.249-.786.911 2.154 1.25-5.652 6.61c.448.047.936.095 1.447.126l5.242-6.139 1.745 1.014-4.834 5.219h1.572l4.284-4.621 1.808 1.045-3.294 3.38.26-.047c.652-.15 3.49-2.563 7.176-5.895l4.315-4.425.283.212.872-.786-.33-.252 5.29-5.431.535.519.864-.786-.574-.55 6.288-6.422.614.967.864-.833-.637-1.007 2.429-2.491.472 1.312.935-.896-.432-1.202 1.926-.362.204 1.242c.458.123.894.319 1.289.582l-.33-2.044 5.981-1.124.865 5.707-5.416.872c0 .346 0 .747.055 1.187l5.463-.935.739 4.896-5.824 1.14-.189-1.14c.157 3.144.369 6.941.574 10.706l.99 5.997-.644.251c0 .425.047.833.07 1.234l.786-.306 1.329 8.056h1.194l-1.391-8.441a68.93 68.93 0 0 1 5.502-1.73l1.525 10.061h1.195l-1.572-10.328a56.276 56.276 0 0 1 3.883-.833l1.8 11.083h1.186l-1.831-11.264a66.688 66.688 0 0 1 4.142-.534l.543 11.004-.786.786h1.697l.299-.291-.566-11.531a65.961 65.961 0 0 1 4.064-.173l.055 11.924h1.179l-.055-11.9c1.69 0 3.324.102 4.912.244l-.023 11.42h1.179l.039-11.42a59.9 59.9 0 0 1 5.612.888v-1.187a64.864 64.864 0 0 0-5.612-.865v-7.207a55.35 55.35 0 0 1 5.62.471v-1.179a55.325 55.325 0 0 0-5.62-.455v-8.269l5.636-1.124v-1.203l-5.636 1.124v-4.339l5.636-.966v-.425c.032-.265.084-.528.157-.786l-5.793.991v-6.288l5.062-.951c.274 1.213.617 2.41 1.029 3.584l1.101-.417a27.6 27.6 0 0 1-.896-3.105l4.079 2.563.197 1.336c.361.094.786.212 1.202.346l-.071-.983 3.003 1.887c1.399.448 2.971.967 4.63 1.517l-1.572-.991.424-2.444c1.706.864 3.576 1.8 5.502 2.759l-.967 1.839 1.132.385.904-1.69c1.878.928 3.82 1.871 5.722 2.798l-.644.951 1.155.401.566-.833c1.91.928 3.781 1.824 5.502 2.649l-.22.236 1.21.432.118-.134 1.431.684 1.124.401.88-.786-2.602-1.234 3.333-3.639 3.388 1.336 1.014-.864-3.545-1.407 1.98-2.154-1.163-.424zm-51.444-3.891-5.376 1.006-.22-4.496 5.573-1.273.023 4.763zm0-9.071v3.105l-5.627 1.273-.158-3.183 5.785-1.195zm-5.84 24.5.315 6.398c-1.729.236-3.435.519-5.078.786l-.99-6.076 5.753-1.108zm-.062-1.187-5.88 1.187-.786-4.716 6.422-1.1.244 4.629zm-.283-5.848-6.556 1.124-.943-5.785 7.2-1.352.299 6.013zm-6.752 7.247-3.726.739-.739-4.865 3.687-.637.778 4.763zm6.39-14.446-7.326 1.375-.66-4.064 7.774-1.768.212 4.457zm-.432-8.859.157 3.207-7.86 1.8-.535-3.301 8.238-1.706zm-21.332 4.41.589 3.56-2.594.59-.149-.44-.291.314-1.179-3.278 3.624-.746zm-4.716 1.21 1.359 3.789-3.293 3.56-1.855-2.916 3.789-4.433zm-4.583 5.369 1.824 2.876-6.964 7.515-2.052-1.973 7.192-8.418zm-7.962 9.314 2.036 2.004-5.557 5.997-1.989-1.477 5.51-6.524zm-11.043 16.058-1.792-1.038 6.547-7.663 1.957 1.446-6.712 7.255zm2.877 1.666-1.832-1.061 6.618-7.153 1.863 1.384-6.649 6.83zm7.482-7.679-1.894-1.399 5.455-5.895 1.831 1.76-5.392 5.534zm6.21-6.383-1.847-1.776 6.759-7.294 1.572 2.437-6.484 6.633zm7.309-7.498-1.572-2.468 3.089-3.341 1.117 3.105-2.634 2.704zm3.93-3.435-1.131-3.301 2.413-.55.589 3.545-1.871.306zm1.651-8.803 6.092-1.258.518 3.427-6.028 1.368-.582-3.537zm1.368 8.3-.59-3.6 6.005-1.367.59 3.843-6.005 1.124zm5.879-9.793 3.498-.724.542 3.317-3.529.786-.511-3.379zm1.281 8.449-.589-3.883 3.537-.786.676 4.001-3.624.668zm.181 1.163 3.608-.676.935 5.77-3.678.628-.865-5.722zm-3.93 20.877-1.077-6.564 5.809-1.155.943 6.194c-2.044.471-3.954.99-5.675 1.493v.032zm1.226 7.419-1.03-6.288a136.059 136.059 0 0 1 5.652-1.524l.919 6.067a69.797 69.797 0 0 0-5.541 1.714v.031zm5.596-9.219-.935-6.147 3.741-.786.983 6.076c-1.297.267-2.562.542-3.789.825v.032zm1.093 7.215-.92-6.052c1.227-.291 2.5-.566 3.805-.833l.982 6.052c-1.265.22-2.554.479-3.867.802v.031zm5.03-1.03-.982-6.075a70.211 70.211 0 0 1 4.944-.786l.314 6.343a51.812 51.812 0 0 0-4.276.487v.031zm4.119-27.722 5.321-.998v6.162l-5.046.865-.275-6.029zm.354 7.216 4.999-.857v4.535l-4.795.951-.204-4.629zm.283 5.824 4.716-.943v6.972a81.79 81.79 0 0 0-4.457.44l-.259-6.469zm.691 14.038-.314-6.406a87.315 87.315 0 0 1 4.402-.44v6.673a49.202 49.202 0 0 0-4.103.141l.015.032zm10.218.071a61.429 61.429 0 0 0-4.92-.244v-6.752a70.823 70.823 0 0 1 4.983-.118l-.063 7.114zm0-8.277c-1.658 0-3.324 0-4.983.118l-.039-7.129 5.085-1.014-.063 8.025zm.04-9.22-5.062 1.006v-4.496l5.101-.88-.039 4.37zm0-5.565-5.117.881v-6.186l5.164-.967-.047 6.272zm0-7.474-5.172.974v-4.81l5.219-1.187-.047 5.023zm0-6.233-5.227 1.186v-3.073l5.258-1.085-.031 2.972zm1.194-3.215 2.964-.613c.157.864.33 1.8.511 2.766l-3.482.786.007-2.939zm-.039 9.227v-5.069l3.718-.849c.33 1.698.692 3.443 1.053 5.022l-4.771.896zm4.716-7.349h-.063c-.165-.856-.322-1.697-.464-2.476.323.221.857.637 1.761 1.407a32.6 32.6 0 0 0 3.773 2.445l.259 3.545c-2.413-2.217-4.676-4.716-4.716-4.716l-.44.393-.11-.598zm1.635 6.288-.291.448a154.012 154.012 0 0 1-1.1-5.203c.919.998 2.892 3.065 4.842 4.803l.298.227.15 2.178-3.899-2.453zm10.218 6.422-5.078-3.191-.157-2.17c1.305.786 3.278 1.816 5.636 3.027l-.401 2.334zm.605-3.545c-2.735-1.415-4.857-2.562-5.942-3.254l-.275-3.851a270.755 270.755 0 0 0 6.799 3.725l-.582 3.38zm6.972 3.498a455.05 455.05 0 0 1-5.871-2.94l.573-3.356c1.36.715 2.445 1.273 2.971 1.572.527.299 1.965.865 3.97 1.682l-1.643 3.042zm6.893 3.372c-1.981-.959-3.93-1.918-5.84-2.853l1.682-3.144 6.453 2.601-2.295 3.396zm6.752 3.246-5.683-2.727 2.358-3.467 6.61 2.626-3.285 3.568z" fill="#92E3A9" style="mix-blend-mode:multiply"/></g><path d="M197.639 124.039s-8.032 2.908-10.768 4.103c-2.735 1.194-11.444 2.224-12.812 3.081-1.367.856-35.37 38.451-34.694 39.135.676.683 8.371 1.021 10.596.511 2.224-.511 29.907-27.345 29.907-27.345s3.592.173 3.592 2.908 1.706 32.469 1.706 32.469l35.37-.683.173-36.062s.338-3.584 3.073-3.419c2.735.165 31.966 10.603 31.966 10.603l8.348-7.184s-29.57-11.452-35.213-15.036c-5.644-3.584-7.176-7.349-9.432-7.349-2.256 0-21.812 4.268-21.812 4.268z" stroke="#263238" stroke-miterlimit="10"/><path d="M203.33 157.2c.503 4.527.637 13.362.637 13.362M202.969 154.842c-.786-5.258-2.248-23.753-2.248-23.753" stroke="#263238" stroke-miterlimit="10"/><path d="m222.682 138.729 8.811-2.602M232.688 135.726l2.806-.597M224.882 138.132h11.413M169.657 140.136l10.21 3.388-5.604.007M172.464 143.736h-2.602M203.872 134.626c0 .503-.267.904-.597.904-.33 0-.597-.401-.597-.904s.267-.896.597-.896c.33 0 .597.401.597.896zM204.878 144.333c0 .495-.275.904-.605.904-.33 0-.597-.409-.597-.904 0-.495.267-.896.597-.896.33 0 .605.401.605.896zM205.475 156.241c.33 0 .598-.405.598-.904s-.268-.904-.598-.904c-.33 0-.597.405-.597.904s.267.904.597.904zM206.278 165.744c0 .495-.267.904-.598.904-.33 0-.605-.409-.605-.904 0-.495.267-.896.605-.896.338 0 .598.401.598.896z" stroke="#263238" stroke-linecap="round" stroke-linejoin="round"/><path d="m193.898 122.427-.927.613c-.891.6-1.62 1.41-2.122 2.358l-2.083 3.891 5.502 4.763 4.378-6.288 8.182 5.322 3.034-6.854-1.926-2.775a4.126 4.126 0 0 0-3.144-1.761c-3.356-.243-10.045-.542-10.894.731z" fill="#fff" stroke="#263238" stroke-miterlimit="10"/><path d="M193.025 117.208s.346 9.055 1.368 9.432c1.022.378 3.93 2.563 5.644 2.563 1.713 0 4.102-3.419 4.267-3.93.166-.511-.683-9.236-.683-9.236l-9.912 1.03-.684.141z" fill="#fff"/><mask id="b" style="mask-type:luminance" maskUnits="userSpaceOnUse" x="193" y="116" width="12" height="14"><path d="M193.025 117.208s.346 9.055 1.368 9.432c1.022.378 3.93 2.563 5.644 2.563 1.713 0 4.102-3.419 4.267-3.93.166-.511-.683-9.236-.683-9.236l-9.912 1.03-.684.141z" fill="#fff"/></mask><g mask="url(#b)"><path d="m203.621 116.006-9.912 1.03-.684.173s.11 2.931.401 5.502c2.021.395 4.084.53 6.139.4a15.697 15.697 0 0 0 4.614-.888c-.212-2.672-.558-6.217-.558-6.217z" fill="#92E3A9" style="mix-blend-mode:multiply" opacity=".5"/></g><path d="M193.025 117.208s.346 9.055 1.368 9.432c1.022.378 3.93 2.563 5.644 2.563 1.713 0 4.102-3.419 4.267-3.93.166-.511-.683-9.236-.683-9.236l-9.912 1.03-.684.141z" stroke="#263238" stroke-miterlimit="10"/><path d="M185.496 102.51s-1.879-3.93-4.614-2.358 1.203 6.665 3.592 7.86c2.39 1.195 3.419 1.022 3.419 1.022l-2.397-6.524zM208.4 101.465s.747-4.292 3.796-3.553c3.05.739.645 6.744-1.336 8.544-1.981 1.8-3.01 1.91-3.01 1.91l.55-6.901z" fill="#fff" stroke="#263238" stroke-miterlimit="10"/><path d="M184.655 101.653s.063.205.189.566c.731 2.185 3.395 10.1 4.425 12.576 1.194 2.909 5.808 6.155 11.963 5.133 6.154-1.022 7.86-8.206 7.86-10.941 0-2.736-1.368-23.926-1.368-23.926s-7.349-7.522-13.362-9.912c-6.013-2.389-8.89.338-11.106 4.441-2.217 4.103-3.419 6.493-2.735 9.228.683 2.735 4.134 12.835 4.134 12.835z" fill="#fff"/><mask id="c" style="mask-type:luminance" maskUnits="userSpaceOnUse" x="180" y="74" width="30" height="47"><path d="M184.655 101.653s.063.205.189.566c.731 2.185 3.395 10.1 4.425 12.576 1.194 2.909 5.808 6.155 11.963 5.133 6.154-1.022 7.86-8.206 7.86-10.941 0-2.736-1.368-23.926-1.368-23.926s-7.349-7.522-13.362-9.912c-6.013-2.389-8.89.338-11.106 4.441-2.217 4.103-3.419 6.493-2.735 9.228.683 2.735 4.134 12.835 4.134 12.835z" fill="#fff"/></mask><g mask="url(#c)"><path d="M187.068 90.445c2.303-2.554 2.303-7.663 2.303-7.663a47.06 47.06 0 0 0 12.002 5.871c2.166.62 4.405.945 6.657.967l-.29-4.543s-7.349-7.522-13.362-9.912c-6.013-2.39-8.89.338-11.107 4.441-2.216 4.103-3.419 6.493-2.735 9.228.307 1.242 1.179 3.993 2.044 6.634.456-.503 2.444-2.767 4.488-5.023zM206.207 113.184c-2.555 4.087-5.62 5.62-10.722 4.087-4.605-1.383-7.962-7.734-8.583-8.984.896 2.602 1.84 5.266 2.358 6.532 1.195 2.908 5.809 6.154 11.963 5.132 6.155-1.021 7.86-8.205 7.86-10.941 0-.911-.149-3.93-.353-7.459" fill="#92E3A9" style="mix-blend-mode:multiply" opacity=".5"/></g><path d="M184.655 101.653s.063.205.189.566c.731 2.185 3.395 10.1 4.425 12.576 1.194 2.909 5.808 6.155 11.963 5.133 6.154-1.022 7.86-8.206 7.86-10.941 0-2.736-1.368-23.926-1.368-23.926s-7.349-7.522-13.362-9.912c-6.013-2.389-8.89.338-11.106 4.441-2.217 4.103-3.419 6.493-2.735 9.228.683 2.735 4.134 12.835 4.134 12.835z" stroke="#263238" stroke-miterlimit="10"/><path d="M190.456 92.59c.086.7-.189 1.313-.614 1.36-.424.048-.833-.479-.911-1.178-.079-.7.188-1.313.613-1.368.424-.055.833.487.912 1.187zM202.418 91.223c.087.708-.188 1.313-.613 1.36-.424.047-.825-.48-.911-1.18-.087-.699.196-1.312.613-1.359.416-.047.833.48.911 1.18z" fill="#263238"/><path d="M186.36 87.812s2.052-2.908 5.125-1.879" stroke="#263238" stroke-width="2" stroke-linecap="round" stroke-linejoin="round"/><path d="m197.302 101.653 1.705-1.705-1.194-7.011M191.485 104.043a4.965 4.965 0 0 0 4.449 3.081" stroke="#263238" stroke-linecap="round" stroke-linejoin="round"/><path d="M187.39 78.066s2.051 3.93.684 6.154c-1.368 2.224-3.765 2.735-4.787 3.93-1.022 1.195-.684 7.011 0 8.544a33.408 33.408 0 0 1 1.368 4.959s-4.276-7.522-5.502-9.738c-1.227-2.217-4.276-9.92-1.572-14.148 2.703-4.229 5.643-1.03 6.665-3.42 1.022-2.389 1.368-7.175 9.911-9.573 8.544-2.397 12.82 2.358 14.015 5.133 1.194 2.774 5.502 4.952 8.717 4.095 3.214-.857 1.029-1.879 1.029-1.879s3.757 0 2.901 5.298c-.857 5.298-5.463 8.717-11.963 8.89-6.501.173-16.852-1.58-21.466-8.246z" fill="#263238" stroke="#263238" stroke-miterlimit="10"/><path d="M186.659 75.024s7.719-6.815 12.199-6.642c4.48.173 6.815 7.86 12.199 7.71" stroke="#fff" stroke-width=".5" stroke-miterlimit="10"/><path d="m185.048 76.1 2.869 2.516s4.307-4.308 9.872-2.358c5.565 1.949 10.587 8.253 15.791 7.718 5.203-.534 6.995-5.926 6.288-8.976M185.401 77.358s-3.23-.896-4.661 1.792c-1.43 2.688.354 6.461.354 6.461" stroke="#fff" stroke-width=".5" stroke-miterlimit="10"/><path d="M187.916 78.6s-1.972.18-1.972 2.869c0 2.688-.543 4.488-2.516 5.384-1.972.896-2.688 1.62-1.972 2.696" stroke="#fff" stroke-width=".5" stroke-miterlimit="10"/><path d="M213.006 89.384c-.637-1.737-3.231-2.358-5.691-2.68-2.46-.323-8.575 1.493-9.636 1.808a4.826 4.826 0 0 0-4.52.345c-1.446 0-7.522-.063-9.636.865-2.272 1.006-4.614 2.271-4.756 4.119-.102 1.39 1.179 2.161 2.241 2.483.495 2.248 2.31 5.715 6.453 5.502 5.234-.251 7.474-3.246 7.349-5.934-.079-1.65-.433-4.653-.582-5.848a3.147 3.147 0 0 1 2.877-.078c.181 1.226.644 4.15 1.006 5.737.605 2.618 3.576 4.897 8.646 3.726 4.032-.935 4.85-4.755 4.716-7.074 1.014-.574 2.044-1.659 1.533-2.971zm-25.624 10.886c-4.158.197-4.881-4.504-4.912-4.716a.785.785 0 0 0-.637-.66c-.393-.071-1.533-.448-1.494-.951.055-.786 1.345-1.706 3.82-2.798a17.104 17.104 0 0 1 4.716-.66c1.4-.071 2.799-.087 3.797-.08.157 1.282.479 4.056.55 5.566.134 1.399-1.022 4.071-5.809 4.299h-.031zm22.959-9.031a.782.782 0 0 0-.432.786c0 .204.597 4.92-3.459 5.856-4.668 1.069-6.484-1.195-6.799-2.547-.314-1.352-.786-4.229-.966-5.502a71.787 71.787 0 0 1 3.67-.951 16.962 16.962 0 0 1 4.716-.645c2.681.385 4.166.944 4.433 1.659.228.495-.762 1.163-1.131 1.344h-.032z" fill="#263238"/><path d="m158.952 265.11 8.033 14.384 1.729-11.004s-6.626-3.71-9.762-3.38z" fill="#92E3A9" stroke="#263238" stroke-miterlimit="10"/><path d="M207.213 271.532s-3.757 2.051-4.96 3.93c-1.203 1.878-3.073 2.562-1.368 4.951a28.401 28.401 0 0 1 4.26 10.093c.684 3.592 3.42 6.492 6.328 8.716 2.908 2.225 7.514 2.736 8.025.173.511-2.562-5.809-12.992-6.288-14.871a13.165 13.165 0 0 1-.346-5.125c.141-1.886-2.743-8.889-5.651-7.867z" fill="#263238" stroke="#263238" stroke-miterlimit="10"/><path d="M219.506 299.466a5.392 5.392 0 0 1-4.26.299c-4.787-1.368-7.011-7.004-9.432-13.158a37.102 37.102 0 0 0-5.204-9.07c-.542.786-.707 1.572.244 2.916a28.408 28.408 0 0 1 4.292 10.053c.684 3.592 3.419 6.492 6.327 8.716 2.908 2.225 7.475 2.728 8.033.244zM210.969 268.285s-5.635 3.592-5.808 5.298c-.173 1.706 1.368 7.011 2.051 7.86.684.849 2.736-2.908 3.419-1.886l1.706 2.57.684-4.622-2.052-9.22z" fill="#fff" stroke="#263238" stroke-miterlimit="10"/><path d="m166.812 267.499-1.878 25.632 10.933 15.044.857-34.521-9.912-6.155z" fill="#fff"/><mask id="d" style="mask-type:luminance" maskUnits="userSpaceOnUse" x="164" y="267" width="13" height="42"><path d="m166.812 267.499-1.878 25.632 10.933 15.044.857-34.521-9.912-6.155z" fill="#fff"/></mask><g mask="url(#d)"><path d="m166.042 278.008 2.193.134a19.113 19.113 0 0 1 8.308 2.79l.181-7.278-9.912-6.155-.77 10.509z" fill="#92E3A9" style="mix-blend-mode:multiply" opacity=".5"/></g><path d="m166.812 267.499-1.878 25.632 10.933 15.044.857-34.521-9.912-6.155z" stroke="#263238" stroke-miterlimit="10"/><path d="M176.323 289.838a17.564 17.564 0 0 0-10.768-5.227l-.621 8.567 10.933 15.036.456-18.376z" fill="#fff" stroke="#263238" stroke-miterlimit="10"/><path d="M176.064 315.013s.856-5.132 0-8.717c-.857-3.584-6.666-13.362-12.309-19.312-5.644-5.95-13.496-17.779-18.455-22.558-4.96-4.779-11.107-3.592-11.107 4.441s4.952 21.874 12.301 29.224c7.349 7.349 17.78 15.523 20.483 16.922 2.704 1.399 5.817 2.531 9.087 0z" fill="#263238" stroke="#263238" stroke-miterlimit="10"/><path d="M176.417 310.47a42.875 42.875 0 0 0-8.214-8.45c-6.327-5.124-11.114-16.576-14.014-23.752-1.8-4.441-5.942-10.116-8.85-13.803v-.039c-4.96-4.787-11.107-3.592-11.107 4.441s4.952 21.874 12.301 29.223c7.349 7.35 17.74 15.524 20.444 16.923 2.704 1.399 5.817 2.562 9.063 0 .227-1.504.353-3.022.377-4.543z" fill="#fff" stroke="#263238" stroke-miterlimit="10"/><path d="M176.158 314.156c-2.217-3.403-6.414-7.569-11.397-12.135-8.033-7.35-14.698-29.735-20.68-36.573-3.647-4.166-7.223-2.114-9.432.126a11.282 11.282 0 0 0-.448 3.293c0 8.033 4.952 21.874 12.301 29.224 7.349 7.349 17.771 15.523 20.475 16.922 2.704 1.399 5.817 2.562 9.063 0 .023 0 .023-.322.118-.857z" fill="#fff" stroke="#263238" stroke-miterlimit="10"/><path d="m181.746 197.703 2.052-21.702s15.209-4.276 22.731-3.419a94.463 94.463 0 0 1 15.908 3.584s2.909 28.375 6.288 42.216c3.38 13.842 4.952 34.356 5.125 42.043.173 7.687-4.96 10.423-6.327 12.136-1.368 1.714-10.077 12.136-10.077 12.136s-5.502-3.419-7.184-8.89c-1.682-5.47-.684-7.687-.684-7.687l12.859-9.746s-5.297-31.275-9.432-38.286c-4.134-7.011-7.176-9.739-11.617-10.933-4.441-1.195-4.614-.684-10.257 3.073a66.797 66.797 0 0 0-9.911 8.206l-4.158 57.81s-6.288-5.981-10.423-8.717a68.972 68.972 0 0 0-7.687-4.441s6.901-51.876 10.32-54.76c3.419-2.885 12.474-12.623 12.474-12.623z" fill="#92E3A9"/><mask id="e" style="mask-type:luminance" maskUnits="userSpaceOnUse" x="158" y="172" width="76" height="113"><path d="m181.746 197.703 2.052-21.702s15.209-4.276 22.731-3.419a94.463 94.463 0 0 1 15.908 3.584s2.909 28.375 6.288 42.216c3.38 13.842 4.952 34.356 5.125 42.043.173 7.687-4.96 10.423-6.327 12.136-1.368 1.714-10.077 12.136-10.077 12.136s-5.502-3.419-7.184-8.89c-1.682-5.47-.684-7.687-.684-7.687l12.859-9.746s-5.297-31.275-9.432-38.286c-4.134-7.011-7.176-9.739-11.617-10.933-4.441-1.195-4.614-.684-10.257 3.073a66.797 66.797 0 0 0-9.911 8.206l-4.158 57.81s-6.288-5.981-10.423-8.717a68.972 68.972 0 0 0-7.687-4.441s6.901-51.876 10.32-54.76c3.419-2.885 12.474-12.623 12.474-12.623z" fill="#fff"/></mask><g mask="url(#e)"><path d="M233.858 261.219c-1.949 0-4.999.15-6.948-4.393-3.05-7.114-5.754-27.77-10.501-37.933-4.748-10.163-14.227-18.974-19.304-18.974-5.078 0 6.437 7.451 6.437 7.451s-4.409-2.027-5.423-2.027c-1.014 0-13.551 6.775-17.615 9.141-4.063 2.366-3.387 4.409-4.716 10.501-1.155 5.187-1.815 39.968-1.988 50.304 1.894 1.674 3.285 2.994 3.285 2.994l4.174-57.834a66.9 66.9 0 0 1 9.888-8.229c5.643-3.757 5.808-4.268 10.257-3.073 4.449 1.194 7.514 3.93 11.617 10.933 4.103 7.003 9.432 38.286 9.432 38.286l-12.819 9.746s-1.022 2.217.683 7.688c1.706 5.47 7.184 8.889 7.184 8.889s8.709-10.43 10.077-12.136c1.368-1.705 6.091-4.26 6.28-11.334z" fill="#263238" style="mix-blend-mode:multiply" opacity=".2"/></g><path d="m181.746 197.703 2.052-21.702s15.209-4.276 22.731-3.419a94.463 94.463 0 0 1 15.908 3.584s2.909 28.375 6.288 42.216c3.38 13.842 4.952 34.356 5.125 42.043.173 7.687-4.96 10.423-6.327 12.136-1.368 1.714-10.077 12.136-10.077 12.136s-5.502-3.419-7.184-8.89c-1.682-5.47-.684-7.687-.684-7.687l12.859-9.746s-5.297-31.275-9.432-38.286c-4.134-7.011-7.176-9.739-11.617-10.933-4.441-1.195-4.614-.684-10.257 3.073a66.797 66.797 0 0 0-9.911 8.206l-4.158 57.81s-6.288-5.981-10.423-8.717a68.972 68.972 0 0 0-7.687-4.441s6.901-51.876 10.32-54.76c3.419-2.885 12.474-12.623 12.474-12.623z" stroke="#263238" stroke-miterlimit="10"/><path d="M222.438 258.374s1.068 7.074 1.572 8.143" stroke="#263238" stroke-miterlimit="10"/><path d="m203.675 174.351-1.399 21.607a5.772 5.772 0 0 0 2.799-1.572c.998-1.203 2.004-10.611 2.004-10.611M191.666 175.946l5.604-.794.401-1.407M209.28 173.95l-.401 1.202-3.002-.204M211.277 173.95l-.197 1.603 4.598.998M184.27 196.563s4.401-.401 8.999 5.195M191.469 198.363s.998 0 3.6 4.001" stroke="#263238" stroke-linecap="round" stroke-linejoin="round"/><path d="M181.409 152.413s2.727-2.358 3.757-3.419c1.029-1.061 1.367-3.592 2.562-2.051 1.195 1.54 1.195 3.419.346 3.93-.849.511-2.908 1.572-3.419 2.224-.511.652-4.614 1.022-3.246-.684zM221.927 140.812s-3.325-1.47-4.614-2.146c-1.289-.676-2.358-3.018-3.058-1.187-.699 1.832-.118 3.616.849 3.852.967.235 3.231.597 3.93 1.1.7.503 4.708-.393 2.893-1.619z" fill="#fff" stroke="#263238" stroke-miterlimit="10"/><path d="m183.287 129.171.684 24.437 3.073 22.731 2.908-.511-3.592-22.904-.173-24.437-2.9.684zM212.338 120.965s5.298 18.802 5.816 21.026c.519 2.224 1.879 14.525 2.217 15.72.338 1.195-2.217 19.139-2.217 19.139l2.901.684 2.051-21.702-2.358-13.676-5.298-21.529-3.112.338z" fill="#263238" stroke="#263238" stroke-miterlimit="10"/><path d="m189.3 171.702-1.273-1.124-1.352 2.083.369 3.678 2.908-.511-.652-4.126zM221.424 173.706l-.731-2.083-2.004 1.383c-.307 2.272-.535 3.875-.535 3.875l2.901.684.369-3.859z" fill="#fff" stroke="#263238" stroke-miterlimit="10"/><path d="M200.202 130.028s-9.566-5.502-9.912-3.757c-.345 1.745.173 10.595 1.195 10.218 1.022-.377 8.89-4.771 8.89-4.771s10.084 5.628 10.257 2.892c.173-2.735-.346-9.911-2.735-10.084-2.39-.173-7.695 5.502-7.695 5.502z" fill="#263238" stroke="#263238" stroke-miterlimit="10"/><path d="m201.797 130.625 4.991-2.271M201.797 130.625l4.535 1.061M195.14 129.564l3.938 1.36-3.781 1.21M201.498 129.415s.299 1.965 0 2.421c-.298.456-1.517.298-1.973-.307" stroke="#fff" stroke-width=".5" stroke-linecap="round" stroke-linejoin="round"/><path d="M238.276 150.739s-2.68-1.132-.786-2.987c1.894-1.855 21.851-6.288 25.631-6.217 3.781.071 5.895 2.814 6.697 5.966.802 3.152-1.038 6.414-5.015 8.017-3.977 1.603-20.994 3.867-23.635 3.443-2.641-.425-2.892-8.222-2.892-8.222z" fill="#fff"/><mask id="f" style="mask-type:luminance" maskUnits="userSpaceOnUse" x="236" y="141" width="35" height="19"><path d="M238.276 150.739s-2.68-1.132-.786-2.987c1.894-1.855 21.851-6.288 25.631-6.217 3.781.071 5.895 2.814 6.697 5.966.802 3.152-1.038 6.414-5.015 8.017-3.977 1.603-20.994 3.867-23.635 3.443-2.641-.425-2.892-8.222-2.892-8.222z" fill="#fff"/></mask><g mask="url(#f)"><path d="m269.88 147.65-1.289.275c-.235-1.391-.495-2.79-.786-4.173h.15a6.2 6.2 0 0 0-1.69-1.376c.039.181.094.369.133.558l-5.981 1.517a29.718 29.718 0 0 0-.912-2.476l-1.187.197c.346.786.668 1.674.959 2.57l-7.985 2.036a24.395 24.395 0 0 0-1.431-2.861l-1.226.29a21.593 21.593 0 0 1 1.478 2.869l-6.288 1.572a16.142 16.142 0 0 0-1.848-2.68c-.416.126-.786.244-1.179.369a14.926 14.926 0 0 1 1.903 2.594l-1.014.252a9.431 9.431 0 0 0-3.412 1.572c0 .126 0 .684.11 1.454a8.177 8.177 0 0 1 3.592-1.918l1.282-.322c.451.961.799 1.967 1.037 3.002l-5.643 1.179c.063.388.141.773.235 1.156l5.628-1.171c.151 1.011.211 2.035.181 3.057l-4.787.786a2.025 2.025 0 0 0 1.289.983l3.419-.551c0 .165-.039.323-.055.488l1.187-.102c0-.189.04-.386.055-.574l6.383-1.022v.841l1.226-.173v-.872l7.16-1.148c0 .267-.047.535-.071.786l1.234-.22c0-.244.048-.487.063-.731l4.166-.676a9.13 9.13 0 0 0 2.099-1.525l-6.217.998a31.58 31.58 0 0 0-.15-3.89l5.942-1.242c.213 1.352.385 2.696.535 4.008.393-.4.736-.846 1.022-1.328-.118-.967-.252-1.933-.401-2.916l1.25-.259a5.49 5.49 0 0 0-.166-1.203zm-25.513 2.052 6.154-1.572c.397 1.092.718 2.211.959 3.348l-6.068 1.265a15.79 15.79 0 0 0-1.045-3.041zm1.501 7.317a17.705 17.705 0 0 0-.228-3.144l6.068-1.265c.199 1.113.341 2.236.425 3.364l-6.265 1.045zm5.832-9.172 7.86-2.013c.345 1.247.607 2.516.786 3.797l-7.695 1.572a27.291 27.291 0 0 0-.951-3.356zm1.651 7.97a34.413 34.413 0 0 0-.432-3.419l7.608-1.572c.119 1.274.159 2.555.118 3.835l-7.294 1.156zm8.182-6.422a30.598 30.598 0 0 0-.786-3.851l5.919-1.502a80.75 80.75 0 0 1 .786 4.119l-5.919 1.234z" fill="#92E3A9" style="mix-blend-mode:multiply"/></g><path d="M238.276 150.739s-2.68-1.132-.786-2.987c1.894-1.855 21.851-6.288 25.631-6.217 3.781.071 5.895 2.814 6.697 5.966.802 3.152-1.038 6.414-5.015 8.017-3.977 1.603-20.994 3.867-23.635 3.443-2.641-.425-2.892-8.222-2.892-8.222z" stroke="#263238" stroke-miterlimit="10"/><path d="m233.441 150.653 1.918 7.278 5.156-.731a6.43 6.43 0 0 0-2.295-7.341l-4.779.794z" fill="#fff" stroke="#263238" stroke-miterlimit="10"/><path d="M233.441 150.653s-8.559-10.218-9.699-9.865c-1.14.354-7.805.786-8.646 1.619-.841.834.857 3.317.857 3.317a15.221 15.221 0 0 0-.652 3.066c0 1.084 1.572 2.193 1.572 2.193-.057.941-.001 1.885.165 2.814.251.786.683 1.045.833 1.572.149.526-.102 2.538 1.297 2.994a7.074 7.074 0 0 0 3.882.401l1.793-.558s4.04.88 5.722.535c1.682-.346 4.771-.786 4.771-.786l-1.895-7.302z" fill="#fff"/><mask id="g" style="mask-type:luminance" maskUnits="userSpaceOnUse" x="214" y="140" width="22" height="19"><path d="M233.441 150.653s-8.559-10.218-9.699-9.865c-1.14.354-7.805.786-8.646 1.619-.841.834.857 3.317.857 3.317a15.221 15.221 0 0 0-.652 3.066c0 1.084 1.572 2.193 1.572 2.193-.057.941-.001 1.885.165 2.814.251.786.683 1.045.833 1.572.149.526-.102 2.538 1.297 2.994a7.074 7.074 0 0 0 3.882.401l1.793-.558s4.04.88 5.722.535c1.682-.346 4.771-.786 4.771-.786l-1.895-7.302z" fill="#fff"/></mask><g mask="url(#g)"><path d="M230.556 158.701a71.062 71.062 0 0 1 3.215-.542c-1.501.165-3.741.275-5.101-.33-2.193-.975-4.865-2.429-7.546-1.462a22.98 22.98 0 0 0-2.806 1.226 1.452 1.452 0 0 0 .841.731 7.078 7.078 0 0 0 3.883.401l1.792-.558s4.04.88 5.722.534z" fill="#92E3A9" style="mix-blend-mode:multiply" opacity=".5"/></g><path d="M233.441 150.653s-8.559-10.218-9.699-9.865c-1.14.354-7.805.786-8.646 1.619-.841.834.857 3.317.857 3.317a15.221 15.221 0 0 0-.652 3.066c0 1.084 1.572 2.193 1.572 2.193-.057.941-.001 1.885.165 2.814.251.786.683 1.045.833 1.572.149.526-.102 2.538 1.297 2.994a7.074 7.074 0 0 0 3.882.401l1.793-.558s4.04.88 5.722.535c1.682-.346 4.771-.786 4.771-.786l-1.895-7.302zM215.938 145.724l7.742-.448M216.865 150.983l7.687-.605M217.863 155.329l6.508-.959" stroke="#263238" stroke-miterlimit="10"/><path d="M168.762 166.766s2.216-1.879-.173-3.074c-2.39-1.194-22.731.511-26.323 1.706-3.592 1.195-4.787 4.449-4.614 7.695.173 3.246 2.908 5.808 7.176 6.154 4.268.346 21.222-2.562 23.58-3.765 2.358-1.202.354-8.716.354-8.716z" fill="#fff"/><mask id="h" style="mask-type:luminance" maskUnits="userSpaceOnUse" x="137" y="163" width="33" height="17"><path d="M168.762 166.766s2.216-1.879-.173-3.074c-2.39-1.194-22.731.511-26.323 1.706-3.592 1.195-4.787 4.449-4.614 7.695.173 3.246 2.908 5.808 7.176 6.154 4.268.346 21.222-2.562 23.58-3.765 2.358-1.202.354-8.716.354-8.716z" fill="#fff"/></mask><g mask="url(#h)"><path d="M168.989 174.987a3.13 3.13 0 0 0 .504-1.281l-6.288 1.053c0-.888 0-1.776.11-2.649l6.288-.903c0-.393-.079-.786-.126-1.172l-6.021.865c.131-1.018.349-2.022.652-3.003l4.889-.432c-.094-.432-.165-.699-.165-.699.175-.154.333-.325.472-.511l-4.716.416a8.642 8.642 0 0 1 2.358-3.301c-.472 0-1.03-.063-1.635-.071a10.718 10.718 0 0 0-2.075 3.49l-6.374.558a24.202 24.202 0 0 1 1.674-3.867l-1.368.087a24.558 24.558 0 0 0-1.572 3.93l-6.932.613c.213-1.304.525-2.588.935-3.844l-1.281.149a27.281 27.281 0 0 0-.857 3.797l-5.219.464c.399-1.26.934-2.472 1.595-3.616-.507.087-1.008.205-1.501.354a19.609 19.609 0 0 0-1.352 3.348l-2.649.228a8.538 8.538 0 0 0-.408 1.218l2.735-.243a14.551 14.551 0 0 0-.306 4.26l-2.406.353c.124.388.287.762.488 1.117l2.059-.299c.176 1.013.464 2.004.857 2.955a9.412 9.412 0 0 0 2.672.786l3.427-.566c0 .205.063.409.094.613l1.172-.094-.166-.668 6.564-1.093c.078.315.18.637.275.952l1.179-.181a14.274 14.274 0 0 1-.283-.967l5.651-.943c0 .322 0 .636.047.951.409-.079.786-.157 1.195-.244v-.904l5.808-1.006zm-27.132-5.14 5.4-.472a32.38 32.38 0 0 0-.205 3.875l-5.541.786a13.354 13.354 0 0 1 .314-4.189h.032zm.723 8.347a12.856 12.856 0 0 1-.928-2.979l5.432-.786c0 1.014.118 2.004.228 2.971l-4.732.794zm5.887-.982a38.957 38.957 0 0 1-.228-2.94l6.43-.928c.009.936.096 1.869.259 2.791l-6.461 1.077zm6.225-5.062-6.469.935c0-1.276.074-2.552.22-3.82l6.776-.589a19 19 0 0 0-.558 3.458l.031.016zm7.223 2.814-5.879.974a15.843 15.843 0 0 1-.251-2.759l6.225-.896c-.047.889-.095 1.785-.095 2.681zm.221-3.891-6.288.912c.08-1.155.27-2.3.565-3.419l6.344-.558a18.997 18.997 0 0 0-.598 3.065h-.023z" fill="#92E3A9" style="mix-blend-mode:multiply"/></g><path d="M168.762 166.766s2.216-1.879-.173-3.074c-2.39-1.194-22.731.511-26.323 1.706-3.592 1.195-4.787 4.449-4.614 7.695.173 3.246 2.908 5.808 7.176 6.154 4.268.346 21.222-2.562 23.58-3.765 2.358-1.202.354-8.716.354-8.716z" stroke="#263238" stroke-miterlimit="10"/><path d="m173.376 165.233.337 7.514-5.124.857a6.423 6.423 0 0 1 0-7.687l4.787-.684z" fill="#fff" stroke="#263238" stroke-miterlimit="10"/><path d="M173.375 165.233s5.125-12.309 6.288-12.309c1.163 0 7.695-1.572 8.717-1.022 1.022.551.173 3.419.173 3.419a15.342 15.342 0 0 1 1.572 2.728c.338 1.03-.857 2.57-.857 2.57.333.882.562 1.8.684 2.735 0 .849-.346 1.195-.346 1.706 0 .511.857 2.358-.338 3.246a7.124 7.124 0 0 1-3.592 1.572h-1.879s-3.592 2.052-5.297 2.217c-1.706.165-4.787.684-4.787.684l-.338-7.546z" fill="#fff"/><mask id="i" style="mask-type:luminance" maskUnits="userSpaceOnUse" x="173" y="151" width="18" height="22"><path d="M173.375 165.233s5.125-12.309 6.288-12.309c1.163 0 7.695-1.572 8.717-1.022 1.022.551.173 3.419.173 3.419a15.342 15.342 0 0 1 1.572 2.728c.338 1.03-.857 2.57-.857 2.57.333.882.562 1.8.684 2.735 0 .849-.346 1.195-.346 1.706 0 .511.857 2.358-.338 3.246a7.124 7.124 0 0 1-3.592 1.572h-1.879s-3.592 2.052-5.297 2.217c-1.706.165-4.787.684-4.787.684l-.338-7.546z" fill="#fff"/></mask><g mask="url(#i)"><path d="M183.797 169.847h1.879a7.133 7.133 0 0 0 3.592-1.572 1.878 1.878 0 0 0 .597-1.91 10.249 10.249 0 0 1-3.521 1.407c-2.68.487-5.596.731-8.033 1.941a30.028 30.028 0 0 0-4.464 2.987c.613-.102 3.144-.519 4.653-.668 1.705-.134 5.297-2.185 5.297-2.185z" fill="#92E3A9" style="mix-blend-mode:multiply" opacity=".5"/></g><path d="M173.375 165.233s5.125-12.309 6.288-12.309c1.163 0 7.695-1.572 8.717-1.022 1.022.551.173 3.419.173 3.419a15.342 15.342 0 0 1 1.572 2.728c.338 1.03-.857 2.57-.857 2.57.333.882.562 1.8.684 2.735 0 .849-.346 1.195-.346 1.706 0 .511.857 2.358-.338 3.246a7.124 7.124 0 0 1-3.592 1.572h-1.879s-3.592 2.052-5.297 2.217c-1.706.165-4.787.684-4.787.684l-.338-7.546zM188.585 155.321l-7.523 1.879M189.268 160.619l-7.522 1.706M189.607 165.06l-6.493 1.022" stroke="#263238" stroke-miterlimit="10"/></svg>