<svg width="11" height="14" viewBox="0 0 11 14" fill="none" xmlns="http://www.w3.org/2000/svg">
<mask id="path-1-inside-1_2072_3359" fill="white">
<path d="M0 14C0 10.9931 2.46244 8.55556 5.5 8.55556C8.53757 8.55556 11 10.9931 11 14M8.64286 3.11111C8.64286 4.82933 7.23572 6.22222 5.5 6.22222C3.76425 6.22222 2.35714 4.82933 2.35714 3.11111C2.35714 1.39289 3.76425 0 5.5 0C7.23572 0 8.64286 1.39289 8.64286 3.11111Z"/>
</mask>
<path d="M-2 14C-2 15.1046 -1.10457 16 0 16C1.10457 16 2 15.1046 2 14H0H-2ZM9 14C9 15.1046 9.89543 16 11 16C12.1046 16 13 15.1046 13 14H11H9ZM0 14H2C2 12.1168 3.54781 10.5556 5.5 10.5556V8.55556V6.55556C1.37706 6.55556 -2 9.86945 -2 14H0ZM5.5 8.55556V10.5556C7.45219 10.5556 9 12.1168 9 14H11H13C13 9.86945 9.62295 6.55556 5.5 6.55556V8.55556ZM8.64286 3.11111H6.64286C6.64286 3.70565 6.15036 4.22222 5.5 4.22222V6.22222V8.22222C8.32109 8.22222 10.6429 5.95301 10.6429 3.11111H8.64286ZM5.5 6.22222V4.22222C4.84962 4.22222 4.35714 3.70567 4.35714 3.11111H2.35714H0.357143C0.357143 5.953 2.67887 8.22222 5.5 8.22222V6.22222ZM2.35714 3.11111H4.35714C4.35714 2.51656 4.84962 2 5.5 2V0V-2C2.67887 -2 0.357143 0.269227 0.357143 3.11111H2.35714ZM5.5 0V2C6.15036 2 6.64286 2.51657 6.64286 3.11111H8.64286H10.6429C10.6429 0.269214 8.32109 -2 5.5 -2V0Z" fill="#FAFAFA" mask="url(#path-1-inside-1_2072_3359)"/>
</svg>
