<svg width="393" height="353" fill="none" xmlns="http://www.w3.org/2000/svg"><g clip-path="url(#a)"><path d="M68.844 326.537s-19.71-34.611-15.163-43.413c4.546-8.801 16.174 7.031 16.174 7.031s-10.11-32.267-4.546-46.351c5.566-14.084 15.156 0 15.624 9.977.47 9.977-2.016 26.985-2.016 26.985s4.04-35.199 13.638-24.642c9.597 10.558-12.127 45.764-12.127 45.764s14.656-8.184 14.136 2.351c-.521 10.535-17.685 19.947-17.685 19.947" fill="#92E3A9"/><path d="M90.858 312.468h-34.09l3.407 40.213H87.45l3.408-40.213z" fill="#263238"/><path d="m343.112 108.93-38.569 2.396a8.51 8.51 0 0 0-7.983 8.608l.193 15.497-11.212 1.191 11.301 5.833a8.53 8.53 0 0 0 2.59 5.997 8.515 8.515 0 0 0 6.078 2.395l37.446-.684a8.517 8.517 0 0 0 5.801-2.433 8.507 8.507 0 0 0 2.546-5.751l.863-24.225a8.504 8.504 0 0 0-9.054-8.824z" fill="#fff" stroke="#263238" stroke-miterlimit="10"/><path d="M335.3 112.933h-25.259v15.907H335.3v-15.907z" fill="#8C8C8C" stroke="#263238" stroke-linecap="round" stroke-linejoin="round"/><path d="M335.299 112.933h-14.344v15.907h14.344v-15.907z" fill="#696969" stroke="#263238" stroke-linecap="round" stroke-linejoin="round"/><path d="M327.815 112.933h-10.29v15.907h10.29v-15.907z" fill="#fff" stroke="#263238" stroke-linecap="round" stroke-linejoin="round"/><path d="M309.854 141.711v-4.04c0-1.942 1.376-3.237 3.452-3.237 2.075 0 3.452 1.265 3.452 3.177 0 .09-.075.149-.186.164l-.662.045c-.119 0-.194 0-.194-.09v-.089a2.41 2.41 0 0 0-4.821 0v4.114a2.41 2.41 0 1 0 4.821 0 .15.15 0 0 1 .012-.072.148.148 0 0 1 .043-.059.16.16 0 0 1 .065-.033.168.168 0 0 1 .074.001h.662c.111 0 .186 0 .186.074v.075c0 1.927-1.377 3.206-3.452 3.206-2.076 0-3.452-1.279-3.452-3.236zM318.73 135.305a.801.801 0 0 1 .454-.772.801.801 0 0 1 .884.138.795.795 0 0 1-.094 1.239.796.796 0 0 1-.448.139.745.745 0 0 1-.796-.744zm.283 9.345v-7.054a.17.17 0 0 1 .01-.074.175.175 0 0 1 .102-.106.17.17 0 0 1 .074-.013h.662a.184.184 0 0 1 .077.01.182.182 0 0 1 .117.183v7.054a.178.178 0 0 1-.011.076.182.182 0 0 1-.106.107.184.184 0 0 1-.077.01h-.662a.17.17 0 0 1-.074-.013.175.175 0 0 1-.102-.106.17.17 0 0 1-.01-.074zM327.844 139.754v4.896a.17.17 0 0 1-.01.074.175.175 0 0 1-.102.107.186.186 0 0 1-.074.012h-.662a.173.173 0 0 1-.142-.052.178.178 0 0 1-.052-.141v-.529c0-.059-.044-.089-.089 0a3.11 3.11 0 0 1-2.291.871c-1.25 0-2.426-.603-2.426-2.15 0-1.548 1.116-2.381 3.028-2.381h1.719c.01.001.02 0 .03-.003a.082.082 0 0 0 .025-.016.063.063 0 0 0 .016-.026.073.073 0 0 0 .003-.03v-.543a1.484 1.484 0 0 0-1.718-1.614c-.93 0-1.533.379-1.697.997a.157.157 0 0 1-.023.07.164.164 0 0 1-.119.082.169.169 0 0 1-.074-.003l-.744-.09c-.119 0-.193-.059-.178-.156.193-1.079 1.28-1.815 2.797-1.815 1.801-.03 2.783.989 2.783 2.44zm-1.042 2.708v-1.131c.002-.01 0-.02-.003-.029a.063.063 0 0 0-.016-.026.082.082 0 0 0-.025-.016.077.077 0 0 0-.03-.003h-1.54c-1.28 0-2.15.543-2.15 1.488s.744 1.302 1.614 1.302c1.094.015 2.15-.558 2.15-1.585zM329.981 142.916a6.369 6.369 0 0 1-.209-1.808 6.723 6.723 0 0 1 .194-1.793 3.05 3.05 0 0 1 5.743 0c.154.59.224 1.199.209 1.808a6.373 6.373 0 0 1-.209 1.808 3.022 3.022 0 0 1-2.864 2.046 3.026 3.026 0 0 1-2.864-2.046v-.015zm4.761-.305c.094-.49.134-.989.119-1.488.02-.499-.02-.999-.119-1.488a1.97 1.97 0 0 0-3.794 0c-.16.986-.16 1.99 0 2.976a1.974 1.974 0 0 0 1.897 1.435 1.97 1.97 0 0 0 1.897-1.435z" fill="#263238"/><path d="m181.566 127.999-15.252-4.122 3.445-22.61a7.187 7.187 0 0 0-7.686-8.244l-32.386 2.679a7.17 7.17 0 0 0-6.248 4.95 7.172 7.172 0 0 0-.322 2.78l2.381 29.656a7.18 7.18 0 0 0 6.875 6.599l24.924.982a7.162 7.162 0 0 0 7.38-6.086l.647-4.233 16.242-2.351z" fill="#fff" stroke="#263238" stroke-miterlimit="10"/><path d="M158.903 99.347h-25.258v15.907h25.258V99.347z" fill="#8C8C8C" stroke="#263238" stroke-linecap="round" stroke-linejoin="round"/><path d="M158.903 103.201h-25.258v8.207h25.258v-8.207z" fill="#fff" stroke="#263238" stroke-linecap="round" stroke-linejoin="round"/><path d="M139.516 120.998h.662a.189.189 0 0 1 .074.012.18.18 0 0 1 .112.181v9.91a.173.173 0 0 1-.01.075.165.165 0 0 1-.04.064.166.166 0 0 1-.062.042.173.173 0 0 1-.074.013h-.662a.182.182 0 0 1-.077-.01.166.166 0 0 1-.065-.042.173.173 0 0 1-.052-.142v-4.464a.07.07 0 0 0-.003-.029.063.063 0 0 0-.016-.026.063.063 0 0 0-.026-.016.07.07 0 0 0-.029-.003h-4.658a.077.077 0 0 0-.03.003.067.067 0 0 0-.044.071v4.464a.173.173 0 0 1-.052.142.166.166 0 0 1-.065.042.182.182 0 0 1-.077.01h-.662a.17.17 0 0 1-.186-.194v-9.939a.182.182 0 0 1 .007-.077.17.17 0 0 1 .179-.117h.662a.182.182 0 0 1 .077.01.166.166 0 0 1 .065.042c.019.018.033.04.042.065a.182.182 0 0 1 .01.077v4.397a.07.07 0 0 0 .003.029c.003.01.009.019.016.026a.082.082 0 0 0 .025.016c.01.003.02.004.03.003h4.665c.01.001.02 0 .03-.003a.072.072 0 0 0 .025-.016.054.054 0 0 0 .016-.026.057.057 0 0 0 .004-.029v-4.397a.177.177 0 0 1 .186-.164zM142.849 129.338a6.407 6.407 0 0 1-.201-1.808 6.725 6.725 0 0 1 .186-1.793 3.057 3.057 0 0 1 5.751 0c.154.59.224 1.199.208 1.808a6.408 6.408 0 0 1-.208 1.808 3.04 3.04 0 0 1-2.868 2.041 3.036 3.036 0 0 1-2.868-2.041v-.015zm4.761-.312c.095-.49.135-.99.119-1.488.02-.499-.02-.999-.119-1.488a1.963 1.963 0 0 0-3.787 0 6.456 6.456 0 0 0-.119 1.488c-.019.499.021.998.119 1.488a1.962 1.962 0 0 0 1.894 1.442 1.961 1.961 0 0 0 1.893-1.442zM150.907 131.072v-9.91a.182.182 0 0 1 .01-.077.166.166 0 0 1 .042-.065.177.177 0 0 1 .141-.052h.663a.173.173 0 0 1 .074.013.178.178 0 0 1 .112.181v9.91a.178.178 0 0 1-.05.138.177.177 0 0 1-.062.043.189.189 0 0 1-.074.012h-.663a.177.177 0 0 1-.193-.193zM159.67 126.206v4.895a.173.173 0 0 1-.052.142.173.173 0 0 1-.142.052h-.662a.184.184 0 0 1-.077-.01.182.182 0 0 1-.106-.107.17.17 0 0 1-.01-.077v-.528c0-.059-.045-.089-.09 0a3.102 3.102 0 0 1-2.291.863c-1.25 0-2.426-.602-2.426-2.143 0-1.54 1.116-2.38 3.029-2.38h1.703c.01.001.021 0 .03-.004a.06.06 0 0 0 .026-.016.058.058 0 0 0 .015-.025.063.063 0 0 0 .004-.03v-.632a1.489 1.489 0 0 0-1.719-1.622c-.923 0-1.525.387-1.689 1.004a.183.183 0 0 1-.025.071.172.172 0 0 1-.198.071l-.744-.082c-.112 0-.186-.06-.171-.164.186-1.071 1.28-1.808 2.79-1.808 1.815.03 2.805 1.042 2.805 2.53zm-1.072 2.671v-1.131c.002-.01 0-.02-.003-.03a.067.067 0 0 0-.016-.025.056.056 0 0 0-.025-.016.052.052 0 0 0-.03-.003h-1.54c-1.28 0-2.15.543-2.15 1.488 0 .944.744 1.309 1.622 1.309 1.108.015 2.142-.543 2.142-1.592z" fill="#263238"/><path d="M355.231 166.88h-19.843a15.127 15.127 0 0 0-15.125 15.126v5.587l-9.888-.379 9.918 6.473v4.188a15.131 15.131 0 0 0 15.125 15.133h19.843a15.13 15.13 0 0 0 15.125-15.133v-15.869a15.123 15.123 0 0 0-15.155-15.126z" fill="#fff" stroke="#263238" stroke-miterlimit="10"/><path d="M337.495 195.1h.662a.176.176 0 0 1 .134.052.179.179 0 0 1 .052.134v9.91a.173.173 0 0 1-.01.075.175.175 0 0 1-.102.106.17.17 0 0 1-.074.013h-.662a.173.173 0 0 1-.142-.052.173.173 0 0 1-.052-.142v-4.464c.001-.01 0-.02-.003-.03a.067.067 0 0 0-.016-.025.067.067 0 0 0-.025-.016c-.01-.003-.02-.004-.03-.003h-4.658a.07.07 0 0 0-.029.003.063.063 0 0 0-.026.016.082.082 0 0 0-.016.025.077.077 0 0 0-.003.03v4.464a.173.173 0 0 1-.052.142.177.177 0 0 1-.141.052h-.663a.177.177 0 0 1-.183-.117.184.184 0 0 1-.01-.077v-9.91a.173.173 0 0 1 .013-.074.175.175 0 0 1 .106-.102.17.17 0 0 1 .074-.01h.663a.17.17 0 0 1 .074.01.175.175 0 0 1 .106.102c.01.024.014.049.013.074v4.397c-.001.01 0 .021.003.03.004.01.009.018.016.026a.061.061 0 0 0 .026.015.057.057 0 0 0 .029.004h4.658c.01.001.02 0 .03-.004a.064.064 0 0 0 .025-.015.07.07 0 0 0 .016-.026.075.075 0 0 0 .003-.03v-4.397a.179.179 0 0 1 .194-.186zM345.632 203.507a.18.18 0 0 1 .105-.105.166.166 0 0 1 .076-.009.163.163 0 0 1 .072.025l.424.238c.105.06.149.149.09.246a2.876 2.876 0 0 1-2.731 1.607 2.714 2.714 0 0 1-2.753-1.838 5.732 5.732 0 0 1-.282-2.031 6.724 6.724 0 0 1 .134-1.704 2.782 2.782 0 0 1 2.842-2.105 2.742 2.742 0 0 1 2.939 2.529c.077.492.107.991.089 1.488a.17.17 0 0 1-.194.186h-4.702a.057.057 0 0 0-.029.004.061.061 0 0 0-.026.015.07.07 0 0 0-.016.026c-.003.009-.004.02-.003.03-.012.362.018.724.089 1.079a1.897 1.897 0 0 0 1.994 1.435 2.016 2.016 0 0 0 1.882-1.116zm-3.846-3.385c-.08.329-.12.666-.119 1.005a.07.07 0 0 0 .003.029c.003.01.009.019.016.026a.063.063 0 0 0 .026.016.07.07 0 0 0 .029.003h3.78a.063.063 0 0 0 .027-.006.053.053 0 0 0 .023-.016.072.072 0 0 0 .014-.024c.003-.009.004-.019.003-.028a7.658 7.658 0 0 0-.082-.945 1.837 1.837 0 0 0-1.897-1.436 1.74 1.74 0 0 0-1.823 1.376zM348.706 205.196v-9.91a.189.189 0 0 1 .012-.074.193.193 0 0 1 .042-.063.194.194 0 0 1 .064-.039.175.175 0 0 1 .075-.01h.662a.169.169 0 0 1 .074.01.17.17 0 0 1 .112.176v9.91a.162.162 0 0 1-.007.076.17.17 0 0 1-.179.118h-.662a.177.177 0 0 1-.183-.117.17.17 0 0 1-.01-.077zM352.122 205.196v-9.91a.179.179 0 0 1 .186-.186h.662a.184.184 0 0 1 .139.049.193.193 0 0 1 .042.063.189.189 0 0 1 .012.074v9.91a.184.184 0 0 1-.051.142.182.182 0 0 1-.065.042.184.184 0 0 1-.077.01h-.662a.175.175 0 0 1-.137-.055.178.178 0 0 1-.049-.139zM355.498 203.463a6.34 6.34 0 0 1-.208-1.808 6.681 6.681 0 0 1 .193-1.793 3.062 3.062 0 0 1 2.876-2.018 3.057 3.057 0 0 1 2.875 2.018c.151.59.219 1.199.201 1.808a6.37 6.37 0 0 1-.201 1.808 3.033 3.033 0 0 1-4.628 1.479 3.04 3.04 0 0 1-1.108-1.479v-.015zm4.762-.305c.093-.49.133-.989.119-1.488a6.347 6.347 0 0 0-.119-1.488 1.966 1.966 0 0 0-3.787 0 6.46 6.46 0 0 0-.119 1.488c-.019.499.021.998.119 1.488a1.96 1.96 0 0 0 1.893 1.442 1.961 1.961 0 0 0 1.894-1.442z" fill="#263238"/><path d="M358.058 173.48h-25.259v15.906h25.259V173.48z" fill="#fff" stroke="#263238" stroke-linecap="round" stroke-linejoin="round"/><path d="M358.192 173.48h-25.258v1.54h25.258v-1.54zM358.192 175.89h-25.258v1.54h25.258v-1.54zM358.192 178.293h-25.258v1.54h25.258v-1.54zM358.192 180.704h-25.258v1.54h25.258v-1.54zM358.192 183.114h-25.258v1.54h25.258v-1.54zM358.192 185.525h-25.258v1.54h25.258v-1.54zM358.192 187.936h-25.258v1.54h25.258v-1.54z" fill="#263238"/><path d="M345.045 173.48h-12.246v8.474h12.246v-8.474z" fill="#263238"/><path d="m333.276 174.194.111.238.239.037-.172.186.038.261-.216-.12-.208.12.037-.261-.171-.186.238-.037.104-.238zM333.276 175.764l.111.238.239.037-.172.186.038.26-.216-.126-.208.126.037-.26-.171-.186.238-.037.104-.238zM333.276 177.326l.111.238.239.037-.172.186.038.261-.216-.127-.208.127.037-.261-.171-.186.238-.037.104-.238zM333.276 178.888l.111.239.239.044-.172.179.038.26-.216-.119-.208.119.037-.26-.171-.179.238-.044.104-.239zM333.276 180.458l.111.238.239.038-.172.186.038.26-.216-.126-.208.126.037-.26-.171-.186.238-.038.104-.238zM334.399 175.109l.104.238.238.037-.171.186.037.261-.208-.119-.216.119.037-.261-.171-.186.238-.037.112-.238zM334.399 176.679l.104.238.238.037-.171.186.037.26-.208-.126-.216.126.037-.26-.171-.186.238-.037.112-.238zM334.399 178.241l.104.238.238.037-.171.186.037.261-.208-.119-.216.119.037-.261-.171-.186.238-.037.112-.238zM334.399 179.804l.104.238.238.037-.171.186.037.26-.208-.119-.216.119.037-.26-.171-.186.238-.037.112-.238zM335.516 174.194l.111.238.238.037-.178.186.044.261-.215-.12-.216.12.045-.261-.179-.186.246-.037.104-.238zM335.516 175.764l.111.238.238.037-.178.186.044.26-.215-.126-.216.126.045-.26-.179-.186.246-.037.104-.238zM335.516 177.326l.111.238.238.037-.178.186.044.261-.215-.127-.216.127.045-.261-.179-.186.246-.037.104-.238zM335.516 178.888l.111.239.238.044-.178.179.044.26-.215-.119-.216.119.045-.26-.179-.179.246-.044.104-.239zM335.516 180.458l.111.238.238.038-.178.186.044.26-.215-.126-.216.126.045-.26-.179-.186.246-.038.104-.238zM336.639 175.109l.104.238.238.037-.171.186.037.261-.208-.119-.216.119.037-.261-.171-.186.238-.037.112-.238zM336.639 176.679l.104.238.238.037-.171.186.037.26-.208-.126-.216.126.037-.26-.171-.186.238-.037.112-.238zM336.639 178.241l.104.238.238.037-.171.186.037.261-.208-.119-.216.119.037-.261-.171-.186.238-.037.112-.238zM336.639 179.804l.104.238.238.037-.171.186.037.26-.208-.119-.216.119.037-.26-.171-.186.238-.037.112-.238zM337.754 174.194l.104.238.238.037-.171.186.045.261-.216-.12-.216.12.037-.261-.171-.186.238-.037.112-.238zM337.754 175.764l.104.238.238.037-.171.186.045.26-.216-.126-.216.126.037-.26-.171-.186.238-.037.112-.238zM337.754 177.326l.104.238.238.037-.171.186.045.261-.216-.127-.216.127.037-.261-.171-.186.238-.037.112-.238zM337.754 178.888l.104.239.238.044-.171.179.045.26-.216-.119-.216.119.037-.26-.171-.179.238-.044.112-.239zM337.754 180.458l.104.238.238.038-.171.186.045.26-.216-.126-.216.126.037-.26-.171-.186.238-.038.112-.238zM338.87 175.109l.111.238.238.037-.171.186.037.261-.215-.119-.216.119.044-.261-.171-.186.238-.037.105-.238zM338.87 176.679l.111.238.238.037-.171.186.037.26-.215-.126-.216.126.044-.26-.171-.186.238-.037.105-.238zM338.87 178.241l.111.238.238.037-.171.186.037.261-.215-.119-.216.119.044-.261-.171-.186.238-.037.105-.238zM338.87 179.804l.111.238.238.037-.171.186.037.26-.215-.119-.216.119.044-.26-.171-.186.238-.037.105-.238zM339.994 174.194l.104.238.238.037-.171.186.038.261-.209-.12-.216.12.038-.261-.171-.186.238-.037.111-.238zM339.994 175.764l.104.238.238.037-.171.186.038.26-.209-.126-.216.126.038-.26-.171-.186.238-.037.111-.238zM339.994 177.326l.104.238.238.037-.171.186.038.261-.209-.127-.216.127.038-.261-.171-.186.238-.037.111-.238zM339.994 178.888l.104.239.238.044-.171.179.038.26-.209-.119-.216.119.038-.26-.171-.179.238-.044.111-.239zM339.994 180.458l.104.238.238.038-.171.186.038.26-.209-.126-.216.126.038-.26-.171-.186.238-.038.111-.238zM341.109 175.109l.105.238.245.037-.178.186.044.261-.216-.119-.215.119.044-.261-.178-.186.245-.037.104-.238zM341.109 176.679l.105.238.245.037-.178.186.044.26-.216-.126-.215.126.044-.26-.178-.186.245-.037.104-.238zM341.109 178.241l.105.238.245.037-.178.186.044.261-.216-.119-.215.119.044-.261-.178-.186.245-.037.104-.238zM341.109 179.804l.105.238.245.037-.178.186.044.26-.216-.119-.215.119.044-.26-.178-.186.245-.037.104-.238zM342.225 174.194l.112.238.238.037-.171.186.037.261-.216-.12-.208.12.037-.261-.171-.186.238-.037.104-.238zM342.225 175.764l.112.238.238.037-.171.186.037.26-.216-.126-.208.126.037-.26-.171-.186.238-.037.104-.238zM342.225 177.326l.112.238.238.037-.171.186.037.261-.216-.127-.208.127.037-.261-.171-.186.238-.037.104-.238zM342.225 178.888l.112.239.238.044-.171.179.037.26-.216-.119-.208.119.037-.26-.171-.179.238-.044.104-.239zM342.225 180.458l.112.238.238.038-.171.186.037.26-.216-.126-.208.126.037-.26-.171-.186.238-.038.104-.238zM343.35 175.109l.104.238.238.037-.171.186.044.261-.215-.119-.216.119.037-.261-.171-.186.238-.037.112-.238zM343.35 176.679l.104.238.238.037-.171.186.044.26-.215-.126-.216.126.037-.26-.171-.186.238-.037.112-.238zM343.35 178.241l.104.238.238.037-.171.186.044.261-.215-.119-.216.119.037-.261-.171-.186.238-.037.112-.238zM343.35 179.804l.104.238.238.037-.171.186.044.26-.215-.119-.216.119.037-.26-.171-.186.238-.037.112-.238zM344.465 174.194l.112.238.238.037-.171.186.037.261-.216-.12-.215.12.044-.261-.171-.186.238-.037.104-.238zM344.465 175.764l.112.238.238.037-.171.186.037.26-.216-.126-.215.126.044-.26-.171-.186.238-.037.104-.238zM344.465 177.326l.112.238.238.037-.171.186.037.261-.216-.127-.215.127.044-.261-.171-.186.238-.037.104-.238zM344.465 178.888l.112.239.238.044-.171.179.037.26-.216-.119-.215.119.044-.26-.171-.179.238-.044.104-.239zM344.465 180.458l.112.238.238.038-.171.186.037.26-.216-.126-.215.126.044-.26-.171-.186.238-.038.104-.238z" fill="#fff"/><path d="M168.197 189.885h-13.043a25.51 25.51 0 0 0-49.498 11.749 25.512 25.512 0 0 0 50.711-4.064v-.573l11.83-7.112z" fill="#fff" stroke="#263238" stroke-miterlimit="10"/><path d="M118.49 206.074c-.46.805-.979 1.573-1.555 2.299a7.432 7.432 0 0 0-.632-.796 22.033 22.033 0 0 0 3.541-7.157l1.22.364c-.059.149-.186.179-.349.164a32.024 32.024 0 0 1-1.399 3.482l.424.119c0 .089-.097.164-.29.171v9.352h-.96v-7.998zm10.066.357a42.7 42.7 0 0 0 .395-2.165h-2.924v8.586c0 1.057-.38 1.25-2.441 1.25a3.926 3.926 0 0 0-.364-1.012h1.585c.193 0 .253-.059.253-.253v-8.571h-2.366a12.998 12.998 0 0 1-1.488 2.783 4.034 4.034 0 0 0-.744-.603 15.913 15.913 0 0 0 2.425-5.989l1.22.327c0 .105-.126.164-.32.149a22.763 22.763 0 0 1-.744 2.411h7.016a25.568 25.568 0 0 1-.662 3.229l-.841-.142zm-4.702.484c-.044.104-.148.164-.327.164a14.438 14.438 0 0 1-2.232 4.91 4.699 4.699 0 0 0-.781-.506 13.348 13.348 0 0 0 2.15-4.925l1.19.357zm5.335 4.955a20.422 20.422 0 0 0-2.016-5.074l.87-.305a19.672 19.672 0 0 1 2.091 5.022l-.945.357zM136.219 203.493l.558.141-.089.208a19.217 19.217 0 0 1-1.414 6.324 10.412 10.412 0 0 1 1.749 1.6l-.603.811a9.985 9.985 0 0 0-1.57-1.533 7.956 7.956 0 0 1-2.909 3.073 4.515 4.515 0 0 0-.618-.811 6.951 6.951 0 0 0 2.761-2.864 19.25 19.25 0 0 0-1.674-1.131l-.179.647-.841-.439c.372-1.295.826-3.162 1.25-5.059h-1.488v-.93h1.674c.238-1.101.439-2.158.618-3.103l1.205.149c0 .104-.104.164-.29.179-.164.84-.372 1.793-.588 2.775h2.232l.216-.037zm-2.649.967a142.221 142.221 0 0 1-.959 3.95c.617.343 1.25.744 1.867 1.168a17.268 17.268 0 0 0 1.22-5.118h-2.128zm11.22 2.529v.953h-3.549v4.865c0 1.131-.439 1.31-3.043 1.28a4.999 4.999 0 0 0-.365-.982h1.764c.498 0 .647 0 .647-.312v-4.881h-3.601v-.952h3.601v-2.5h.484a14.93 14.93 0 0 0 2.18-2.396h-5.662v-.93h6.406l.193-.059.781.491a.48.48 0 0 1-.238.141 18.455 18.455 0 0 1-3.147 3.4v1.823l3.549.059z" fill="#263238"/><path d="M143.532 179.923h-25.259v15.906h25.259v-15.906z" fill="#263238" stroke="#263238" stroke-linecap="round" stroke-linejoin="round"/><path d="m121.259 180.86.617 1.243 1.362.193-.99.967.238 1.354-1.227-.64-1.22.64.238-1.354-.99-.967 1.362-.193.61-1.243zM125.222 180.376l.32.64.7.104-.506.492.119.699-.633-.327-.625.327.119-.699-.513-.492.707-.104.312-.64zM126.08 183.605l.312.64.707.097-.513.498.119.7-.625-.328-.633.328.119-.7-.505-.498.699-.097.32-.64zM123.98 185.718l.313.633.706.104-.505.498.119.7-.633-.335-.625.335.119-.7-.513-.498.707-.104.312-.633zM121.072 186.686l.312.632.707.104-.506.499.119.699-.632-.327-.625.327.119-.699-.513-.499.707-.104.312-.632z" fill="#fff"/><path d="M272.788 129.539a30.857 30.857 0 0 0-19.051-28.512 30.863 30.863 0 0 0-11.81-2.35h-10.744a30.861 30.861 0 0 0-30.861 30.862" stroke="#263238" stroke-width="3" stroke-linecap="round" stroke-linejoin="round"/><path d="M272.789 152.395v-22.856M200.322 129.539v22.856" stroke="#263238" stroke-width="6" stroke-linecap="round" stroke-linejoin="round"/><path d="M222.486 186.686s1.927 13.459 1.541 16.918c-.387 3.46-1.154 6.919-10.766 3.073-9.613-3.847-26.911 3.08-38.063 16.532-11.153 13.451-32.29 58.441-32.29 63.82 0 5.379 4.226 12.648 11.904 13.838 7.678 1.191 25.757-20.757 25.757-20.757s7.686 43.442 7.686 46.872c0 3.43-3.445 26.144-3.445 26.144h108.803l-4.234-28.064 7.693-61.901s31.911 43.443 38.83 45.384c6.919 1.942 17.685-1.54 20.378-9.612 2.693-8.073-1.54-16.532-6.927-22.685-5.386-6.153-39.208-60.36-45.384-65.353-6.175-4.992-23.451-5.386-29.603-3.846-6.153 1.54-16.532 3.846-19.225 2.306-2.694-1.54-2.686-16.144 0-22.684.022.015-23.429 6.167-32.655.015z" fill="#92E3A9" stroke="#263238" stroke-linecap="round" stroke-linejoin="round"/><path d="M207.457 303.747c1.24.478 2.504.893 3.787 1.242M187.615 279.083s1.711 14.939 15.788 22.766M231.4 235.328l7.485 10.937M305.412 245.782l1.979-4.122M302.206 240.507l-5.134 22.684 6.309-13.161M325.256 281.382s8.124-5.208 16.122-5.208" stroke="#263238" stroke-linecap="round" stroke-linejoin="round"/><path d="M308.723 296.984a110.934 110.934 0 0 0 14.723-9.538 32.945 32.945 0 0 1 23.436-6.637c7.671.826 11.823 10.364 12.023 19.909.201 9.546-4.977 15.342-14.307 16.793-9.329 1.45-20.326-.618-27.163-2.277a90.264 90.264 0 0 0-10.996-2.076s-8.914-13.689 2.284-16.174z" fill="#fff" stroke="#263238" stroke-linecap="round" stroke-linejoin="round"/><path d="M358.907 300.718c-.201-9.545-4.353-19.083-12.023-19.909a32.944 32.944 0 0 0-23.436 6.637l-1.042.796c8.928.305 26.978 3.95 24.15 28.882 8.095-1.942 12.544-7.559 12.351-16.406z" fill="#92E3A9" stroke="#263238" stroke-linecap="round" stroke-linejoin="round"/><path d="M222.487 186.686s1.927 13.459 1.54 16.918c-.29 2.597-.796 5.208-5.082 4.702 6.131 10.022 23.935 33.547 40.548 1.488-1.934.119-3.496 0-4.33-.461-2.686-1.54-2.686-16.145 0-22.685 0 .038-23.451 6.19-32.676.038z" fill="#fff" stroke="#263238" stroke-linecap="round" stroke-linejoin="round"/><path d="M222.486 186.686s.499 3.496.938 7.38a34.063 34.063 0 0 0 14.433 3.928 27.873 27.873 0 0 0 15.706-4.545 27.823 27.823 0 0 1 1.6-6.763s-23.451 6.152-32.677 0zM201.357 140.156h-2.121a4.716 4.716 0 0 0-4.716 4.717v18.049a4.716 4.716 0 0 0 4.716 4.717h2.121a4.717 4.717 0 0 0 4.717-4.717v-18.049a4.717 4.717 0 0 0-4.717-4.717z" fill="#263238" stroke="#263238" stroke-linecap="round" stroke-linejoin="round"/><path d="M201.475 140.178h-2.366v27.439h2.366v-27.439z" fill="#fff" stroke="#263238" stroke-linecap="round" stroke-linejoin="round"/><path d="M274.06 140.156h-2.12a4.717 4.717 0 0 0-4.717 4.717v18.049a4.717 4.717 0 0 0 4.717 4.717h2.12a4.717 4.717 0 0 0 4.717-4.717v-18.049a4.717 4.717 0 0 0-4.717-4.717z" fill="#263238" stroke="#263238" stroke-linecap="round" stroke-linejoin="round"/><path d="M274.186 140.178h-2.366v27.439h2.366v-27.439zM182.132 161.858a5.43 5.43 0 0 0-4.308 2.872c-1.726 2.872-7.179 13.496-6.606 16.658.572 3.162 24.41 25.557 24.41 26.993s-18.95 27.282-31.59 38.77c-12.641 11.487-22.685 24.403-24.411 34.744-1.726 10.342 4.308 18.95 10.632 20.676 6.324 1.726 14.069-2.009 22.967-13.213 8.899-11.205 33.317-60.019 37.052-76.632 0 0 .855-7.44-2.59-11.778-3.444-4.337-12.06-14.359-12.06-14.359s1.726-19.813.29-21.249-2.872 1.726-2.872 1.726-1.331-6.644-3.162-6.324c-2.001.357-2.581 2.872-2.581 2.872s-1.436-5.781-5.171-1.756z" fill="#fff" stroke="#263238" stroke-linecap="round" stroke-linejoin="round"/><path d="M193.046 167.029s-4.121 16.495-3.72 19.277M187.302 163.577s-4.367 16.041-4.925 18.273a5.5 5.5 0 0 0 .699 4.322M182.133 161.858s-6.168 17.202-6.168 19.017c0 1.815 1.399 4.04 1.399 4.04" stroke="#263238" stroke-linecap="round" stroke-linejoin="round"/><path d="M176.641 233.736a151.184 151.184 0 0 1-12.603 13.392c-12.648 11.48-22.685 24.403-24.411 34.745-1.726 10.342 4.308 18.95 10.632 20.676 6.324 1.726 14.069-2.009 22.967-13.214 5.126-6.443 15.379-25.34 23.875-43.397-12.945-3.438-18.287-8.794-20.46-12.202z" fill="#92E3A9" stroke="#263238" stroke-linecap="round" stroke-linejoin="round"/><path d="M205.821 125.916s-.498 39.975 1.005 47.474c1.503 7.5 14.991 20.237 30.504 20.736 15.512.498 27.736-13.742 29.232-21.242 1.495-7.499 0-37.475-.246-49.468-.245-11.993-17.491-22.737-34.968-19.991-17.476 2.745-26.523 12.99-25.527 22.491z" fill="#fff" stroke="#263238" stroke-linecap="round" stroke-linejoin="round"/><path d="M243.803 142.157s.997 6.994 2.001 8.489c1.005 1.496 2.746 3.504-.744 5-3.489 1.495-6.249-.253-6.249-2.001" stroke="#263238" stroke-linecap="round" stroke-linejoin="round"/><path d="M247.551 166.888s-13.496 1.726-19.492-4.226c0 0 1.488 9.248 5.996 10.751 4.509 1.503 13.496-6.525 13.496-6.525z" fill="#fff" stroke="#263238" stroke-linecap="round" stroke-linejoin="round"/><path d="m230.061 142.403 1.249 3.995" stroke="#263238" stroke-linecap="round" stroke-linejoin="round"/><path d="M224.562 146.152s3.497 2.232 9.992.246" stroke="#263238" stroke-width="2" stroke-linecap="round" stroke-linejoin="round"/><path d="m254.545 142.403 1.25 3.995" stroke="#263238" stroke-linecap="round" stroke-linejoin="round"/><path d="M249.047 146.152s3.497 2.232 9.999.246M222.814 135.409a13.108 13.108 0 0 1 10.491-5.245M246.801 129.658s7.246-1.994 12.246 3.72" stroke="#263238" stroke-width="2" stroke-linecap="round" stroke-linejoin="round"/><path d="M237.464 140.342a6.9 6.9 0 0 1-.09 7.127l-.141.224a11.629 11.629 0 0 1-9.873 5.483h-1.562a9.076 9.076 0 0 1-7.842-4.516 7.53 7.53 0 0 1-.432-6.696 7.515 7.515 0 0 1 6.458-4.591l7.113-.446a6.886 6.886 0 0 1 6.369 3.415zM245.648 140.342a6.9 6.9 0 0 0 .089 7.127l.142.224a11.621 11.621 0 0 0 9.873 5.483h1.562a9.07 9.07 0 0 0 7.842-4.516 7.512 7.512 0 0 0 .431-6.696 7.515 7.515 0 0 0-6.458-4.591l-7.105-.446a6.898 6.898 0 0 0-6.376 3.415zM238.305 141.651s2.232-1.748 6.495 0M235.307 137.909h12.246M217.509 141.956H205.82" stroke="#263238" stroke-linecap="round" stroke-linejoin="round"/><path d="M250.551 115.418s6.473 20.787 16.301 26.159c-.216-7.128-.469-13.824-.558-18.161-.253-11.993-17.491-22.737-34.968-19.991-17.477 2.745-26.486 12.99-25.489 22.491 0 0-.082 6.525-.075 14.805 8.437-3.638 30.653-13.771 44.789-25.303z" fill="#263238"/><mask id="b" style="mask-type:luminance" maskUnits="userSpaceOnUse" x="205" y="102" width="62" height="40"><path d="M250.551 115.418s6.473 20.787 16.301 26.159c-.216-7.128-.469-13.824-.558-18.161-.253-11.993-17.491-22.737-34.968-19.991-17.477 2.745-26.486 12.99-25.489 22.491 0 0-.082 6.525-.075 14.805 8.437-3.638 30.653-13.771 44.789-25.303z" fill="#fff"/></mask><g mask="url(#b)" stroke="#737373" stroke-linecap="round" stroke-linejoin="round"><path d="M204.088 135.26s32.773-13.741 50.488-31.188M201.439 124.16s34.366-7.931 54.193-28.815M256.949 106.445s.528 13.481 14.806 25.906"/></g><path d="M253.228 190.331s0 9.062-6.793 23.503c-6.792 14.441-7.083 28.882-2.552 39.641 4.531 10.758 16.711 15.013 29.76 10.2 13.05-4.814 14.724-26.338 13.311-39.365-1.414-13.028-14.136-28.317-16.993-35.965-2.857-7.649-4.814-11.607-4.814-11.607s-7.366 10.193-11.904 12.455l-.015 1.138z" fill="#263238"/><mask id="c" style="mask-type:luminance" maskUnits="userSpaceOnUse" x="240" y="176" width="48" height="90"><path d="M253.228 190.331s0 9.062-6.793 23.503c-6.792 14.441-7.083 28.882-2.552 39.641 4.531 10.758 16.711 15.013 29.76 10.2 13.05-4.814 14.724-26.338 13.311-39.365-1.414-13.028-14.136-28.317-16.993-35.965-2.857-7.649-4.814-11.607-4.814-11.607s-7.366 10.193-11.904 12.455l-.015 1.138z" fill="#fff"/></mask><g mask="url(#c)" stroke="#737373" stroke-linecap="round" stroke-linejoin="round"><path d="M258.004 180.198a71.136 71.136 0 0 1-4.755 36.456c-7.931 19.031-1.852 39.387 7.403 43.613 9.256 4.226 18.236 2.649 22.729-3.169"/><path d="M261.441 175.972s8.988 21.144 5.29 37.007c-3.697 15.862-2.113 35.987 8.988 39.915 11.1 3.928 17.447-3.928 17.447-3.928"/><path d="M272.281 189.714s7.663 29.075 7.663 44.141c0 15.066 9.256 12.693 11.637 5.29"/></g><path d="M253.228 190.331s0 9.062-6.793 23.503c-6.792 14.441-7.083 28.882-2.552 39.641 4.531 10.758 16.711 15.013 29.76 10.2 13.05-4.814 14.724-26.338 13.311-39.365-1.414-13.028-14.136-28.317-16.993-35.965-2.857-7.649-4.814-11.607-4.814-11.607s-7.366 10.193-11.904 12.455l-.015 1.138z" stroke="#263238" stroke-linecap="round" stroke-linejoin="round"/><path d="m288.174 270.488-48.306-1.949a3.862 3.862 0 0 0-4.014 3.703l-2.69 66.697a3.86 3.86 0 0 0 3.702 4.014l48.306 1.949a3.862 3.862 0 0 0 4.014-3.703l2.69-66.697a3.86 3.86 0 0 0-3.702-4.014z" fill="#263238" stroke="#263238" stroke-linecap="round" stroke-linejoin="round"/><path d="M312.786 297.467s-24.731-7.693-28.949-8.987c-4.218-1.295-28.518 16.851-29.485 19.44-.967 2.59 2.589 2.597 2.589 2.597s-1.488 2.589.744 3.884c.704.474 1.452.88 2.232 1.212 0 0-1.294 2.917 1.295 3.891 2.589.975 6.16-1.621 6.16-1.621l5.833-4.211s-7.008 8.578-5.513 10.371c2.061 2.455 3.378-.179 3.378-.179l8.057-9.545 8.095-3.891s6.48 3.891 16.852 4.211c10.371.32 12.648-4.211 12.648-4.211" fill="#fff"/><path d="M312.786 297.467s-24.731-7.693-28.949-8.987c-4.218-1.295-28.518 16.851-29.485 19.44-.967 2.59 2.589 2.597 2.589 2.597s-1.488 2.589.744 3.884c.704.474 1.452.88 2.232 1.212 0 0-1.294 2.917 1.295 3.891 2.589.975 6.16-1.621 6.16-1.621l5.833-4.211s-7.008 8.578-5.513 10.371c2.061 2.455 3.378-.179 3.378-.179l8.057-9.545 8.095-3.891s6.48 3.891 16.852 4.211c10.371.32 12.648-4.211 12.648-4.211" stroke="#263238" stroke-linecap="round" stroke-linejoin="round"/><path d="M259.969 315.613s9.084-6.234 11.346-8.489c2.262-2.254 9.59-6.964 11.852-6.964M273.258 313.694s4.464-5.044 6.145-5.796c1.682-.751 4.137-1.882 4.137-1.882M256.941 310.517s12.648-8.928 16.978-11.554a61.092 61.092 0 0 1 8.088-4.144" stroke="#263238" stroke-linecap="round" stroke-linejoin="round"/></g><defs><clipPath id="a"><path fill="#fff" d="M0 0h393v353H0z"/></clipPath></defs></svg>